<svg width="408" height="433" viewBox="0 0 408 433" fill="none" xmlns="http://www.w3.org/2000/svg">
<path d="M99.6532 129.051C90.7256 131.443 81.5492 126.145 79.157 117.217C76.7649 108.29 82.0629 99.1131 90.9905 96.721C99.9181 94.3289 109.094 99.6269 111.487 108.554C113.879 117.482 108.581 126.658 99.6532 129.051Z" fill="#27AAE1"/>
<path d="M99.2825 96.8693C99.3083 96.7881 99.3279 96.7091 99.3412 96.6327C99.5259 96.6784 99.7092 96.7273 99.8918 96.7791C99.674 96.7782 99.4549 96.8005 99.2825 96.8693Z" fill="#27AAE1"/>
<path d="M99.0101 97.0845C98.9254 97.2313 98.7072 97.535 98.4354 97.8991C97.8199 98.4256 96.8902 99.2005 96.2235 99.6614C95.1426 100.409 91.3741 100.686 91.3741 100.686C91.3741 100.686 89.1452 103.297 88.6286 104.441C88.1121 105.586 84.9269 103.603 85.0626 102.743C85.1983 101.883 83.2848 101.573 83.2848 101.573L83.1858 101.355C85.2389 99.1881 87.8962 97.5425 90.9912 96.7132C93.8249 95.9539 96.6829 95.972 99.3419 96.6323C99.3284 96.7085 99.3091 96.7872 99.2833 96.8682C99.1643 96.9159 99.0676 96.985 99.0101 97.0845Z" fill="#E6E6E6"/>
<path d="M95.297 128.643C96.486 127.958 96.8777 127.03 98.3748 126.812C99.8719 126.593 101.228 126.871 102.485 126.442C103.743 126.014 105.245 124.788 105.245 124.788L105.621 125.51L106.455 125.374C104.566 127.06 102.268 128.344 99.6552 129.044C97.2096 129.699 94.7461 129.774 92.4076 129.359C93.4555 129.222 94.6844 128.996 95.297 128.643Z" fill="#E6E6E6"/>
<path d="M110.402 115.352C109.603 113.736 109.924 111.179 108.92 113.919C107.915 116.658 105.688 115.517 105.886 114.549C106.084 113.58 106.351 112.868 106.287 111.605C106.223 110.341 105.777 109.362 105.355 108.469C104.933 107.575 103.561 107.577 102.582 108.022C101.603 108.468 102.151 109.144 101.39 111.087C100.629 113.029 100.411 111.532 99.8929 111.305C99.3746 111.078 99.6124 109.916 99.4858 108.761C99.3593 107.605 100.719 106.875 100.792 106.123C100.866 105.372 99.4854 103.637 97.9867 102.483C96.4881 101.329 96.578 100.298 96.578 100.298C96.578 100.298 97.7044 98.8782 98.4362 97.8987C98.8182 97.5718 99.0795 97.3401 99.0795 97.3401C99.1719 97.1733 99.2365 97.0171 99.2839 96.8678C99.4558 96.7991 99.6741 96.7768 99.8917 96.7777C105.366 98.3369 109.907 102.648 111.488 108.546C112.207 111.23 112.227 113.934 111.666 116.472C111.156 116.263 110.679 115.913 110.402 115.352Z" fill="#006838"/>
<path d="M99.2832 96.8672C99.2356 97.0165 99.1712 97.1726 99.0788 97.3395C99.0788 97.3395 98.8174 97.571 98.4355 97.8981C98.7076 97.5339 98.9255 97.2302 99.0102 97.0835C99.0677 96.9839 99.1644 96.9148 99.2832 96.8672Z" fill="#006838"/>
<path d="M82.7425 101.841C83.2658 101.9 83.7694 102.093 84.0934 102.546C84.9718 103.775 84.8275 106.65 87.0135 106.614C89.6409 106.569 92.4041 105.901 92.4041 105.901C92.4041 105.901 93.7111 108.387 92.2489 109.42C90.7867 110.452 89.3736 109.275 88.6237 110.574C87.8737 111.873 86.5139 112.604 87.5399 113.701C88.5659 114.799 90.519 114.916 88.3847 115.488C86.2505 116.06 85.3113 116.311 84.9453 114.945C84.5793 113.579 83.7726 110.227 82.666 113.268C81.5593 116.31 81.3964 118.092 80.686 119.198C80.5258 119.447 80.3538 119.723 80.1748 119.989C79.7626 119.108 79.4172 118.182 79.1568 117.21C77.6548 111.605 79.1861 105.902 82.7425 101.841Z" fill="#006838"/>
<path d="M92.0133 104.458C92.8712 104.228 95.2785 102.302 94.527 102.229C93.7755 102.156 91.5145 101.572 91.3392 102.626C91.164 103.679 90.3059 104.916 92.0133 104.458Z" fill="#E6E7E8"/>
<path d="M83.9642 125.174C84.4872 124.694 84.952 124.283 85.0586 124.255C85.0586 124.255 88.1958 124.695 88.9186 124.319C89.6415 123.942 90.0822 125.928 90.0822 125.928C90.0822 125.928 89.0837 123.909 89.1097 126.738C89.1149 127.31 89.0488 127.854 88.9271 128.348C87.1024 127.592 85.4204 126.517 83.9642 125.174Z" fill="#006838"/>
<path d="M87.1574 122.869C87.5842 122.755 89.871 121.044 89.871 121.044L90.6712 118.908C90.6712 118.908 90.3964 117.884 91.1573 115.941C91.9181 113.999 91.7378 110.936 91.3936 113.407C91.0491 115.879 90.1011 118.146 89.8679 118.3C89.6347 118.454 87.8023 119.128 87.8023 119.128C87.8023 119.128 86.2381 120.462 86.3127 121.082C86.3876 121.703 86.7474 122.704 86.7474 122.704L87.1574 122.869Z" fill="#006838"/>
<path d="M90.7568 113.762C90.4365 112.566 89.2519 112.243 89.2519 112.243L88.9288 113.428C88.9288 113.428 89.4593 114.383 89.8237 114.377C90.1883 114.372 90.7568 113.762 90.7568 113.762Z" fill="#006838"/>
<path d="M101.759 116.578C101.759 116.578 102.779 117.312 103.622 117.726C104.465 118.141 105.371 118.447 106.708 117.631C108.044 116.816 108.215 116.77 108.353 117.282C108.49 117.794 108.115 118.444 108.673 118.477C109.231 118.511 110.682 118.122 110.682 118.122C110.682 118.122 109.898 119.979 107.958 120.591C106.018 121.202 104.777 121.351 103.694 120.727C102.611 120.102 101.08 119.506 100.805 118.481C100.53 117.457 100.07 118.129 100.381 116.216C100.692 114.302 98.806 113.069 98.7373 112.813C98.6687 112.557 99.2661 112.397 100.326 112.936C101.385 113.476 101.785 114.284 101.899 114.711C102.013 115.137 101.759 116.578 101.759 116.578Z" fill="#006838"/>
<path d="M103.403 116.23C102.793 115.661 102.273 117.814 102.336 113.953C102.399 110.093 102.087 110.635 102.399 110.093C102.712 109.552 104.093 107.535 104.528 109.157C104.963 110.779 104.321 112.141 104.35 112.59C104.379 113.04 104.239 114.907 104.399 115.505C104.559 116.103 103.403 116.23 103.403 116.23Z" fill="#006838"/>
<path d="M115.499 113.903C118.489 109.35 114.379 109.72 114.379 109.72C114.379 109.72 115.165 110.607 114.853 111.148C114.54 111.689 113.081 110.342 113.083 111.714C113.084 113.086 113.165 114.071 112.614 114.402C112.062 114.732 111.31 114.659 110.457 114.888C109.603 115.117 109.205 115.681 108.898 116.587C108.592 117.492 107.751 118.45 106.999 118.377C106.247 118.304 104.994 117.725 104.796 118.693C104.598 119.661 104.285 120.202 104.035 120.635C103.786 121.068 103.08 121.166 102.59 121.388C102.101 121.611 101.59 123.12 101.038 123.451C103.708 122.827 112.51 118.456 115.499 113.903Z" fill="#E6E6E6"/>
<path d="M77.0432 111.763C77.0432 111.763 79.4381 110.115 80.2996 111.622C81.161 113.13 82.1582 113.778 82.1582 113.778C82.1582 113.778 83.8534 112.592 84.8567 113.604C85.8601 114.616 88.1774 114.727 88.8145 114.373C89.4517 114.02 87.421 115.662 86.1404 116.005C84.8599 116.348 83.6066 115.769 82.6508 116.299C81.695 116.83 80.1308 118.164 79.1672 116.958C78.2036 115.753 77.3957 116.152 76.8817 114.917C76.368 113.682 76.0249 112.402 77.0432 111.763Z" fill="#E6E6E6"/>
<path d="M106.345 96.7057C106.345 96.7057 102.358 95.4863 101.847 96.9956C101.336 98.5049 101.561 100.366 101.048 100.504C100.536 100.641 99.4599 100.38 99.4784 101.474C99.4968 102.567 98.0975 103.491 97.5623 103.542C97.027 103.594 97.1229 102.928 95.8151 104.194C94.5074 105.459 93.2097 106.081 92.481 106.094C91.7524 106.106 89.1102 105.807 90.7279 106.38C92.3456 106.954 94.2526 106.9 94.2526 106.9C94.2526 106.9 95.457 104.564 97.3868 104.596C99.3167 104.628 100.508 105.316 101.389 104.164C102.27 103.013 101.416 103.242 102.616 101.914C103.815 100.586 104.197 100.301 105.204 100.305C106.212 100.31 106.957 100.018 107.349 99.0899C107.741 98.1615 107.09 96.4145 106.345 96.7057Z" fill="#E6E6E6"/>
<path d="M80.2506 122.706C80.2506 122.706 81.3754 120.757 83.2675 122.355C85.1597 123.952 85.4784 123.775 86.7589 123.432C88.0395 123.089 88.7164 122.542 89.9238 122.95C91.1313 123.359 93.3511 122.764 93.3511 122.764C93.3511 122.764 91.3372 124.127 89.2654 124.591C87.1936 125.054 87.0563 124.542 84.9449 125.199C82.8336 125.856 82.3608 125.8 81.6033 125.363C80.8455 124.925 79.6546 124.238 79.5174 123.725C79.38 123.213 80.2506 122.706 80.2506 122.706Z" fill="#E6E6E6"/>
<path d="M332.254 309.032C332.329 314.958 337.195 319.702 343.121 319.627C349.047 319.551 353.791 314.686 353.716 308.76C353.641 302.833 348.775 298.09 342.849 298.165C336.923 298.24 332.179 303.105 332.254 309.032Z" fill="#662D91"/>
<path d="M146.753 413.07C146.781 415.283 148.598 417.054 150.811 417.026C153.024 416.998 154.795 415.182 154.767 412.969C154.739 410.756 152.923 408.985 150.71 409.012C148.497 409.04 146.725 410.857 146.753 413.07Z" fill="#1C75BC"/>
<path d="M324.549 308.811C324.527 307.044 327.987 305.451 333.2 304.514C333.194 304.538 333.191 304.562 333.188 304.587C330.096 305.47 328.149 306.735 328.167 308.119C328.199 310.663 334.854 312.642 343.03 312.539C351.207 312.436 357.81 310.289 357.777 307.744C357.76 306.365 355.794 305.153 352.698 304.348C352.694 304.323 352.69 304.297 352.684 304.273C357.902 305.078 361.389 306.58 361.412 308.345C361.446 311.068 353.222 313.381 343.043 313.51C332.864 313.638 324.584 311.535 324.549 308.811Z" fill="#27AAE1"/>
<path d="M90.9393 191.682L91.3159 193.11L90.3532 194.23L91.8278 194.313L92.5955 195.575L93.1299 194.198L94.5672 193.858L93.4231 192.924L93.5436 191.452L92.3019 192.252L90.9393 191.682Z" fill="#27AAE1"/>
<path d="M339.516 337.265L339.223 338.237L338.257 338.546L339.09 339.125L339.086 340.14L339.894 339.526L340.858 339.844L340.524 338.886L341.124 338.067L340.109 338.089L339.516 337.265Z" fill="#27AAE1"/>
<path d="M135.926 52.7334L136.546 53.5367L136.236 54.5029L137.192 54.1615L138.014 54.7553L137.985 53.7407L138.804 53.1414L137.83 52.8562L137.513 51.8923L136.941 52.7299L135.926 52.7334Z" fill="#27AAE1"/>
<path d="M171.988 330.86L171.618 331.805L170.63 332.036L171.414 332.68L171.328 333.691L172.183 333.144L173.118 333.538L172.862 332.556L173.526 331.789L172.513 331.729L171.988 330.86Z" fill="#27AAE1"/>
<path d="M37.5612 95.9775L37.1911 96.9223L36.2031 97.1529L36.9876 97.7969L36.9012 98.8081L37.7562 98.2611L38.6916 98.655L38.4351 97.6732L39.0988 96.9058L38.0863 96.8457L37.5612 95.9775Z" fill="#27AAE1"/>
<path d="M332.363 73.5458L331.993 74.4909L331.005 74.7215L331.789 75.3653L331.703 76.3767L332.558 75.8297L333.493 76.2234L333.237 75.2418L333.901 74.4742L332.888 74.4143L332.363 73.5458Z" fill="#27AAE1"/>
<path d="M333.069 96.342L332.418 96.5407L331.886 96.1177L331.874 96.7981L331.307 97.1735L331.95 97.3952L332.132 98.0505L332.542 97.5073L333.221 97.5364L332.831 96.9795L333.069 96.342Z" fill="#27AAE1"/>
<path d="M325.458 68.1504L324.807 68.3493L324.274 67.9263L324.262 68.6065L323.695 68.9821L324.339 69.204L324.521 69.8594L324.93 69.3156L325.61 69.345L325.22 68.7878L325.458 68.1504Z" fill="#27AAE1"/>
<path d="M145.446 126.731L146.363 126.297L147.241 126.806L147.111 125.8L147.867 125.123L146.87 124.935L146.459 124.007L145.973 124.897L144.963 125.001L145.659 125.739L145.446 126.731Z" fill="#27AAE1"/>
<path d="M188.388 37.0027L189.306 36.5685L190.183 37.0779L190.053 36.0714L190.81 35.3942L189.812 35.2062L189.402 34.2783L188.915 35.1687L187.906 35.2727L188.602 36.0105L188.388 37.0027Z" fill="#27AAE1"/>
<path d="M160.562 109.652L161.172 109.954L161.269 110.627L161.744 110.14L162.415 110.255L162.099 109.652L162.415 109.05L161.744 109.165L161.27 108.678L161.172 109.351L160.562 109.652Z" fill="#27AAE1"/>
<path d="M146.773 135.393L147.383 135.694L147.481 136.367L147.956 135.88L148.626 135.995L148.31 135.393L148.627 134.79L147.956 134.906L147.482 134.419L147.383 135.091L146.773 135.393Z" fill="#27AAE1"/>
<path d="M37.1564 154.928L37.7662 155.229L37.8639 155.902L38.3388 155.415L39.0093 155.531L38.6931 154.928L39.0096 154.326L38.3389 154.441L37.8643 153.954L37.7664 154.627L37.1564 154.928Z" fill="#27AAE1"/>
<path d="M178.969 330.104L178.318 330.303L177.786 329.879L177.774 330.56L177.207 330.935L177.85 331.157L178.033 331.812L178.442 331.269L179.121 331.298L178.732 330.741L178.969 330.104Z" fill="#27AAE1"/>
<path d="M209.363 317.858L208.712 318.056L208.18 317.633L208.168 318.314L207.601 318.689L208.244 318.911L208.426 319.566L208.835 319.023L209.515 319.052L209.125 318.495L209.363 317.858Z" fill="#27AAE1"/>
<path d="M312.175 290.346L311.525 290.545L310.992 290.122L310.98 290.802L310.413 291.177L311.056 291.399L311.239 292.055L311.648 291.511L312.327 291.54L311.938 290.983L312.175 290.346Z" fill="#27AAE1"/>
<path d="M341.976 257.25L341.325 257.449L340.793 257.026L340.781 257.706L340.214 258.082L340.857 258.304L341.04 258.959L341.449 258.415L342.128 258.445L341.738 257.888L341.976 257.25Z" fill="#27AAE1"/>
<path d="M53.7603 204.914L53.1095 205.113L52.5773 204.69L52.5652 205.37L51.998 205.746L52.6412 205.968L52.8241 206.623L53.2329 206.079L53.9124 206.109L53.5226 205.552L53.7603 204.914Z" fill="#27AAE1"/>
<path d="M54.4567 280.069L54.0866 281.014L53.0986 281.245L53.8831 281.889L53.7967 282.9L54.6518 282.353L55.5871 282.747L55.3306 281.765L55.9943 280.998L54.9818 280.937L54.4567 280.069Z" fill="#27AAE1"/>
<path d="M315.948 263.436L315.578 264.381L314.59 264.612L315.374 265.256L315.288 266.267L316.143 265.72L317.078 266.114L316.822 265.132L317.485 264.365L316.473 264.305L315.948 263.436Z" fill="#27AAE1"/>
<path d="M163.564 378.546L164.076 378.995L163.996 379.67L164.581 379.322L165.199 379.607L165.049 378.943L165.51 378.442L164.832 378.381L164.5 377.788L164.231 378.413L163.564 378.546Z" fill="#27AAE1"/>
<path d="M119.739 370.632L120.251 371.081L120.171 371.756L120.756 371.408L121.374 371.692L121.224 371.029L121.684 370.528L121.007 370.467L120.674 369.874L120.406 370.498L119.739 370.632Z" fill="#27AAE1"/>
<path d="M138.701 389.504L139.699 389.321L140.415 390.04L140.549 389.034L141.455 388.575L140.54 388.136L140.382 387.133L139.682 387.868L138.68 387.708L139.162 388.601L138.701 389.504Z" fill="#27AAE1"/>
<path d="M251.179 377.266L252.177 377.083L252.893 377.802L253.028 376.796L253.933 376.337L253.018 375.898L252.861 374.895L252.161 375.63L251.159 375.47L251.641 376.362L251.179 377.266Z" fill="#27AAE1"/>
<path d="M300.344 341.237L299.974 342.182L298.986 342.413L299.771 343.057L299.684 344.068L300.54 343.521L301.475 343.915L301.218 342.933L301.882 342.166L300.87 342.105L300.344 341.237Z" fill="#27AAE1"/>
<path d="M368.416 318.679L368.046 319.623L367.058 319.854L367.842 320.498L367.756 321.509L368.611 320.962L369.546 321.356L369.29 320.374L369.953 319.607L368.941 319.547L368.416 318.679Z" fill="#27AAE1"/>
<path d="M324.223 298.548C323.156 298.834 322.059 298.201 321.773 297.134C321.486 296.066 322.12 294.969 323.187 294.683C324.255 294.397 325.352 295.03 325.638 296.098C325.924 297.165 325.291 298.262 324.223 298.548Z" fill="#27AAE1"/>
<path d="M46.3497 107.827C49.1961 107.064 50.8854 104.138 50.1227 101.292C49.43 98.7066 46.9536 97.0765 44.3724 97.3699C44.648 97.2569 44.9324 97.1583 45.2276 97.0792C48.9799 96.0738 52.8365 98.3006 53.8419 102.053C54.8473 105.805 52.6208 109.662 48.8684 110.667C45.1161 111.672 41.2595 109.446 40.2541 105.694C40.175 105.398 40.1184 105.103 40.0782 104.808C41.1148 107.19 43.7647 108.519 46.3497 107.827Z" fill="#FBB040"/>
</svg>
