<svg width="174" height="148" viewBox="0 0 174 148" fill="none" xmlns="http://www.w3.org/2000/svg">
<path d="M92.4094 64.2549C95.6838 62.4507 98.6137 60.4478 101.743 58.56C109.864 62.1424 118.2 65.3502 125.977 69.5279C123.437 71.7565 120.735 73.8908 118.154 76.0958C109.476 72.3164 100.94 68.2887 92.4094 64.2549Z" fill="#FBB040"/>
<path d="M114.853 108.284C122.679 103.397 129.712 98.053 135.635 92.0684C132.009 89.3405 127.74 87.6977 123.703 85.6831C111.388 79.5381 99.4182 73.002 87.0198 67.1911C86.1043 64.7015 83.5056 64.3383 81.0659 63.2499C76.207 61.0815 71.0907 58.8791 66.7355 56.6555C70.951 54.3238 75.2266 49.4675 79.7484 47.2061C80.1587 47.001 80.4183 47.3435 80.6498 47.3907C107.522 52.8803 134.109 64.9198 157.624 76.381C158.195 76.6596 159.404 76.621 159.441 77.5977C144.426 88.8583 131.373 101.251 118.185 113.566C117.118 111.73 115.821 110.291 114.853 108.284ZM121.825 65.9569C115.393 62.8589 108.382 59.774 101.569 57.1176C97.9239 59.4911 93.8385 61.611 90.4611 64.1395C94.4216 67.6238 99.6655 69.0915 104.302 71.2906C108.992 73.5148 113.582 75.8869 118.526 77.4878C121.714 74.9058 125.045 72.4059 127.672 69.5006C126.394 67.5847 123.834 66.9244 121.825 65.9569Z" fill="#FBB040"/>
<path d="M97.5977 82.0308C104.843 86.0638 112.411 90.3629 119.606 94.2336C122.041 95.5431 124.775 96.4072 126.66 98.306C124.644 99.5491 123.117 101.075 121.14 102.34C115.541 99.8213 110.643 96.0875 105.124 93.4295C102.658 89.7491 99.5687 85.599 97.5977 82.0308Z" fill="#FBB040"/>
<path d="M160.45 78.1787C160.858 79.7019 161.266 81.225 161.675 82.7482C147.705 94.2763 135.287 106.699 121.863 118.543C121.034 117.264 120.006 116.331 119.646 114.239C132.341 101.695 145.934 89.6713 160.45 78.1787Z" fill="#414042"/>
<path d="M79.8162 68.9095C56.0308 59.0087 31.6939 50.062 6.67398 42.2999C8.24518 41.501 10.7278 40.4001 11.9848 40.6634C37.0295 45.9122 61.8837 56.0687 84.3039 65.7907C82.7139 66.7761 81.3312 67.8811 79.8162 68.9095Z" fill="#FBB040"/>
<path d="M120.109 103.255C118.122 104.627 116.082 105.969 114.191 107.396C111.668 103.428 108.557 98.9278 106.452 95.2028C110.812 98.2187 115.516 100.641 120.109 103.255Z" fill="#FBB040"/>
<path d="M70.6965 66.6672C73.6942 67.9246 77.6724 68.9523 79.5912 70.4589C82.7948 72.9747 85.4124 77.8953 88.0578 81.393C96.6572 92.7646 104.473 104.461 112.69 116.103C112.052 116.469 111.311 115.778 110.835 115.536C88.0171 103.957 63.309 94.5998 39.913 84.4978C29.111 70.5316 17.4008 56.5867 6.4492 43.849C6.72613 43.8808 6.8969 44.0065 7.15158 44.0864C28.1562 50.6797 50.2264 58.0779 70.6965 66.6672Z" fill="#414042"/>
<path d="M85.1652 66.6232C96.1616 82.6769 107.096 98.837 117.817 115.369C117.191 116.046 115.981 118.073 115.461 117.703C104.065 101.468 93.1114 84.4697 80.8757 69.6889C82.5705 68.82 83.7157 67.6336 85.1652 66.6232Z" fill="#FBB040"/>
<path d="M118.932 116.348C119.114 117.388 119.776 117.601 120.113 118.374C119.217 118.472 118.799 117.74 117.86 117.913C117.824 117.164 118.633 116.904 118.932 116.348Z" fill="#414042"/>
<path d="M89.158 69.5988C102.835 76.6992 117.702 84.161 131.476 90.8401C132.327 91.2531 133.85 91.7795 133.597 92.4009C131.99 94.0481 129.908 95.4212 128.237 97.0318C120.144 93.4504 111.701 88.3848 103.67 84.0235C100.994 82.5701 97.5535 81.2236 95.6092 79.3695C92.898 76.7845 91.3796 72.8196 89.158 69.5988Z" fill="#FBB040"/>
<path d="M95.5489 64.085L117.771 74.6963L123.91 69.6131C123.91 69.6131 103.741 67.8289 100.115 61.2989L95.5489 64.085Z" fill="#FFD940"/>
<path d="M117.056 80.2006L131.647 68.165C131.647 68.165 131.8 76.6348 136.152 79.1475C141.329 82.1362 153.421 78.2707 153.421 78.2707L139.121 90.2288L117.056 80.2006Z" fill="#FFD940"/>
<path d="M85.4564 64.9121L97.5425 56.3605C97.5425 56.3605 88.2889 59.1526 83.4248 57.3303C78.5608 55.5081 78.9824 50.0817 78.9824 50.0817L69.8333 59.097L85.4564 64.9121Z" fill="#FFD940"/>
<path d="M127.789 95.7636L94.3965 78.4562L91.9799 74.1029C91.9799 74.1029 120.258 92.1553 130.45 92.8627L127.789 95.7636Z" fill="#FFD940"/>
<path d="M120.405 100.869L123.301 98.8426C123.301 98.8426 106.49 92.0951 102.245 87.9187L104.954 92.194L120.405 100.869Z" fill="#FFD940"/>
<path d="M113.47 106.478L116.87 104.004L109.475 99.7346L113.47 106.478Z" fill="#FFD940"/>
<path fill-rule="evenodd" clip-rule="evenodd" d="M121.59 123.09C122.385 122.877 123.18 122.664 123.975 122.451C133.819 113.259 145.153 102.607 155.91 93.0255C158.626 90.6067 165.553 86.3071 165.716 82.7325C165.812 80.6176 164.271 77.5599 163.998 75.5269C157.993 71.3064 150.907 68.6024 144.019 65.3357C127.125 57.3226 109.385 50.7481 90.6003 45.5782C87.3512 44.6842 81.9387 42.5009 78.885 43.1808C76.1386 43.7926 73.8505 46.1614 71.6296 47.8929C69.2526 49.7469 66.9876 51.3411 64.9318 53.0949C50.2996 47.6627 33.8233 42.08 18.0766 37.9673C15.6788 37.3408 12.8181 36.2876 10.8672 36.492C6.48139 36.9513 1.02962 39.842 1.29558 42.8896C1.48107 45.0156 3.76512 47.3457 5.2911 49.059C14.8253 59.7632 23.7108 70.6526 32.5309 81.5801C34.1274 83.5583 35.3918 85.7985 37.0158 87.1928C39.0087 88.903 43.3706 90.2894 46.5211 91.6726C66.4307 100.415 85.7266 107.754 104.876 117.135C107.295 118.32 112.146 121.449 114.434 121.813C115.724 122.019 116.818 121.592 117.826 121.757C119.024 121.952 120.59 123.023 121.59 123.09ZM11.985 40.6639C37.0298 45.9127 61.884 56.0692 84.3042 65.7911C82.7142 66.7766 81.3314 67.8816 79.8164 68.91C56.0311 59.0092 31.6942 50.0625 6.67426 42.3003C8.24539 41.5012 10.7281 40.4006 11.985 40.6639ZM7.15321 44.0878C28.1579 50.6813 50.228 58.0793 70.6983 66.6685C73.6961 67.926 77.6743 68.9536 79.5931 70.4603C82.7967 72.9761 85.4143 77.8967 88.0597 81.3944C96.6591 92.7659 104.474 104.462 112.692 116.105C112.053 116.47 111.313 115.779 110.836 115.537C88.0189 103.958 63.3109 94.6011 39.9148 84.4991C29.1129 70.5329 17.4027 56.5881 6.45107 43.8504C6.72781 43.8824 6.89859 44.0082 7.15321 44.0878ZM79.7508 47.2073C80.1611 47.0022 80.4206 47.3447 80.6522 47.3919C107.524 52.8815 134.112 64.921 157.626 76.3823C158.198 76.6608 159.406 76.6223 159.443 77.599C144.428 88.8596 131.375 101.253 118.188 113.568C117.121 111.731 115.824 110.293 114.855 108.285C122.681 103.399 129.714 98.0543 135.637 92.0696C132.011 89.3417 127.743 87.699 123.705 85.6844C111.39 79.5394 99.4205 73.0032 87.0221 67.1924C86.1066 64.7028 83.5079 64.3395 81.0682 63.2512C76.2093 61.0827 71.093 58.8803 66.7379 56.6568C70.9534 54.325 75.2289 49.4688 79.7508 47.2073ZM85.1665 66.6247C96.163 82.6784 107.098 98.8384 117.818 115.37C117.192 116.047 115.982 118.075 115.462 117.705C104.067 101.47 93.1128 84.4712 80.877 69.6904C82.5718 68.8215 83.717 67.6351 85.1665 66.6247ZM131.476 90.8423C132.327 91.2553 133.85 91.7817 133.597 92.4031C131.99 94.0504 129.908 95.4235 128.237 97.034C120.144 93.4526 111.701 88.387 103.67 84.0258C100.994 82.5723 97.5535 81.2258 95.6092 79.3717C92.898 76.7868 91.3796 72.8219 89.1577 69.6011C102.835 76.7014 117.702 84.1632 131.476 90.8423ZM119.608 94.2351C122.043 95.5446 124.777 96.4087 126.662 98.3075C124.646 99.5506 123.119 101.076 121.141 102.342C115.542 99.8228 110.645 96.089 105.126 93.4311C102.66 89.7506 99.5704 85.6005 97.5994 82.0324C104.845 86.0654 112.413 90.3644 119.608 94.2351ZM161.674 82.7505C147.705 94.2786 135.287 106.702 121.863 118.545C121.034 117.267 120.005 116.333 119.645 114.242C132.34 101.698 145.934 89.6737 160.45 78.1811C160.858 79.7043 161.266 81.2273 161.674 82.7505ZM120.109 103.257C118.123 104.63 116.082 105.971 114.192 107.398C111.669 103.43 108.557 98.93 106.453 95.2049C110.813 98.2208 115.517 100.643 120.109 103.257ZM120.114 118.375C119.218 118.473 118.8 117.741 117.861 117.914C117.825 117.165 118.634 116.905 118.933 116.349C119.115 117.39 119.777 117.602 120.114 118.375Z" fill="black"/>
<path fill-rule="evenodd" clip-rule="evenodd" d="M90.4626 64.1403C94.4232 67.6246 99.667 69.0923 104.304 71.2914C108.993 73.5156 113.583 75.8876 118.528 77.4885C121.716 74.9066 125.046 72.4067 127.673 69.5014C126.395 67.5853 123.835 66.9252 121.826 65.9575C115.394 62.8594 108.384 59.7745 101.571 57.1181C97.9257 59.4918 93.8402 61.6117 90.4626 64.1403ZM101.745 58.562C109.865 62.1444 118.201 65.3522 125.978 69.5298C123.439 71.7585 120.736 73.8927 118.155 76.0978C109.477 72.3183 100.942 68.2907 92.4107 64.2568C95.6851 62.4527 98.6153 60.4498 101.745 58.562Z" fill="black"/>
</svg>
