<svg width="57" height="58" viewBox="0 0 57 58" fill="none" xmlns="http://www.w3.org/2000/svg">
<path d="M51.4492 34.1348C54.5148 21.4603 46.7253 8.70038 34.0508 5.63476C21.3763 2.56915 8.6164 10.3587 5.55078 23.0332C2.48517 35.7077 10.2747 48.4676 22.9492 51.5332C35.6237 54.5988 48.3836 46.8093 51.4492 34.1348Z" fill="#FDAD00"/>
<path d="M13.1733 19.1489C16.9047 18.3259 20.7901 18.7572 24.5669 19.3361C28.3437 19.9151 32.1428 20.6403 35.9556 20.3939C40.4083 20.1058 44.7588 18.4468 48.287 15.7171C48.1612 15.5242 48.0336 15.3325 47.9024 15.1436C43.9562 17.8661 38.7738 18.4708 33.9285 18.1716C28.5847 17.8417 23.3028 16.5811 17.9492 16.6625C13.9154 16.7238 9.67479 17.7149 6.48311 20.0529C6.08515 21.0783 5.75789 22.1374 5.50488 23.2263C5.62405 23.2664 5.74322 23.3064 5.86283 23.346C7.6761 21.1943 10.3876 19.7634 13.1733 19.1489Z" fill="#FEE3A9"/>
<path d="M33.9288 18.1718C38.7741 18.4711 43.9565 17.8664 47.9027 15.1438C47.27 14.2318 46.5754 13.3661 45.8235 12.5542C43.3175 13.0206 40.8115 13.487 38.3055 13.9535C35.8964 14.7658 33.2356 14.2154 30.8589 13.3127C28.4823 12.4101 26.2297 11.1606 23.769 10.5208C19.0398 9.29134 13.7863 10.6613 10.0842 13.8156C8.58436 15.6831 7.36424 17.7828 6.4834 20.0531C9.67507 17.7152 13.9161 16.7241 17.9495 16.6627C23.3031 16.5809 28.5846 17.8415 33.9288 18.1718Z" fill="#FED170"/>
<path d="M23.7684 10.5203C26.229 11.1602 28.4816 12.4092 30.8582 13.3123C33.2349 14.2149 35.8957 14.7654 38.3047 13.953C40.8108 13.4866 43.3168 13.0201 45.8228 12.5537C44.4102 11.0277 42.7983 9.69063 41.0291 8.5799C37.2603 9.54301 33.1784 8.32868 29.3767 7.22996C26.976 6.53586 24.3993 5.9138 21.92 5.91113C17.196 7.27887 13.0835 10.0793 10.083 13.8152C13.7856 10.6609 19.0391 9.29089 23.7684 10.5203Z" fill="#FD6D00"/>
<path d="M5.505 23.2256C5.44186 23.4973 5.38095 23.7694 5.32715 24.0446C5.49611 23.8041 5.67308 23.5702 5.8625 23.3452C5.74334 23.3056 5.62417 23.2656 5.505 23.2256Z" fill="#FDAD00"/>
<path d="M42.649 31.0793C40.7668 32.1767 39.2732 33.8326 37.4755 35.0638C34.9312 36.8059 31.7827 37.6468 28.7088 37.404C23.6457 37.0042 19.0733 33.8148 13.9964 33.6756C11.196 33.5987 8.38937 34.5222 6.14746 36.1968C6.73617 37.9264 7.51831 39.5659 8.47118 41.0888C11.8225 39.7642 15.5486 39.3933 19.0916 40.0554C22.4513 40.6833 25.6252 42.2026 29.0277 42.5308C36.1064 43.2137 42.9309 38.6828 49.9007 38.553C51.0568 36.074 51.7931 33.3617 52.023 30.5057C49.0354 29.2532 45.4547 29.4435 42.649 31.0793Z" fill="#FD6D00"/>
<path d="M17.6961 28.0795C22.7629 28.2267 27.8585 28.8314 32.8804 28.1391C39.2361 27.2631 45.3087 24.3356 51.6382 23.886C51.439 22.9011 51.1736 21.9407 50.8561 21.0038C47.4448 20.0478 43.6546 20.6357 40.2317 21.7424C36.2045 23.0443 32.3895 25.0128 28.2596 25.9385C20.8291 27.6042 13.1425 25.7607 5.86316 23.3444C5.67374 23.569 5.49633 23.8033 5.32781 24.0439C5.04146 25.5139 4.88672 27.0315 4.88672 28.5855C4.88672 28.9888 4.89695 29.3894 4.91696 29.7878C8.90144 28.2062 13.3733 27.9541 17.6961 28.0795Z" fill="#FD6D00"/>
<path d="M43.254 29.2325C39.7243 30.462 37.1103 33.5665 33.6122 34.8835C30.365 36.1063 26.7327 35.6488 23.3627 34.8222C19.9927 33.9956 16.6734 32.811 13.2092 32.614C10.5715 32.4638 7.75912 33.0027 5.62793 34.4771C5.77778 35.0605 5.95564 35.6323 6.14817 36.1975C8.39008 34.5229 11.1967 33.5994 13.9971 33.6763C19.0741 33.8155 23.6464 37.0049 28.7096 37.4047C31.7834 37.6475 34.9319 36.8066 37.4762 35.0645C39.2739 33.8333 40.767 32.1774 42.6497 31.08C45.455 29.4442 49.0357 29.2539 52.0237 30.5069C52.0597 30.0618 52.0829 29.6136 52.0935 29.1618C49.1224 28.578 46.0761 28.2489 43.254 29.2325Z" fill="#FEE3A9"/>
<path d="M13.2088 32.6134C16.673 32.8108 19.9923 33.9949 23.3623 34.8215C26.7323 35.6481 30.3646 36.1056 33.6118 34.8828C37.1099 33.5658 39.7235 30.4613 43.2536 29.2318C46.0757 28.2487 49.122 28.5773 52.0927 29.1607C52.0971 28.969 52.1074 28.7787 52.1074 28.5862C52.1074 26.977 51.9451 25.4056 51.6383 23.8867C45.3087 24.3363 39.2362 27.2638 32.8804 28.1398C27.859 28.8316 22.7629 28.2274 17.6961 28.0802C13.3733 27.9543 8.90147 28.2069 4.91699 29.7885C4.99792 31.399 5.2398 32.9669 5.62753 34.4764C7.75873 33.002 10.5711 32.4631 13.2088 32.6134Z" fill="#FED170"/>
<path d="M18.626 50.0337C21.63 51.4188 24.9715 52.1969 28.4967 52.1969C33.6635 52.1969 38.4394 50.5326 42.327 47.7171C34.4056 46.4054 26.1427 47.2102 18.626 50.0337Z" fill="#FD6D00"/>
<path d="M12.6748 46.1096C14.4369 47.7019 16.4427 49.0278 18.626 50.034C26.1427 47.2105 34.4056 46.4057 42.327 47.7174C43.6502 46.7592 44.8739 45.6712 45.9709 44.4648C34.9587 46.078 23.7919 46.6303 12.6748 46.1096Z" fill="#FED170"/>
</svg>
