<svg width="211" height="115" viewBox="0 0 211 115" fill="none" xmlns="http://www.w3.org/2000/svg">
<path d="M20.6682 76.217C27.5239 68.3496 63.9085 29.468 127.165 12.3095C129.263 11.7405 130.539 14.4694 128.709 15.6059L122.321 19.5746C120.401 20.7678 121.899 23.602 124.035 22.8165C144.747 15.2025 179.231 3.87036 208.876 0.569011C211.049 0.326983 211.855 3.2207 209.852 4.06285C167.391 21.9142 140.589 35.9809 126.858 43.7541C124.998 44.8071 126.11 47.5458 128.222 47.1134C132.717 46.1927 138.221 45.3159 144.411 44.8375C146.633 44.6656 147.292 47.6803 145.186 48.3823C99.4002 63.6605 52.2793 91.4088 44.3101 96.1928C43.6054 96.616 42.6993 96.5509 42.0662 96.035L20.8991 78.7781C20.1022 78.1284 19.9974 76.9876 20.6682 76.217Z" fill="#F7E369"/>
<path d="M208.876 0.569029C179.231 3.87038 144.747 15.2025 124.036 22.8172C121.899 23.6028 120.401 20.7685 122.321 19.5753L128.71 15.6066C130.54 14.4701 129.263 11.7413 127.166 12.3102C78.9962 25.3762 46.4125 51.0369 30.5811 66.0086L31.2068 70.6072C31.2068 70.6072 75.6071 33.8621 106.964 24.0564C108.403 23.6063 109.487 25.3217 108.403 26.3358C105.911 28.6662 103.867 30.7206 102.304 32.354C101.296 33.4077 102.432 35.051 103.834 34.5634C121.232 28.5183 178.175 9.13556 210.96 2.77064C211.183 1.6709 210.343 0.405554 208.876 0.569029Z" fill="white"/>
<path d="M63.326 61.7656C66.7793 57.5202 85.6929 43.3353 109.553 40.3602C110.608 40.2286 111.007 41.6334 110.025 42.0282C80.9187 53.7291 70.3108 61.5582 66.6258 65.0754C65.5802 66.0732 63.8462 65.9119 63.0006 64.7527C62.3173 63.8157 62.5932 62.6665 63.326 61.7656Z" fill="white"/>
<path d="M17.1192 95.7497C17.1192 95.7497 21.5037 136.24 37.0156 96.6668C55.4621 99.6363 68.0151 96.3816 48.5171 82.729C61.9009 68.4217 61.8397 57.0995 36.6238 68.2745C23.8081 53.4832 7.74943 45.9718 15.2663 76.7186C0.30265 82.0199 -10.6284 88.5667 17.1192 95.7497Z" fill="#F7E369"/>
<path d="M37.0148 96.6667C55.4613 99.6362 68.0143 96.3815 48.5163 82.7289C61.9002 68.4216 61.8389 57.0994 36.623 68.2744C28.2133 58.5685 18.4075 51.997 14.783 57.3138C17.7463 57.7795 23.5683 60.3795 32.7255 71.4215C43.0412 67.4139 61.3608 61.4984 43.3946 83.8994C56.4021 89.4929 56.9113 97.5839 37.0148 96.6667Z" fill="#FAAF41"/>
</svg>
