<svg width="43" height="43" viewBox="0 0 43 43" fill="none" xmlns="http://www.w3.org/2000/svg">
<path d="M43 21.5C43 33.3739 33.3739 42.9983 21.5 42.9983C9.62612 42.9983 0 33.3722 0 21.5C0 9.62612 9.62446 0 21.5 0C33.3739 0 43 9.62612 43 21.5Z" fill="url(#paint0_radial_898_9742)"/>
<path opacity="0.5" d="M33.1658 34.2952C33.0793 32.7207 31.0959 33.158 30.1599 33.5886C28.9662 34.1372 27.5713 35.4623 28.2779 36.8621C28.3361 37.2728 28.504 37.6685 28.8648 37.8796C29.5996 38.3119 30.4542 37.9993 31.1441 37.6219C32.2597 37.0134 33.2373 35.6019 33.1658 34.2952Z" fill="#8CA4AF"/>
<path opacity="0.5" d="M35.6585 32.7459C35.6518 32.7242 35.6386 32.7059 35.6252 32.6893C35.6236 32.6444 35.6136 32.5996 35.5804 32.5746C35.5039 32.5164 35.4523 32.4848 35.3543 32.4732C35.2279 32.4582 35.0932 32.5131 34.9868 32.5746C34.7773 32.6927 34.6078 32.9038 34.5429 33.1349C34.5213 33.2031 34.518 33.2696 34.5363 33.3377C34.5695 33.4441 34.651 33.4724 34.7491 33.4973C35.0733 33.5788 35.4806 33.3211 35.6103 33.0285C35.6502 32.937 35.6901 32.8456 35.6585 32.7459Z" fill="#8CA4AF"/>
<path opacity="0.5" d="M34.9137 25.8645C34.5246 25.3774 33.8713 25.3575 33.316 25.5503C33.2445 25.5752 33.1697 25.6068 33.0948 25.6434C32.6343 25.7681 32.2968 26.079 32.0607 26.468C31.5187 27.1048 31.2079 27.9377 31.6368 28.6327C31.7066 29.0234 31.8812 29.3758 32.2253 29.582C33.2744 30.2104 34.6959 28.5778 34.9968 27.7548C35.198 27.2045 35.316 26.3666 34.9137 25.8645Z" fill="#8CA4AF"/>
<path opacity="0.5" d="M37.1942 28.5593C37.1942 28.5527 37.1942 28.546 37.1942 28.5394C37.1942 28.5261 37.1909 28.5144 37.1875 28.5028C37.1925 28.4529 37.1842 28.4014 37.151 28.3632C37.1294 28.3382 37.1061 28.3199 37.0795 28.3033C36.9531 28.2302 36.7519 28.3632 36.6821 28.4613C36.6555 28.4995 36.6306 28.5361 36.6106 28.576C36.5707 28.6558 36.5375 28.7655 36.6056 28.842C36.6505 28.8935 36.7104 28.9035 36.7719 28.8952C36.8384 28.9135 36.9149 28.8902 36.9864 28.8453L36.9897 28.8436C36.9947 28.8403 37.0013 28.8353 37.008 28.8303C37.013 28.827 37.0196 28.8237 37.0246 28.8187C37.0329 28.812 37.0396 28.8054 37.0479 28.7987C37.0562 28.7904 37.0645 28.7838 37.0728 28.7755C37.1327 28.7173 37.1875 28.6391 37.1942 28.566C37.1942 28.566 37.1942 28.5627 37.1942 28.5593Z" fill="#8CA4AF"/>
<path opacity="0.5" d="M24.3265 35.3388C23.4753 34.0303 20.7936 34.7486 19.979 35.7278C19.8942 35.8292 19.8127 35.9473 19.7396 36.0736C19.6382 36.1883 19.5534 36.318 19.4935 36.4643C19.0829 37.4652 20.7255 38.3596 21.5634 38.2648C22.5792 38.1485 25.2143 36.7021 24.3265 35.3388Z" fill="#8CA4AF"/>
<path opacity="0.5" d="M26.0383 38.2182C25.9967 38.1666 25.9086 38.1517 25.8487 38.1666C25.8454 38.1683 25.8404 38.1683 25.8371 38.17C25.8022 38.1799 25.7606 38.1966 25.7191 38.2182C25.6808 38.2182 25.6409 38.2282 25.611 38.2398C25.5146 38.2764 25.4364 38.3495 25.3849 38.4376C25.3267 38.539 25.2652 38.6488 25.2984 38.7701C25.3383 38.9164 25.488 38.9331 25.6143 38.9131C25.882 38.8699 26.2611 38.4958 26.0383 38.2182Z" fill="#8CA4AF"/>
<path opacity="0.5" d="M26.985 40.1289L26.9618 40.0907C26.9102 40.0042 26.8088 40.0707 26.7373 40.1439L26.734 40.1472C26.6991 40.1838 26.6725 40.2204 26.6625 40.242C26.6575 40.2553 26.6525 40.2669 26.6476 40.2802C26.6376 40.3002 26.6326 40.3185 26.6293 40.3334C26.5993 40.4465 26.7024 40.4631 26.8122 40.4265C26.872 40.4116 26.9319 40.38 26.9701 40.3351C27.0333 40.2736 27.0599 40.1988 26.985 40.1289Z" fill="#8CA4AF"/>
<path opacity="0.5" d="M8.8278 32.5606C9.02232 31.5781 8.05306 30.0785 6.9907 30.9197C6.56509 31.2572 6.50523 31.6795 6.64987 32.0702C6.70973 32.416 6.85768 32.7668 6.96409 32.9696C7.14364 33.3105 7.4346 33.5864 7.84857 33.5532C8.20601 33.5249 8.49363 33.2789 8.6682 32.9713C8.70976 32.9148 8.73969 32.8533 8.75465 32.7901C8.78624 32.7153 8.81284 32.6371 8.8278 32.5606Z" fill="#8CA4AF"/>
<path opacity="0.5" d="M9.79699 34.8131C9.79699 34.8131 9.79865 34.8081 9.79865 34.7982C9.80031 34.7666 9.81195 34.73 9.79532 34.6984C9.77371 34.6568 9.74877 34.6186 9.72384 34.5787C9.68892 34.5205 9.58751 34.5405 9.53929 34.5587C9.43622 34.5986 9.36639 34.6801 9.32483 34.7799C9.27329 34.9062 9.23505 35.1057 9.39632 35.1739C9.56922 35.247 9.87679 34.9977 9.79699 34.8131Z" fill="#8CA4AF"/>
<path opacity="0.5" d="M39.3238 17.1291C38.1168 17.2105 37.0927 19.9587 38.0436 20.7318C38.3795 21.2289 38.9381 21.5464 39.5333 21.2306C40.7104 20.6088 41.1593 17.006 39.3238 17.1291Z" fill="#8CA4AF"/>
<path opacity="0.5" d="M28.3661 12.2826C28.3461 12.2427 28.3079 12.2144 28.2464 12.1978C28.2314 12.1945 28.2164 12.1961 28.2015 12.1945C28.2098 12.1762 28.2181 12.1596 28.2247 12.1429C28.2447 12.0964 28.2164 12.0465 28.1666 12.0415C28.0917 12.0349 28.0236 12.0947 27.9887 12.1529C27.9687 12.1862 27.9454 12.2211 27.9238 12.2543C27.8889 12.2743 27.854 12.2959 27.8191 12.3192C27.6745 12.4206 27.4633 12.6434 27.5996 12.8312L27.6013 12.8329C27.5946 12.8578 27.5863 12.8828 27.5813 12.9077C27.5564 13.0474 27.6562 13.1188 27.7908 13.0656C27.9105 13.0158 28.0236 12.941 28.12 12.8495C28.3079 12.7514 28.5772 12.4588 28.3661 12.2826Z" fill="#8CA4AF"/>
<path opacity="0.5" d="M8.51515 22.3938C8.29736 21.9649 7.83849 21.9815 7.46109 22.186C6.85759 22.5135 6.24079 23.6241 6.80606 24.1113C6.87755 24.339 7.01886 24.5335 7.25328 24.5668C7.7404 24.6366 8.14274 24.1744 8.38048 23.8153C8.64649 23.413 8.73959 22.8328 8.51515 22.3938Z" fill="#8CA4AF"/>
<path opacity="0.5" d="M4.72165 17.1971C4.52381 17.0491 4.29271 17.0491 4.07492 17.1322C4.10318 17.0674 4.07492 17.0026 3.97517 17.0558C3.4282 17.3401 3.07574 18.1215 3.32013 18.7117C3.43818 18.9976 3.72579 19.0708 4.00343 18.9843C4.42073 18.8546 4.6618 18.5338 4.81475 18.1447C4.92614 17.8654 5.00096 17.4066 4.72165 17.1971Z" fill="#8CA4AF"/>
<path opacity="0.4" d="M36.4212 31.7208C35.2142 32.8314 33.8226 33.5014 32.4594 34.326C32.4743 34.2562 32.481 34.1864 32.471 34.1182C32.466 34.1049 32.4593 34.0949 32.451 34.0833C32.8367 33.7491 33.1842 33.2304 33.4519 32.9378C34.2732 32.0317 35.1061 31.0176 35.5982 29.8887C35.6248 29.8272 35.5434 29.8405 35.5234 29.8821C35.136 30.7316 34.5442 31.4498 33.9606 32.173C33.698 32.4972 33.422 32.8081 33.1393 33.114C33.023 33.2404 32.6173 33.7292 32.2914 34.0168H32.2848C32.7121 33.257 33.0163 32.3925 33.2291 31.5679C33.2407 31.523 33.1742 31.5496 33.1659 31.5778C32.9232 32.4191 32.5541 33.1988 32.1568 33.9686C32.343 33.3684 32.4959 32.7549 32.6173 32.1431C32.6256 32.1015 32.5658 32.1265 32.5608 32.1531C32.4195 32.7549 32.2183 33.3385 32.0371 33.9287C31.8758 32.7865 31.8525 31.5928 31.8426 30.4473C31.8426 30.4107 31.7827 30.444 31.7827 30.4706C31.786 31.6493 31.8026 32.878 31.9689 34.0517C31.9622 34.055 31.9556 34.06 31.9473 34.0617C31.9406 34.0584 31.934 34.055 31.9257 34.0517C31.9007 34.0417 31.8509 34.0783 31.8575 34.1066C31.8076 34.1365 31.7594 34.1714 31.7162 34.2146C31.0728 33.2404 30.5657 32.2478 30.2199 31.1157C30.2099 31.0841 30.1534 31.124 30.1617 31.1506C30.4892 32.3027 30.9714 33.3119 31.6397 34.2828C31.6347 34.2861 31.6297 34.2928 31.6248 34.2961C31.2341 33.8023 30.6455 33.4615 30.2216 32.996C30.1983 32.9694 30.1368 33.0243 30.1601 33.0509C30.5774 33.5263 31.0794 33.937 31.5383 34.3759C31.535 34.3792 31.5333 34.3809 31.53 34.3826C30.2714 34.1382 28.9713 33.9769 27.7095 33.8389C27.6829 33.8356 27.6413 33.8904 27.6779 33.8954C28.9381 34.0717 30.185 34.3227 31.4402 34.5272C31.4269 34.5621 31.4186 34.597 31.4119 34.6319C31.1393 34.6569 30.845 34.6402 30.5923 34.6885C30.2249 34.7583 29.8625 34.8414 29.4901 34.883C29.4601 34.8863 29.4269 34.9478 29.4718 34.9428C29.9339 34.9063 30.3945 34.7666 30.8567 34.7599C31.0312 34.7566 31.2191 34.7633 31.4003 34.7467C31.4003 34.7915 31.402 34.8381 31.4119 34.8796C30.9597 35.0925 30.4743 35.2537 30.0221 35.4216C29.0495 35.7791 28.1035 36.371 27.0893 36.5838C27.0727 36.5871 27.0528 36.6237 27.0794 36.6187C28.0968 36.4508 29.0628 35.9005 30.0204 35.5297C30.4477 35.3651 30.9132 35.2221 31.3471 35.0309C31.0744 35.2122 30.7735 35.3701 30.5175 35.5547C30.1351 35.829 29.6546 36.2712 29.2124 36.4424C29.1875 36.4524 29.1725 36.504 29.2107 36.489C29.6846 36.3161 30.1285 35.9154 30.5391 35.6228C30.7985 35.4366 31.1011 35.2903 31.3754 35.1157C30.9065 35.533 30.3895 35.9104 29.9123 36.2912C29.0794 36.9545 28.2947 37.6611 27.347 38.1648C27.3121 38.1848 27.3171 38.2347 27.362 38.2131C28.3279 37.7243 29.1343 37.0376 29.9722 36.361C30.4942 35.9404 31.116 35.5347 31.6248 35.0559C31.6281 35.0559 31.6281 35.0559 31.6314 35.0559C31.6613 35.0559 31.6896 35.0492 31.7195 35.0426C31.3937 35.5729 31.0362 36.1049 30.6887 36.6004C30.2881 37.169 29.8691 37.9337 29.362 38.4042C29.3221 38.4408 29.357 38.4807 29.3986 38.4458C29.9539 37.9687 30.3579 37.2355 30.7885 36.6469C31.1011 36.2197 31.4369 35.7608 31.7278 35.292C31.5765 36.1515 31.3987 37.0243 31.0562 37.8174C31.0479 37.8373 31.0728 37.8323 31.0794 37.8207C31.4851 36.9678 31.791 35.9437 31.9273 34.9811C31.934 34.9777 31.9406 34.9728 31.9489 34.9694C32.072 35.3901 32.2698 35.8173 32.3945 36.2014C32.5292 36.6104 32.9215 37.7309 33.2341 37.8589C33.2075 37.8473 33.156 37.9005 33.1875 37.9171C33.2025 37.9254 33.2158 37.9321 33.2308 37.9387C33.2557 37.952 33.3072 37.9071 33.2856 37.8822C32.9132 37.4433 32.7387 36.6586 32.5076 36.1316C32.3496 35.7708 32.1867 35.3202 32.072 34.888C32.0969 34.8697 32.1169 34.8464 32.1401 34.8265C32.6805 35.6577 33.2973 36.4341 33.7794 37.302C33.7994 37.3386 33.8692 37.287 33.8526 37.2571C33.3837 36.3693 32.7835 35.5663 32.2416 34.7234C32.2582 34.7051 32.2715 34.6851 32.2864 34.6652C32.4095 34.72 32.5358 34.7683 32.6622 34.8131C33.126 35.1739 33.6132 35.5064 34.087 35.8489C34.1169 35.8705 34.1867 35.8007 34.1568 35.7774C33.8127 35.5098 33.4752 35.2105 33.1161 34.9595C33.2191 34.9894 33.3222 35.0176 33.4253 35.0459C33.8625 35.1656 34.1834 35.4632 34.6539 35.4998C34.6955 35.5031 34.757 35.4183 34.7021 35.4133C34.1901 35.3701 33.7994 35.0393 33.3156 34.9046C33.136 34.8547 32.9631 34.7949 32.7935 34.73C32.747 34.6934 32.7021 34.6536 32.6572 34.612C32.7586 34.6319 32.8584 34.6486 32.9515 34.6635C33.5267 34.755 34.1269 34.8082 34.7054 34.8398C34.7437 34.8414 34.8035 34.7633 34.7503 34.7583C34.2665 34.7134 33.7694 34.6336 33.284 34.5654C33.1476 34.5471 33.0196 34.5206 32.8933 34.4906C34.0704 34.2462 35.2175 33.9786 36.363 33.5396C36.4079 33.523 36.4328 33.4349 36.3647 33.4598C35.1444 33.917 33.9174 34.1731 32.6638 34.4324C32.6306 34.4225 32.5973 34.4108 32.5641 34.4008C33.9274 33.6111 35.2807 32.863 36.4511 31.764C36.496 31.7258 36.4611 31.6842 36.4212 31.7208Z" fill="#B9E5FB"/>
<path opacity="0.4" d="M15.6144 16.6385C15.0408 18.1747 14.9444 19.7176 14.695 21.2903C14.7532 21.2504 14.8164 21.2172 14.8829 21.2006C14.8962 21.1989 14.9095 21.2022 14.9228 21.2055C15.0874 20.7217 15.4348 20.2047 15.6061 19.8472C16.1348 18.7466 16.7616 17.5912 17.6194 16.7084C17.666 16.6602 17.6843 16.7416 17.6543 16.7749C17.0143 17.4548 16.572 18.2745 16.1231 19.0875C15.922 19.4532 15.7391 19.8256 15.5595 20.203C15.4864 20.3576 15.1871 20.9196 15.0425 21.3302L15.0458 21.3369C15.5878 20.6552 16.2744 20.0468 16.9577 19.538C16.9943 19.5114 16.996 19.5812 16.9727 19.5995C16.2844 20.1415 15.7025 20.7766 15.1389 21.435C15.6244 21.0376 16.1348 20.6636 16.6568 20.3194C16.6917 20.2961 16.6917 20.3593 16.6685 20.3759C16.163 20.735 15.6992 21.1407 15.2204 21.5314C16.3393 21.2504 17.4548 20.8215 18.5172 20.3992C18.5505 20.3859 18.5438 20.4524 18.5172 20.4624C17.4249 20.9046 16.2811 21.3518 15.1306 21.6411C15.1306 21.6494 15.1289 21.6561 15.1289 21.6644C15.1339 21.6711 15.1406 21.6744 15.1472 21.6794C15.1655 21.6993 15.1506 21.7592 15.1206 21.7642C15.1123 21.8223 15.0974 21.8805 15.0741 21.9354C16.2196 22.1632 17.3285 22.2596 18.5072 22.1515C18.5388 22.1482 18.5239 22.2164 18.4956 22.218C17.3052 22.3494 16.188 22.2845 15.0375 22.0318C15.0358 22.0385 15.0325 22.0451 15.0308 22.0518C15.636 22.2263 16.173 22.6436 16.7649 22.8598C16.7981 22.8714 16.7715 22.9495 16.7383 22.9379C16.1398 22.7301 15.5712 22.4209 14.9909 22.1615C14.9893 22.1648 14.9893 22.1682 14.9876 22.1715C15.6892 23.2438 16.3293 24.3893 16.9328 25.5065C16.9461 25.5298 16.9112 25.588 16.8912 25.5564C16.2545 24.4558 15.5512 23.3951 14.8879 22.3095C14.8613 22.3344 14.8313 22.356 14.8014 22.3743C14.8812 22.637 15.0076 22.903 15.0574 23.154C15.1306 23.5215 15.1921 23.8872 15.2935 24.248C15.3018 24.2763 15.2586 24.3311 15.2437 24.2879C15.1023 23.8457 15.0591 23.3668 14.8912 22.9362C14.828 22.7733 14.7515 22.6021 14.6983 22.4275C14.6568 22.4441 14.6136 22.4608 14.5703 22.4674C14.5454 22.9662 14.577 23.4782 14.5936 23.9587C14.6285 24.9945 14.439 26.0918 14.6235 27.1126C14.6268 27.1292 14.6002 27.1624 14.5953 27.1358C14.3675 26.13 14.5121 25.0277 14.4939 24.0019C14.4855 23.5447 14.4423 23.0593 14.4556 22.5855C14.3908 22.9063 14.3575 23.2438 14.2844 23.5514C14.173 24.0086 13.9469 24.6204 13.9535 25.0959C13.9535 25.1225 13.912 25.1574 13.9103 25.1142C13.892 24.6104 14.0948 24.0468 14.2112 23.558C14.286 23.2488 14.3076 22.913 14.3658 22.5921C14.1563 23.1823 14.0017 23.8041 13.8288 24.391C13.5279 25.4134 13.1705 26.406 13.0607 27.4733C13.0574 27.5132 13.0075 27.5265 13.0109 27.4767C13.099 26.3977 13.4315 25.3918 13.7407 24.3611C13.9336 23.7193 14.0749 22.9911 14.3259 22.3394L14.3226 22.3344C14.311 22.3078 14.3076 22.2779 14.301 22.248C13.9336 22.75 13.5761 23.2821 13.2486 23.7908C12.8729 24.376 12.3242 25.051 12.0782 25.6994C12.0599 25.7509 12.0083 25.7326 12.0266 25.6811C12.2594 24.9862 12.7847 24.3361 13.1688 23.716C13.4481 23.2654 13.744 22.7816 14.0699 22.3344C13.3301 22.7983 12.5902 23.292 11.9851 23.9088C11.9701 23.9238 11.9651 23.8989 11.9734 23.8872C12.6102 23.189 13.4431 22.5206 14.2844 22.0302C14.2844 22.0219 14.2877 22.0135 14.2877 22.0069C13.8521 22.0518 13.3799 22.0302 12.9776 22.0584C12.5487 22.0884 11.3633 22.1465 11.1255 21.9055C11.1455 21.9254 11.1172 21.9936 11.089 21.9703C11.0757 21.9603 11.064 21.9487 11.0524 21.9387C11.0308 21.9204 11.054 21.8573 11.084 21.8672C11.6309 22.0468 12.424 21.9121 12.9992 21.9271C13.3932 21.9371 13.8721 21.9171 14.3143 21.8606C14.3226 21.8307 14.3359 21.8024 14.3459 21.7741C13.3733 21.5879 12.4207 21.3086 11.4348 21.1889C11.3932 21.1839 11.4148 21.0991 11.4497 21.1041C12.4473 21.2022 13.4198 21.4566 14.4041 21.6395C14.4157 21.6179 14.429 21.5979 14.4406 21.5763C14.3426 21.4832 14.2511 21.3834 14.1613 21.2837C13.6526 20.9911 13.1605 20.6636 12.665 20.3543C12.6335 20.3344 12.6734 20.2429 12.7049 20.2629C13.0823 20.4807 13.488 20.6802 13.8554 20.9196C13.7889 20.8365 13.7241 20.7517 13.6592 20.6669C13.3833 20.3061 12.9859 20.1216 12.7748 19.7009C12.7565 19.6644 12.8114 19.5746 12.838 19.6245C13.0707 20.0833 13.5246 20.3194 13.8322 20.7151C13.9469 20.8614 14.0666 20.9994 14.1896 21.1341C14.2411 21.1623 14.2943 21.1906 14.3492 21.2155C14.2927 21.1291 14.2395 21.0426 14.1913 20.9611C13.8903 20.4624 13.6144 19.927 13.3666 19.4017C13.35 19.3668 13.4016 19.282 13.4265 19.3302C13.6509 19.7608 13.912 20.1931 14.158 20.6153C14.2262 20.7334 14.2993 20.8431 14.3741 20.9478C14.158 19.7658 13.9718 18.602 13.9469 17.375C13.9469 17.3285 14.0184 17.272 14.02 17.3435C14.0566 18.6452 14.2827 19.8788 14.5155 21.139C14.5371 21.1656 14.5603 21.1939 14.582 21.2205C14.7981 19.6594 14.981 18.1249 15.5579 16.6269C15.5812 16.5687 15.6343 16.587 15.6144 16.6385Z" fill="#B9E5FB"/>
<path opacity="0.5" d="M14.7655 21.4099C14.674 21.3933 14.5842 21.4349 14.5128 21.5014C14.4862 21.518 14.4612 21.5379 14.4379 21.5629C14.3315 21.6743 14.2866 21.8472 14.2833 21.9968C14.28 22.1348 14.3465 22.2894 14.5094 22.2661C14.7239 22.2345 14.8702 22.0134 14.9301 21.8222C14.9816 21.6493 14.9749 21.4465 14.7655 21.4099Z" fill="white"/>
<path opacity="0.5" d="M32.5024 34.1115C32.4641 34.1131 32.4242 34.1198 32.386 34.1281C32.2945 34.1214 32.1532 34.1913 32.0884 34.2345C31.9072 34.3575 31.721 34.5288 31.7525 34.7632C31.7792 34.9594 32.0651 34.9245 32.1865 34.8713C32.4442 34.7599 32.6104 34.4988 32.5938 34.2179C32.5921 34.1647 32.5639 34.1081 32.5024 34.1115Z" fill="white"/>
<path opacity="0.5" d="M40.6622 25.4139C40.6472 25.2776 40.5874 25.113 40.4461 25.0648C40.2981 25.0149 40.1551 25.0897 40.0421 25.1795C39.8476 25.3325 39.7112 25.6384 39.7245 25.8811C39.7279 25.9559 39.7412 26.0474 39.786 26.1172C39.791 26.1405 39.7977 26.1637 39.806 26.182C39.9224 26.4364 40.2266 26.2668 40.3629 26.1288C40.5625 25.9277 40.6938 25.7016 40.6622 25.4139Z" fill="white"/>
<path opacity="0.5" d="M40.7641 26.8116C40.7591 26.7983 40.7525 26.7899 40.7425 26.7833V26.78C40.7425 26.77 40.7408 26.76 40.7375 26.75C40.7358 26.7467 40.7325 26.7451 40.7325 26.7451C40.7292 26.7367 40.7259 26.7301 40.7259 26.7251C40.7059 26.6436 40.5879 26.6985 40.553 26.7318C40.4798 26.7983 40.405 26.8697 40.3817 26.9712C40.3518 27.1025 40.5064 27.0892 40.5746 27.0227C40.5862 27.0111 40.5962 27.0011 40.6062 26.9894C40.6427 26.9894 40.6826 26.9678 40.7076 26.9446L40.7126 26.9412C40.7408 26.9096 40.7791 26.8598 40.7641 26.8116Z" fill="white"/>
<path opacity="0.5" d="M13.3866 37.6998C13.3018 37.6599 13.2121 37.6832 13.1373 37.7364C12.971 37.7048 12.823 37.8611 12.7831 38.0107C12.7 38.3266 13.0791 38.6641 13.3816 38.5776C13.5562 38.5277 13.6643 38.3482 13.651 38.172C13.636 38.004 13.5479 37.7763 13.3866 37.6998Z" fill="white"/>
<path opacity="0.5" d="M14.5202 38.8748C14.5002 38.8182 14.4387 38.7983 14.3855 38.7933C14.3024 38.785 14.1477 38.9296 14.2492 38.9978C14.2658 39.0094 14.3173 39.0294 14.3173 39.0261C14.3506 39.0527 14.4237 39.0444 14.4636 39.0061L14.4669 39.0028C14.4969 38.9712 14.5368 38.923 14.5202 38.8748Z" fill="white"/>
<path opacity="0.5" d="M31.7475 18.0184C31.6311 17.8106 31.4433 17.8422 31.272 17.9552C31.2255 17.9769 31.1822 18.0068 31.1473 18.045C31.1407 18.0533 31.1357 18.0616 31.129 18.07C31.021 18.173 30.9345 18.2911 30.8979 18.3742C30.8065 18.5787 30.7117 18.9977 30.9312 19.1573C30.9362 19.1639 30.9395 19.1722 30.9445 19.1772C31.0642 19.2953 31.257 19.2105 31.3701 19.134C31.7192 18.8996 31.9653 18.4058 31.7475 18.0184Z" fill="white"/>
<path opacity="0.5" d="M31.7544 19.8443C31.7145 19.7629 31.6247 19.8161 31.5732 19.8759L31.5699 19.8776C31.5233 19.9042 31.4469 19.994 31.4967 20.0488C31.6031 20.1669 31.8159 19.9757 31.7544 19.8443Z" fill="white"/>
<path opacity="0.5" d="M4.11784 21.0972C4.11452 21.0955 4.10953 21.0939 4.10621 21.0905C4.10122 21.0822 4.09623 21.0722 4.08958 21.0639C4.08293 21.0523 4.07794 21.0423 4.07129 21.0323C4.05466 20.8711 3.97321 20.748 3.78534 20.748C3.69889 20.748 3.62075 20.7763 3.55258 20.8195C3.37469 20.8727 3.26496 21.1354 3.25332 21.3249C3.24501 21.4729 3.27327 21.6442 3.37136 21.7605C3.46613 21.8719 3.62074 21.8586 3.74377 21.7988C3.74377 21.7988 3.74543 21.8021 3.74543 21.8054C3.75208 21.8686 3.84851 21.8104 3.84684 21.7655C3.84684 21.7522 3.84684 21.7406 3.84684 21.7273C3.91501 21.6608 3.97985 21.5411 4.02308 21.4081C4.08127 21.4031 4.16273 21.3233 4.16439 21.2751C4.16605 21.2551 4.16273 21.2368 4.16107 21.2185C4.17271 21.1737 4.16439 21.1304 4.11784 21.0972Z" fill="white"/>
<path opacity="0.5" d="M3.9633 22.4111C3.90012 22.3645 3.79039 22.4809 3.812 22.5507C3.80702 22.5657 3.80535 22.5807 3.812 22.5956L3.82363 22.6239C3.8253 22.6455 3.83196 22.6721 3.85523 22.6804C3.87851 22.6887 3.89846 22.6937 3.92173 22.6887C3.98325 22.6738 4.06804 22.6139 4.06305 22.5424C4.06139 22.4826 4.00819 22.446 3.9633 22.4111Z" fill="white"/>
<path opacity="0.5" d="M34.3134 7.7155C34.2352 7.59081 34.0191 7.74875 33.9659 7.81525C33.9011 7.89672 33.8661 8.02639 33.9592 8.07793C33.9676 8.11118 33.9792 8.14277 33.9991 8.17602C34.0507 8.26247 34.2036 8.14277 34.2319 8.05964C34.2419 8.05299 34.2535 8.04801 34.2618 8.03969C34.31 7.99813 34.3333 7.94659 34.3566 7.8884C34.3849 7.82356 34.3466 7.7687 34.3134 7.7155Z" fill="white"/>
<defs>
<radialGradient id="paint0_radial_898_9742" cx="0" cy="0" r="1" gradientUnits="userSpaceOnUse" gradientTransform="translate(-3.47372 -8.67814) scale(65.561 65.561)">
<stop stop-color="#E3F3FC"/>
<stop offset="0.2199" stop-color="#AEB7BD"/>
<stop offset="0.6059" stop-color="#8CA4AF"/>
<stop offset="1" stop-color="#393B3D"/>
</radialGradient>
</defs>
</svg>
