<svg width="170" height="80" viewBox="0 0 170 80" fill="none" xmlns="http://www.w3.org/2000/svg">
<path fill-rule="evenodd" clip-rule="evenodd" d="M0 40.0007V80.0013L85.085 79.918L170.17 79.8347L170.256 39.9174L170.343 0H85.1714H0V40.0007ZM0.16456 40.1653C0.16456 62.1653 0.20536 71.2139 0.255 60.2734C0.30464 49.3329 0.30464 31.3329 0.255 20.2734C0.20536 9.21388 0.16456 18.1653 0.16456 40.1653ZM3.06 40.3306V77.686H85H166.94V40.3306V2.97521H85H3.06V40.3306ZM19.769 11.9835C19.3916 13.12 18.0662 17.1736 16.8239 20.9917C14.4486 28.2922 11.6314 36.8949 11.3798 37.6162C11.2645 37.9468 11.8884 38.0208 14.1644 37.9468L17.0972 37.8512L18.002 34.876L18.9067 31.9008L23.1921 31.8086L27.4774 31.7164L28.5566 34.8664L29.6361 38.0165H32.4979C34.0721 38.0165 35.36 37.9279 35.36 37.8198C35.36 37.7117 33.2625 31.3894 30.6989 23.7702L26.0379 9.91736H23.2468H20.4554L19.769 11.9835ZM44.54 23.9669V38.0165H47.26H49.98V32.2314V26.4463H51.1438C52.9771 26.4463 54.1168 27.6965 57.1843 33.0721L60.0059 38.0165H63.153C64.8839 38.0165 66.3 37.9259 66.3 37.8152C66.3 37.5094 61.8797 29.3957 61.097 28.2645C60.7196 27.719 60.0423 26.8823 59.5925 26.405L58.7744 25.5372L59.621 25.3309C60.0865 25.2172 60.945 24.7336 61.5288 24.2562C64.8326 21.5531 65.18 15.4139 62.2142 12.1382C60.3803 10.1124 59.4296 9.91736 51.3856 9.91736H44.54V23.9669ZM76.84 23.9669V38.0165H85.85H94.86V35.2066V32.3967H88.57H82.28V29.0909V25.7851H88.06H93.84V23.1405V20.4959H88.06H82.28V17.8512V15.2066H88.4H94.52V12.562V9.91736H85.68H76.84V23.9669ZM107.1 23.9669V38.0165H109.644H112.188L112.279 29.9484L112.37 21.8807L116.62 29.9474L120.87 38.0145L123.505 38.0155L126.14 38.0165V23.9669V9.91736H123.596H121.052L120.961 18.2169L120.87 26.516L116.624 18.2169L112.378 9.91736H109.739H107.1V23.9669ZM143.867 11.9835C143.488 13.12 141.558 19.0331 139.577 25.124C137.596 31.2149 135.834 36.6132 135.661 37.12L135.346 38.042L138.295 37.9464L141.244 37.8512L142.121 34.876L142.997 31.9008H147.347H151.697L152.705 34.9587L153.712 38.0165H156.586C158.167 38.0165 159.46 37.9286 159.46 37.8208C159.46 37.7134 157.361 31.3911 154.795 23.7712L150.131 9.91736H147.343H144.555L143.867 11.9835ZM50.0521 18.2645L50.15 21.3223L53.4381 21.2655C55.2466 21.2341 57.0377 21.0463 57.4182 20.8483C59.0454 20.0017 58.9438 16.3299 57.273 15.5898C56.7973 15.3792 54.9559 15.2066 53.1811 15.2066H49.9545L50.0521 18.2645ZM22.2873 20.9917C21.7862 22.6281 21.2333 24.3983 21.0582 24.9253C20.8831 25.4526 20.74 26.0102 20.74 26.165C20.74 26.5114 25.4062 26.5431 25.5972 26.1983C25.6724 26.0621 25.1637 24.1653 24.4661 21.9835L23.1982 18.0165L22.2873 20.9917ZM146.382 21.0476C145.889 22.6532 145.341 24.3983 145.163 24.9253C144.986 25.4526 144.84 26.0102 144.84 26.165C144.84 26.3197 146.004 26.4463 147.426 26.4463C149.528 26.4463 149.978 26.3577 149.826 25.9739C149.724 25.7144 149.152 23.8919 148.555 21.9243C147.958 19.957 147.427 18.2978 147.374 18.2377C147.321 18.1772 146.875 19.4417 146.382 21.0476ZM11.56 45.7851V47.9339H86.36H161.16V45.7851V43.6364H86.36H11.56V45.7851Z" fill="#181818"/>
<path d="M119.952 57.9742C120.866 56.2406 123.394 54.0667 125.23 53.434C127.16 52.7689 130.45 52.7755 132.593 53.4489C134.955 54.1904 137.39 56.349 138.374 58.5718C139.002 59.9913 139.112 60.7242 138.985 62.6313C138.806 65.3193 138.209 66.6122 136.288 68.4806C134.237 70.475 132.294 71.2092 129.03 71.2241C126.728 71.2346 126.014 71.0951 124.378 70.3156C122.179 69.2677 120.566 67.6449 119.59 65.4988C118.718 63.5827 118.891 59.9861 119.952 57.9742Z" fill="#181818"/>
<path d="M10.7958 70.7484C10.656 70.7457 12.5672 66.8016 15.0431 61.9834C17.5186 57.1652 19.6232 53.2231 19.7201 53.2231C19.817 53.2231 21.9134 57.1494 24.3791 61.9484C28.8253 70.6016 28.8552 70.675 28.0011 70.8337C27.0437 71.0118 26.7833 70.6932 24.9901 67.15L23.9701 65.1348L19.7201 65.1385L15.4701 65.1424L13.9901 68.1381C12.6899 70.7695 12.4213 71.1104 11.7801 70.9431C11.3785 70.8386 10.9359 70.7507 10.7958 70.7484Z" fill="#181818"/>
<path d="M32.4701 70.8634C32.0346 70.7008 31.9601 69.3986 31.9601 61.948C31.9601 57.1494 32.075 53.2356 32.2151 53.2512C32.3552 53.2667 35.339 56.3163 38.8451 60.028L45.2201 66.7765V59.9999V53.2231H46.0701H46.9201V62.0108C46.9201 67.1775 46.7919 70.7533 46.6093 70.6885C46.4383 70.628 43.5697 67.6955 40.2343 64.1718L34.1701 57.7649L34.078 64.2218C33.9817 70.9682 33.8797 71.3894 32.4701 70.8634Z" fill="#181818"/>
<path d="M51.3401 62.3004C51.3401 57.8832 51.4329 54.0337 51.5465 53.7461C51.66 53.4585 52.119 53.2231 52.5665 53.2231H53.3801V61.948C53.3801 69.7008 53.3186 70.6961 52.8269 70.8793C51.4591 71.3897 51.3401 70.7028 51.3401 62.3004Z" fill="#181818"/>
<path d="M58.6627 59.8347C59.1451 56.6528 59.6167 53.8287 59.7102 53.5586C59.8074 53.277 60.9784 55.1094 62.4561 57.8561C63.8728 60.4899 65.6636 63.7818 66.4354 65.1715L67.8386 67.6984L71.2097 61.3699C73.0634 57.8892 74.8501 54.6075 75.1795 54.0776L75.779 53.114L75.9636 53.9123C76.0652 54.3513 76.3777 56.2727 76.6582 58.1818C76.9384 60.0909 77.4749 63.5867 77.8502 65.9503C78.2256 68.314 78.5347 70.3692 78.5364 70.5176C78.5384 70.6661 78.1239 70.7404 77.6156 70.6829L76.6908 70.5785L75.8279 64.7933C75.3529 61.6115 74.828 59.0337 74.6607 59.0647C74.4934 59.0958 72.9648 61.7345 71.2634 64.9285C69.5621 68.1226 68.0072 70.7378 67.808 70.7398C67.6087 70.7421 66.4293 68.8469 65.1873 66.5289C63.9449 64.2108 62.4118 61.3785 61.7805 60.235L60.632 58.1556L59.8578 63.6558C58.9255 70.277 58.7868 70.8264 58.0177 70.9361C57.1436 71.0611 57.0106 70.3768 57.42 67.8611C57.6209 66.6284 58.1799 63.0165 58.6627 59.8347Z" fill="#181818"/>
<path d="M81.0901 70.5682C81.0901 70.3808 83.0791 66.4023 85.5101 61.7272C87.9411 57.0518 90.0137 53.2257 90.1157 53.2247C90.2177 53.2237 92.2754 57.1008 94.6884 61.8406C98.0598 68.4627 98.9707 70.5209 98.6222 70.7305C97.6913 71.2899 97.1445 70.7903 95.7182 68.0756L94.2539 65.2892L90.0416 65.1973L85.8294 65.1054L84.3588 68.0221C83.0546 70.6095 82.787 70.9371 81.9894 70.9239C81.4947 70.9156 81.0901 70.7556 81.0901 70.5682Z" fill="#181818"/>
<path d="M102.51 54.876C100.379 54.876 100.3 54.8462 100.3 54.0495V53.2231H105.57H110.84V54.0495C110.84 54.8393 110.749 54.876 108.8 54.876H106.76V62.7824C106.76 71.0221 106.733 71.1741 105.315 70.8168C104.769 70.6789 104.72 70.0132 104.72 62.7712V54.876H102.51Z" fill="#181818"/>
<path d="M114.835 70.8327C113.617 71.2459 113.56 70.8515 113.56 61.948V53.2231H114.41H115.26V61.956C115.26 68.6449 115.16 70.7223 114.835 70.8327Z" fill="#181818"/>
<path d="M143.99 70.7933C143.325 70.9064 143.308 70.707 143.234 61.9834L143.158 53.0578L145.23 55.2056C146.37 56.387 149.228 59.3993 151.583 61.8998C153.938 64.4003 155.985 66.4462 156.132 66.4462C156.279 66.4462 156.4 63.471 156.4 59.8347V53.2231H157.25H158.1V61.9834C158.1 66.8016 157.97 70.7437 157.811 70.7437C157.652 70.7437 154.783 67.8436 151.436 64.2991C148.089 60.7543 145.274 57.8535 145.18 57.8528C145.087 57.8518 145.038 60.5728 145.073 63.8994C145.108 67.2261 145.031 70.112 144.903 70.3127C144.775 70.5133 144.364 70.7299 143.99 70.7933Z" fill="#181818"/>
</svg>
