<svg width="91" height="76" viewBox="0 0 91 76" fill="none" xmlns="http://www.w3.org/2000/svg">
<g clip-path="url(#clip0_4_4318)">
<path fill-rule="evenodd" clip-rule="evenodd" d="M66.6321 0.34599C64.4241 0.93119 62.6414 2.5827 61.9184 4.71273C61.5806 5.70793 61.5352 7.43693 61.8195 8.48315C62.6858 11.6705 65.9945 13.805 69.2933 13.3049C71.2583 13.007 73.3051 11.6152 74.2088 9.9623C75.2695 8.02213 75.2717 5.65595 74.2146 3.60123C73.7795 2.75573 72.4006 1.40388 71.4799 0.920333C70.043 0.165626 68.1558 -0.0580312 66.6321 0.34599ZM75.4198 0.272433C75.4198 0.347076 75.5439 0.408147 75.6955 0.408147C75.9345 0.408147 75.9713 0.498669 75.9713 1.08672C75.9713 1.59945 76.0219 1.76529 76.1781 1.76529C76.3343 1.76529 76.3849 1.59945 76.3849 1.08672C76.3849 0.57399 76.4355 0.408147 76.5917 0.408147C76.7055 0.408147 76.7985 0.347076 76.7985 0.272433C76.7985 0.19779 76.4883 0.136719 76.1092 0.136719C75.73 0.136719 75.4198 0.19779 75.4198 0.272433ZM76.9364 0.951004C76.9364 1.58438 76.9823 1.76529 77.1432 1.76529C77.2877 1.76529 77.3543 1.61207 77.3643 1.25636L77.3786 0.747433L77.5159 1.25636C77.7029 1.94918 77.9693 1.89571 78.1918 1.12065L78.3768 0.476004L78.4225 1.12065C78.4883 2.0488 78.7289 1.91566 78.7289 0.951004C78.7289 0.232804 78.697 0.136719 78.4586 0.136719C78.2613 0.136719 78.1423 0.288312 78.0171 0.699254L77.846 1.26179L77.6555 0.699254C77.5205 0.300526 77.388 0.136719 77.2007 0.136719C76.9697 0.136719 76.9364 0.239047 76.9364 0.951004ZM66.9981 1.77968C64.5175 2.1419 62.9646 4.73716 63.7933 7.13578C64.1203 8.08252 65.3196 9.24193 66.3051 9.56411C67.9695 10.1082 69.853 9.55285 70.8921 8.21172C73.1493 5.29834 70.6924 1.24021 66.9981 1.77968ZM53.0293 10.8769C48.3317 11.4704 45.1853 13.5352 43.5124 17.1227C41.9708 20.429 41.766 25.599 42.965 30.9439C43.7498 34.443 46.6198 42.0798 50.8316 51.8778L51.8672 54.2867H57.5767C60.717 54.2867 63.2864 54.2634 63.2864 54.2347C63.2864 54.2062 62.491 52.9084 61.5187 51.3508C57.048 44.1884 52.7244 36.8781 51.2151 33.9296C48.6819 28.9808 47.7828 23.392 48.9586 19.9047C49.9478 16.9711 52.5894 15.4737 56.4614 15.6513C58.345 15.7376 59.8091 16.102 61.4251 16.8864C64.003 18.1377 66.5213 20.0155 69.3575 22.801C73.4427 26.8134 75.8334 30.3581 78.4182 36.2367C80.3296 40.5835 82.7702 47.777 84.0471 52.8278L84.4159 54.2867H85.7087C86.4199 54.2867 87.0016 54.2571 87.0016 54.221C87.0016 54.0325 86.2388 50.6114 85.8816 49.1974C84.8327 45.0459 82.8342 38.8302 81.3881 35.2218C78.4302 27.8417 73.6527 20.7225 68.8622 16.5567C63.6921 12.0604 58.475 10.1888 53.0293 10.8769ZM56.4439 21.2962C54.7964 21.7366 53.2178 22.6292 50.4841 24.6665C49.8284 25.1554 49.2717 25.5711 49.2473 25.5903C49.1701 25.6513 50.5561 30.9874 50.7938 31.5441L51.0211 32.0767L51.7311 30.9334C53.7383 27.7018 55.6581 25.9083 57.9875 25.0886C59.133 24.6855 61.1428 24.5968 62.4826 24.8902C65.8697 25.632 67.3576 27.5923 67.0774 30.9439C66.8947 33.1286 66.2392 35.116 64.5261 38.6796C63.3428 41.141 62.9063 42.4513 62.7134 44.1213C62.4529 46.3757 62.8083 47.5865 64.0612 48.7136C65.3434 49.867 67.4574 50.4859 70.8353 50.6964L72.3864 50.793L72.3856 49.3167L72.3846 47.8403L70.1215 47.4762C68.8769 47.2759 67.6733 47.0179 67.4471 46.9026C66.4433 46.3917 66.0894 44.8692 66.5257 42.9388C66.6582 42.3524 67.202 40.864 67.7343 39.6315C70.0348 34.3022 70.5231 32.6738 70.502 30.401C70.4735 27.3159 69.0653 24.8895 66.2561 23.0844C64.2193 21.7757 62.163 21.1825 59.3569 21.0943C57.7442 21.0435 57.2648 21.0768 56.4439 21.2962ZM9.84281 34.1918C7.49019 34.5615 4.96411 36.0151 3.6129 37.7768C1.86225 40.059 1.10502 42.8924 1.10447 47.1617C1.10419 49.1868 1.27544 52.3821 1.45551 53.7099L1.53368 54.2867H4.39908H7.26448L7.35962 50.9278C7.51459 45.4543 7.66902 44.6309 8.76557 43.4364C9.59753 42.5299 10.4555 42.1684 11.9266 42.1045C12.8901 42.0627 13.3579 42.1099 14.0192 42.3156C14.4875 42.4614 17.1555 43.7461 19.948 45.1704C30.9652 50.7898 32.6913 51.4605 36.1932 51.482C37.5221 51.4903 38.2167 51.4302 38.8795 51.2494C41.8652 50.4354 44.1688 48.3466 45.9647 44.825L46.4642 43.8453L45.1377 40.1428C44.4081 38.1065 43.7324 36.2265 43.6363 35.9653C43.4832 35.5492 43.449 35.5239 43.3603 35.7617C42.4376 38.2363 41.5392 39.8128 40.3023 41.1279C38.7334 42.7959 36.9873 43.5799 34.8145 43.5919C32.3765 43.6052 30.7298 42.9253 24.8872 39.4922C19.5474 36.3548 17.0558 35.1635 14.4968 34.5245C13.0707 34.1684 10.954 34.0171 9.84281 34.1918ZM0.689453 55.7796V56.4581H45.7069H90.7243V55.7796V55.101H45.7069H0.689453V55.7796Z" fill="#181818"/>
<path d="M3.05666 62.1386C5.13063 60.9038 6.64551 60.2383 7.7211 60.0896C7.91068 60.0634 8.14342 60.098 8.23814 60.1666C8.4753 60.3383 8.43696 61.3812 8.15817 62.3367L7.92792 63.126L6.91837 63.4591C4.18589 64.3604 1.65443 66.278 1.65443 67.4465C1.65443 67.8769 5.10554 68.0073 7.10064 67.6525C7.70731 67.5446 8.24628 67.455 8.2984 67.4537C8.35052 67.4522 8.35782 67.6801 8.31467 67.9599C8.22849 68.5186 7.85443 69.0018 7.28058 69.2956C6.96842 69.4555 6.90224 69.589 6.86694 70.1304C6.82861 70.7175 6.78187 70.795 6.34231 71.0002C5.59446 71.3492 4.31921 71.5736 3.03322 71.5823C1.50649 71.5927 1.18647 71.4947 0.916504 70.9349C0.379053 69.82 -0.0107308 67.2546 0.194157 66.1799C0.320178 65.5188 1.41769 64.2402 2.43358 63.5713L3.24004 63.0403L2.50514 62.9724L1.77025 62.9045L3.05666 62.1386Z" fill="#181818"/>
<path d="M59.2734 64.1051C60.0166 62.7326 61.584 61.3345 62.9978 60.7829C63.346 60.6469 63.8123 60.5496 64.034 60.5666C64.3754 60.5927 64.4665 60.6851 64.6303 61.1707C64.7366 61.4859 65.0056 61.8947 65.2281 62.079L65.6328 62.4142L65.4246 63.7781C65.3102 64.5282 65.2166 65.173 65.2166 65.2107C65.2166 65.2486 65.1566 65.2795 65.0834 65.2795C65.0101 65.2795 64.9089 64.9728 64.8585 64.598C64.8079 64.223 64.7169 63.886 64.6562 63.8491C64.4823 63.7434 63.0494 64.4141 62.3142 64.9453C61.201 65.7497 60.776 66.7307 61.328 67.2224C61.4642 67.3439 62.0692 67.66 62.6723 67.9249C63.2754 68.1898 63.9239 68.4838 64.1135 68.5781C64.8885 68.9639 65.2163 70.5476 64.6306 71.0769C64.2264 71.4421 62.8587 72.1113 61.7969 72.4633C60.8586 72.7745 60.5847 72.7286 59.6669 72.1071C59.0035 71.6577 59.0106 71.4536 59.6905 71.436C60.2426 71.4217 61.5745 70.772 62.3809 70.1235L62.7855 69.7982L61.5851 69.422C59.3396 68.7181 58.6519 67.8758 58.7642 65.9664C58.8132 65.1322 58.9112 64.774 59.2734 64.1051Z" fill="#181818"/>
<path d="M83.747 63.1707C84.0475 62.5088 84.3039 62.1756 84.7811 61.827C85.4902 61.3091 85.901 61.2183 85.8934 61.5813C85.8908 61.7119 85.7987 62.1853 85.6888 62.6331C85.4227 63.7178 85.4319 63.8353 85.795 63.992C86.0634 64.1079 86.1108 64.2443 86.147 65.0035C86.2032 66.1844 85.9075 66.7659 85.2483 66.7704C85.0803 66.7715 84.8841 66.8804 84.8123 67.0126C84.4127 67.7477 84.0523 70.9795 84.37 70.9795C84.4393 70.9795 84.742 70.7047 85.0423 70.3688C85.3427 70.0329 85.6131 69.7581 85.6432 69.7581C85.6732 69.7581 85.664 70.1551 85.6226 70.6403C85.5613 71.3594 85.4791 71.5896 85.1777 71.8863C84.855 72.204 84.7643 72.2306 84.4644 72.0961C83.9587 71.8693 83.0178 70.9941 82.7645 70.5147C82.6091 70.2209 82.5248 69.5855 82.4794 68.3671C82.4204 66.7848 82.3341 66.4103 82.1104 66.7664C82.0656 66.8378 81.9378 66.8618 81.8265 66.8198C81.6709 66.761 81.6241 66.4806 81.6241 65.6043C81.6241 64.8689 81.6776 64.4653 81.7752 64.4653C81.8584 64.4653 82.2461 64.372 82.637 64.258C83.3221 64.0581 83.362 64.019 83.747 63.1707Z" fill="#181818"/>
<path d="M20.9575 64.1899C20.9575 63.93 22.1265 62.66 22.5213 62.4909C23.175 62.211 23.3887 62.2531 23.5762 62.6987C23.7389 63.0855 23.7153 63.1388 23.0448 63.9006C21.9865 65.1031 22.0135 65.0902 21.4462 64.6642C21.1774 64.4624 20.9575 64.2489 20.9575 64.1899Z" fill="#181818"/>
<path d="M67.1469 65.2893C67.1469 65.0255 68.3392 63.7353 68.6906 63.6189C68.8231 63.5751 68.881 63.784 68.911 64.4134L68.9515 65.2675L69.862 65.3074C70.661 65.3425 70.8053 65.3911 71.0428 65.705C71.2951 66.0385 71.3025 66.1428 71.152 67.256C71.0633 67.9123 70.8983 68.6674 70.7853 68.9341C70.6719 69.2021 69.969 70.0044 69.2134 70.7285L67.8469 72.0381L67.6166 73.3749C67.4361 74.4232 67.296 74.8361 66.9675 75.2885C66.7371 75.6056 66.4897 75.8653 66.4179 75.8653C66.3393 75.8653 66.3228 75.4725 66.3763 74.8813C66.5256 73.2315 66.7289 70.0038 66.7311 69.2492C66.7331 68.5713 66.7157 68.5367 66.3736 68.5367C66.07 68.5367 66.0258 68.4891 66.0901 68.2313C66.1321 68.0633 66.2046 67.5901 66.2513 67.1796C66.3881 65.9777 66.4467 65.8197 66.806 65.6852C67.0099 65.6089 67.1469 65.4499 67.1469 65.2893Z" fill="#181818"/>
<path d="M43.2312 68.8311C43.5512 67.7426 44.8688 65.1855 45.3922 64.6372C45.7278 64.2856 45.7969 64.269 46.018 64.4867C46.1388 64.6056 46.2298 64.6011 46.3928 64.468C46.6731 64.239 46.9244 64.4562 47.543 65.4617C47.9973 66.2001 47.9992 66.2111 47.8349 67.0339C47.729 67.5632 47.6924 68.6162 47.7335 69.948L47.7979 72.0334L47.3793 71.9152C46.8482 71.7652 46.6997 71.5988 46.4239 70.8438C46.3011 70.5079 46.1372 70.0637 46.0593 69.8568L45.9179 69.4803L44.7096 70.5048C44.045 71.0683 43.408 71.512 43.2941 71.4905C42.9843 71.4326 42.9458 69.8018 43.2312 68.8311Z" fill="#181818"/>
<path d="M51.844 66.9081C51.9379 66.9081 53.1782 65.2737 53.4712 64.7638C53.7235 64.3248 53.9862 64.468 53.9468 65.0229C53.8748 66.0367 53.7315 66.4044 53.0767 67.2558C52.7012 67.7443 52.3938 68.2032 52.3938 68.2758C52.3938 68.485 53.3547 70.3105 53.8039 70.955C54.2024 71.5265 54.2053 71.5429 53.9236 71.6154C53.5439 71.7132 53.559 71.8495 53.9794 72.1206C54.4212 72.4056 54.4194 72.6081 53.975 72.6081C53.5017 72.6081 52.7371 72.2798 52.2092 71.8497C51.7887 71.5073 50.9677 70.5708 50.7442 70.1783C50.661 70.0321 50.4792 70.1357 49.9636 70.6232L49.2916 71.2586L49.2483 70.7714C49.2161 70.4095 49.3149 70.1153 49.6317 69.6293L50.0584 68.9748L49.7031 67.9326C49.5076 67.3594 49.3856 66.7727 49.4319 66.6288C49.535 66.3093 50.5657 65.0081 50.7158 65.0081C50.7753 65.0081 51.0339 65.4356 51.2908 65.9581C51.5477 66.4806 51.7965 66.9081 51.844 66.9081Z" fill="#181818"/>
<path d="M25.0902 66.2845C25.4675 65.9184 26.1345 65.4211 26.5724 65.1794C27.5354 64.6479 27.7084 64.6374 28.1338 65.0829L28.4641 65.4291L27.9854 65.7946C27.4291 66.2195 26.7863 66.875 26.5988 67.2089C26.4962 67.3915 26.5502 67.4918 26.8494 67.6744C27.0593 67.8023 27.4327 68.0911 27.6791 68.3163C28.412 68.9859 28.2613 69.8391 27.207 70.9877C26.7401 71.4965 25.4974 72.4724 25.3166 72.4724C25.1228 72.4724 25.251 71.7225 25.4893 71.4632C25.6309 71.3092 25.854 71.017 25.9849 70.814L26.2232 70.4447L25.4661 70.1152C24.7362 69.7975 24.7036 69.7606 24.5568 69.0866C24.473 68.7021 24.4044 68.0643 24.4044 67.6689C24.4044 66.9867 24.4392 66.9165 25.0902 66.2845Z" fill="#181818"/>
<path d="M87.3741 66.4506C87.9598 65.857 88.8669 65.2175 89.5178 64.939C90.13 64.6771 90.2155 64.6876 90.5803 65.0697L90.8981 65.4028L90.432 65.7799C89.8664 66.2374 88.9317 67.211 88.9317 67.3427C88.9317 67.3951 89.2081 67.6251 89.5461 67.8539C90.7119 68.6435 90.871 69.2885 90.1601 70.3449C89.7005 71.0277 88.6819 71.9738 88.07 72.2859C87.7047 72.4723 87.6908 72.4668 87.6908 72.1377C87.6908 71.9499 87.908 71.5162 88.1734 71.1739C88.4388 70.8316 88.6553 70.5105 88.6544 70.4602C88.6536 70.41 88.3278 70.2467 87.9306 70.0974C87.2602 69.8455 87.1966 69.782 87.0469 69.2153C86.9583 68.8794 86.8808 68.2364 86.8746 67.7863C86.8642 67.0198 86.8958 66.9354 87.3741 66.4506Z" fill="#181818"/>
<path d="M14.3692 65.5728L15.2849 65.239C16.4324 64.8207 16.7251 64.7926 16.6325 65.1099C16.0403 67.1392 15.7334 68.4171 15.5326 69.6903L15.4685 70.0974L15.9343 69.5546C16.1906 69.256 16.725 68.4726 17.1221 67.8137C17.8702 66.5722 17.9907 66.4561 18.6825 66.3102L19.0961 66.2229V69.2781C19.0961 71.8607 19.0642 72.3455 18.8905 72.4112C18.7744 72.4552 18.5847 72.3672 18.4547 72.2093C18.3281 72.0555 18.094 71.9296 17.9345 71.9296C17.6161 71.9296 17.1617 71.3072 17.0216 70.6796C16.9751 70.4714 16.9115 70.301 16.8802 70.301C16.8491 70.301 16.5303 70.5212 16.1721 70.7904C15.5745 71.2393 15.4606 71.2749 14.7924 71.2203C14.3917 71.1876 14.0172 71.115 13.9603 71.0588C13.7572 70.859 13.8588 68.0685 14.1147 66.8172L14.3692 65.5728Z" fill="#181818"/>
<path d="M9.99431 67.807C9.02309 67.1722 8.76787 66.6937 8.88948 65.7357C8.97069 65.0963 9.01978 65.0081 9.29498 65.0081C9.65857 65.0081 10.9233 65.4195 11.5665 65.7468C12.4797 66.2116 12.5469 66.3598 12.5469 67.9102V69.3194L12.0298 69.7789C11.7455 70.0317 11.3651 70.3402 11.1845 70.4645L10.8563 70.6906L11.2403 71.0158L11.6243 71.341L11.1256 71.7153C10.1428 72.4531 8.97745 72.2699 9.18923 71.4108C9.31084 70.9173 9.81754 69.8377 10.3241 68.993L10.7423 68.2958L9.99431 67.807Z" fill="#181818"/>
<path d="M35.0565 66.0253C35.075 66.0136 35.3936 65.7799 35.7648 65.5061C36.5029 64.9614 36.5169 64.9564 36.8051 65.1358C36.9714 65.2394 36.9769 65.3727 36.8396 65.9584C36.7494 66.3429 36.6781 66.9429 36.6812 67.2916L36.6867 67.926L36.9074 67.5188C37.2887 66.816 37.9303 66.0937 38.1694 66.0983C38.2957 66.1008 38.7172 66.211 39.1059 66.3431C39.8103 66.5828 39.8142 66.5825 40.2089 66.2715C40.6676 65.9103 41.0454 65.8804 41.7078 66.1527C42.2993 66.3961 42.3939 66.7292 42.2829 68.1804C42.1702 69.6553 41.9757 70.2795 41.5725 70.4603C41.3934 70.5408 41.2114 70.7454 41.1681 70.9152C41.1078 71.1519 40.5183 71.5224 40.2019 71.5224C40.1924 71.5224 40.1764 70.9471 40.1663 70.244C40.1564 69.5408 40.1033 68.8263 40.0484 68.6561C39.9563 68.3706 39.9246 68.3932 39.6362 68.9506C39.2402 69.716 38.2857 70.7882 37.9152 70.8835C37.434 71.0074 37.1757 70.4429 37.2659 69.4646C37.3306 68.7627 37.3133 68.6652 37.153 68.8243C36.9525 69.0231 35.6697 71.5251 35.5164 72.0165C35.4583 72.2026 35.2839 72.3277 35.0319 72.3641C34.6399 72.4207 34.6375 72.4168 34.5487 71.5296C34.4372 70.4151 34.8288 66.1705 35.0565 66.0253Z" fill="#181818"/>
<path d="M72.2897 67.0869C72.3176 66.3777 72.5279 66.0375 73.4203 65.258C73.9749 64.7737 74.9898 65.0308 75.8665 65.8776C76.1501 66.1517 76.421 66.5284 76.4686 66.7146C76.6299 67.3472 75.4557 70.1107 74.4918 71.3671C73.8548 72.1974 72.7006 72.4565 72.3026 71.8587C72.1059 71.5633 72.0876 71.2607 72.1685 69.6534C72.2201 68.6286 72.2747 67.4738 72.2897 67.0869Z" fill="#181818"/>
<path d="M77.1348 65.7745C77.1828 65.4792 77.2579 65.1805 77.3018 65.1107C77.4886 64.8132 79.8194 65.5964 80.4446 66.1667C80.7789 66.4717 80.7969 66.5599 80.7969 67.9037V69.3194L80.2798 69.7789C79.9955 70.0317 79.6151 70.3402 79.4345 70.4645L79.1063 70.6906L79.4903 71.0158L79.8743 71.341L79.3756 71.7153C78.3928 72.4531 77.2274 72.2699 77.4392 71.4108C77.5621 70.9118 78.0746 69.83 78.5847 68.9927L79.0097 68.2951L78.2348 67.7888C77.3227 67.193 77.0004 66.6025 77.1348 65.7745Z" fill="#181818"/>
<path d="M28.879 69.3882C29.041 67.8257 29.5044 66.6003 30.2735 65.7007C30.494 65.4428 30.7307 65.2957 30.8661 65.3325C30.9691 65.3604 31.1636 65.4135 31.3352 65.4603L31.4363 65.4879C32.4432 65.763 33.077 66.1312 33.2153 66.5215C33.3475 66.8951 33.2754 67.0445 32.1823 68.6597C31.2008 70.11 31.0222 70.4557 31.099 70.757C31.1496 70.9555 31.2516 71.1546 31.3257 71.1997C31.3997 71.2447 31.8605 71.1142 32.3497 70.9095C32.8389 70.7049 33.2753 70.5731 33.3194 70.6165C33.3635 70.6599 33.3608 70.8993 33.3133 71.1484C33.219 71.6431 32.2838 72.4724 31.8204 72.4724C31.0978 72.4724 29.7061 71.6178 29.1559 70.8362C28.8095 70.3444 28.7904 70.2437 28.879 69.3882Z" fill="#181818"/>
<path d="M20.1302 69.2777C20.1302 68.2676 20.9719 66.965 22.1632 66.1312C22.5126 65.8867 22.8784 65.6867 22.9761 65.6867C23.3491 65.6867 23.4641 66.2065 23.309 67.1909C23.1838 67.985 22.7554 71.5349 22.7513 71.8132C22.7477 72.0463 22.2643 72.0346 21.7765 71.7898C21.2951 71.5479 21.2065 71.4236 21.0035 70.7053C20.8072 70.0097 20.7283 69.8938 20.4523 69.8938C20.162 69.8938 20.1302 69.8329 20.1302 69.2777Z" fill="#181818"/>
</g>
<defs>
<clipPath id="clip0_4_4318">
<rect width="91" height="76" fill="white"/>
</clipPath>
</defs>
</svg>
