<svg width="105" height="70" viewBox="0 0 105 70" fill="none" xmlns="http://www.w3.org/2000/svg">
<path d="M46.8975 30.3913C46.4518 29.8423 46.1056 29.2186 45.8746 28.5488C44.5895 25.2901 43.5734 21.9305 42.8364 18.5039C42.3495 16.2928 41.8815 14.0741 41.523 11.8364C41.4135 11.1792 41.3607 10.5143 41.2814 9.84948C41.138 9.92926 41.1946 10.0622 41.1871 10.1686C41.089 12.4671 40.9304 14.7693 41.021 17.0716C41.1418 19.9893 41.3418 22.8995 41.7306 25.8096C42.1193 28.7197 42.6326 31.6032 43.2705 34.4678C43.3044 34.6046 43.361 34.7641 43.2705 34.8819C43.1799 34.9997 43.0666 34.8819 42.9723 34.8553C40.0642 33.9206 37.3538 32.4508 34.9785 30.5205C33.7189 29.5317 32.671 28.2967 31.8979 26.8898C31.1247 25.4828 30.6423 23.9329 30.4797 22.3334C30.0607 18.5343 30.9779 15.0733 32.4423 11.6617C33.952 8.13987 36.0579 4.9752 38.1602 1.80674C38.5036 1.29386 38.8546 0.784774 39.1679 0.252897C39.3377 -0.0320368 39.5038 -0.0586316 39.7831 0.085735C40.7981 0.635973 41.7652 1.27141 42.6741 1.9853C46.12 4.5725 49.3054 7.42184 51.7058 11.0652C53.188 13.223 54.3229 15.6026 55.0686 18.1164C55.1931 18.5685 55.1139 18.7736 54.6912 18.937C52.5589 19.7262 50.6998 21.1211 49.3394 22.9526C47.9303 24.8448 47.1095 27.1146 46.9805 29.4757C46.9654 29.7265 46.9314 29.9924 46.8975 30.3913ZM59.8015 29.0198C59.3221 29.5023 58.7937 29.9468 58.3635 30.4673C56.9449 32.1722 55.6375 33.9679 54.4496 35.8431C53.9266 36.6181 53.509 37.4601 53.2079 38.3467C53.1287 38.6126 53.1777 38.7266 53.457 38.7646C54.9008 39.0198 56.362 39.1633 57.8276 39.1939C61.3338 39.1217 64.0059 37.6287 65.8251 34.6122C67.097 32.4998 67.6895 30.152 68.033 27.7357C68.3764 25.3195 68.3576 22.8273 68.3878 20.3654C68.3878 19.9361 68.2557 19.8336 67.8481 19.8374C65.2596 19.8068 62.6724 19.9668 60.1072 20.3161C58.1021 20.5792 56.1596 21.1992 54.3704 22.1472C51.8719 23.5529 50.0829 25.5436 49.4639 28.4272C48.9318 30.9764 49.2261 33.5104 49.8036 36.0254C49.9659 36.7321 50.0527 36.7625 50.5584 36.2002C52.7704 33.7321 55.2693 31.5407 58.0012 29.6733C58.7232 29.1676 59.4887 28.7277 60.2883 28.3588C60.1789 28.614 60.0123 28.8403 59.8015 29.0198ZM52.8682 53.0303C52.7588 51.4613 51.9285 50.6217 50.381 50.4165C49.5655 50.3217 48.743 50.3026 47.924 50.3595C46.4734 50.4379 45.1089 51.0777 44.1159 52.1451C43.8488 52.4303 43.6568 52.7781 43.5573 53.1569C43.4578 53.5358 43.4539 53.9336 43.546 54.3144C43.6818 55.097 44.1385 55.3706 44.9122 55.1654C45.1122 55.1137 45.2958 55.0116 45.4457 54.8687C45.5956 54.7258 45.7069 54.5468 45.769 54.3486C45.9086 53.9687 46.0143 53.566 46.1464 53.1709C46.5616 51.788 47.3013 51.2219 48.7355 51.1877C49.5092 51.1687 49.8678 51.3853 50.147 52.1185C50.5622 53.2088 50.4754 54.3296 50.3131 55.4541C50.2867 55.6251 50.1735 55.6745 50.0112 55.6859C48.1241 55.8416 46.4597 56.6091 44.8028 57.4373C43.1459 58.2655 42.4477 59.5496 42.4741 61.3466C42.4637 61.7762 42.5516 62.2024 42.7309 62.5924C42.9102 62.9823 43.1762 63.3256 43.5082 63.5957C44.0467 64.0293 44.6766 64.3335 45.3496 64.4849C46.0227 64.6363 46.7212 64.6311 47.3919 64.4695C48.4482 64.2642 49.3903 63.6695 50.0338 62.8016C50.1169 62.6953 50.2037 62.5243 50.3584 62.5775C50.5131 62.6307 50.4263 62.8016 50.4339 62.9232C50.4327 63.3044 50.4579 63.6853 50.5094 64.0629C50.6037 64.4922 50.8302 64.6822 51.2642 64.5454C52.2229 64.2377 53.1815 63.9224 54.1326 63.5881C54.2735 63.5527 54.3975 63.4687 54.4831 63.3506C54.5686 63.2326 54.6102 63.088 54.6006 62.9422C54.5666 62.5965 54.2609 62.5129 53.9779 62.4559C53.1287 62.2964 53.1211 62.3039 52.989 61.4529C52.9525 61.2014 52.9349 60.9474 52.9362 60.6931C52.9362 59.7091 52.9362 58.7252 52.9362 57.7412C53.1211 56.1646 52.9664 54.5993 52.8682 53.0303ZM50.4226 59.5382C50.4641 60.9743 49.7696 62.0304 48.6751 62.8396C47.875 63.4323 46.9805 63.3335 46.1124 62.9764C45.9517 62.906 45.8094 62.799 45.6968 62.6639C45.5841 62.5287 45.5042 62.3691 45.4633 62.1976C45.0104 60.6779 45.1651 59.1355 46.5955 58.1287C47.538 57.4642 48.5933 56.9788 49.7092 56.6964C50.3622 56.5369 50.3886 56.5597 50.3924 57.2093C50.3924 57.6348 50.3924 58.0641 50.3924 58.4934C50.4075 58.8429 50.3961 59.1925 50.4075 59.5382H50.4226ZM97.9775 58.3984C97.9775 57.0308 97.9964 55.6669 97.9775 54.2992C97.9619 53.4549 97.7499 52.6261 97.3585 51.8792C96.9811 51.1687 96.4641 50.5837 95.6639 50.4811C93.8259 50.2379 92.1086 50.5267 90.7575 51.9703C90.5838 52.1565 90.414 52.3503 90.2328 52.5212C90.146 52.6048 90.0479 52.7378 89.9196 52.6922C89.7913 52.6466 89.8403 52.4718 89.8403 52.3578C89.8403 51.8336 89.8177 51.3055 89.8403 50.785C89.8403 50.4355 89.7384 50.3519 89.4025 50.4051C88.2099 50.5609 87.2173 51.3017 86.0472 51.5144C85.8397 51.5524 85.7717 51.769 85.7831 51.9703C85.7944 52.1717 86.002 52.1527 86.1605 52.1717C87.1644 52.3047 87.489 52.6618 87.489 53.6495C87.489 56.2519 87.4475 58.8582 87.5116 61.4606C87.5343 62.5053 87.3682 63.2803 86.2171 63.5083C86.0133 63.5501 85.8812 63.6792 85.9718 63.9262C86.0623 64.1731 86.1076 64.3061 86.3907 64.2757C87.9796 64.0743 89.5761 64.1883 91.1688 64.1883C91.3802 64.1883 91.5727 64.2187 91.5689 63.8882C91.5651 63.5577 91.4972 63.5083 91.1915 63.4855C90.297 63.3753 89.9611 62.965 89.9611 62.057C89.9611 59.5243 89.9611 56.9991 89.9611 54.4816C89.9365 54.2156 89.9988 53.9488 90.1385 53.7217C90.8386 52.6899 91.8638 51.9257 93.0484 51.5524C94.0637 51.2523 94.7996 51.655 95.1846 52.6618C95.4213 53.3372 95.5326 54.0506 95.5129 54.7665C95.5129 57.2992 95.5129 59.8244 95.5129 62.3419C95.5129 63.0182 95.4412 63.1208 94.7921 63.3107C94.5275 63.357 94.2858 63.4907 94.1052 63.6906C93.9127 63.9414 93.924 64.1313 94.275 64.1769C94.5724 64.2205 94.8728 64.2395 95.1733 64.2339C96.4992 64.1275 97.8308 64.1123 99.1588 64.1883C99.3136 64.1883 99.5023 64.2225 99.4872 63.9756C99.4872 63.7894 99.5891 63.5501 99.257 63.5007C99.0276 63.4455 98.8019 63.3757 98.5814 63.2917C98.3899 63.2513 98.2214 63.1376 98.1116 62.9746C98.0017 62.8116 97.9591 62.612 97.9926 62.4179C98.0303 61.0844 97.9926 59.7585 97.9926 58.4174L97.9775 58.3984ZM84.4319 55.04C83.8092 52.6542 82.341 51.0927 79.933 50.5305C77.5251 49.9682 75.672 50.7964 74.1434 52.6352C71.8789 55.3706 72.5243 60.3132 74.2189 62.2963C76.4834 64.9557 80.3444 65.6168 82.9901 62.4597C84.1383 61.095 84.7505 59.3544 84.7112 57.5665C84.6925 56.7133 84.5953 55.8637 84.4206 55.0286L84.4319 55.04ZM76.0947 53.0113C76.2228 52.6859 76.3915 52.3783 76.5966 52.0957C76.7483 51.8515 76.9498 51.6425 77.1876 51.4825C77.4254 51.3224 77.6943 51.215 77.9765 51.1672C78.2586 51.1194 78.5476 51.1325 78.8243 51.2054C79.1011 51.2784 79.3594 51.4096 79.582 51.5904C80.3313 52.1087 80.8929 52.858 81.1823 53.7255C82.0432 56.1969 82.1484 58.8714 81.4842 61.4036C81.3978 61.7093 81.2789 62.0049 81.1295 62.285C80.3331 63.8236 78.5932 64.1085 77.3364 62.9042C76.571 62.0951 76.0478 61.0851 75.8267 59.9903C75.5579 58.9771 75.4308 57.9311 75.4493 56.8826C75.4275 55.5606 75.6423 54.2453 76.0834 52.9999L76.0947 53.0113ZM29.8796 53.0113C27.8491 49.7972 23.2068 49.4135 20.8215 52.2515C18.64 54.8463 18.3645 58.9607 20.2742 61.7493C23.086 65.8827 27.8604 64.9633 29.8192 61.8025C30.5903 60.4616 31.0316 58.9544 31.1062 57.4069C31.0725 55.8606 30.6464 54.3487 29.8683 53.0151L29.8796 53.0113ZM27.4905 62.152C26.6451 63.873 25.0033 64.1503 23.6257 62.813C22.753 61.9075 22.1819 60.751 21.9915 59.504C21.6067 57.4708 21.6894 55.3759 22.2331 53.3798C22.3514 52.9338 22.5623 52.5182 22.852 52.1603C23.9012 50.8268 25.494 50.7926 26.5696 52.0881C27.3509 53.0113 27.6792 54.1358 27.9132 55.2908C28.1094 56.3768 28.218 57.4771 28.2378 58.5808C28.2561 59.8148 27.9968 61.037 27.4792 62.1558L27.4905 62.152ZM4.18104 56.3507C4.18104 56.1266 4.18105 55.948 4.4943 55.9442C5.61222 55.863 6.73552 55.8999 7.8458 56.0544C8.56289 56.1874 9.18186 56.4647 9.30264 57.3157C9.31037 57.3961 9.33834 57.4732 9.38391 57.5396C9.42948 57.6061 9.49113 57.6598 9.56305 57.6956C9.63069 57.7374 9.7063 57.7644 9.78498 57.7749C9.86365 57.7853 9.94363 57.7791 10.0197 57.7564C10.1858 57.6842 10.1216 57.5057 10.1065 57.3765C9.97821 56.3357 9.97821 55.283 10.1065 54.2422C10.131 54.1002 10.131 53.955 10.1065 53.8129C10.0801 53.6837 10.1065 53.4976 9.92538 53.4596C9.84643 53.4467 9.76552 53.4543 9.69025 53.4815C9.61499 53.5088 9.54784 53.5548 9.49512 53.6154C9.40386 53.7019 9.33849 53.8125 9.30641 53.9345C9.14412 54.8425 8.49118 55.1084 7.70237 55.211C6.71353 55.344 5.71337 55.2376 4.72453 55.2908C4.2603 55.3174 4.17727 55.135 4.18104 54.7209C4.18104 52.8213 4.18104 50.9218 4.18104 49.0488C4.18104 48.1826 4.2905 48.0496 5.15479 48.0572C6.16628 48.0572 7.17776 48.0914 8.17415 48.1598C8.51624 48.1737 8.84954 48.2729 9.14404 48.4487C9.43854 48.6244 9.68499 48.8711 9.86122 49.1666C10.0273 49.4325 10.1745 49.7137 10.333 49.9872C10.472 50.2511 10.6993 50.457 10.9746 50.5685C11.352 50.7204 11.4766 50.6483 11.4351 50.2417C11.3558 49.4819 11.3294 48.6955 11.1746 47.9281C11.0765 47.4342 10.8953 47.3126 10.4198 47.3202C7.09095 47.3734 3.76211 47.229 0.433262 47.4456C0.199262 47.4456 0.0331966 47.5292 0.0143256 47.7875C-0.00454543 48.0458 0.237003 48.0003 0.391746 48.023C1.47494 48.175 1.78065 48.5055 1.81839 49.5959C1.81839 49.82 1.81839 50.0404 1.81839 50.2645C1.81839 52.9011 1.81839 55.5377 1.81839 58.1743C1.81839 59.5382 1.81839 60.9059 1.81839 62.2736C1.84978 62.5394 1.77709 62.807 1.61575 63.0198C1.45441 63.2325 1.21708 63.3737 0.954101 63.4133C0.756136 63.4686 0.551896 63.498 0.346454 63.5007C0.0898086 63.5007 -0.0309636 63.5691 0.00677844 63.8578C0.0445205 64.1465 0.191713 64.2377 0.459681 64.1503C0.704785 64.08 0.960875 64.0568 1.21452 64.0819C2.66382 64.1047 4.12066 63.9984 5.56618 64.1845C5.78131 64.2111 5.9436 64.1845 5.92473 63.8958C5.92473 63.6716 5.92473 63.4855 5.61147 63.5159C5.43819 63.519 5.26535 63.4973 5.09818 63.4513C4.36975 63.2841 4.21124 63.0714 4.21124 62.3457V59.485C4.18105 58.4137 4.18104 57.3803 4.18104 56.3507ZM62.4547 63.8008C62.5793 64.3137 62.7227 64.3593 63.1756 64.0971C63.2598 64.0542 63.3373 63.9991 63.4058 63.9338C63.5272 63.8069 63.6856 63.7223 63.858 63.6923C64.0304 63.6622 64.2078 63.6883 64.3645 63.7666C64.8664 63.9528 65.3684 64.1465 65.8741 64.3099C66.4709 64.5244 67.1077 64.6016 67.738 64.5359C68.3683 64.4701 68.9759 64.2631 69.5162 63.93C71.6449 62.6687 72.362 59.6066 69.9805 57.745C69.4422 57.331 68.8717 56.9613 68.2745 56.6395C67.4178 56.1646 66.5384 55.7315 65.7081 55.211C65.2492 54.9586 64.8847 54.5622 64.6701 54.0822C64.4555 53.6022 64.4025 53.0647 64.5192 52.5516C64.5288 52.36 64.5762 52.1723 64.6588 51.9995C64.7415 51.8267 64.8576 51.6722 65.0003 51.5451C65.143 51.4181 65.3096 51.321 65.4901 51.2597C65.6706 51.1983 65.8615 51.1738 66.0515 51.1877C67.3234 51.1573 68.2406 51.7728 68.9879 52.7416C69.233 53.13 69.5163 53.4927 69.8333 53.8243C70.0145 53.9801 70.2107 54.1548 70.4673 54.0561C70.724 53.9573 70.69 53.6761 70.6749 53.433C70.6334 52.6732 70.5013 51.8868 70.5202 51.1079C70.5202 50.9408 70.6561 50.7052 70.373 50.6255C70.0899 50.5457 69.7352 50.4165 69.5804 50.6862C69.2634 51.2371 68.8482 51.0434 68.4783 50.899C67.8607 50.6599 67.2191 50.4892 66.5648 50.3899C64.0625 50.01 61.4281 51.9096 62.4585 55.116C62.885 56.4419 63.8512 57.2359 64.9872 57.8818C65.7722 58.3225 66.5837 58.7138 67.365 59.1583C68.0244 59.485 68.5607 60.0182 68.8935 60.6779C69.4294 61.848 69.1917 62.87 68.2632 63.3905C67.8587 63.6158 67.3928 63.7038 66.9347 63.6412C66.2195 63.5521 65.5346 63.2975 64.9335 62.8974C64.3324 62.4973 63.8315 61.9626 63.47 61.3352C63.3341 61.1224 63.2247 60.8907 63.0699 60.6893C62.9855 60.5923 62.8752 60.5217 62.7521 60.486C62.6289 60.4503 62.4982 60.451 62.3755 60.488C62.1226 60.545 62.2509 60.8071 62.232 60.9781C62.2132 61.149 62.232 61.4226 62.232 61.7797C62.2179 62.461 62.2967 63.141 62.466 63.8008H62.4547ZM16.5793 54.0979C16.5793 52.8593 16.5793 51.6246 16.5793 50.3861C16.5793 49.0336 16.5793 47.6849 16.5529 46.3362C16.5265 45.489 16.2547 45.3447 15.4584 45.6334C14.662 45.9221 13.9072 46.3362 13.0542 46.473C12.8051 46.5148 12.6768 46.72 12.5258 46.9175C12.3748 47.1151 12.4465 47.2632 12.673 47.3278C12.9434 47.4117 13.2197 47.4752 13.4995 47.5178C13.5541 47.5188 13.6079 47.5305 13.6579 47.5525C13.7079 47.5744 13.7531 47.606 13.7909 47.6455C13.8288 47.685 13.8585 47.7317 13.8785 47.7828C13.8984 47.8338 13.9082 47.8884 13.9072 47.9433C14.0081 48.5713 14.056 49.2067 14.0506 49.8428C14.0204 51.3017 13.9525 52.7606 13.9449 54.2232C13.926 57.3005 13.9449 60.3816 13.9449 63.4627C13.9449 64.4087 14.2695 64.6898 15.2055 64.496C16.0509 64.3251 16.8888 64.1161 17.7342 63.9072C18.0248 63.8426 18.055 63.6336 18.0588 63.4057C18.0645 63.3543 18.0597 63.3022 18.0448 63.2527C18.0298 63.2032 18.005 63.1573 17.9717 63.1178C17.9385 63.0784 17.8976 63.0461 17.8516 63.0231C17.8056 63.0001 17.7553 62.9868 17.704 62.984C17.5153 62.984 17.3266 62.9536 17.1379 62.946C16.8435 62.927 16.6737 62.8168 16.6699 62.4825C16.6699 61.9924 16.5868 61.5023 16.5868 61.0085C16.5868 58.7062 16.5868 56.4039 16.5868 54.1016L16.5793 54.0979ZM35.9674 52.0463C36.0499 51.7236 36.093 51.3918 36.0957 51.0586C36.0957 50.3253 35.7183 50.067 35.0578 50.3595C34.2582 50.7704 33.4183 51.0963 32.5517 51.3321C32.2913 51.3853 32.0233 51.5258 32.046 51.8716C32.0686 52.2173 32.329 52.2781 32.6046 52.3541C33.4538 52.582 33.5934 52.7036 33.6009 53.585C33.6236 56.4609 33.6198 59.3368 33.6009 62.2128C33.6009 62.8206 33.3443 63.079 32.7442 63.2461C32.6083 63.2841 32.4649 63.2993 32.3328 63.3487C31.9856 63.4779 32.0045 63.7818 32.0309 64.0667C32.0686 64.4201 32.3404 64.2529 32.5102 64.2491C32.823 64.2078 33.1383 64.1887 33.4538 64.1921C34.633 64.3016 35.8179 64.3371 37.0015 64.2985C37.1827 64.2985 37.4355 64.3973 37.5261 64.2073C37.5602 64.093 37.567 63.9722 37.546 63.8547C37.525 63.7372 37.4768 63.6263 37.4053 63.5311C37.3376 63.4128 37.2394 63.3152 37.1212 63.2483C37.003 63.1815 36.8691 63.1479 36.7335 63.1512C36.2542 63.1056 36.0957 62.8396 36.0957 62.3913C36.0957 59.9447 36.0957 57.4943 36.0957 55.0476C36.0979 54.5605 36.2061 54.0798 36.4128 53.6394C36.6195 53.1989 36.9197 52.8095 37.2921 52.4984C38.1451 51.7386 38.9452 51.8146 39.6774 52.6656C39.8711 52.8776 40.1187 53.0323 40.3935 53.1126C40.6683 53.193 40.9598 53.1961 41.2362 53.1215C41.757 53.0303 41.9231 52.5402 42.0174 52.0843C42.0739 51.8257 42.0519 51.556 41.9543 51.3101C41.8567 51.0642 41.6881 50.8535 41.4702 50.7052C41.2146 50.514 40.9189 50.384 40.6059 50.3253C39.8717 50.1658 39.1075 50.2221 38.4042 50.4875C37.7009 50.7529 37.0883 51.2162 36.6392 51.8222C36.424 52.0843 36.2202 52.3541 35.9636 52.6846C35.9067 52.4755 35.908 52.2547 35.9674 52.0463ZM58.1748 64.2985C58.9824 64.2985 59.7864 64.2985 60.5903 64.2985C60.9903 64.2985 61.1262 64.0857 61.0167 63.7058C60.9299 63.3943 60.662 63.3259 60.3978 63.2689C59.5939 63.0448 59.4806 62.889 59.4844 62.076C59.4844 59.2647 59.4844 56.4495 59.5033 53.6381C59.5033 52.8137 59.6618 51.9969 59.6052 51.1687C59.5486 50.3405 59.2278 50.0936 58.4125 50.2987C58.3059 50.3254 58.2012 50.3597 58.0993 50.4013C57.3407 50.7565 56.5324 50.9923 55.7027 51.1003C55.647 51.0969 55.5914 51.1084 55.5416 51.1338C55.4919 51.1592 55.4497 51.1975 55.4196 51.2447C55.3749 51.3443 55.3531 51.4528 55.3559 51.562C55.3587 51.6713 55.386 51.7785 55.4357 51.8757C55.4854 51.9729 55.5563 52.0575 55.643 52.1232C55.7298 52.1889 55.8302 52.2341 55.9367 52.2553C56.0614 52.2793 56.1874 52.2958 56.3141 52.3047C56.6236 52.3047 56.733 52.449 56.7708 52.7644C56.8556 53.6023 56.8859 54.445 56.8613 55.287C56.8613 57.6678 56.8613 60.0511 56.8613 62.4369C56.8613 62.9954 56.7255 63.1246 56.1782 63.1967C56.0371 63.21 55.8993 63.2473 55.7706 63.3069C55.6339 63.3901 55.5284 63.5164 55.4704 63.6661C55.4124 63.8159 55.4051 63.9808 55.4498 64.1351C55.4951 64.4239 55.7857 64.2909 55.9669 64.2947C56.7217 64.2947 57.4539 64.2947 58.1936 64.2947L58.1748 64.2985ZM99.9741 50.0252C100.972 50.0214 101.947 49.72 102.775 49.159C103.603 48.598 104.247 47.8026 104.626 46.8732C105.006 45.9438 105.103 44.9222 104.905 43.9373C104.708 42.9524 104.225 42.0484 103.518 41.3396C102.811 40.6307 101.91 40.1488 100.931 39.9546C99.9518 39.7604 98.9373 39.8627 98.0157 40.2486C97.0942 40.6345 96.3068 41.2866 95.7532 42.1226C95.1996 42.9586 94.9046 43.941 94.9053 44.9458C94.9093 46.2956 95.4453 47.5887 96.3957 48.5411C97.3461 49.4934 98.633 50.0272 99.9741 50.0252ZM99.9741 49.7593C99.0269 49.763 98.0999 49.4838 97.3105 48.9569C96.5211 48.43 95.9048 47.6792 95.5396 46.7995C95.1744 45.9198 95.0767 44.9509 95.2589 44.0153C95.4411 43.0797 95.895 42.2195 96.5632 41.5437C97.2313 40.868 98.0837 40.407 99.0123 40.2191C99.9409 40.0313 100.904 40.125 101.78 40.4885C102.655 40.852 103.404 41.4688 103.931 42.2609C104.458 43.053 104.74 43.9847 104.741 44.9382C104.742 45.5706 104.619 46.197 104.379 46.7817C104.14 47.3663 103.788 47.8977 103.344 48.3454C102.901 48.7931 102.374 49.1484 101.793 49.391C101.213 49.6336 100.591 49.7588 99.9627 49.7593H99.9741ZM57.9785 45.3409C57.1708 45.3599 56.5594 45.8348 56.5632 46.4388C56.5632 47.4684 57.0803 48.1446 57.8351 48.1408C58.5899 48.137 59.3448 47.5406 59.3221 46.8643C59.307 45.8652 58.8315 45.3257 57.9785 45.3409ZM40.7304 68.7511C40.5266 68.3711 40.3115 68.014 40.1152 67.6379C40.0541 67.5246 39.9567 67.4354 39.8388 67.3851C39.7209 67.3347 39.5895 67.3261 39.4661 67.3606C39.1905 67.4062 39.3075 67.6683 39.3038 67.8355C39.3038 68.4395 39.3038 69.0436 39.3038 69.6439C39.3038 69.8224 39.2849 69.9934 39.5566 69.9934C39.8284 69.9934 39.8057 69.8186 39.8057 69.6439V68.3256C39.892 68.4103 39.9715 68.5017 40.0435 68.5991C40.2473 68.979 40.4587 69.3589 40.6398 69.7388C40.7719 70.0238 41.0173 70.0124 41.2399 69.9858C41.4626 69.9592 41.4022 69.716 41.406 69.5679C41.406 68.9334 41.406 68.299 41.406 67.6683C41.406 67.4974 41.406 67.353 41.1644 67.3492C40.9229 67.3454 40.8436 67.429 40.8512 67.6569C40.8512 68.014 40.8512 68.3749 40.8512 68.7359L40.7304 68.7511ZM77.4157 68.6789C77.4157 69.0284 77.4157 69.3779 77.4157 69.7236C77.4157 69.8566 77.4157 69.9896 77.6044 69.9858C78.0272 70.0368 78.4561 69.9886 78.8574 69.8452C79.2575 69.6477 79.4311 69.1728 79.1556 68.9106C78.88 68.6485 78.9895 68.5079 79.0952 68.2686C79.2914 67.8165 79.1405 67.5353 78.6687 67.4176C78.4997 67.3802 78.3281 67.3561 78.1554 67.3454C77.4006 67.2808 77.4006 67.2846 77.4006 68.014V68.6789H77.4157ZM77.9554 69.1462C77.9554 68.9448 77.9931 68.8232 78.2422 68.8308C78.4913 68.8384 78.5743 69.017 78.5894 69.2411C78.6045 69.4653 78.446 69.4843 78.2648 69.4767C78.0195 69.5185 77.9516 69.3817 77.9554 69.1462ZM78.178 67.7899C78.3517 67.8127 78.5743 67.7899 78.5555 68.0786C78.5366 68.3673 78.412 68.3939 78.178 68.4015C77.944 68.4091 77.9214 68.28 77.9289 68.1964C77.9667 67.9494 77.9327 67.7557 78.178 67.7899ZM64.3569 68.6637C64.3569 68.2838 64.3569 67.9342 64.3569 67.5695C64.3569 67.372 64.2361 67.3378 64.0739 67.3378C63.9116 67.3378 63.8323 67.3948 63.8323 67.5581C63.8266 67.6695 63.8266 67.7811 63.8323 67.8925C63.8814 68.2724 63.7379 68.4129 63.3341 68.4243C62.9303 68.4357 62.885 68.2002 62.9076 67.8887C62.9076 67.8089 62.9076 67.7291 62.9076 67.6493C62.9076 67.4707 62.8812 67.3378 62.6585 67.3378C62.4358 67.3378 62.3717 67.4252 62.3717 67.6265C62.3717 68.3256 62.3717 69.0246 62.3717 69.7198C62.3717 69.9364 62.466 69.9896 62.6585 69.9934C62.851 69.9972 62.9189 69.8832 62.9114 69.697C62.9038 69.5109 62.9114 69.2829 62.9114 69.0778C62.9114 68.9638 62.9114 68.8764 63.0699 68.8346C63.587 68.6865 63.8248 68.8574 63.8248 69.4007C63.8248 69.4957 63.8248 69.5907 63.8248 69.6856C63.8248 69.8642 63.8474 69.9896 64.0739 69.9934C64.3003 69.9972 64.3569 69.8642 64.3531 69.6628C64.3531 69.3323 64.3531 68.998 64.3531 68.6637H64.3569ZM74.234 68.0444C74.3887 67.7671 74.1057 67.5847 73.8566 67.5049C73.4744 67.413 73.0832 67.3646 72.6903 67.3606C72.4526 67.3416 72.396 67.467 72.3997 67.6797C72.3997 68.185 72.3809 68.6941 72.3997 69.1994C72.3997 69.4729 72.1997 69.9326 72.6866 69.9592C73.1735 69.9858 73.064 69.5299 73.064 69.2222C73.064 69.0968 73.0376 68.96 73.2301 68.9524C73.2614 68.9476 73.2934 68.9493 73.3241 68.9573C73.3547 68.9653 73.3835 68.9795 73.4085 68.9991C73.4336 69.0186 73.4545 69.0431 73.4698 69.071C73.4852 69.0989 73.4948 69.1296 73.498 69.1614C73.5207 69.2677 73.5584 69.3703 73.5811 69.4805C73.6754 69.8604 73.9207 70.0238 74.4001 69.9516C74.0793 69.3057 73.849 68.7093 74.234 68.0444ZM73.0527 68.0862C73.0527 67.9076 73.0527 67.7747 73.3018 67.7937C73.3987 67.7936 73.4919 67.831 73.5622 67.8982C73.6324 67.9653 73.6744 68.0572 73.6792 68.1546C73.7169 68.4243 73.4754 68.3712 73.3697 68.4053C73.0527 68.4243 73.0527 68.261 73.0527 68.0748V68.0862ZM34.8276 67.3492C34.0991 67.3226 33.7255 67.8203 33.7444 68.7017C33.7632 69.5831 34.1897 70.0048 34.971 69.9934C35.7522 69.982 36.1032 69.6135 36.1032 68.7169C36.1523 67.5391 35.7183 67.3796 34.8276 67.3492ZM35.522 69.1006C35.475 69.229 35.3924 69.3413 35.2841 69.4241C35.1758 69.5069 35.0462 69.5568 34.9106 69.5679C34.6539 69.6097 34.5332 69.3551 34.4313 69.188C34.3583 69.0651 34.3132 68.9276 34.2992 68.7853C34.2199 68.2382 34.4917 67.8089 34.9181 67.7899C35.3446 67.7709 35.605 68.147 35.6013 68.7853C35.59 68.827 35.5635 68.9676 35.5069 69.1006H35.522ZM49.4866 67.3416C48.7959 67.3416 48.3769 67.8279 48.3845 68.6029C48.3845 69.4691 48.8789 70.001 49.6564 69.9934C50.4339 69.9858 50.7887 69.5375 50.7622 68.7055C50.7585 67.6835 50.4301 67.3302 49.5017 67.3416H49.4866ZM50.1961 68.9866C50.1579 69.134 50.078 69.267 49.9661 69.3695C49.8542 69.472 49.7151 69.5396 49.5658 69.5641C49.2865 69.6287 49.2186 69.3399 49.1016 69.1842C49.0232 69.0544 48.9735 68.9092 48.9559 68.7585C48.9384 68.6077 48.9533 68.4548 48.9997 68.3104C49.0085 68.2311 49.033 68.1544 49.0718 68.0848C49.1106 68.0152 49.1629 67.9542 49.2255 67.9053C49.2881 67.8564 49.3599 67.8207 49.4365 67.8002C49.5131 67.7797 49.593 67.7749 49.6715 67.7861C50.0489 67.8241 50.1659 68.0596 50.1999 68.3863C50.1999 68.4813 50.1999 68.5763 50.2188 68.6979C50.2273 68.7939 50.2299 68.8903 50.2263 68.9866H50.1961ZM20.5347 68.3711C20.5347 68.1508 20.5347 67.9266 20.5347 67.7063C20.5347 67.5543 20.5837 67.3568 20.3346 67.353C20.0855 67.3492 19.9119 67.3796 19.9006 67.6189C19.8053 68.2499 19.8675 68.8949 20.0818 69.4957C20.2705 69.8984 20.6932 70.0542 21.2669 69.9782C21.4486 69.9539 21.6168 69.8681 21.7437 69.7348C21.8706 69.6016 21.9487 69.4288 21.9651 69.2449C22.0493 68.7428 22.062 68.2311 22.0028 67.7253C22.0028 67.5353 22.0028 67.3454 21.7198 67.3454C21.4367 67.3454 21.4669 67.5657 21.4631 67.7481C21.4631 68.1926 21.4631 68.6371 21.4631 69.0816C21.4658 69.1462 21.4551 69.2106 21.4318 69.2708C21.4084 69.331 21.3729 69.3857 21.3275 69.4314C21.2821 69.4771 21.2278 69.5128 21.168 69.5363C21.1082 69.5598 21.0442 69.5706 20.98 69.5679C20.6894 69.5679 20.5498 69.3437 20.5498 69.0474V68.3787L20.5347 68.3711ZM67.6291 69.6742C67.6291 69.8452 67.6292 69.9934 67.8707 69.9896H69.003C69.1954 69.9896 69.2332 69.8908 69.2407 69.7198C69.2483 69.5489 69.1426 69.4767 68.9765 69.4805C68.8105 69.4843 68.6935 69.4805 68.55 69.4805C68.2972 69.5033 68.1726 69.4159 68.1726 69.1386C68.1726 68.8612 68.2972 68.8157 68.5199 68.8308C68.7425 68.846 68.8671 68.8308 69.0407 68.8308C69.1464 68.8308 69.2181 68.7852 69.2219 68.6599C69.2256 68.5345 69.2219 68.4357 69.0558 68.4281C68.8897 68.4205 68.6784 68.4091 68.4897 68.4281C68.2255 68.4281 68.1802 68.2952 68.1764 68.071C68.1726 67.8469 68.301 67.7785 68.501 67.7861C68.701 67.7937 68.818 67.7861 68.9765 67.7861C69.135 67.7861 69.2219 67.7519 69.2219 67.5771C69.2219 67.4024 69.12 67.3796 68.9803 67.3568C67.7575 67.1592 67.6178 67.2732 67.6178 68.4965V68.6865C67.6442 69.0094 67.648 69.3399 67.6442 69.6742H67.6291ZM26.8678 69.3779C26.9159 69.1835 26.8858 68.9778 26.784 68.8056C26.6822 68.6334 26.517 68.5087 26.3243 68.4585C26.163 68.3918 26.0297 68.271 25.9469 68.1166C25.8487 67.9342 25.8789 67.8051 26.1016 67.7861C26.2276 67.7711 26.3552 67.7775 26.479 67.8051C26.6338 67.8393 26.7621 67.8773 26.7621 67.6455C26.7621 67.4138 26.7168 67.334 26.4979 67.3378C26.279 67.3416 26.1205 67.3378 25.9318 67.3378C25.7719 67.3318 25.6151 67.3831 25.4893 67.4826C25.3636 67.5821 25.2769 67.7233 25.2449 67.8811C25.203 68.0277 25.2103 68.1842 25.2655 68.3263C25.3208 68.4685 25.4209 68.5883 25.5506 68.6675C25.728 68.8005 25.928 68.9068 26.0978 69.0474C26.196 69.1234 26.3771 69.2221 26.2714 69.3703C26.2227 69.4434 26.1552 69.5017 26.0761 69.5392C25.997 69.5767 25.9093 69.5918 25.8223 69.5831C25.7619 69.5831 25.7129 69.5147 25.6525 69.4995C25.4977 69.4615 25.2751 69.3209 25.1996 69.5337C25.1241 69.7464 25.3392 69.8946 25.5506 69.9592C25.6323 69.978 25.7159 69.9869 25.7997 69.9858C26.4186 69.9972 26.7696 69.7844 26.864 69.3779H26.8678ZM84.0054 69.4767C84.1639 69.0056 83.8016 68.7169 83.4657 68.4737L83.3864 68.4205C83.1977 68.2724 82.8543 68.1546 82.9562 67.8887C83.0581 67.6227 83.3751 67.7671 83.6016 67.8051C83.7488 67.8279 83.8846 67.8963 83.8884 67.6569C83.8884 67.486 83.8884 67.3378 83.6506 67.3302C83.3047 67.3145 82.959 67.3648 82.6316 67.4784C82.5261 67.5137 82.4363 67.5851 82.3777 67.6802C82.3191 67.7753 82.2954 67.888 82.3108 67.9988C82.311 68.1904 82.374 68.3765 82.49 68.5283C82.606 68.6801 82.7686 68.7891 82.9524 68.8384C83.1675 68.9296 83.3525 69.1006 83.2996 69.3437C83.2468 69.5869 82.975 69.4995 82.7863 69.5109C82.5976 69.5223 82.3712 69.3551 82.3221 69.6515C82.2731 69.9478 82.5599 69.9136 82.7411 69.9554C82.8303 69.9603 82.9198 69.9603 83.009 69.9554C83.3902 69.944 83.8469 69.944 84.0016 69.4767H84.0054ZM53.925 69.697C53.925 69.887 53.9779 70.001 54.1968 69.982C54.4157 69.963 54.5742 69.9592 54.5742 69.7198C54.5873 69.5618 54.5873 69.403 54.5742 69.2449C54.5478 68.9562 54.6195 68.7966 54.9516 68.8232C55.1063 68.8232 55.3856 68.9448 55.3743 68.6219C55.363 68.299 55.0988 68.4395 54.9327 68.4129C54.9014 68.409 54.8697 68.409 54.8384 68.4129C54.5893 68.4129 54.5704 68.2572 54.5704 68.0634C54.5704 67.8697 54.6308 67.7633 54.8384 67.7747C54.9818 67.7747 55.1214 67.7747 55.2649 67.7747C55.4083 67.7747 55.5064 67.7291 55.5064 67.5581C55.5064 67.3872 55.4007 67.3644 55.2611 67.3416C54.0345 67.1554 53.9137 67.258 53.9137 68.4623V68.6523C53.9212 68.998 53.925 69.3475 53.9212 69.697H53.925ZM15.4282 69.7616C15.4282 69.9212 15.4886 69.9934 15.6508 69.9934C15.8131 69.9934 15.9339 69.9706 15.9264 69.7654C15.9188 69.5603 15.9264 69.3551 15.9264 69.1462C15.9264 68.9372 15.983 68.8498 16.2132 68.8195C16.4434 68.7891 16.8171 69.0246 16.8284 68.6447C16.8397 68.2648 16.4283 68.4547 16.2057 68.4167C15.983 68.3787 15.9301 68.2762 15.9226 68.071C15.915 67.8659 16.0169 67.7557 16.2321 67.7709C16.3604 67.7709 16.4849 67.7709 16.6095 67.7709C16.734 67.7709 16.8548 67.7291 16.851 67.5581C16.8473 67.3872 16.7491 67.3416 16.6095 67.3416C16.3226 67.3416 16.0396 67.3416 15.7565 67.3416C15.4735 67.3416 15.4131 67.4214 15.4206 67.6721C15.4206 68.0064 15.4206 68.3408 15.4206 68.6713C15.4206 69.0018 15.4282 69.3969 15.4244 69.7616H15.4282ZM30.0494 69.7616C30.0494 69.9934 30.1815 70.0086 30.3551 70.0086C30.5287 70.0086 30.5967 69.925 30.5929 69.7502C30.5929 69.0385 30.5929 68.3281 30.5929 67.6189C30.5987 67.584 30.5961 67.5482 30.5855 67.5145C30.5749 67.4808 30.5565 67.4501 30.5319 67.4249C30.5072 67.3997 30.477 67.3808 30.4436 67.3696C30.4103 67.3584 30.3748 67.3553 30.34 67.3606C30.1476 67.3606 30.0456 67.4252 30.0494 67.6341C30.0494 67.9798 30.0494 68.3294 30.0494 68.6751C30.0494 69.0208 30.057 69.3817 30.0456 69.7426L30.0494 69.7616ZM100.744 45.2421C101.725 44.9116 102.084 44.3683 101.952 43.3919C101.854 42.6321 101.25 42.1686 100.299 42.1496C99.4796 42.1496 98.6569 42.1496 97.8379 42.1496C97.4604 42.1496 97.3963 42.2788 97.4 42.6169C97.4 44.091 97.4 45.5688 97.4 47.0467C97.4 47.8293 97.4001 47.8065 98.1964 47.8065C98.4606 47.8065 98.5738 47.7343 98.5474 47.4608C98.5285 46.9973 98.5474 46.5376 98.5474 46.0779C98.5474 45.3903 98.7965 45.2421 99.4268 45.5536C99.621 45.6617 99.7827 45.8205 99.8948 46.0133C100.234 46.511 100.563 47.0163 100.903 47.533C100.986 47.6545 101.042 47.8217 101.242 47.8217C101.62 47.8217 101.997 47.8217 102.45 47.8217C101.835 46.9365 101.476 46.0019 100.635 45.3827C100.662 45.3249 100.698 45.2712 100.74 45.2231L100.744 45.2421ZM100.231 43.1108C100.393 43.1323 100.542 43.2119 100.651 43.3349C100.76 43.4579 100.822 43.6162 100.824 43.781C100.827 43.9458 100.771 44.1061 100.666 44.2327C100.561 44.3593 100.415 44.4439 100.253 44.4709C99.7696 44.5227 99.2828 44.5405 98.7965 44.5241C98.7965 44.5241 98.7625 44.5241 98.7512 44.5241C98.321 44.2239 98.6455 43.7832 98.555 43.4185C98.5097 43.2286 98.555 43.0804 98.8192 43.0918C99.0834 43.1032 99.2909 43.0918 99.5249 43.0918C99.7586 43.0748 99.9932 43.0748 100.227 43.0918L100.231 43.1108Z" fill="#181818"/>
</svg>
