<svg width="166" height="59" viewBox="0 0 166 59" fill="none" xmlns="http://www.w3.org/2000/svg">
<g clip-path="url(#clip0_4_4291)">
<path fill-rule="evenodd" clip-rule="evenodd" d="M28.3661 0.391487C27.8732 0.546339 25.1298 1.29901 14.8671 4.09509C8.1467 5.92613 6.7492 6.32462 6.14248 6.58332C5.14648 7.00786 4.64666 7.87835 4.04395 10.238C3.74314 11.4152 3.19644 13.509 2.82886 14.891C0.106281 25.1287 -0.0334503 25.7434 0.188187 26.5108C0.363673 27.1187 1.8657 28.7256 9.06098 36.0029C14.082 41.0812 18.0042 44.9022 18.3927 45.0941C19.2902 45.5375 19.9042 45.4448 24.4402 44.1808C28.1422 43.1494 29.2929 42.8343 33.3825 41.7328C36.2202 40.9684 37.4926 40.4571 37.8178 39.9509C37.9676 39.7175 38.3501 38.5691 38.6677 37.3988C38.9855 36.2285 39.4001 34.7261 39.5891 34.0602C39.7783 33.3941 40.0519 32.3472 40.1971 31.7337C40.3423 31.1201 40.8071 29.3199 41.23 27.7332C42.136 24.3341 42.7283 22.0586 43.2406 20.0093C43.4454 19.1903 43.7736 17.988 43.9702 17.3375C44.3914 15.9435 44.431 14.5141 44.0678 13.8115C43.925 13.5351 40.9032 10.3567 37.353 6.74823L30.8982 0.1875L29.9057 0.203506C29.3599 0.212254 28.667 0.296938 28.3661 0.391487ZM149.627 0.42015C149.527 0.5482 149.187 1.65785 148.873 2.88624C148.559 4.11463 148.146 5.70595 147.956 6.42252C147.767 7.13908 147.226 9.19105 146.755 10.9825C146.284 12.7739 145.754 14.784 145.576 15.4493C145.399 16.1147 145.033 17.4967 144.762 18.5203C142.306 27.7958 141.489 30.8487 141.086 32.2632C140.829 33.1679 140.663 34.0284 140.718 34.175C140.801 34.396 141.392 34.4332 144.151 34.3913L147.485 34.3405L147.88 33.0377C148.098 32.3211 148.576 30.5623 148.943 29.1291C150.986 21.1407 151.661 19.4422 153.54 17.5689C154.56 16.5513 155.352 16.1938 156.588 16.1938C157.788 16.1938 158.249 16.5426 158.443 17.5979C158.631 18.6206 158.275 20.423 156.791 25.9618C154.872 33.1249 154.69 33.8348 154.69 34.151C154.69 34.3932 155.153 34.4332 157.928 34.4308C159.709 34.4291 161.28 34.3543 161.419 34.2642C161.559 34.1741 161.901 33.1914 162.179 32.0801C162.458 30.9689 162.937 29.0966 163.244 27.9194C163.551 26.7422 163.928 25.2765 164.081 24.6623C164.234 24.0481 164.526 22.9868 164.73 22.3039C165.3 20.3921 165.818 17.3574 165.818 15.9314C165.818 14.1871 165.362 12.7984 164.487 11.8786C162.097 9.36563 156.991 9.97796 153.526 13.1934L153.001 13.6812L153.095 13.2159C153.187 12.7657 153.66 10.9849 154.878 6.51558C155.199 5.33837 155.655 3.66329 155.891 2.79318C156.127 1.92307 156.37 1.03416 156.432 0.818074C156.591 0.260273 156.197 0.193084 152.751 0.190106C150.614 0.188244 149.76 0.251153 149.627 0.42015ZM57.4923 1.23033C54.6916 2.65433 54.242 6.49268 56.7258 7.77189C57.886 8.36933 58.9662 8.32392 60.3479 7.61945C61.6607 6.95017 62.1053 6.43554 62.4785 5.15336C62.8483 3.88291 62.8236 3.38969 62.3413 2.41387C61.5376 0.787551 59.3929 0.264181 57.4923 1.23033ZM98.232 4.77908C97.7303 4.92183 96.2168 5.32813 94.8684 5.68195C93.5201 6.03576 92.3463 6.39739 92.2596 6.4858C92.173 6.5742 91.8497 7.58018 91.5411 8.72128L90.98 10.7963H89.5546C88.7393 10.7963 88.0777 10.8816 88.0088 10.9955C87.9112 11.1567 86.6485 15.9267 86.6485 16.1344C86.6485 16.1672 87.2641 16.1938 88.0166 16.1938C89.1724 16.1938 89.3847 16.242 89.3847 16.5043C89.3847 16.6749 88.9792 18.3292 88.4834 20.1801C86.6041 27.1968 86.2834 28.6342 86.2876 30.0233C86.2926 31.6699 86.6804 32.6248 87.7085 33.5229C88.1182 33.8806 88.8959 34.3156 89.4367 34.4896C91.1425 35.0381 95.6829 34.8417 96.0702 34.2026C96.1871 34.0094 97.0224 30.2995 97.1747 29.2959L97.2624 28.718L95.8618 28.7375C94.5428 28.7558 94.4359 28.7266 94.0209 28.2346C93.7786 27.9475 93.5813 27.5287 93.5825 27.3041C93.5853 26.8028 94.4844 22.9023 95.0067 21.126C95.2174 20.4094 95.6066 19.0694 95.8717 18.1481C96.1366 17.2268 96.3927 16.4311 96.4406 16.3799C96.4886 16.3287 97.609 16.245 98.9305 16.1938L101.333 16.1007L101.722 14.5187C101.936 13.6486 102.244 12.5702 102.406 12.1223C102.904 10.7474 102.984 10.7963 100.251 10.7963H97.8015L97.9848 10.1914C98.0857 9.85866 98.286 9.08403 98.4297 8.46984C98.5737 7.85564 98.8701 6.78675 99.0886 6.09439C99.3318 5.32385 99.4195 4.77424 99.315 4.67764C99.2201 4.58998 98.738 4.63521 98.232 4.77908ZM76.675 10.503C74.5199 10.9197 72.1412 12.2659 70.8994 13.7718C70.632 14.0959 70.4042 14.2919 70.3931 14.2074C70.3456 13.8448 70.4551 13.0577 70.6773 12.166C70.8082 11.6398 70.8578 11.1142 70.7876 10.9981C70.6984 10.8509 69.7513 10.8023 67.6652 10.838L64.6706 10.8894L64.4251 12.0992C64.2124 13.1463 63.6828 15.2535 62.2034 20.9399C61.8088 22.456 61.1835 24.8255 59.7566 30.2103C59.1921 32.3405 58.778 34.162 58.8364 34.2584C59.0056 34.5378 65.4025 34.4838 65.6325 34.2009C65.7367 34.073 65.9988 33.2563 66.215 32.3862C66.4311 31.5161 66.7998 30.0923 67.0342 29.2222C67.2686 28.3521 67.7646 26.4676 68.1364 25.0345C69.5873 19.442 71.9396 16.1938 74.5385 16.1938C75.0624 16.1938 75.6241 16.2459 75.7864 16.3094C76.2669 16.4976 76.6159 17.4092 76.6113 18.4645C76.6064 19.6043 75.332 24.7808 73.2161 32.2558C72.9611 33.1564 72.7982 34.0148 72.854 34.1635C72.9923 34.5309 79.3884 34.5661 79.6668 34.2009C79.7644 34.073 80.0637 33.1307 80.3321 32.1071C80.6004 31.0834 81.2199 28.7383 81.7086 26.8957C83.4921 20.1732 83.7156 19.2281 83.9128 17.5743C84.2659 14.6099 83.6933 12.6332 82.1291 11.4174C80.8087 10.3912 78.9043 10.072 76.675 10.503ZM112.643 10.5127C105.836 11.6225 100.33 18.5242 100.33 25.9482C100.33 27.9657 100.592 29.2261 101.295 30.5866C102.036 32.0214 103.671 33.526 105.034 34.0282C107.015 34.758 107.7 34.8497 110.493 34.7598C113.309 34.6692 115.543 34.2186 117.523 33.3416L118.389 32.9578V30.5427C118.389 29.2142 118.321 28.0848 118.239 28.0325C118.156 27.9804 117.315 28.2024 116.369 28.5261C114.772 29.0727 114.468 29.115 112.096 29.1219C109.634 29.129 109.511 29.1107 108.691 28.619C107.691 28.0193 107.137 27.1859 107.05 26.1512L106.988 25.4067L109.724 25.2863C115.247 25.0431 118.358 24.0531 120.465 21.8684C121.851 20.4316 122.402 18.9837 122.402 16.7799C122.402 15.3207 122.34 15.0093 121.846 14.0017C121.541 13.3776 120.991 12.5982 120.624 12.2695C119.702 11.4435 117.977 10.6634 116.565 10.4338C115.109 10.1968 114.507 10.2089 112.643 10.5127ZM137.006 10.4468C132.635 10.9635 128.909 13.0642 126.191 16.5448C124.864 18.2447 124.036 19.8987 123.373 22.1699C122.935 23.674 122.865 24.2294 122.873 26.1512C122.882 28.1062 122.94 28.525 123.344 29.5098C124.427 32.1521 126.281 33.7492 129.176 34.5354C131.217 35.0898 135.388 34.7807 137.704 33.9037C138.66 33.5413 138.654 33.5594 138.905 30.1063C139.058 27.9998 139.122 28.0541 137.208 28.6663C135.639 29.1679 133.234 29.1755 132.291 28.6819C130.861 27.9333 130.246 26.7615 130.246 24.7808C130.246 20.6201 133.312 16.8207 137.189 16.175C138.362 15.9796 140.35 16.0888 141.13 16.3917C141.647 16.5921 141.606 16.6582 142.785 13.6868C143.56 11.7346 143.699 11.2274 143.511 11.0362C143.259 10.7788 140.034 10.2261 139.002 10.2633C138.651 10.2759 137.753 10.3586 137.006 10.4468ZM53.7564 10.9359C53.6577 11.1114 53.0982 13.1368 52.2529 16.3799C51.8926 17.7619 51.4043 19.6045 51.1679 20.4746C50.9315 21.3447 50.4492 23.1454 50.0962 24.4761C49.7432 25.8069 49.0396 28.4548 48.5327 30.3605C48.0259 32.266 47.6111 33.9638 47.6111 34.1335C47.6111 34.4112 47.9491 34.4367 51.0314 34.3911L54.4518 34.3405L54.6677 33.596C54.7865 33.1866 55.1449 31.8465 55.4642 30.6181C55.7836 29.3897 56.2347 27.6728 56.4667 26.8026C56.6988 25.9325 57.1844 24.0899 57.5456 22.708C57.9069 21.3261 58.3993 19.4835 58.6395 18.6134C59.554 15.303 60.5628 11.351 60.5628 11.0792C60.5628 10.8363 60.0874 10.7963 57.1988 10.7963C55.3485 10.7963 53.7994 10.8591 53.7564 10.9359ZM27.7276 15.9107C20.878 17.8004 16.8907 18.8842 15.9617 19.1088C14.3006 19.5107 13.6814 19.7394 13.6814 19.9518C13.6814 20.2741 25.0263 31.6808 25.183 31.5161C25.2633 31.4316 25.5326 30.5669 25.7812 29.5944C26.0298 28.622 26.8897 25.2718 27.692 22.1496C29.222 16.1962 29.4073 15.4387 29.3272 15.4663C29.3002 15.4754 28.5804 15.6755 27.7276 15.9107ZM112.579 15.6455C110.986 15.9729 109.356 17.3286 108.451 19.0787L107.97 20.0093L109.121 20.0664C109.754 20.0979 110.94 20.0333 111.756 19.9227C114.779 19.5134 115.902 18.7476 115.799 17.1644C115.757 16.5177 115.639 16.2483 115.288 15.9939C114.713 15.5768 113.605 15.4344 112.579 15.6455ZM127.505 43.2864C127.408 43.549 127.328 43.8434 127.328 43.9407C127.328 44.0381 127.225 44.4524 127.1 44.8615C126.932 45.4118 126.801 45.573 126.598 45.4816C125.52 44.9951 123.849 45.5271 123.035 46.6157C122.503 47.3268 122.037 48.6064 122.037 49.3557C122.037 50.0367 122.478 50.9268 122.94 51.1788C123.457 51.4615 124.817 51.4118 125.262 51.0939C125.606 50.8482 125.661 50.8495 125.757 51.1047C125.836 51.3148 126.072 51.3766 126.635 51.3347C127.521 51.2687 127.336 51.6951 128.637 46.7175C129.74 42.4935 129.741 42.809 128.621 42.809C127.782 42.809 127.665 42.8594 127.505 43.2864ZM131.929 42.9562C131.008 43.1026 130.637 44.701 131.496 44.8252C132.231 44.9313 132.805 44.6822 132.994 44.1751C133.33 43.272 132.917 42.7991 131.929 42.9562ZM142.694 43.0961C141.644 43.5465 141.734 44.8563 142.815 44.8563C143.597 44.8563 144.14 44.3564 144.075 43.6953C144.004 42.982 143.485 42.7567 142.694 43.0961ZM157.34 43.0416C157.299 43.1697 156.965 44.4468 156.597 45.8799C156.229 47.3131 155.769 49.0525 155.574 49.7453C155.379 50.4382 155.27 51.0872 155.331 51.1877C155.392 51.2882 155.808 51.3705 156.256 51.3705C156.946 51.3705 157.096 51.3027 157.236 50.9279C157.456 50.3369 159.251 43.296 159.251 43.0232C159.251 42.7205 157.438 42.738 157.34 43.0416ZM146.351 44.2004C145.991 44.3601 145.72 44.6407 145.65 44.927C145.58 45.2108 145.384 45.4157 145.149 45.4506C144.618 45.5289 144.373 46.6486 144.831 46.8988C145.125 47.0596 145.125 47.1424 144.82 48.3358C144.413 49.9254 144.402 50.4363 144.759 50.9567C144.992 51.2962 145.217 51.3705 146.013 51.3705C147.086 51.3705 147.39 51.1499 147.448 50.3297C147.477 49.9208 147.391 49.7905 147.029 49.6973C146.642 49.5975 146.582 49.4879 146.631 48.9758C146.663 48.6438 146.794 48.0627 146.922 47.6844C147.109 47.1305 147.257 46.9853 147.684 46.9386C148.298 46.8712 148.67 46.4576 148.67 45.8444C148.67 45.4906 148.573 45.4146 148.121 45.4146C147.582 45.4146 147.574 45.4003 147.688 44.6702C147.797 43.9757 147.776 43.9262 147.371 43.9329C147.133 43.937 146.674 44.0573 146.351 44.2004ZM50.281 45.6473C50.1297 46.1846 49.6651 47.8807 49.2483 49.4162C48.8315 50.9517 48.2085 53.1969 47.8641 54.4055C47.5195 55.6142 47.2855 56.682 47.3439 56.7786C47.4024 56.8752 47.8986 56.9541 48.4466 56.9541C49.3342 56.9541 49.4659 56.9029 49.6522 56.4858C49.8603 56.0197 49.8634 56.0192 50.2412 56.3803C51.1613 57.2595 52.4328 57.2909 54.0209 56.4737C54.9937 55.973 55.9142 54.9507 56.5518 53.6625C57.0777 52.6002 57.2701 50.3855 56.9131 49.5061C56.4137 48.2757 54.6778 47.8567 53.1021 48.5861C52.6608 48.7903 52.2755 48.9329 52.2462 48.9029C52.2166 48.8729 52.4207 47.9505 52.6998 46.8532C52.9787 45.7558 53.1655 44.8157 53.1148 44.7641C53.0643 44.7124 52.4678 44.6702 51.7892 44.6702H50.5557L50.281 45.6473ZM46.2557 45.6709C43.4505 48.7488 41.7537 55.0478 42.8754 58.2193C43.0868 58.8171 43.1171 58.8318 44.0293 58.7777C44.85 58.7291 44.9588 58.676 44.9069 58.35C44.8743 58.1452 44.803 57.205 44.7484 56.2604C44.5529 52.873 46.0069 48.5454 48.293 45.7121C48.8016 45.0817 48.6306 44.8637 47.6239 44.8591C47.1178 44.8568 46.8563 45.0121 46.2557 45.6709ZM78.397 45.2227C77.9222 45.6039 77.6389 46.4978 77.8311 47.0089C78.1132 47.759 79.7998 47.6559 80.3498 46.855C80.6827 46.3698 80.7159 45.3919 80.4098 45.0796C80.067 44.7299 78.9085 44.8123 78.397 45.2227ZM116.839 45.0416C116.771 45.1543 116.815 45.6728 116.938 46.1939C117.574 48.8992 116.069 54.4917 113.918 57.4156C113.468 58.028 113.099 58.5977 113.099 58.6818C113.099 58.7659 113.527 58.8095 114.05 58.7784C114.969 58.7241 115.03 58.6852 115.87 57.6194C117.022 56.1584 118.075 54.0584 118.68 52.0128C119.263 50.044 119.381 46.986 118.925 45.6938C118.675 44.9847 118.622 44.9467 117.813 44.8933C117.333 44.8617 116.909 44.9263 116.839 45.0416ZM135.461 45.6067C134.468 46.1122 134.154 46.44 133.625 47.5236C133.008 48.7871 133.012 49.8538 133.637 50.6117C134.053 51.1162 134.223 51.1843 135.06 51.1843C135.583 51.1843 136.109 51.0838 136.23 50.961C136.4 50.7874 136.448 50.805 136.448 51.0405C136.448 51.8464 134.638 52.4343 133.713 51.929C133.435 51.7777 133.302 51.844 132.995 52.2834C132.445 53.071 132.516 53.3713 133.302 53.594C135.401 54.1889 137.366 53.3407 138.193 51.4834C138.538 50.7081 139.217 48.3974 139.853 45.8334C139.949 45.4448 139.897 45.4146 139.126 45.4146C138.668 45.4146 138.247 45.4926 138.189 45.5881C138.128 45.6888 137.875 45.6503 137.585 45.4962C136.916 45.1397 136.317 45.1708 135.461 45.6067ZM151.042 45.4385C150.161 45.7087 149.92 45.9542 149.984 46.5153C150.029 46.9097 150.121 46.9857 150.495 46.936C151.643 46.7834 152.381 46.8237 152.454 47.0432C152.498 47.1755 152.382 47.2758 152.185 47.2758C151.353 47.2758 149.844 47.9025 149.273 48.4851C148.787 48.9807 148.67 49.2476 148.67 49.8629C148.67 50.9296 149.14 51.3705 150.276 51.3705C150.757 51.3705 151.246 51.2735 151.363 51.1549C151.522 50.9919 151.639 50.9947 151.842 51.167C151.99 51.2921 152.423 51.3682 152.804 51.336L153.498 51.2774L153.918 49.6954C154.597 47.1372 154.627 46.5077 154.103 45.8855C153.733 45.4465 153.491 45.3478 152.669 45.3C152.125 45.2683 151.393 45.3307 151.042 45.4385ZM130.655 45.6473C130.554 45.7753 130.336 46.5081 130.17 47.2758C130.004 48.0436 129.701 49.1932 129.497 49.8305C129.292 50.468 129.177 51.0751 129.24 51.1799C129.445 51.5173 130.942 51.4103 131.132 51.0448C131.277 50.7658 132.618 45.767 132.618 45.5068C132.618 45.3024 130.826 45.4306 130.655 45.6473ZM141.678 45.5542C141.501 45.857 140.44 49.8352 140.338 50.5795L140.23 51.3705H141.053C141.506 51.3705 141.953 51.2659 142.047 51.1378C142.19 50.9424 143.088 47.6952 143.487 45.9265C143.601 45.42 143.592 45.4146 142.681 45.4146C142.175 45.4146 141.723 45.4775 141.678 45.5542ZM124.699 47.4763C124.372 47.8725 124.226 48.2667 124.226 48.7562C124.226 50.5651 125.838 49.945 126.307 47.9559C126.569 46.8397 125.489 46.5176 124.699 47.4763ZM136.124 47.0244C135.826 47.1521 135.172 48.4543 135.172 48.9208C135.172 49.3941 135.603 49.7386 136.101 49.6632C136.685 49.5748 137.162 48.7953 137.219 47.8342C137.266 47.0592 137.235 46.994 136.813 46.9607C136.562 46.941 136.252 46.9697 136.124 47.0244ZM72.3287 48.1417C71.3852 48.3643 70.0486 49.0233 69.6247 49.475C68.981 50.1607 68.5437 51.294 68.6794 51.9247C68.8233 52.5935 69.3823 53.115 70.4589 53.5847C71.8466 54.1904 71.4857 55.026 69.9169 54.8399C67.8522 54.595 68.0021 54.5576 67.5242 55.4353C66.9709 56.4515 67.1517 56.6911 68.6915 56.9824C71.4578 57.5055 74.0591 55.8543 74.0609 53.5739C74.0618 52.5897 73.6587 52.117 72.2776 51.4818C71.4653 51.1082 71.3298 50.8223 71.7829 50.4386C72.0567 50.2068 73.2691 50.2577 73.9141 50.5281C74.1536 50.6286 74.3265 50.4477 74.6899 49.716L75.1573 48.775L74.6551 48.5126C74.0755 48.21 72.8602 48.0162 72.3287 48.1417ZM103.978 48.1655C102.334 48.3862 100.894 49.3485 100.399 50.5569C99.8624 51.8682 100.27 52.7252 101.807 53.5201C102.732 53.9985 102.899 54.3216 102.427 54.7214C102.159 54.9479 101.102 54.9034 99.9327 54.6162C99.4992 54.5098 99.4016 54.5814 99.0662 55.2524C98.8582 55.6683 98.688 56.1275 98.688 56.2727C98.688 56.7177 99.7927 57.0479 101.242 57.0358C102.357 57.0265 102.787 56.9314 103.567 56.5212C104.668 55.9419 105.42 54.9304 105.564 53.8332C105.646 53.2095 105.578 53.0104 105.09 52.4433C104.777 52.0792 104.201 51.6504 103.809 51.4907C102.966 51.1464 102.773 50.8933 103.073 50.5247C103.324 50.2154 104.457 50.1657 105.148 50.4337C105.572 50.5983 105.651 50.5452 106.072 49.8125C106.617 48.864 106.638 48.6606 106.213 48.4923C105.672 48.2786 104.458 48.1011 103.978 48.1655ZM85.2656 48.671C84.7721 48.9265 84.3569 49.1359 84.3429 49.1363C84.329 49.1367 84.329 48.9904 84.3429 48.8113C84.3646 48.5325 84.2008 48.4856 83.2035 48.4856H82.0388L81.0557 52.1149C80.515 54.1111 80.0229 56.0164 79.962 56.3492L79.8512 56.9541H81.1561C82.6843 56.9541 82.4928 57.2232 83.3868 53.8209C84.0191 51.4151 84.4031 50.741 85.2672 50.5197C85.8944 50.3591 86.2842 50.7125 86.2816 51.4397C86.2807 51.76 85.993 53.0643 85.6426 54.3385C85.2902 55.6203 85.0751 56.7261 85.1614 56.8141C85.4306 57.0888 87.5956 56.8954 87.7619 56.5818C87.8435 56.4283 88.201 55.2138 88.5564 53.8831C89.2069 51.4472 89.3658 49.7966 89.0144 49.1268C88.4987 48.1433 86.7059 47.9254 85.2656 48.671ZM93.9893 48.6019C92.8895 49.0332 91.447 50.374 90.9705 51.4079C90.5115 52.4038 90.2315 54.0277 90.3798 54.8342C90.6892 56.5169 92.6146 57.3883 95.0988 56.9697C96.7984 56.6833 96.9932 56.553 97.078 55.6468C97.1169 55.2304 97.1014 54.8115 97.0434 54.7158C96.9779 54.6078 96.5373 54.6082 95.8837 54.7167C94.3036 54.9791 93.1633 54.6905 92.9818 53.9821C92.8879 53.6156 92.9623 53.6039 95.3761 53.6011C96.7462 53.5994 97.9669 53.5336 98.0888 53.4545C98.4241 53.2371 98.7448 51.4241 98.6167 50.4704C98.5543 50.0062 98.3743 49.4257 98.2167 49.18C97.5804 48.1895 95.6978 47.9319 93.9893 48.6019ZM110.004 48.5643C109.015 48.9734 107.891 50.2134 107.734 51.0691C107.528 52.1864 107.991 52.8899 109.359 53.5395C109.925 53.8079 110.089 53.9905 110.089 54.3499C110.089 54.7895 110.037 54.8129 109.086 54.8008C108.534 54.7936 107.834 54.724 107.529 54.646C107.009 54.5125 106.952 54.5533 106.572 55.3307C106.349 55.7854 106.167 56.2463 106.167 56.3551C106.167 56.7034 107.496 57.0395 108.812 57.0242C111.061 56.998 112.801 55.676 113.047 53.8075C113.179 52.8019 112.837 52.3067 111.552 51.6433C110.327 51.0111 110.268 50.9357 110.668 50.5275C110.899 50.291 111.183 50.2355 111.81 50.3038C112.268 50.3539 112.766 50.4477 112.917 50.5121C113.109 50.5947 113.312 50.3943 113.601 49.8367C113.827 49.4008 114.012 48.9476 114.012 48.8296C114.01 48.1897 111.337 48.0129 110.004 48.5643ZM59.6727 48.7225C59.5775 48.9042 59.3641 49.5951 59.1984 50.258C59.0328 50.9212 58.7384 51.9958 58.5443 52.6463C57.7387 55.3462 58.2741 56.8617 60.1067 57.0689C60.8756 57.1558 61.1837 57.0862 62.0693 56.6256C62.6472 56.3252 63.1095 56.1714 63.0967 56.284C63.0247 56.9168 63.1237 56.9716 64.2423 56.9165C65.2627 56.8662 65.3808 56.8176 65.5065 56.3957C65.8093 55.3787 67.3609 49.3844 67.4457 48.9044L67.536 48.3926H66.2449C64.7782 48.3926 64.7704 48.3996 64.3917 50.0676C63.9891 51.8414 63.3224 53.8274 63.0124 54.177C62.6168 54.6231 61.7164 54.8163 61.3762 54.5282C60.9736 54.1874 61.0487 53.4811 61.7485 51.0241C62.0996 49.7912 62.3869 48.6948 62.3869 48.5874C62.3869 48.4703 61.8802 48.3926 61.1164 48.3926C60.0868 48.3926 59.813 48.4551 59.6727 48.7225ZM76.9849 49.1836C76.8795 49.6185 76.5912 50.6865 76.3446 51.5566C76.098 52.4267 75.843 53.3899 75.7778 53.697C75.7127 54.0041 75.4989 54.7763 75.3025 55.4132C75.1062 56.0499 74.9978 56.657 75.0617 56.7626C75.1255 56.8679 75.7036 56.9541 76.3462 56.9541C77.749 56.9541 77.6633 57.0723 78.4466 54.0564C78.7638 52.835 79.2204 51.1354 79.4612 50.2794C79.702 49.4235 79.899 48.6488 79.899 48.5578C79.899 48.467 79.2865 48.3926 78.538 48.3926H77.1768L76.9849 49.1836ZM151.224 48.8195C150.639 49.1216 150.565 50.0097 151.133 49.9113C151.639 49.8234 152.136 49.3328 152.136 48.9221C152.136 48.5217 151.861 48.4906 151.224 48.8195ZM94.7704 50.2772C94.2766 50.4164 93.5944 51.0719 93.5844 51.417C93.5822 51.4939 94.1602 51.5566 94.8688 51.5566H96.1574L96.1001 50.9718C96.0331 50.2863 95.5795 50.0494 94.7704 50.2772ZM52.2097 50.7313C51.2602 51.4099 50.5756 53.8101 51.1609 54.4076C51.8612 55.1219 53.2152 54.5855 53.7947 53.3642C54.2164 52.4751 54.3053 51.0163 53.9592 50.6632C53.6508 50.3485 52.6933 50.3857 52.2097 50.7313Z" fill="#181818"/>
</g>
<defs>
<clipPath id="clip0_4_4291">
<rect width="166" height="59" fill="white"/>
</clipPath>
</defs>
</svg>
