<svg width="172" height="57" viewBox="0 0 172 57" fill="none" xmlns="http://www.w3.org/2000/svg">
<path fill-rule="evenodd" clip-rule="evenodd" d="M101.355 27.2102C98.2437 27.2102 96.9687 24.6226 96.9687 21.7349C96.9687 18.8105 98.2437 16.222 101.355 16.222C104.468 16.222 105.741 18.8105 105.741 21.7349C105.741 24.6226 104.468 27.2102 101.355 27.2102ZM101.355 31.9331C107.803 31.9331 112.713 28.1823 112.713 21.7349C112.713 15.25 107.803 11.5 101.355 11.5C94.9056 11.5 89.9941 15.25 89.9941 21.7349C89.9941 28.1823 94.9056 31.9331 101.355 31.9331Z" fill="#181818"/>
<path fill-rule="evenodd" clip-rule="evenodd" d="M112.097 16.6711H115.957V24.6204C115.957 29.2702 117.422 31.931 123.456 31.931C125.144 31.931 126.42 31.705 127.693 31.5566L127.471 27.1696C126.792 27.283 126.08 27.4313 125.407 27.4313C123.272 27.4313 122.708 26.2305 122.708 23.869V16.6711H127.433V11.9472H122.708L122.705 5.19141L116.072 7.56022V11.9472H112.097L112.097 16.6711Z" fill="#181818"/>
<path fill-rule="evenodd" clip-rule="evenodd" d="M151.048 31.4842H157.797V21.8095H157.872L163.271 31.4842H171.444L164.096 20.9115L170.881 11.9499H163.496L157.872 20.1601H157.797V5.21875L151.048 7.55644L151.048 31.4842Z" fill="#181818"/>
<path fill-rule="evenodd" clip-rule="evenodd" d="M72.0254 31.4842H78.7757V21.8095H78.8471L84.2483 31.4842H92.421L85.0748 20.9115L91.859 11.9499H84.4735L78.8471 20.1601H78.7757V5.21875L72.0254 7.44385L72.0254 31.4842Z" fill="#181818"/>
<path fill-rule="evenodd" clip-rule="evenodd" d="M134.877 25.3154C134.877 23.4198 136.7 22.6986 139.013 22.6986C140.038 22.6986 141.025 22.7754 141.897 22.813C141.897 25.1287 140.267 27.4801 137.685 27.4801C136.093 27.4801 134.877 26.6838 134.877 25.3154ZM148.652 31.5779C148.349 30.0228 148.272 28.4649 148.272 26.9098V19.549C148.272 13.5144 143.907 11.3516 138.863 11.3516C135.94 11.3516 133.396 11.7699 130.969 12.7566L131.081 17.3853C132.981 16.3235 135.181 15.907 137.38 15.907C139.85 15.907 141.86 16.6255 141.897 19.3202C141.025 19.1692 139.811 19.0547 138.71 19.0547C135.066 19.0547 128.502 19.7778 128.502 25.8096C128.502 30.0987 131.995 32.0328 135.902 32.0328C138.71 32.0328 140.608 30.9326 142.163 28.465H142.241C142.241 29.4919 142.35 30.5152 142.392 31.5779H148.652Z" fill="#181818"/>
<path d="M157.455 46.8353C157.45 46.4884 157.476 46.1415 157.529 45.7928C157.578 45.4422 157.661 45.1072 157.78 44.7905C157.896 44.4757 158.055 44.1919 158.252 43.9475C158.454 43.6984 158.705 43.4999 159.002 43.3599C159.303 43.2154 159.662 43.1412 160.075 43.1412C160.465 43.1412 160.805 43.218 161.093 43.369C161.385 43.5181 161.633 43.7222 161.837 43.9749C162.042 44.2302 162.205 44.5204 162.335 44.8371C162.457 45.1565 162.551 45.4879 162.61 45.8329C162.668 46.1716 162.695 46.5084 162.695 46.8352C162.695 47.161 162.668 47.4951 162.61 47.8384C162.551 48.1834 162.457 48.513 162.335 48.8342C162.205 49.1509 162.042 49.4411 161.837 49.6955C161.633 49.949 161.385 50.1532 161.093 50.3023C160.805 50.4489 160.465 50.5275 160.075 50.532C159.662 50.5268 159.303 50.4552 159.002 50.3104C158.705 50.1703 158.454 49.9726 158.252 49.7255C158.055 49.4793 157.895 49.1928 157.78 48.8761C157.661 48.5613 157.578 48.229 157.529 47.8812C157.477 47.5297 157.451 47.1822 157.455 46.8353ZM163.786 38.2461H162.695V43.9036H162.66C162.628 43.813 162.572 43.6986 162.48 43.5603C162.391 43.422 162.275 43.2729 162.123 43.1164C161.974 42.9607 161.79 42.8153 161.578 42.6771C161.364 42.5388 161.119 42.4262 160.84 42.3384C160.562 42.2515 160.249 42.2048 159.903 42.2019C159.251 42.2045 158.694 42.321 158.233 42.547C157.775 42.7751 157.394 43.0962 157.105 43.509C156.814 43.9218 156.599 44.4124 156.462 44.9753C156.325 45.5391 156.258 46.1588 156.258 46.8352C156.258 47.4951 156.333 48.1038 156.487 48.6658C156.636 49.2232 156.865 49.7147 157.169 50.1357C157.475 50.5531 157.853 50.8772 158.311 51.1133C158.762 51.3476 159.294 51.4666 159.903 51.4684C160.534 51.4703 161.08 51.3431 161.537 51.084C161.995 50.8258 162.369 50.4149 162.66 49.8557H162.695V51.2597H163.786L163.786 38.2461ZM147.132 51.2599H148.224V46.3676C148.224 46.0692 148.25 45.7671 148.307 45.4651C148.361 45.1612 148.45 44.8729 148.573 44.5946C148.696 44.3154 148.858 44.0692 149.063 43.8514C149.261 43.6309 149.511 43.4596 149.806 43.3352C150.104 43.207 150.447 43.1411 150.845 43.1411C151.344 43.1411 151.752 43.2563 152.059 43.4816C152.37 43.705 152.595 44.0225 152.738 44.4289C152.877 44.839 152.947 45.3232 152.943 45.8797V51.2598H154.037V45.6033C154.037 45.1163 153.984 44.6623 153.873 44.2541C153.762 43.8395 153.588 43.4816 153.351 43.175C153.11 42.8665 152.798 42.6322 152.411 42.4601C152.029 42.2918 151.565 42.2048 151.018 42.202C150.562 42.2046 150.172 42.2624 149.848 42.3703C149.523 42.4765 149.251 42.6202 149.034 42.796C148.815 42.9727 148.639 43.1667 148.495 43.3735C148.358 43.5813 148.243 43.7881 148.155 43.9904H148.121V42.4106H147.062C147.097 42.7667 147.116 43.1163 147.123 43.4641C147.133 43.8092 147.136 44.1533 147.133 44.4938L147.132 51.2599ZM144.392 42.4107H143.299V47.3039C143.299 47.6023 143.273 47.9043 143.216 48.2064C143.161 48.5084 143.074 48.7995 142.95 49.0768C142.826 49.356 142.663 49.6041 142.463 49.8201C142.26 50.0406 142.012 50.2109 141.717 50.3363C141.423 50.4645 141.076 50.5275 140.679 50.5322C140.178 50.527 139.773 50.4149 139.463 50.1899C139.155 49.9665 138.929 49.6489 138.788 49.2425C138.645 48.8325 138.577 48.3483 138.579 47.789V42.4107H137.488V48.0682C137.488 48.5579 137.54 49.0064 137.649 49.4173C137.761 49.8292 137.936 50.1899 138.176 50.4965C138.414 50.8031 138.724 51.0392 139.112 51.2113C139.494 51.3797 139.958 51.4666 140.504 51.4685C140.961 51.4666 141.35 51.409 141.678 51.3008C142 51.1947 142.271 51.051 142.489 50.8725C142.706 50.6958 142.884 50.5045 143.027 50.2958C143.165 50.088 143.279 49.883 143.367 49.6807H143.401V51.2597H144.46C144.428 50.9018 144.409 50.553 144.4 50.207C144.395 49.862 144.392 49.5169 144.392 49.1764L144.392 42.4107ZM129.747 51.2599H130.944V45.553H135.299V44.5114H130.944V40.1893H135.507V39.1486H129.747V51.2599ZM121.106 51.2599H122.2V38.2461H121.106V51.2599ZM117.411 47.3378C117.413 47.5365 117.405 47.768 117.384 48.0361C117.366 48.308 117.314 48.5853 117.23 48.8746C117.143 49.1638 117.01 49.432 116.824 49.6809C116.634 49.9326 116.377 50.1359 116.049 50.2915C115.723 50.4471 115.302 50.5258 114.79 50.5322C114.453 50.5348 114.143 50.4809 113.866 50.3747C113.591 50.2704 113.37 50.1002 113.205 49.8668C113.042 49.6325 112.953 49.3194 112.951 48.9359C112.953 48.5487 113.04 48.2256 113.199 47.9657C113.366 47.7086 113.585 47.5025 113.866 47.3451C114.147 47.1894 114.467 47.0696 114.821 46.9936C115.178 46.914 115.552 46.8608 115.942 46.8354C116.332 46.8078 116.717 46.7977 117.099 46.7996H117.411L117.411 47.3378ZM117.516 51.2599H118.591C118.562 51.0575 118.543 50.8598 118.533 50.6685C118.52 50.4737 118.512 50.2704 118.505 50.0663C118.502 49.8621 118.502 49.6389 118.502 49.4027V45.4989C118.505 44.7328 118.399 44.1059 118.186 43.6198C117.967 43.1347 117.632 42.775 117.174 42.5453C116.717 42.3156 116.124 42.2011 115.399 42.2021C115.203 42.2021 114.988 42.2228 114.755 42.2513C114.526 42.2833 114.292 42.3255 114.061 42.3831C113.823 42.4407 113.595 42.5048 113.378 42.5754C113.158 42.6496 112.965 42.7264 112.796 42.8115V43.8687C113.203 43.6115 113.623 43.4239 114.061 43.3076C114.492 43.1942 114.937 43.1363 115.399 43.141C115.886 43.141 116.281 43.2243 116.574 43.3937C116.87 43.5631 117.084 43.8175 117.219 44.1516C117.349 44.4902 117.412 44.9094 117.41 45.4138V45.8632H117.204C116.817 45.8614 116.417 45.8684 116.006 45.8865C115.589 45.9073 115.178 45.9478 114.773 46.0075C114.366 46.0715 113.98 46.1712 113.619 46.3031C113.261 46.4367 112.936 46.6189 112.658 46.8486C112.379 47.072 112.159 47.363 112.001 47.7081C111.838 48.055 111.757 48.4788 111.755 48.9703C111.752 49.1314 111.773 49.3208 111.815 49.536C111.857 49.7511 111.941 49.9707 112.055 50.1913C112.173 50.4194 112.339 50.6261 112.556 50.8174C112.774 51.0104 113.057 51.1679 113.399 51.2851C113.746 51.4042 114.169 51.4662 114.67 51.4683C114.946 51.4683 115.221 51.4317 115.502 51.3593C115.78 51.2915 116.049 51.1873 116.304 51.049C116.557 50.9125 116.786 50.7414 116.992 50.541C117.194 50.3342 117.355 50.1016 117.481 49.8362H117.516L117.516 51.2599ZM109.689 42.4107H108.597V47.3039C108.597 47.6023 108.571 47.9043 108.517 48.2064C108.46 48.5084 108.371 48.7995 108.252 49.0768C108.125 49.356 107.962 49.6041 107.763 49.8201C107.558 50.0406 107.311 50.2109 107.017 50.3363C106.722 50.4645 106.375 50.5275 105.977 50.5322C105.477 50.527 105.072 50.4149 104.762 50.1899C104.454 49.9665 104.227 49.6489 104.086 49.2425C103.944 48.8325 103.874 48.3483 103.878 47.789V42.4107H102.785V48.0682C102.785 48.5579 102.839 49.0064 102.948 49.4173C103.06 49.8292 103.235 50.1899 103.474 50.4965C103.712 50.8031 104.027 51.0392 104.411 51.2113C104.793 51.3797 105.257 51.4666 105.803 51.4685C106.261 51.4666 106.65 51.409 106.976 51.3008C107.3 51.1947 107.571 51.051 107.787 50.8725C108.009 50.6958 108.183 50.5045 108.326 50.2958C108.464 50.088 108.578 49.883 108.666 49.6807H108.701V51.2597H109.759C109.728 50.9018 109.707 50.553 109.698 50.207C109.693 49.862 109.688 49.5169 109.688 49.1764L109.689 42.4107ZM100.824 42.4107H98.8127V39.8955L97.7199 40.2763V42.4107H95.9836V43.3471H97.7199V48.5194C97.7121 48.9231 97.7277 49.3038 97.7593 49.6599C97.7912 50.0178 97.8709 50.3281 97.9973 50.5981C98.1208 50.8681 98.3231 51.0813 98.5977 51.2351C98.8732 51.3879 99.2494 51.4665 99.7299 51.4686C99.9138 51.4686 100.088 51.4531 100.257 51.4266C100.428 51.4007 100.583 51.3734 100.727 51.335C100.864 51.2966 100.977 51.26 101.067 51.226L100.998 50.3245C100.843 50.3831 100.691 50.4371 100.533 50.4737C100.378 50.5113 100.197 50.5323 99.9917 50.5323C99.6988 50.5271 99.4645 50.4628 99.2924 50.3318C99.1193 50.2007 98.9958 50.0251 98.9199 49.8045C98.8467 49.5876 98.8091 49.3423 98.8128 49.0741V43.3471H100.824L100.824 42.4107ZM94.2646 42.4107H93.1727V47.3039C93.1727 47.6023 93.1462 47.9043 93.0912 48.2064C93.0372 48.5084 92.9456 48.7995 92.8258 49.0768C92.7023 49.356 92.5393 49.6041 92.337 49.8201C92.1338 50.0406 91.884 50.2109 91.5901 50.3363C91.2945 50.4645 90.9531 50.5275 90.5503 50.5322C90.0506 50.527 89.647 50.4149 89.3394 50.1899C89.0291 49.9665 88.8039 49.6489 88.6621 49.2425C88.5212 48.8325 88.4498 48.3483 88.4517 47.789V42.4107H87.3597V48.0682C87.3597 48.5579 87.4147 49.0064 87.5273 49.4173C87.6353 49.8292 87.812 50.1899 88.0518 50.4965C88.289 50.8031 88.601 51.0392 88.9845 51.2113C89.3698 51.3797 89.8339 51.4666 90.3803 51.4685C90.8352 51.4666 91.2279 51.409 91.551 51.3008C91.8741 51.1947 92.1459 51.051 92.3628 50.8725C92.5834 50.6958 92.7601 50.5045 92.9002 50.2958C93.041 50.088 93.1518 49.883 93.2443 49.6807H93.2783V51.2597H94.3364C94.3052 50.9018 94.2842 50.553 94.2759 50.207C94.2655 49.862 94.2655 49.5169 94.2655 49.1764L94.2646 42.4107ZM72.0576 51.2599H73.2548V40.3467H73.2896L77.835 51.2599H78.8583L83.2663 40.3467H83.2993V51.2599H84.4956V39.1486H82.7794L78.3375 49.8018L73.9138 39.1486H72.0576V51.2599Z" fill="#181818"/>
<path fill-rule="evenodd" clip-rule="evenodd" d="M0 28.3303C0 12.6833 14.7473 0 32.9416 0C51.1369 0 65.8842 12.6833 65.8842 28.3303C65.8842 43.9792 51.1369 56.6635 32.9416 56.6635C14.7473 56.6635 0 43.9792 0 28.3303Z" fill="#181818"/>
<path fill-rule="evenodd" clip-rule="evenodd" d="M28.9424 9.0954L36.5943 6.56641L36.6319 47.9416L28.915 50.5273L28.9424 9.0954Z" fill="#181818"/>
<path fill-rule="evenodd" clip-rule="evenodd" d="M33.4852 34.9024C30.1589 38.9095 26.9444 43.0064 20.9227 43.0064C12.4159 43.0064 8.38672 34.7834 8.38672 27.9086C8.38672 21.3038 11.5381 13.4844 19.8206 13.4844C23.415 13.4844 26.8785 15.6829 28.937 18.0068L28.9318 23.6149C27.211 22.4543 23.3512 21.3157 20.8314 21.2754C15.5776 21.1867 10.9434 23.463 11.0267 28.65C11.0807 32.2205 14.6165 34.6497 18.1368 34.6497C23.5288 34.6497 26.7928 29.7245 29.524 25.9855C30.2846 25.0098 32.4338 22.1376 32.7678 21.6781C35.8002 17.443 39.3095 13.5731 45.3303 13.5731C52.4211 13.5731 56.4018 19.2919 57.5294 25.1782H54.3314C53.0445 23.2698 50.5677 22.1019 48.1247 22.1019C42.5524 22.1019 39.2234 27.2276 36.4382 31.0013C36.4382 31.0013 34.2696 33.9578 33.4852 34.9024ZM57.715 31.1881C56.9964 37.1073 53.6785 43.0833 46.4284 43.0961C42.1988 43.1039 38.8909 40.2056 36.5999 36.6607V32.5556C39.4666 33.9788 42.1439 35.5019 45.3932 35.5513C49.3949 35.6107 53.0131 34.0704 54.5096 31.1881H57.715Z" fill="white"/>
</svg>
