<svg width="176" height="54" viewBox="0 0 176 54" fill="none" xmlns="http://www.w3.org/2000/svg">
<path fill-rule="evenodd" clip-rule="evenodd" d="M101.803 0.926355C100.148 2.43519 101.247 5.10625 103.524 5.10625C104.895 5.10625 105.886 4.0856 105.886 2.67381C105.886 0.470031 103.449 -0.572996 101.803 0.926355ZM102.704 1.90249C102.18 2.49236 102.206 2.98954 102.787 3.52614C103.182 3.89052 103.368 3.91922 103.86 3.69057C104.919 3.19849 104.494 1.4576 103.316 1.4576C103.196 1.4576 102.921 1.65779 102.704 1.90249ZM87.7928 4.73481C80.7921 6.36065 75.9001 12.9939 76.4145 20.1628C76.6871 23.9617 78.1807 27.1864 80.8694 29.7804C83.8189 32.6263 86.7666 33.8498 90.7425 33.8785C92.368 33.8902 93.5829 33.7586 94.5583 33.4655C99.1963 32.0717 102.9 28.5315 104.459 24.0031C104.892 22.7428 104.894 22.7411 106.078 22.6198L107.263 22.4981L106.336 20.8351C105.826 19.9205 105.409 18.9699 105.409 18.7228C105.409 17.4338 104.577 14.4743 103.701 12.6468C102.025 9.14895 98.9025 6.38449 95.1998 5.11914C93.2142 4.44049 89.8187 4.26414 87.7928 4.73481ZM0.159068 5.75498C0.0715447 5.844 0 12.0285 0 19.4982V33.0792H2.85821H5.71618L5.77962 26.086L5.84282 19.0927H6.52202C7.16377 19.0927 7.41156 19.4766 11.036 26.086L14.871 33.0792H17.6901H20.5095V19.3282V5.57741L17.7073 5.64576L14.9051 5.71436L14.7859 12.7684L14.6667 19.8225L14.0683 19.8937C13.5141 19.9599 13.1809 19.4352 9.54907 12.7789L5.62795 5.59273H2.97292C1.51269 5.59273 0.246352 5.66571 0.159068 5.75498ZM32.4756 6.01136C32.3153 6.32538 25.5908 28.551 24.4125 32.6611C24.2973 33.0627 24.5038 33.0894 27.2282 33.026L30.168 32.9576L32.5564 24.4684C34.9186 16.0724 35.2248 15.2994 36.0588 15.6258C36.287 15.7151 37.234 18.7106 38.7646 24.1858C40.0598 28.8181 41.1859 32.7178 41.267 32.8515C41.3559 32.9982 42.551 33.0675 44.2795 33.0262L47.1444 32.9576L43.0563 19.336L38.9683 5.71436L35.8322 5.64649C33.0279 5.58592 32.6728 5.6246 32.4756 6.01136ZM43.6447 5.77517C43.6459 5.87563 43.999 7.10692 44.4295 8.51165L45.212 11.0657L48.7198 11.1331L52.2276 11.2002V22.1398V33.0792H55.0894H57.9512V22.1333V11.1873H60.9323H63.9133V8.39003V5.59273H53.7778C48.2033 5.59273 43.6432 5.67471 43.6447 5.77517ZM67.8955 5.74744C67.8039 5.8406 67.729 12.0285 67.729 19.4982V33.0792H70.5927H73.4566L73.3949 19.3968L73.3333 5.71436L70.6976 5.646C69.2479 5.60854 67.9868 5.65403 67.8955 5.74744ZM108.914 5.74744C108.823 5.8406 108.748 12.0285 108.748 19.4982V33.0792H111.491H114.233V26.2857C114.233 20.4342 114.285 19.4394 114.608 19.11C115.089 18.6196 115.335 18.6284 115.812 19.1535C116.025 19.3878 117.858 22.6166 119.886 26.3292L123.574 33.0792H126.296H129.019V19.4576V5.83598H126.276H123.534V12.7387C123.534 18.74 123.485 19.6831 123.156 19.9611C122.888 20.1883 122.667 20.209 122.392 20.0324C122.18 19.8957 120.281 16.6182 118.172 12.7492L114.338 5.71436L111.71 5.646C110.264 5.60854 109.006 5.65403 108.914 5.74744ZM136.904 15.7503C135.272 21.2009 133.433 27.3294 132.816 29.3698L131.694 33.0792L134.589 33.0785L137.485 33.078L139.882 24.5229C141.512 18.7065 142.409 15.8844 142.684 15.707C143.6 15.1184 143.859 15.7494 146.309 24.5299L148.694 33.0765L151.604 33.0778L154.514 33.0792L154.205 32.0454C154.035 31.4767 152.197 25.3472 150.12 18.4238L146.344 5.83598L143.107 5.83817L139.87 5.84036L136.904 15.7503ZM157.16 19.4576V33.0792H163.48H169.799V30.5252V27.9711H166.222H162.645V16.9035V5.83598H159.902H157.16V19.4576ZM88.3067 10.5529C82.575 12.4609 80.2949 19.11 83.606 24.2607C85.0896 26.5683 88.1104 28.2144 90.8618 28.2144C92.4501 28.2144 94.8237 27.3983 96.1587 26.3934C97.1444 25.6515 98.9702 23.3213 98.9702 22.8054C98.9702 22.7034 98.4882 22.6198 97.8992 22.6198H96.8281L97.5875 21.3427C98.0051 20.6402 98.5943 19.7271 98.897 19.3131C99.6689 18.2567 99.6158 16.9602 98.7253 15.143C97.2755 12.1839 94.5459 10.4194 91.2195 10.2917C90.0531 10.247 88.9213 10.3486 88.3067 10.5529ZM74.7089 38.8519C74.7757 39.0885 74.9719 39.8017 75.1448 40.4373L75.4594 41.5927H77.5561H79.6531V47.6738V53.7549H81.3225H82.9919V47.6738V41.5927H84.7919H86.5918L86.5209 40.0725L86.4499 38.5522L80.5186 38.487C74.9431 38.4259 74.5944 38.4478 74.7089 38.8519ZM162.07 38.7025C159.777 39.251 158.591 40.6932 158.591 42.9306C158.591 45.3187 159.556 46.319 162.933 47.4274C164.848 48.056 165.745 48.7171 165.745 49.4984C165.745 50.4062 165.112 50.8715 163.99 50.7876C163.179 50.727 162.926 50.5777 162.529 49.9262C162.05 49.1406 162.043 49.1381 160.26 49.1965L158.472 49.2549L158.545 49.9846C158.769 52.2062 161.042 53.7522 164.076 53.7471C166.917 53.7425 168.688 52.6053 169.347 50.3619C170.02 48.0705 168.63 46.0779 165.622 45.0215C162.581 43.9537 161.954 43.4158 162.389 42.2475C162.818 41.0972 164.767 41.2252 165.31 42.4392C165.568 43.0184 165.686 43.0522 167.453 43.0522C169.584 43.0522 169.651 42.9629 168.859 41.1831C167.924 39.0815 164.981 38.0061 162.07 38.7025ZM171.99 39.0861C172.052 39.6259 172.29 39.8336 173.342 40.2637L174.619 40.7857L173.282 41.339C172.185 41.7937 171.946 41.996 171.946 42.4723C171.946 43.0349 172.002 43.0522 173.854 43.0522C175.584 43.0522 175.762 43.0082 175.762 42.5796C175.762 42.1982 175.566 42.0921 174.748 42.0294L173.734 41.9515L174.748 41.6119C175.443 41.3792 175.762 41.1345 175.762 40.8338C175.762 40.5541 175.394 40.2225 174.748 39.9197L173.734 39.4447L174.748 39.424C175.596 39.4069 175.762 39.324 175.762 38.9171C175.762 38.4707 175.602 38.4306 173.838 38.4306H171.914L171.99 39.0861ZM89.4309 46.2144V53.7549H93.9621H98.4932V52.2954V50.836H95.7507H93.0081V49.1333V47.4306H95.393H97.7778V46.1015V44.7724L95.4526 44.7028L93.1274 44.6333L93.0563 43.113L92.9855 41.5927H95.7392H98.4932V40.1333V38.6738H93.9621H89.4309V46.2144ZM101.355 46.2144V53.7549H103.138H104.922L104.987 49.1941L105.051 44.6333L108.033 49.1875L111.014 53.742L112.743 53.7483L114.472 53.7549V46.2144V38.6738H112.683H110.894V43.2337V47.7935L107.911 43.2337L104.928 38.6738H103.142H101.355V46.2144ZM117.81 46.2112V53.806L121.566 53.6951C125.823 53.5695 126.929 53.2825 128.524 51.8902C129.935 50.6582 130.737 48.9204 130.874 46.8032C131.091 43.4246 129.717 40.8744 126.931 39.4843C125.652 38.8458 125.358 38.8025 121.693 38.7122L117.81 38.6167V46.2112ZM133.073 46.2144V53.7549H137.485H141.897V52.2954V50.836H139.274H136.65V49.1333V47.4306H139.035H141.42V46.0927V44.7549H139.035H136.65V43.1738V41.5927H139.274H141.897V40.1333V38.6738H137.485H133.073V46.2144ZM144.52 46.2144V53.7549H146.309H148.098V50.9576C148.098 48.2167 148.108 48.1605 148.634 48.1678C149.07 48.1739 149.441 48.686 150.616 50.9043L152.061 53.6333L154.015 53.7038C155.089 53.7427 155.967 53.6965 155.967 53.6014C155.967 53.5061 155.258 52.1821 154.391 50.6589C153.524 49.136 152.853 47.8553 152.9 47.8127C152.948 47.7704 153.33 47.5578 153.749 47.3401C154.973 46.7057 155.796 45.4044 155.917 43.9133C156.059 42.1712 155.645 41.0355 154.505 40.0408C153.217 38.9158 152.064 38.6738 147.992 38.6738H144.52V46.2144ZM121.388 46.247V50.6582L123.038 50.5378C125.113 50.3862 126.109 49.8246 126.813 48.4072C127.933 46.1531 127.204 43.4076 125.212 42.3833C124.474 42.0038 123.725 41.836 122.768 41.836H121.388V46.247ZM148.098 43.6603V45.4846H149.658C150.998 45.4846 151.303 45.4 151.805 44.8875C152.528 44.1504 152.576 42.9987 151.913 42.3225C151.527 41.9287 151.118 41.836 149.767 41.836H148.098V43.6603ZM173.019 43.8196C171.8 44.4995 171.531 46.2185 172.498 47.145C173.716 48.3118 175.762 47.4644 175.762 45.7928C175.762 44.7048 175.553 44.2966 174.79 43.8945C173.995 43.4747 173.662 43.4606 173.019 43.8196ZM173.191 44.8904C172.22 45.5839 172.661 46.7008 173.906 46.7008C174.401 46.7008 174.655 46.532 174.864 46.0643C175.115 45.5021 175.083 45.3737 174.594 44.9697C173.923 44.4151 173.861 44.4117 173.191 44.8904ZM172.482 48.6395C171.739 49.3495 171.747 50.8041 172.498 51.5234C173.254 52.248 174.559 52.232 175.243 51.4893C175.951 50.7202 175.943 49.3247 175.225 48.6405C174.757 48.1939 174.678 48.1798 174.607 48.5286C174.563 48.7485 174.657 49.2483 174.815 49.6392C175.18 50.5373 174.81 51.0792 173.833 51.0792C172.982 51.0792 172.519 50.3444 172.906 49.6071C173.05 49.3327 173.135 48.8874 173.094 48.6176C173.019 48.1301 173.015 48.1304 172.482 48.6395ZM173.457 52.9198C173.258 53.4482 173.763 53.9451 174.124 53.5766C174.429 53.2652 174.24 52.5387 173.854 52.5387C173.714 52.5387 173.536 52.7102 173.457 52.9198Z" fill="#181818"/>
</svg>
