<svg width="209" height="51" viewBox="0 0 209 51" fill="none" xmlns="http://www.w3.org/2000/svg">
<path fill-rule="evenodd" clip-rule="evenodd" d="M122.714 16.1426C121.985 17.2262 121.985 17.3984 122.714 18.482C123.618 19.8268 125.423 20.0303 126.567 18.9167C127.57 17.9398 127.522 16.6975 126.443 15.7472C125.174 14.629 123.621 14.7937 122.714 16.1426ZM64.8623 25.6815V36.0279H67.0244H69.1864V32.2848V28.5417H71.6772C76.8205 28.5417 80.1779 25.5374 79.6139 21.4405C79.0272 17.1813 76.7345 15.802 69.787 15.5283L64.8623 15.3345V25.6815ZM144.138 19.4178C144.138 21.2112 143.996 21.5233 143.177 21.5233C142.399 21.5233 142.216 21.8354 142.216 23.1609C142.216 24.4518 142.408 24.7986 143.12 24.7986C143.928 24.7986 144.045 25.2758 144.226 29.3048C144.417 33.5509 144.506 33.8766 145.778 34.9424C146.895 35.8777 147.555 36.049 149.597 35.9334L152.066 35.794L152.216 34.023C152.357 32.3578 152.297 32.2694 151.204 32.5365C149.233 33.018 148.462 31.7528 148.462 28.0406V24.7986H150.384C152.26 24.7986 152.306 24.7597 152.306 23.1609C152.306 21.5622 152.26 21.5233 150.384 21.5233H148.462V19.4178V17.3123H146.3H144.138V19.4178ZM188.896 19.3008C189.028 21.055 188.919 21.3072 187.972 21.4391C187.105 21.5598 186.899 21.8902 186.899 23.1609C186.899 24.421 187.108 24.763 187.951 24.8828C188.917 25.0203 188.992 25.2636 188.88 27.9082C188.726 31.5095 189.495 34.3749 190.863 35.3088C191.488 35.735 192.95 36.0279 194.453 36.0279H196.989V34.1063C196.989 32.5169 196.852 32.2357 196.2 32.4794C195.767 32.6413 194.892 32.4425 194.257 32.0368C193.2 31.3626 193.114 31.0351 193.244 28.1664L193.385 25.0325L195.187 24.8875C196.891 24.7499 196.989 24.6544 196.989 23.1329C196.989 21.5668 196.936 21.5233 195.067 21.5233H193.145V19.4178V17.3123H190.946H188.747L188.896 19.3008ZM69.1864 21.9912V24.7986H71.3485C73.6182 24.7986 75.4324 23.6457 75.4324 22.2041C75.4324 20.7565 73.1925 19.1839 71.1299 19.1839H69.1864V21.9912ZM85.6734 21.5505C82.3184 22.5405 79.7724 26.7487 80.4998 30.1016C81.3411 33.9804 84.0668 36.0279 88.389 36.0279C91.0166 36.0279 92.2942 35.5741 94.0502 34.0165C95.4806 32.7475 95.4306 32.5782 93.4156 31.8684C91.9377 31.3481 91.5826 31.3673 90.8552 32.0087C89.5772 33.1345 86.8491 32.9586 85.6057 31.67C85.031 31.0744 84.5612 30.4427 84.5612 30.2663C84.5612 30.0895 87.0475 29.9453 90.0864 29.9453H95.6117V28.143C95.6117 23.6134 90.3997 20.1557 85.6734 21.5505ZM105.231 21.5795C104.576 21.8331 103.657 22.3777 103.189 22.7904C102.4 23.4857 102.338 23.4669 102.338 22.5316C102.338 21.6487 102.07 21.5233 100.176 21.5233H98.014V28.7756V36.0279H100.176H102.338V32.0148C102.338 28.2034 102.409 27.9329 103.743 26.6341C104.515 25.8817 105.596 25.2664 106.145 25.2664C106.965 25.2664 107.143 24.9749 107.143 23.6288C107.143 22.7281 107.159 21.8387 107.179 21.652C107.236 21.1097 106.514 21.0826 105.231 21.5795ZM112.098 21.5711C110.196 22.1073 108.584 24.0336 108.584 25.7713C108.584 27.685 110.375 29.3736 113.389 30.3014C115.046 30.8119 116.031 31.3766 116.031 31.8169C116.031 32.858 113.491 32.988 112.375 32.0041C111.501 31.2334 111.347 31.2316 109.758 31.9694C108.292 32.6502 108.137 32.8753 108.582 33.6838C109.377 35.1319 111.651 36.0279 114.529 36.0279C116.657 36.0279 117.44 35.7968 118.637 34.8165C119.861 33.8134 120.115 33.2632 120.115 31.6138C120.115 29.1803 119.205 28.2628 115.682 27.1455C113.096 26.3248 112.192 25.1663 113.699 24.603C114.203 24.4149 115.037 24.6493 115.789 25.1911C116.941 26.0202 117.154 26.0357 118.458 25.3839C119.237 24.9941 119.966 24.5969 120.077 24.501C120.567 24.0789 117.866 21.9468 116.307 21.5252C114.328 20.9899 114.155 20.9918 112.098 21.5711ZM132.709 21.5837C130.664 22.1578 129.104 24.4996 129.477 26.4348C129.852 28.377 130.993 29.3376 134.06 30.2944C135.704 30.8072 136.691 31.3785 136.691 31.8169C136.691 32.858 134.151 32.988 133.035 32.0041C132.162 31.2348 132.004 31.2325 130.428 31.9648C128.956 32.6483 128.819 32.8528 129.317 33.6295C130.316 35.1871 132.377 36.0279 135.196 36.0279C137.449 36.0279 138.108 35.8225 139.327 34.7412C142.538 31.8922 141.335 28.7293 136.451 27.1796C133.763 26.3272 132.828 25.1752 134.359 24.603C134.861 24.4154 135.692 24.646 136.43 25.1771C137.57 25.9982 137.778 26.0109 139.218 25.3465C140.074 24.952 140.775 24.4645 140.775 24.2642C140.775 23.5231 138.613 21.9706 136.957 21.5224C134.983 20.9885 134.82 20.9909 132.709 21.5837ZM159.017 21.4751C155.46 22.5878 153.61 25.0779 153.61 28.7536C153.61 33.0292 155.993 35.5881 160.298 35.9357C161.692 36.048 163.366 36.0097 164.018 35.8501C165.234 35.553 168.161 33.4016 168.161 32.8051C168.161 32.6221 167.389 32.201 166.445 31.8684C164.968 31.3481 164.612 31.3673 163.885 32.0087C162.607 33.1345 159.879 32.9586 158.636 31.67C158.061 31.0744 157.591 30.4427 157.591 30.2663C157.591 30.0895 160.077 29.9453 163.116 29.9453H168.642V28.2614C168.642 25.936 167.389 23.5848 165.565 22.4872C163.767 21.4049 160.739 20.9371 159.017 21.4751ZM178.406 21.3769C177.83 21.4882 177.101 21.8827 176.785 22.2532C176.041 23.1273 175.368 23.1142 175.368 22.2252C175.368 21.7053 174.807 21.5233 173.206 21.5233H171.044V28.7756V36.0279H173.206H175.368V31.5619C175.368 27.4435 175.46 27.0061 176.548 25.9472C177.978 24.5538 178.905 24.4996 180.173 25.7343C181.005 26.5452 181.134 27.2938 181.134 31.349V36.0279H183.296H185.458V30.8662C185.458 25.3923 184.823 22.905 183.216 22.0843C182.022 21.4747 179.681 21.1303 178.406 21.3769ZM122.517 28.7756V36.0279H124.68H126.842V28.7756V21.5233H124.68H122.517V28.7756ZM85.8272 25.3006C85.131 25.8335 84.5612 26.4652 84.5612 26.7043C84.5612 26.9429 86.0746 27.138 87.9244 27.138C91.5783 27.138 92.3042 26.4806 90.2195 25.0592C88.7642 24.0663 87.3358 24.1449 85.8272 25.3006ZM158.65 25.6174L157.351 26.9041L159.14 27.0486C160.124 27.1282 161.854 27.1282 162.984 27.0486L165.038 26.9041L163.739 25.6174C162.984 24.8706 161.917 24.3307 161.194 24.3307C160.472 24.3307 159.405 24.8706 158.65 25.6174Z" fill="#181818"/>
<path d="M30.385 9.70867C31.8095 7.59474 33.7809 6.08252 36.0347 5.37414C43.5726 3.00615 51.0572 9.51496 49.0787 16.7181C47.7027 21.7292 44.4183 23.9124 37.761 24.2404C33.8702 24.4322 33.5104 24.3784 33.7972 23.6504C33.9707 23.2101 34.1129 22.5508 34.1129 22.1859C34.1129 21.6801 34.8677 21.5224 37.2906 21.5224C41.4178 21.5224 43.7946 20.2989 45.2139 17.4438C46.5049 14.8466 46.145 12.6821 44.0536 10.4648C42.1812 8.47999 39.766 7.83711 37.2935 8.66481C32.9439 10.1209 32.6307 11.066 32.1478 24.1927C31.9268 30.1915 31.4876 35.9419 31.171 36.9707C30.4335 39.3673 27.814 42.3459 25.38 43.5554C18.9966 46.7267 11.2608 43.6031 9.30962 37.0667C7.13698 29.7886 11.8652 23.3088 19.8134 22.6716C21.4681 22.5391 23.8493 22.3412 25.1043 22.2322C27.262 22.0451 27.3864 22.097 27.3864 23.182V24.3298H22.0822C16.0476 24.3298 14.2084 24.9408 11.6259 27.8052C8.74508 31.0005 8.52599 35.116 11.0321 38.9644C14.2214 43.8618 21.8626 44.6048 26.1099 40.4303C29.0027 37.5865 29.0474 37.353 29.3083 23.6055C29.5168 12.6199 29.659 10.7862 30.385 9.70867Z" fill="#181818"/>
</svg>
