<svg width="190" height="50" viewBox="0 0 190 50" fill="none" xmlns="http://www.w3.org/2000/svg">
<path fill-rule="evenodd" clip-rule="evenodd" d="M0.0864258 24.5679V49.042H95.0002H189.914V24.5679V0.09375H95.0002H0.0864258V24.5679ZM120.429 12.2355C120.407 12.2575 120.389 13.2329 120.389 14.403V16.5302H120.62C120.835 16.5302 120.855 16.515 120.919 16.2992C120.957 16.1721 121.046 16.0164 121.116 15.953C121.238 15.8422 121.404 15.8373 125.533 15.8217C127.892 15.8127 129.823 15.8181 129.823 15.8336C129.823 15.8491 127.673 18.5758 125.046 21.8928L120.269 27.9239V28.3982V28.8727H127.501C134.706 28.8727 134.735 28.8732 134.891 28.9963C134.977 29.0643 135.08 29.2269 135.119 29.3576C135.186 29.5807 135.204 29.5952 135.421 29.5952H135.652V27.4277V25.2603H135.411C135.24 25.2603 135.171 25.2857 135.171 25.3485C135.171 25.397 135.125 25.5327 135.07 25.6499C134.995 25.8069 134.912 25.8786 134.754 25.9225C134.53 25.9849 125.977 26.0111 125.977 25.9493C125.977 25.931 128.147 23.151 130.799 19.7717L135.622 13.6274V13.2877V12.9479L128.381 12.917C124.398 12.9 121.134 12.8797 121.126 12.8718C121.067 12.8109 120.869 12.3618 120.869 12.2881C120.869 12.2231 120.809 12.1953 120.669 12.1953C120.559 12.1953 120.451 12.2134 120.429 12.2355ZM138.536 14.3592V16.5302H138.745C138.938 16.5302 138.963 16.5078 139.083 16.2295C139.191 15.9777 139.247 15.9184 139.43 15.8656C139.575 15.8235 141.038 15.8084 143.813 15.8202L147.978 15.8379L143.197 21.8749L138.416 27.9118V28.3923V28.8727H145.66H152.903L153.043 29.0128C153.12 29.0898 153.219 29.2524 153.263 29.374C153.333 29.5679 153.367 29.5952 153.541 29.5952H153.739V27.4277V25.2603H153.538C153.358 25.2603 153.331 25.2833 153.269 25.4913C153.231 25.6184 153.142 25.7741 153.072 25.8375C152.95 25.9484 152.781 25.9532 148.501 25.9696L144.056 25.9865L144.498 25.4277C144.741 25.1203 146.92 22.3452 149.34 19.2605L153.739 13.6522V13.285V12.9178L146.603 12.9169C141.003 12.9163 139.436 12.8998 139.319 12.8405C139.228 12.7948 139.131 12.6587 139.071 12.4952C138.981 12.2506 138.951 12.2237 138.754 12.2068L138.536 12.1881V14.3592ZM22.1999 12.5038C19.1769 12.8093 16.9766 14.2576 16.3108 16.3797C16.1294 16.9582 16.084 18.0192 16.2142 18.6375C16.4492 19.753 17.2134 20.707 18.3241 21.2714C18.7369 21.4811 19.5989 21.7625 20.2056 21.8855C21.0718 22.0612 21.6392 22.1196 23.4618 22.2206C25.6642 22.3429 26.5133 22.4809 27.2175 22.8314C27.7888 23.1158 28.0416 23.4599 28.0379 23.9478C28.0268 25.3774 25.6748 26.2781 22.7321 25.9799C20.6754 25.7714 18.2354 24.8599 17.9956 24.2105C17.9706 24.1428 17.972 24.0108 17.9988 23.9174C18.0441 23.7591 18.0302 23.7401 17.7951 23.6388L17.5429 23.5302L17.4446 23.7179C17.2576 24.0753 15.8187 27.3157 15.8395 27.3326C15.8714 27.3587 16.2634 27.4879 16.3103 27.4879C16.3331 27.4879 16.3826 27.4202 16.4203 27.3374C16.5145 27.1302 16.7526 27.1402 17.2588 27.3723C20.2674 28.7521 23.3779 29.1856 26.265 28.6273C29.0397 28.0908 31.0908 26.5127 31.58 24.5378C31.6848 24.1148 31.6859 23.0405 31.5819 22.6112C31.3189 21.5248 30.5301 20.5445 29.4109 19.9132C28.15 19.2019 26.6898 18.8821 23.582 18.6363C21.3323 18.4585 20.438 18.258 19.9228 17.8161C19.4458 17.4071 19.4552 16.7895 19.9466 16.2419C20.6202 15.4912 21.883 15.1579 23.806 15.2232C25.2377 15.2719 26.4187 15.5705 27.6706 16.2003C28.5569 16.6463 28.9902 17.066 28.9902 17.4787C28.9902 17.6211 29.0337 17.6716 29.2452 17.7742L29.5002 17.8979L29.8049 17.3194C29.9725 17.0013 30.4117 16.1522 30.7809 15.4326L31.4521 14.1241L31.2742 14.032C31.106 13.9448 31.0804 13.9487 30.8039 14.1033L30.5115 14.2669L30.0964 14.108C29.8681 14.0206 29.3162 13.8003 28.87 13.6185C26.5255 12.6626 24.3032 12.2912 22.1999 12.5038ZM90.3434 13.1101C90.3436 13.2909 90.3726 13.323 90.6589 13.4597C90.9216 13.5851 90.9868 13.6492 91.0502 13.8438C91.1102 14.0279 91.1229 15.5441 91.1103 21.011C91.0923 28.8123 91.1339 28.1771 90.631 28.3451C90.3944 28.4241 90.3732 28.4481 90.3732 28.6368V28.8426H92.867H95.3608V28.6379C95.3608 28.4532 95.3374 28.4252 95.1204 28.35C94.9882 28.3042 94.826 28.2127 94.7599 28.1466C94.6436 28.0304 94.6391 27.9343 94.6224 25.2037L94.6052 22.3809L98.1678 22.3528C101.95 22.323 102.127 22.3107 103.158 22.0041C104.452 21.6192 105.505 20.8431 106.104 19.8323C106.711 18.8084 106.849 17.2619 106.442 16.0571C106.284 15.5919 105.827 14.8928 105.458 14.5518C104.666 13.82 103.653 13.3625 102.211 13.0854C101.574 12.9631 101.345 12.9576 95.9467 12.9348L90.3432 12.911L90.3434 13.1101ZM111.195 13.1261C111.195 13.3169 111.215 13.3405 111.434 13.4063C111.929 13.5548 111.884 12.8419 111.902 20.7962C111.913 25.7679 111.898 27.9262 111.853 28.0368C111.788 28.1935 111.675 28.2739 111.36 28.3883C111.222 28.4382 111.195 28.4836 111.195 28.6604V28.8727H113.689H116.182V28.6648C116.182 28.4781 116.156 28.4453 115.927 28.3434C115.451 28.1321 115.493 28.8083 115.475 21.0316C115.464 16.2326 115.479 13.9774 115.523 13.8136C115.586 13.5812 115.696 13.4938 116.077 13.3756C116.151 13.3526 116.182 13.2804 116.182 13.1304V12.9178H113.689H111.195V13.1261ZM161.852 13.1215C161.852 13.3086 161.878 13.3383 162.183 13.4876C162.508 13.6469 162.693 13.8684 162.693 14.0985C162.693 14.2637 156.393 27.4279 156.165 27.7389C155.962 28.0167 155.477 28.391 155.321 28.391C155.268 28.391 155.242 28.4718 155.242 28.6318V28.8727H157.705H160.169V28.6439C160.169 28.4352 160.15 28.4082 159.948 28.3353C159.608 28.212 159.448 28.0181 159.448 27.7294C159.448 27.5003 159.593 27.1425 160.541 25.034L160.656 24.7777L164.292 24.7932L167.928 24.8087L168.554 26.1333C169.042 27.1656 169.18 27.5149 169.181 27.7164C169.183 28.0191 169.029 28.2095 168.682 28.3353C168.481 28.4082 168.462 28.4352 168.462 28.6439V28.8727H171.316H174.17L174.17 28.6469C174.17 28.4361 174.152 28.4138 173.9 28.3099C173.404 28.1057 173.164 27.751 172.163 25.7473C170.111 21.6391 166.545 14.3209 166.51 14.1475C166.449 13.838 166.561 13.6574 166.928 13.4773C167.23 13.3287 167.26 13.2965 167.26 13.116V12.9178H164.556H161.852V13.1215ZM94.6096 17.614V19.6008L97.3588 19.6003C100.09 19.5998 100.863 19.5605 101.546 19.3871C102.375 19.1766 102.96 18.7677 103.176 18.2471C103.318 17.9066 103.309 17.2237 103.159 16.8852C102.845 16.1804 102.131 15.843 100.627 15.6904C100.285 15.6556 98.7911 15.6271 97.3074 15.6271H94.6096V17.614ZM163.762 18.3436C163.422 19.0508 162.83 20.2799 162.447 21.0751L161.75 22.5208L164.304 22.5366C165.709 22.5452 166.868 22.5425 166.879 22.5306C166.899 22.5113 164.456 17.1346 164.403 17.0801C164.391 17.0678 164.103 17.6364 163.762 18.3436ZM65.9662 17.5688C65.9864 17.7758 66.0592 18.6766 66.1282 19.5707C66.1971 20.4648 66.266 21.2572 66.2813 21.3318C66.3083 21.4634 66.33 21.4672 67.048 21.4672H67.787L67.9496 19.4352C68.0391 18.3177 68.1116 17.3558 68.1109 17.2979C68.1096 17.2014 68.017 17.1925 67.0196 17.1925H65.9296L65.9662 17.5688ZM37.8999 20.2639C36.9342 20.3976 36.2725 20.6675 35.835 21.1059C35.5452 21.3962 35.4022 21.7221 35.3262 22.265L35.2861 22.5509L36.66 22.5496L38.0339 22.5484L38.1241 22.3539C38.2995 21.9757 38.4609 21.9427 40.047 21.9619C41.3459 21.9776 41.4816 21.9894 41.7394 22.1088C41.8936 22.1802 42.054 22.3021 42.096 22.3797C42.1401 22.4613 42.1821 22.813 42.1956 23.2132L42.219 23.9056L42.1045 23.7388C41.9291 23.4835 41.6439 23.2997 41.2323 23.1767C40.9048 23.0789 40.6448 23.0654 39.1456 23.0679C38.064 23.0697 37.2891 23.0978 37.0424 23.1442C35.6122 23.413 35.0963 23.9621 35.0155 25.3014C34.9442 26.4837 35.297 27.3043 36.014 27.6241C36.4512 27.8191 37.1285 27.9103 38.4245 27.9487C39.9181 27.9931 40.7506 27.9178 41.25 27.6933C41.6063 27.5331 42.0074 27.1683 42.171 26.8557C42.2632 26.6795 42.2656 26.6884 42.2679 27.232L42.2703 27.7889H43.6547H45.039L45.0217 24.9141L45.0045 22.0392L44.86 21.6798C44.5685 20.9544 43.9893 20.5524 42.9313 20.3411C42.4061 20.2362 38.5289 20.1767 37.8999 20.2639ZM51.9058 20.2655C51.1169 20.4058 50.5353 20.7821 50.2011 21.3685L50.0264 21.6749L50.0092 21.0142L49.992 20.3534H48.67H47.348L47.3325 24.0712L47.3171 27.7889H48.6956H50.0741L50.0932 25.6064L50.1122 23.4239L50.2665 23.1229C50.5696 22.5319 50.9405 22.4004 52.3055 22.4004C53.2438 22.4004 53.313 22.4085 53.5944 22.5509C54.1678 22.8412 54.2276 23.1499 54.2281 25.8172L54.2285 27.7889H55.6071H56.9858L57.0042 25.6064C57.0218 23.5311 57.0289 23.4106 57.1497 23.153C57.4202 22.5762 57.7597 22.4287 58.9159 22.3859C60.1308 22.3409 60.6518 22.4999 60.9171 22.9967C61.0449 23.2362 61.0493 23.3094 61.0665 25.5161L61.0842 27.7889H62.4677H63.8511L63.8295 25.2151C63.8087 22.7389 63.8028 22.6258 63.673 22.2355C63.1761 20.7405 61.9279 20.1383 59.4963 20.2203C58.4843 20.2544 58.1185 20.3229 57.6215 20.5716C57.2793 20.7429 56.8636 21.1913 56.7163 21.5481L56.6082 21.81L56.3891 21.4705C56.0366 20.924 55.5172 20.5831 54.6791 20.3484C54.2589 20.2307 52.4121 20.1755 51.9058 20.2655ZM72.6163 20.2673C71.3955 20.3979 70.8548 20.586 70.4571 21.0182C70.0849 21.4228 69.9516 21.8544 69.9465 22.6714C69.9426 23.3091 69.9556 23.3923 70.111 23.7248C70.3108 24.1525 70.4523 24.3151 70.8059 24.5234C71.3617 24.8509 71.7766 24.9024 74.359 24.9642C76.9994 25.0274 77.1674 25.0516 77.3068 25.3889C77.4181 25.658 77.3227 25.8624 77.0017 26.0425C76.7326 26.1935 76.7325 26.1935 75.08 26.1935C73.4689 26.1935 73.4211 26.19 73.1676 26.0544C72.9936 25.9614 72.8792 25.847 72.8213 25.7083L72.7349 25.5011H71.2935H69.8521L69.8531 25.6968C69.8546 26.0197 70.0036 26.5551 70.1721 26.8432C70.4643 27.3428 70.9429 27.6349 71.775 27.8215C72.3807 27.9573 75.4005 28.0115 76.811 27.9118C78.052 27.8241 78.5331 27.7275 79.0907 27.4543C79.783 27.1149 80.0782 26.6271 80.1664 25.6771C80.2416 24.8661 79.9955 24.0962 79.5248 23.6701C78.9571 23.1563 78.5413 23.0888 75.7411 23.0563C73.4944 23.0301 73.1151 22.9968 72.9017 22.8066C72.7414 22.6637 72.7655 22.3434 72.9475 22.1999C73.2286 21.9784 73.6537 21.92 74.9899 21.9194C76.1551 21.9188 76.2732 21.9287 76.5313 22.0482C76.6901 22.1217 76.8281 22.2323 76.8508 22.3041C76.8901 22.4279 76.9207 22.4305 78.3373 22.4305H79.7839L79.7522 22.0812C79.6799 21.2823 79.2441 20.7234 78.5251 20.5075C78.2993 20.4397 77.9254 20.3539 77.694 20.3168C77.1635 20.232 73.2992 20.1943 72.6163 20.2673ZM38.622 24.656C37.9791 24.756 37.6342 25.1404 37.7618 25.6149C37.9048 26.1473 38.2933 26.243 40.185 26.2118C41.7151 26.1867 41.9206 26.1458 42.1304 25.8249C42.1931 25.7291 42.2403 25.5475 42.2403 25.4023C42.2403 25.0977 42.0306 24.8411 41.6822 24.7196C41.4194 24.6279 39.1107 24.5799 38.622 24.656ZM163.883 34.174C163.696 34.283 163.402 34.9775 163.382 35.3567C163.372 35.5489 163.307 36.0719 163.237 36.519C163.167 36.966 163.093 37.6501 163.073 38.0392L163.035 38.7466H162.619C162.239 38.7466 162.188 38.762 162.027 38.9226C161.8 39.1499 161.789 39.4443 161.999 39.671C162.133 39.8162 162.187 39.8303 162.6 39.8303H163.053L163.052 40.4475L163.05 41.0646L162.556 41.2365C162.284 41.331 161.836 41.489 161.56 41.5877C160.942 41.8086 160.77 41.787 160.77 41.4884C160.77 41.3751 160.739 41.2635 160.702 41.2403C160.591 41.1716 160.683 40.4492 160.862 39.9809C161.112 39.3261 161.116 39.2168 160.891 39.0275C160.657 38.8306 160.368 38.8173 160.145 38.9932C159.958 39.1411 159.748 39.526 159.749 39.7226C159.749 39.7984 159.705 40.1314 159.651 40.4625L159.553 41.0646L158.84 41.2677C158.164 41.4601 158.119 41.4656 157.977 41.3721C157.771 41.2368 157.619 40.9161 157.4 40.1503C157.183 39.3934 157.018 39.1378 156.69 39.0494C156.129 38.8981 155.5 39.2293 154.475 40.2143C154.236 40.4448 154.03 40.6219 154.019 40.6081C154.007 40.5942 153.921 40.3814 153.829 40.135C153.594 39.5126 153.372 39.2817 152.968 39.2428C152.381 39.1864 152.058 39.3984 151.105 40.4625L150.728 40.884L150.763 39.9949L150.799 39.1059L150.638 38.9564C150.465 38.7963 150.159 38.757 149.951 38.8684C149.723 38.9905 149.684 39.1691 149.653 40.2201L149.623 41.2421L149.045 41.4653C148.308 41.7495 148.096 41.7898 147.94 41.6747C147.833 41.5952 147.821 41.5189 147.825 40.9639C147.829 40.4344 147.854 40.2795 147.995 39.9207C148.23 39.3216 148.236 39.2761 148.092 39.0937C147.942 38.9018 147.619 38.8236 147.384 38.922C147.155 39.0177 146.932 39.3829 146.885 39.74C146.863 39.9056 146.808 40.2925 146.763 40.5997L146.682 41.1584L146.309 41.2737C145.419 41.5491 144.637 41.6431 144.345 41.5096L144.199 41.443L144.661 40.8488C145.445 39.84 145.792 38.9778 145.93 37.6934C146.051 36.5679 145.831 35.5717 145.392 35.2588C145.156 35.0901 144.773 35.0753 144.487 35.2236C143.99 35.4809 143.384 36.3056 143.045 37.1871C142.667 38.1665 142.595 38.5654 142.594 39.6798C142.593 40.2428 142.614 40.8124 142.64 40.9456L142.688 41.1878L142.144 41.3915C141.333 41.6951 141.225 41.6076 141.025 40.486C140.846 39.4804 140.618 39.2509 139.849 39.3003C139.26 39.3382 138.986 39.4897 138.061 40.2897C137.663 40.6331 137.324 40.9141 137.306 40.9141C137.289 40.9141 137.274 40.6175 137.274 40.2552C137.274 39.6585 137.261 39.5813 137.139 39.4386C137.05 39.3351 136.921 39.27 136.763 39.2489C136.455 39.2077 136.242 39.3658 136.099 39.7416C136.004 39.9889 136.004 40.022 136.09 40.1178C136.168 40.2041 136.188 40.4295 136.204 41.3866C136.222 42.5287 136.225 42.5527 136.365 42.6663C136.751 42.9787 137.014 42.8864 137.48 42.2747C137.723 41.9559 138.087 41.6 138.586 41.1914C139.822 40.1798 139.856 40.1724 139.969 40.8966C140.087 41.6588 140.409 42.2326 140.85 42.4649C141.301 42.7029 141.781 42.6664 142.62 42.33L143.163 42.1122L143.395 42.2992C143.977 42.7681 145.054 42.7852 146.49 42.3483C146.84 42.2416 146.917 42.2341 146.94 42.3044C146.995 42.4737 147.378 42.7766 147.588 42.8161C147.93 42.8804 148.434 42.8002 149.097 42.5755C149.472 42.4487 149.713 42.3937 149.713 42.435C149.713 42.4723 149.786 42.579 149.875 42.6718C149.995 42.7978 150.093 42.8407 150.26 42.8407C150.596 42.8407 150.661 42.7977 150.934 42.3895C151.273 41.8838 152.477 40.5008 152.617 40.4562C152.773 40.4068 152.801 40.4502 153.011 41.0486C153.331 41.9666 153.409 42.058 153.867 42.058C154.115 42.058 154.145 42.0361 154.788 41.3668C155.412 40.7171 155.992 40.2518 156.176 40.2518C156.226 40.2518 156.309 40.4239 156.387 40.6856C156.754 41.9211 157.264 42.4753 158.036 42.4778C158.201 42.4783 158.617 42.3976 158.96 42.2985C159.303 42.1993 159.614 42.1184 159.651 42.1187C159.688 42.1189 159.781 42.2296 159.858 42.3646C159.952 42.5298 160.08 42.6472 160.249 42.724C160.707 42.9325 161.253 42.8566 162.416 42.4226C163.119 42.1602 163.294 42.1289 163.294 42.2654C163.294 42.4266 163.559 42.6633 163.779 42.6984C163.95 42.7257 164.028 42.7031 164.163 42.5872C164.366 42.412 164.375 42.2911 164.24 41.5161C164.185 41.2016 164.122 40.6913 164.1 40.3822L164.059 39.8203L164.901 39.8403C165.675 39.8588 165.755 39.8506 165.879 39.74L166.014 39.6196L165.887 39.8711C165.817 40.0094 165.702 40.332 165.632 40.588C165.367 41.5543 165.571 42.2467 166.228 42.6172C166.844 42.9644 168.027 42.9001 169.28 42.4513L169.846 42.2487L170.176 42.4482C170.697 42.762 171.229 42.8694 172.247 42.866C173.867 42.8604 174.668 42.4749 174.341 41.8584C174.182 41.5591 173.954 41.5137 173.389 41.668C172.604 41.8824 171.437 41.838 170.921 41.5741C170.494 41.3558 170.558 41.064 171.136 40.5977C171.953 39.9376 172.618 39.7999 173.162 40.1781C173.318 40.2866 173.57 40.551 173.723 40.7657C174.054 41.2303 174.19 41.3355 174.459 41.3355C174.604 41.3355 174.712 41.2835 174.845 41.1504L175.03 40.9652L174.992 40.1118C174.951 39.1799 174.777 37.3393 174.588 35.8266C174.459 34.7975 174.389 34.6125 174.089 34.5056C173.88 34.431 173.528 34.5954 173.448 34.8047C173.408 34.9114 173.427 35.2438 173.51 35.9038C173.618 36.7593 173.869 39.3039 173.848 39.3288C173.843 39.3344 173.679 39.2395 173.484 39.118C173.139 38.9038 173.111 38.8971 172.553 38.8971C172.013 38.8971 171.948 38.9112 171.515 39.1183C170.896 39.4144 170.419 39.7471 170.046 40.1425C169.703 40.5071 169.565 40.7415 169.495 41.0752L169.449 41.3005L168.744 41.5296C167.651 41.8848 166.831 41.8993 166.653 41.5663C166.618 41.4999 166.598 41.4377 166.609 41.4281C166.62 41.4184 166.791 41.3641 166.989 41.3074C167.867 41.0565 168.737 40.4113 169.043 39.7843C169.25 39.3603 169.275 38.7281 169.1 38.3713C168.849 37.8601 168.149 37.7188 167.483 38.0451C167.113 38.2269 166.469 38.8669 166.207 39.3145C166.119 39.4657 166.036 39.5895 166.024 39.5895C166.011 39.5895 166.016 39.5115 166.035 39.4162C166.121 38.9849 165.821 38.8274 164.803 38.7698C164.192 38.7352 164.075 38.713 164.076 38.6322C164.076 38.5792 164.116 38.1566 164.165 37.693C164.279 36.6219 164.462 35.5923 164.622 35.1286C164.768 34.706 164.742 34.5291 164.497 34.2836C164.318 34.1039 164.076 34.0608 163.883 34.174ZM36.6264 34.6278C36.4016 34.8173 36.3999 34.8556 36.5598 36.175C36.6763 37.1369 36.8621 39.0228 36.8621 39.2436C36.8621 39.3517 36.8541 39.3512 36.6863 39.2314C35.8172 38.6114 34.7373 38.7862 33.4851 39.7497C32.4054 40.5805 32.1978 41.4866 32.9211 42.2112C33.298 42.5889 33.7348 42.7541 34.6238 42.8552C35.6104 42.9674 36.9397 42.7605 37.2936 42.4395C37.463 42.2859 37.4393 41.9083 37.2482 41.7168C37.0763 41.5446 37.0377 41.5448 36.111 41.7214C35.501 41.8376 34.9625 41.8391 34.4285 41.726C33.9205 41.6185 33.714 41.4801 33.689 41.2303C33.6744 41.0842 33.7172 41.0012 33.8993 40.8232C34.4142 40.3199 35.1095 39.9523 35.5484 39.9514C35.9056 39.9506 36.3058 40.2104 36.6607 40.6732C37.1168 41.2683 37.1952 41.3355 37.4331 41.3355C37.9448 41.3355 38.0931 41.0708 38.037 40.2574C37.906 38.3537 37.5802 35.3127 37.4611 34.8805C37.347 34.4665 36.9576 34.3486 36.6264 34.6278ZM75.2577 34.6339C75.0335 34.8229 75.0318 34.663 75.2817 36.9705C75.3642 37.7321 75.4503 38.5829 75.4732 38.8611L75.5148 39.367L75.3318 39.2364C74.6038 38.717 73.7882 38.7418 72.7726 39.3142C72.0084 39.7448 71.2834 40.4831 71.1943 40.9213C71.1669 41.0562 71.0823 41.1102 70.6123 41.2928C69.8766 41.5789 69.8331 41.589 69.6469 41.5181C69.4416 41.4399 69.3447 41.2058 69.2205 40.4885C69.1665 40.1762 69.0808 39.833 69.0301 39.7259C68.8902 39.4303 68.614 39.2885 68.1782 39.2885C67.5224 39.2885 67.1219 39.5112 66.0213 40.4879L65.4655 40.9811V40.3183C65.4655 39.5983 65.4106 39.3978 65.1856 39.2951C64.8126 39.1248 64.4694 39.2875 64.2983 39.7158C64.2075 39.9433 64.2071 39.9774 64.2938 40.1099C64.3651 40.2189 64.3843 40.3772 64.3712 40.7469L64.3538 41.239L63.5543 41.5001C62.6085 41.809 61.9623 41.8877 61.6046 41.7374C61.4534 41.6738 61.3793 41.604 61.3793 41.525C61.3793 41.4313 61.4676 41.3807 61.815 41.2758C62.6379 41.0272 63.411 40.4468 63.754 39.82C63.9061 39.5422 63.9299 39.4347 63.9314 39.0175C63.9328 38.6393 63.9069 38.4911 63.8109 38.3273C63.6268 38.0134 63.3434 37.873 62.9042 37.878C62.3925 37.8839 61.9712 38.1004 61.5096 38.5948C60.8793 39.27 60.5699 39.8533 60.2493 40.9707C60.2044 41.1272 60.0173 41.2156 58.9542 41.5829C58.2948 41.8107 58.1642 41.7897 58.0696 41.4403C57.9539 41.0129 58.0671 40.3216 58.3781 39.555C58.4194 39.4532 58.4351 39.2979 58.4131 39.2099C58.3391 38.9146 57.8243 38.766 57.5478 38.9601C57.3546 39.0956 57.1084 39.5477 57.1187 39.7479C57.1235 39.8429 57.0836 40.1612 57.03 40.4553C56.9085 41.1218 56.9077 41.3948 57.0256 41.8497C57.1461 42.3147 57.3245 42.5729 57.6276 42.7212C58.0761 42.9406 58.6602 42.8547 59.8724 42.391L60.4387 42.1744L60.6536 42.3842C60.9594 42.6827 61.2665 42.7925 61.8901 42.8261C62.5084 42.8593 63.1687 42.7467 63.9236 42.4792L64.3948 42.3122L64.4559 42.488C64.5195 42.6708 64.7714 42.8407 64.9789 42.8407C65.1958 42.8407 65.3768 42.717 65.5414 42.4563C65.7836 42.0728 66.1912 41.6751 67.0488 40.9859C67.5768 40.5616 67.8608 40.3712 67.9472 40.3838C68.0558 40.3997 68.0891 40.4818 68.1838 40.9658C68.4077 42.1104 68.8738 42.6159 69.7011 42.6111C70.0527 42.6091 70.2076 42.5664 71.0658 42.2355L71.4082 42.1035L71.6589 42.3185C72.1707 42.7574 73.3642 42.9834 74.4942 42.8556C75.1642 42.7798 75.7375 42.616 75.9235 42.4474C76.1015 42.2859 76.0828 41.9133 75.8867 41.7168C75.7149 41.5446 75.6762 41.5448 74.7495 41.7214C74.1395 41.8376 73.6011 41.8391 73.067 41.726C72.5615 41.619 72.3525 41.4798 72.3278 41.2336C72.2875 40.8332 73.5617 39.9508 74.1799 39.9508C74.5448 39.9508 74.9418 40.2071 75.2992 40.6732C75.7553 41.2683 75.8338 41.3355 76.0717 41.3355C76.5888 41.3355 76.7323 41.0723 76.6764 40.2262C76.5629 38.5085 76.2044 35.1981 76.094 34.8484C75.9706 34.4575 75.5844 34.3584 75.2577 34.6339ZM134.947 35.1326C134.698 35.2851 134.652 35.4812 134.746 36.0057C134.861 36.6489 134.896 37.9764 134.816 38.6668C134.725 39.4499 134.501 40.2826 134.231 40.8463C133.958 41.4137 133.261 42.1404 132.753 42.3864C132.112 42.6966 131.584 42.588 131.291 42.0856C130.962 41.524 130.885 41.1502 130.885 40.1314C130.886 39.3516 130.917 39.0234 131.076 38.1352C131.317 36.781 131.323 36.446 131.106 36.2451C130.901 36.0549 130.606 36.05 130.393 36.2333C130.268 36.341 130.225 36.4502 130.184 36.7601C130.155 36.9752 130.057 37.5575 129.966 38.0542C129.824 38.8342 129.801 39.1133 129.8 40.1013C129.8 41.1776 129.81 41.2772 129.965 41.7871C130.159 42.4257 130.425 42.8975 130.746 43.1753C131.671 43.9737 132.959 43.7941 134.124 42.7043C135.117 41.7756 135.684 40.543 135.89 38.8686C136.012 37.8734 135.943 35.9614 135.764 35.3903C135.649 35.0217 135.306 34.9135 134.947 35.1326ZM16.95 35.7537C16.8113 35.889 16.7846 35.9564 16.8132 36.0997C16.8947 36.5079 17.2854 36.804 17.6544 36.7373C17.7583 36.7185 17.9448 36.6858 18.0687 36.6647L18.294 36.6262L18.2944 36.9489C18.2946 37.1263 18.3119 37.4921 18.3328 37.7616L18.3709 38.2517L18.1884 38.2919C17.8004 38.3772 17.6659 38.7924 17.9339 39.0782C18.0113 39.1608 18.1085 39.2283 18.15 39.2283C18.3556 39.2283 18.4141 39.4093 18.4189 40.0604C18.4216 40.414 18.4558 41.2141 18.4951 41.8384C18.5662 42.9677 18.5675 42.9742 18.7341 43.1178C18.9544 43.3077 19.255 43.3085 19.4738 43.1199L19.6388 42.9778L19.5664 41.2987C19.5265 40.3752 19.4944 39.5468 19.4949 39.4577C19.496 39.2676 19.4728 39.2721 20.9681 39.1683C22.2193 39.0814 23.005 38.9553 23.2879 38.796C23.6828 38.5736 23.7411 38.1661 23.4206 37.8685C23.2387 37.6996 23.0823 37.6869 22.7743 37.8158C22.4759 37.9407 19.5217 38.236 19.4672 38.1464C19.4565 38.1288 19.4285 37.7893 19.405 37.392L19.3624 36.6695L21.367 36.649C23.1066 36.6313 23.3956 36.6412 23.552 36.7239C23.8423 36.8774 24.1048 36.8474 24.3153 36.6365C24.4755 36.476 24.4944 36.4225 24.466 36.2103C24.4329 35.9632 24.3101 35.7803 24.0935 35.6554C24.0058 35.6049 23.0317 35.5858 20.5474 35.5858H17.1222L16.95 35.7537ZM46.728 35.6384C46.5572 35.7274 46.4767 35.8705 46.4767 36.0849C46.4767 36.4976 47.0934 36.8816 47.4757 36.7072C47.5573 36.6699 47.6865 36.6394 47.7628 36.6394C47.8902 36.6394 47.9047 36.6725 47.9398 37.0458C47.9609 37.2693 47.9783 37.6321 47.9786 37.8521C47.979 38.2296 47.9705 38.2541 47.8273 38.2901C47.3074 38.4208 47.3314 39.1423 47.8595 39.2586C48.0384 39.2979 48.0391 39.2996 48.0396 39.7297C48.0405 40.3377 48.207 42.8588 48.2546 42.983C48.3017 43.1062 48.5842 43.2621 48.7602 43.2621C48.9532 43.2621 49.2219 43.1007 49.2577 42.9632C49.2755 42.8955 49.2523 42.0496 49.2062 41.0834C49.1603 40.1172 49.1347 39.3146 49.1494 39.2999C49.1642 39.285 49.5356 39.2502 49.9747 39.2223C51.9969 39.094 52.7984 38.9563 53.0852 38.6879C53.335 38.454 53.3374 38.1456 53.0914 37.8991C52.8949 37.7023 52.774 37.6843 52.4781 37.8075C52.232 37.91 51.467 38.0071 50.1305 38.1052C48.9567 38.1914 49.0771 38.2799 49.0532 37.3144L49.0378 36.6951L51.0216 36.6602C52.7758 36.6293 53.0272 36.6365 53.1933 36.7226C53.466 36.8639 53.7096 36.8444 53.9234 36.6641C54.1332 36.4872 54.1703 36.2117 54.0226 35.9256C53.8449 35.5812 53.8989 35.5861 50.2132 35.5859C48.3519 35.5858 46.7835 35.6094 46.728 35.6384ZM100.284 35.6902C100.095 35.8389 100.056 36.0629 100.175 36.3135C100.301 36.5796 100.675 36.7857 100.943 36.737C101.045 36.7184 101.231 36.6858 101.355 36.6647L101.58 36.6262V36.8945C101.58 37.042 101.598 37.4068 101.619 37.7052L101.657 38.2477L101.483 38.2911C101.217 38.3577 101.099 38.4968 101.099 38.7455C101.099 38.9932 101.266 39.1935 101.526 39.2581L101.682 39.2968L101.725 40.4215C101.748 41.0401 101.788 41.8681 101.812 42.2615C101.855 42.942 101.865 42.9837 102.022 43.1194C102.241 43.3078 102.542 43.3078 102.761 43.1194L102.926 42.9766L102.85 41.1567C102.808 40.1557 102.788 39.3227 102.805 39.3055C102.822 39.2882 103.182 39.2513 103.605 39.2235C105.448 39.102 106.358 38.9678 106.653 38.7744C106.969 38.5667 106.997 38.0742 106.705 37.8442C106.521 37.699 106.357 37.6918 106.06 37.8158C105.762 37.9406 102.806 38.2362 102.755 38.1464C102.745 38.1288 102.718 37.7893 102.695 37.392L102.653 36.6695L104.656 36.649C106.393 36.6313 106.682 36.6412 106.838 36.7239C107.125 36.8753 107.391 36.8471 107.594 36.644C107.888 36.3497 107.792 35.8918 107.389 35.6606C107.289 35.6033 106.455 35.5858 103.838 35.5858C100.682 35.5858 100.406 35.5939 100.284 35.6902ZM58.3671 36.4999C57.8966 36.7925 57.9 37.5674 58.3728 37.8124C58.7466 38.0061 59.2537 37.877 59.4253 37.5445C59.6186 37.1699 59.4898 36.6618 59.1579 36.4899C58.929 36.3713 58.5665 36.3759 58.3671 36.4999ZM148.102 36.5205C147.683 36.7768 147.634 37.3377 147.999 37.7038C148.173 37.8781 148.238 37.9037 148.506 37.9037C148.769 37.9037 148.844 37.8755 149.027 37.708C149.548 37.2298 149.233 36.3981 148.532 36.3988C148.405 36.3989 148.211 36.4537 148.102 36.5205ZM160.972 36.5141C160.854 36.5865 160.747 36.7264 160.684 36.8915C160.551 37.2396 160.648 37.5667 160.944 37.766C161.625 38.2253 162.439 37.4905 162.061 36.7578C161.882 36.4104 161.34 36.2892 160.972 36.5141ZM90.645 36.566C90.4835 36.6969 90.3784 37.1285 90.3754 37.6727L90.3732 38.0739L90.1526 38.1091C89.8686 38.1546 89.4497 38.4757 89.2779 38.7795C89.09 39.1119 89.0933 39.5451 89.2856 39.7978L89.43 39.9874L89.1618 40.1299C88.6254 40.415 88.1799 41.0935 88.1799 41.6254C88.1799 42.3047 88.7142 42.7939 89.6071 42.9321C89.7476 42.9539 89.862 42.9896 89.8615 43.0116C89.8611 43.0335 89.821 43.2202 89.7724 43.4264C89.6746 43.842 89.7161 44.0545 89.9157 44.1616C90.0835 44.2515 90.3545 44.2409 90.5002 44.1386C90.6471 44.0356 90.8546 43.3323 90.8011 43.1188C90.7664 42.9807 90.7809 42.9733 91.17 42.9323C92.0537 42.8392 92.5509 42.536 92.4851 42.1303C92.4153 41.6991 92.1094 41.5572 91.7101 41.7708C91.4763 41.8959 91.3765 41.9073 90.5208 41.9074C89.7277 41.9075 89.5622 41.8913 89.4241 41.8007C89.2364 41.6775 89.2075 41.4396 89.3547 41.2289C89.475 41.0569 89.564 41.0115 90.2685 40.7631C90.874 40.5496 91.0643 40.4048 91.0643 40.1576C91.0643 39.8908 90.9312 39.7198 90.5758 39.53C90.2085 39.3339 90.1419 39.2157 90.3392 39.11C90.5052 39.021 90.8126 39.0329 91.1812 39.1425C91.6854 39.2926 92.0257 39.1255 92.0257 38.728C92.0257 38.4516 91.9293 38.3456 91.5306 38.1834C91.3409 38.1062 91.2013 38.0273 91.2206 38.008C91.2399 37.9887 91.307 37.7418 91.3698 37.4594C91.4954 36.8944 91.4694 36.7196 91.235 36.5551C91.0543 36.4283 90.8091 36.4329 90.645 36.566ZM144.462 36.7409C143.941 37.4573 143.474 39.3241 143.621 40.1013L143.678 40.4023L143.968 40.011C144.521 39.2649 144.725 38.7024 144.845 37.6027C144.909 37.0076 144.865 36.5153 144.743 36.4746C144.704 36.4616 144.578 36.5815 144.462 36.7409ZM79.9102 37.5431C78.8926 37.6902 77.5288 38.4228 77.1192 39.0424C76.8777 39.4077 76.8757 39.7795 77.1133 40.1083C77.2503 40.2977 77.4425 40.4227 78.0905 40.7439C78.5341 40.9638 78.9509 41.2033 79.0167 41.2761C79.187 41.4648 79.1716 41.9068 78.984 42.2139C78.5492 42.9259 77.6129 43.6408 77.4536 43.3826C77.4332 43.3494 77.3147 43.3223 77.1901 43.3223C76.8857 43.3223 76.6896 43.5288 76.6809 43.8584C76.6692 44.308 77.2118 44.6535 77.779 44.5574C78.3857 44.4548 79.5772 43.3926 79.9603 42.6129C80.1848 42.1559 80.2511 41.5564 80.1282 41.0929C80.0257 40.7062 79.5759 40.297 78.8183 39.9011C78.4808 39.7249 78.2048 39.5434 78.2048 39.4978C78.2048 39.3141 78.9131 38.9087 79.6169 38.6896C80.0216 38.5636 80.049 38.5624 80.338 38.6585C80.5725 38.7363 80.6754 38.7438 80.8066 38.6926C81.002 38.6163 81.1751 38.2641 81.1151 38.0649C81.0527 37.8577 80.7889 37.612 80.5849 37.571C80.4822 37.5504 80.3575 37.5257 80.308 37.5161C80.2584 37.5065 80.0794 37.5187 79.9102 37.5431ZM24.213 38.928C23.5705 39.0655 22.7731 39.8651 22.4855 40.6602C22.4074 40.8764 22.3518 41.2059 22.336 41.5462C22.3128 42.0484 22.3235 42.1124 22.4808 42.4192C22.76 42.9635 23.1354 43.1414 24.0027 43.1405C24.9735 43.1394 25.6462 42.8811 26.3605 42.2352C26.901 41.7465 27.0906 41.3619 27.0564 40.8239C27.0352 40.4891 27.046 40.4324 27.1315 40.4324C27.1864 40.4324 27.3026 40.3762 27.3897 40.3076C27.6085 40.1352 27.6108 39.79 27.3944 39.5863C27.2607 39.4605 27.1651 39.4374 26.6583 39.4086C26.2126 39.3833 26.0146 39.3432 25.8153 39.2379C25.6654 39.1586 25.4193 39.0921 25.2353 39.0811C25.0596 39.0707 24.8829 39.0417 24.8427 39.0168C24.7077 38.9332 24.3948 38.8891 24.213 38.928ZM29.2005 38.9285C28.7034 39.0365 28.066 39.5447 27.7344 40.0974C27.4296 40.6053 27.2999 41.0504 27.2946 41.6064C27.289 42.1983 27.4091 42.5229 27.7379 42.8049C28.0716 43.091 28.3861 43.1627 29.1552 43.128C29.87 43.0957 30.3102 42.9704 30.7875 42.6636C31.1055 42.4591 31.7059 41.8717 31.8826 41.5919C32.0282 41.3616 32.091 40.8639 32.0056 40.6184C31.9446 40.4429 31.9494 40.4324 32.0907 40.4324C32.2988 40.4324 32.5356 40.1793 32.5356 39.9568C32.5356 39.8534 32.4739 39.705 32.3906 39.6079C32.2539 39.4487 32.2134 39.4379 31.6845 39.419C31.2316 39.4029 31.0617 39.3692 30.803 39.244C30.618 39.1545 30.3626 39.0847 30.1985 39.0789C30.0422 39.0734 29.879 39.047 29.8358 39.0202C29.6953 38.9333 29.385 38.8885 29.2005 38.9285ZM62.2439 39.3096C61.8793 39.684 61.5551 40.1916 61.6805 40.1916C61.7893 40.1916 62.3147 39.9048 62.5146 39.7362C62.7405 39.5457 62.8816 39.2938 62.8816 39.0808C62.8816 38.807 62.6538 38.8888 62.2439 39.3096ZM106.481 39.1229C106.192 39.4142 106.058 40.0096 106.057 41.0044C106.057 41.6742 106.075 41.8261 106.183 42.058C106.737 43.2447 108.272 43.1695 109.585 41.8913L109.868 41.6158L109.932 41.7845C110.132 42.311 110.606 42.6015 111.255 42.5944C111.47 42.5921 111.765 42.5585 111.911 42.5198C112.17 42.451 112.181 42.4541 112.371 42.645C112.702 42.9787 113.057 42.8936 113.382 42.4025C113.627 42.0318 114.036 41.635 114.883 40.9442C115.484 40.4538 115.729 40.3156 115.826 40.4124C115.855 40.4419 115.922 40.6891 115.973 40.9618C116.195 42.131 116.654 42.6162 117.534 42.6111C117.832 42.6094 118.046 42.5536 118.605 42.3319C118.99 42.1796 119.433 42.0308 119.59 42.0015C120.052 41.9148 120.256 41.5785 120.08 41.1919C119.913 40.8245 119.537 40.8459 118.416 41.2866C117.299 41.7256 117.222 41.6769 116.994 40.3868C116.841 39.5224 116.622 39.2891 115.965 39.2887C115.313 39.2883 115.031 39.4391 113.959 40.362L113.328 40.905L113.259 40.172C113.222 39.7689 113.188 39.4329 113.184 39.4255C113.181 39.418 113.098 39.3707 113.001 39.3201C112.659 39.143 112.36 39.2389 112.164 39.5889C112.014 39.8558 112 40.0864 112.126 40.1916C112.194 40.2478 112.216 40.3986 112.216 40.7937C112.216 41.3123 112.214 41.322 112.051 41.3884C111.96 41.4255 111.751 41.481 111.585 41.5116C110.94 41.6314 110.779 41.3368 110.899 40.258L110.976 39.5718L110.812 39.4301C110.65 39.291 110.357 39.2447 110.147 39.3253C110.095 39.3455 109.931 39.5972 109.782 39.8847C109.437 40.5545 109.047 41.0358 108.529 41.4307C108.031 41.8102 107.648 41.9411 107.416 41.8106C107.33 41.7626 107.227 41.6563 107.185 41.5745C107.082 41.3695 107.092 40.6681 107.205 40.1615C107.257 39.9297 107.313 39.6157 107.331 39.4637C107.359 39.2156 107.346 39.1741 107.197 39.0573C106.956 38.8668 106.714 38.8889 106.481 39.1229ZM167.78 39.0409C167.452 39.2577 166.786 40.1916 166.96 40.1916C167.069 40.1916 167.594 39.9048 167.794 39.7362C168.02 39.5457 168.161 39.2938 168.161 39.0808C168.161 38.8933 168.025 38.879 167.78 39.0409ZM52.8045 39.0483C52.7277 39.0793 52.6131 39.2348 52.5302 39.4208C52.3954 39.7229 52.388 39.8037 52.3917 40.9277L52.3957 42.1154L52.5593 42.2794C52.9226 42.6435 53.3973 42.4137 53.4809 41.8334C53.54 41.4229 53.9039 41.0848 54.7128 40.689C55.494 40.3066 55.8947 40.1999 56.1718 40.3003C56.5893 40.4516 56.7993 40.3594 56.9366 39.965C57.0827 39.5453 56.7031 39.2285 56.0539 39.2284C55.5059 39.2282 54.4845 39.5908 53.7542 40.0446L53.4902 40.2087L53.5313 39.7902C53.5799 39.2962 53.5498 39.1932 53.3228 39.0755C53.1325 38.9769 52.9989 38.9699 52.8045 39.0483ZM23.9504 40.3183C23.6242 40.6584 23.4579 41.0126 23.4182 41.4517C23.3888 41.7753 23.3998 41.8207 23.5413 41.9625C23.6731 42.0945 23.7503 42.1182 24.0491 42.1182C24.7219 42.1182 25.2982 41.8568 25.7638 41.3405C26.0106 41.0667 26.055 40.7991 25.8921 40.5663C25.8073 40.4449 25.7484 40.4324 25.2592 40.4324C24.6919 40.4324 24.3595 40.3421 24.258 40.1603C24.2078 40.0704 24.1691 40.0902 23.9504 40.3183ZM28.9345 40.3001C28.5872 40.666 28.4364 40.9953 28.403 41.4608C28.376 41.8371 28.3829 41.8637 28.5403 41.9876C28.8684 42.2462 29.73 42.1224 30.2916 41.736C30.6374 41.4981 30.9732 41.0799 30.9732 40.8874C30.9732 40.8117 30.9172 40.6783 30.8487 40.5911C30.7306 40.4407 30.6959 40.4324 30.1847 40.4324C29.622 40.4324 29.3521 40.351 29.2381 40.1469C29.1863 40.0542 29.1511 40.072 28.9345 40.3001ZM175.342 41.6332C175.049 41.7536 174.908 42.0759 175.012 42.3911C175.211 42.9944 176.153 42.8442 176.153 42.2092C176.153 41.927 176.072 41.7804 175.854 41.6673C175.661 41.5673 175.525 41.5583 175.342 41.6332ZM177.475 41.6189C177.305 41.6811 177.121 41.8926 177.082 42.0696C176.958 42.6345 177.67 43.0158 178.081 42.6045C178.268 42.4166 178.317 42.1035 178.194 41.8741C178.079 41.6583 177.718 41.53 177.475 41.6189ZM179.662 41.6353C179.592 41.6636 179.474 41.7635 179.401 41.8573C179.295 41.9918 179.273 42.0788 179.299 42.2686C179.365 42.7708 179.945 42.9644 180.304 42.6045C180.761 42.1464 180.262 41.3925 179.662 41.6353ZM38.1441 41.8541C38.0666 41.9726 38.0382 42.1623 38.0292 42.6218C38.0207 43.059 37.9813 43.3382 37.8904 43.6064C37.7336 44.0689 37.733 44.1347 37.8837 44.2857C38.0477 44.45 38.332 44.4425 38.4529 44.2706C38.6389 44.0062 38.7902 43.3621 38.827 42.6784C38.8576 42.1081 38.8477 41.9806 38.7626 41.8505C38.62 41.6324 38.2879 41.6343 38.1441 41.8541ZM120.514 41.8836C120.425 42.0306 120.4 42.188 120.4 42.6212C120.4 43.0122 120.363 43.2853 120.275 43.5632C120.119 44.0507 120.118 44.1353 120.269 44.2857C120.458 44.4752 120.728 44.4439 120.866 44.2167C121.056 43.9033 121.186 43.2381 121.193 42.5414C121.201 41.8066 121.154 41.6968 120.831 41.6968C120.668 41.6968 120.605 41.7337 120.514 41.8836Z" fill="black"/>
</svg>
