<svg width="109" height="71" viewBox="0 0 109 71" fill="none" xmlns="http://www.w3.org/2000/svg">
<path fill-rule="evenodd" clip-rule="evenodd" d="M3.62417 30.8615C1.51108 32.0401 0.627441 33.6191 0.627441 36.2173C0.627441 38.171 2.51522 40.5175 6.80666 43.899C8.87706 45.5301 8.48608 48.8036 6.12196 49.6295C4.72119 50.119 4.0459 49.9709 2.51334 48.8375L0.627441 47.4436V50.52C0.627441 53.5952 0.628696 53.5971 3.00474 53.9768C8.03986 54.782 12.0677 52.2666 12.9074 47.7925C13.4679 44.8046 11.7257 41.6315 8.09258 39.0214C6.40312 37.8076 5.02055 36.3811 5.02055 35.8521C5.02055 34.3528 6.93531 33.9837 8.8915 35.1065L10.6688 36.1263V33.3311C10.6688 31.378 10.409 30.5364 9.80589 30.5364C9.33144 30.5364 8.13086 30.3952 7.13865 30.2226C6.12196 30.0456 4.58751 30.3243 3.62417 30.8615ZM51.2837 41.9892L51.4199 54.0709L53.826 54.2579L56.2322 54.4443L55.9705 50.3355C55.7565 46.9785 55.882 46.2261 56.6539 46.2261C58.5894 46.2261 60.4439 48.486 60.8205 51.3032C61.182 54.0125 61.2391 54.0715 63.5417 54.091C65.3636 54.1067 65.8311 53.8945 65.6153 53.1496C65.4615 52.6212 65.1402 51.0585 64.9017 49.6778C64.3833 46.6804 62.4485 43.7157 61.0113 43.7157C60.3385 43.7157 61.1688 42.5089 63.3861 40.264L66.7951 36.8123L63.6785 36.8524C60.7703 36.8895 60.4044 37.0815 58.2085 39.7193L55.855 42.5465V36.2274V29.9088L53.5016 29.9082H51.1481L51.2837 41.9892ZM84.724 41.833V53.7571H87.3272H89.9305L89.5275 48.5795C89.306 45.7322 89.1227 40.3657 89.1209 36.6554L89.1171 29.9088H86.9205H84.724V41.833ZM105.578 30.6437C105.154 31.068 104.811 31.7119 104.816 32.074C104.822 32.4367 105.129 32.3093 105.498 31.7916C106.042 31.0303 106.113 31.1125 105.872 32.2215C105.564 33.6348 106.622 34.5046 107.759 33.7729C108.701 33.1673 108.305 30.2515 107.252 30.0475C106.756 29.9509 106.002 30.2195 105.578 30.6437ZM19.076 37.6752C16.9233 38.6505 14.8266 41.2801 14.2297 43.754C12.8729 49.3828 19.3383 55.6417 24.6119 53.8035C25.9499 53.3372 26.7997 53.3197 27.2289 53.7489C27.5785 54.0985 28.5845 54.3847 29.465 54.3847H31.0654L31.0076 47.4455L30.9499 40.5063L28.6931 38.9003C25.9819 36.9711 21.8053 36.4395 19.076 37.6752ZM37.0896 38.5488L33.7583 40.3286L33.6667 47.357L33.5757 54.3847H35.9292H38.2826V48.5481C38.2826 42.3595 38.7389 41.2054 41.1877 41.2054C44.0131 41.2054 44.6953 42.7957 44.4599 48.84L44.2447 54.3853H46.5981L48.9516 54.3847V49.0301C48.9516 41.1037 47.3343 38.2049 42.3324 37.1656C40.9047 36.8694 39.5773 37.2196 37.0896 38.5488ZM69.7956 38.117C62.6857 42.7995 65.897 53.7571 74.3789 53.7571C75.6271 53.7571 77.1942 53.4646 77.862 53.1076C78.6985 52.6595 79.0757 52.6595 79.0757 53.1076C79.0757 53.4646 79.9939 53.7571 81.1154 53.7571H83.155L83.0439 47.0997L82.9322 40.4416L80.5518 38.8243C77.2463 36.5782 72.5965 36.2726 69.7956 38.117ZM94.5815 38.5676L91.5735 40.3757L91.4436 53.0285L91.3137 65.6812L93.824 65.6825L96.3343 65.6838L96.1379 59.5209L95.9421 53.3573L99.7453 53.6328C103.488 53.9033 103.589 53.8676 106.061 51.3961C108.397 49.0596 108.572 48.6366 108.572 45.3493C108.572 42.2177 108.334 41.5537 106.479 39.5304C104.657 37.5415 103.947 37.2152 100.988 37.0031C98.1048 36.7966 97.1333 37.0338 94.5815 38.5676ZM72.9976 41.2098C69.8747 42.4681 69.4793 46.8355 72.2984 48.931C73.6879 49.9633 74.3676 50.0838 76.0639 49.5993C78.0559 49.0308 78.1412 48.8745 78.3207 45.4924C78.5034 42.0401 78.4701 41.9635 76.5007 41.2769C75.3981 40.8922 74.4667 40.596 74.4322 40.6173C74.3971 40.6393 73.7519 40.906 72.9976 41.2098ZM97.4044 41.356C96.1222 41.9735 95.9848 42.4286 96.1492 45.5006C96.3187 48.653 96.4862 49.0013 98.0922 49.5341C100.408 50.3029 103.157 49.1588 104.131 47.0219C105.178 44.7249 103.994 42.1097 101.516 41.2462C99.2627 40.4604 99.2645 40.4604 97.4044 41.356ZM19.4651 42.9043C17.9024 44.8912 18.1773 47.1995 20.1786 48.8933C21.6917 50.1736 23.1609 50.2778 25.3876 49.263C26.7777 48.6297 26.9861 48.1421 26.9861 45.52C26.9861 43.181 26.7137 42.3589 25.7723 41.8549C23.518 40.6487 20.896 41.0849 19.4651 42.9043ZM31.9402 55.4459C31.9038 55.7252 31.9252 56.73 31.9873 57.6795C32.0501 58.6291 31.8511 59.4054 31.5448 59.4054C31.2386 59.4054 30.37 59.9815 29.615 60.685C27.913 62.2703 27.6708 65.8839 29.2874 65.5702C29.8629 65.4585 30.4641 64.9752 30.6242 64.4957C30.8093 63.9391 30.6405 63.7928 30.1573 64.0916C29.6207 64.4236 29.46 64.0514 29.605 62.8157C29.9156 60.1729 31.2687 60.1648 31.194 62.8063C31.1595 64.0213 31.2882 65.1716 31.4796 65.3631C31.9766 65.8601 33.8895 65.0342 33.8895 64.3219C33.8895 63.993 33.5663 63.924 33.1709 64.1688C32.6456 64.4932 32.5389 63.4 32.7743 60.112C32.9513 57.6368 32.8515 55.4604 32.5515 55.2746C32.2521 55.0895 31.9766 55.1667 31.9402 55.4459ZM43.6629 56.4156C42.2615 57.6494 42.0004 58.496 41.6841 62.842C41.263 68.6146 41.1337 68.9441 39.3834 68.6924C38.6698 68.5895 37.9651 68.8587 37.8182 69.2899C37.3877 70.5526 40.033 70.2068 41.4205 68.8192C42.3431 67.8966 42.6757 66.7274 42.6757 64.406C42.6757 61.7174 42.886 61.1632 44.0878 60.68C45.1697 60.2451 45.2432 60.1033 44.4016 60.0725C43.7853 60.0505 43.3077 59.551 43.3127 58.9347C43.3265 57.3758 44.3005 56.034 45.0725 56.511C45.4327 56.7337 45.8921 56.6478 46.0942 56.3208C46.9019 55.0148 45.1779 55.0813 43.6629 56.4156ZM3.68504 59.3665C3.33108 60.3807 2.52903 62.2163 1.9027 63.4458C1.06863 65.0807 0.977634 65.6812 1.56317 65.6812C2.00374 65.6812 2.50016 65.1591 2.6671 64.5208C2.83403 63.8832 3.5727 63.2035 4.30949 63.0109C5.33559 62.7423 5.64813 62.9443 5.64813 63.8769C5.64813 64.5459 6.08368 65.2601 6.6165 65.4647C7.90619 65.9593 8.50302 65.2834 7.66708 64.2761C7.29806 63.8318 6.65917 62.1304 6.24748 60.4955C5.38768 57.0802 4.60257 56.7344 3.68504 59.3665ZM11.924 61.5624C11.924 65.3066 12.042 65.6812 13.2206 65.6812C15.382 65.6812 16.9447 64.4869 16.9447 62.8351C16.9447 61.9841 16.7219 61.2881 16.4495 61.2881C16.1765 61.2881 15.965 60.5118 15.9788 59.5623C16.0002 58.068 15.7297 57.8101 13.9636 57.64L11.924 57.4429V61.5624ZM47.6964 58.1502C47.6964 58.4954 48.2876 58.7778 49.0099 58.7778C50.2093 58.7778 50.304 59.0765 50.1082 62.2301C49.9325 65.0518 50.0743 65.6825 50.8858 65.6819C51.7061 65.6812 51.8291 65.0794 51.5925 62.2295C51.3308 59.0677 51.4155 58.7778 52.6023 58.7778C53.3152 58.7778 54.0727 58.4954 54.2861 58.1502C54.5271 57.7605 53.351 57.5226 51.1852 57.5226C49.2666 57.5226 47.6964 57.805 47.6964 58.1502ZM69.4153 59.1431C69.2057 59.6891 69.0343 61.3835 69.0343 62.9086C69.0343 65.8482 70.0297 66.5655 71.5566 64.7254C72.22 63.9265 72.1811 63.8343 71.3194 64.165C69.8866 64.7148 69.9092 61.563 71.3445 60.7603C72.3135 60.2175 72.3172 60.0882 71.389 59.16C70.132 57.9029 69.8916 57.9011 69.4153 59.1431ZM13.5745 60.1899C13.3668 60.9662 13.1923 62.399 13.188 63.3736C13.181 64.7248 13.4396 65.0957 14.2774 64.9363C15.7981 64.6464 16.1495 61.9157 14.6665 61.9157C13.8024 61.9157 13.7233 61.7482 14.3088 61.1626C15.1868 60.2846 15.3123 58.7778 14.5078 58.7778C14.2028 58.7778 13.7829 59.4135 13.5745 60.1899ZM18.9297 60.8658C17.3175 62.5816 17.1556 64.9332 18.6116 65.4917C19.2762 65.7471 20.0676 65.3756 20.8081 64.4612C22.1725 62.7761 22.2961 61.0886 21.1263 60.1177C20.4862 59.5868 19.964 59.7644 18.9297 60.8658ZM23.1666 59.5378C22.7844 60.8181 22.8904 65.6812 23.3002 65.6812C23.6015 65.6812 23.8481 65.0976 23.8481 64.3847C23.8481 63.6717 24.1004 62.613 24.4086 62.0312C24.7851 61.3214 24.6822 60.7083 24.0948 60.1654C23.614 59.7198 23.1961 59.4374 23.1666 59.5378ZM25.6706 59.6746C25.5225 59.8234 25.5037 61.2354 25.6292 62.8126C25.7911 64.8484 26.1319 65.6812 26.8028 65.6812C27.4065 65.6812 27.6105 65.3229 27.367 64.6884C27.1574 64.1424 26.9861 62.7303 26.9861 61.5505C26.9861 59.6445 26.4564 58.8889 25.6706 59.6746ZM37.9738 60.9122C36.1714 62.7146 35.9154 64.9074 37.4391 65.4917C39.4926 66.28 42.0481 60.8827 40.1704 59.7223C39.8284 59.5108 38.8399 60.0461 37.9738 60.9122ZM57.5652 59.787C56.8805 60.4723 57.7014 61.263 58.6992 60.8796C59.4172 60.6041 59.6205 61.0955 59.6205 63.1038C59.6205 64.9294 59.8841 65.6812 60.5249 65.6812C61.0226 65.6812 61.6037 65.3988 61.8171 65.0537C62.0305 64.7085 61.9056 64.4261 61.5403 64.4261C61.1751 64.4261 60.8757 63.4376 60.8757 62.2295C60.8757 61.0214 60.6165 60.033 60.2996 60.033C59.9827 60.033 59.3325 59.883 58.8549 59.6997C58.3767 59.5165 57.7968 59.556 57.5652 59.787ZM66.2083 60.2708C65.0611 61.1093 65.0598 61.1896 66.1638 62.8741C67.2884 64.5911 67.2865 64.6074 65.9711 64.2635C65.1232 64.042 64.7887 64.1575 65.0511 64.5817C65.2933 64.9733 65.1646 65.0631 64.7385 64.7995C64.34 64.5535 64.0137 63.3805 64.0137 62.1925C64.0137 59.455 62.9995 59.369 62.5991 62.0726C62.1573 65.0537 62.5871 65.6417 65.0623 65.4472C67.8005 65.2313 68.6741 63.9861 67.424 62.0789C66.5999 60.82 66.6024 60.6606 67.4509 60.6606C67.9769 60.6606 68.4068 60.3781 68.4068 60.033C68.4068 59.1625 67.6053 59.2491 66.2083 60.2708ZM55.2274 62.805C55.2274 65.9555 56.4249 66.8373 56.5768 63.7985C56.6288 62.763 56.6991 61.5862 56.7337 61.1833C56.7682 60.7811 56.4437 60.3336 56.0119 60.1899C55.4603 60.006 55.2274 60.7823 55.2274 62.805ZM3.76537 61.2881C3.76537 61.6333 4.04779 61.9157 4.39296 61.9157C4.73813 61.9157 5.02055 61.6333 5.02055 61.2881C5.02055 60.943 4.73813 60.6606 4.39296 60.6606C4.04779 60.6606 3.76537 60.943 3.76537 61.2881ZM19.2247 61.6113C18.6492 63.11 18.7371 64.4261 19.413 64.4261C19.7349 64.4261 20.1862 63.833 20.4165 63.1075C20.928 61.4959 19.8084 60.0901 19.2247 61.6113ZM37.9732 61.9013C37.5157 63.3429 38.0887 64.62 38.9535 64.0853C39.7091 63.6184 39.7104 61.4689 38.9554 61.002C38.6353 60.8043 38.1935 61.2084 37.9732 61.9013Z" fill="#181818"/>
<path d="M8.78606 7.8361C8.78606 5.52156 11.8826 2.27882 15.1448 1.17804C16.3071 0.785796 19.0942 0.552335 21.3378 0.658397C36.6296 1.38326 35.6775 15.6803 20.3437 15.5918C16.3717 15.5686 11.924 14.1779 11.924 12.9591C11.924 11.4447 10.7868 13.0796 10.3977 15.1538C9.92827 17.6578 9.7789 17.708 6.67737 16.4121L4.41555 15.4669L2.75182 17.981C0.833287 20.8805 0.410921 21.1466 1.25691 18.9218C2.14243 16.5928 3.75156 13.5917 4.11556 13.5917C4.29003 13.5917 5.45609 14.0191 6.70624 14.5412C7.95576 15.0634 9.03458 15.4167 9.10299 15.3257C9.1714 15.2347 9.51343 14.3097 9.86363 13.2691C10.3481 11.8294 10.2954 11.1868 9.64334 10.5774C9.17203 10.1368 8.78606 8.90363 8.78606 7.8361Z" fill="#181818"/>
<path d="M15.9757 22.6704C13.1296 24.8405 13.2093 23.9845 16.1307 20.9922L18.454 18.613L20.4548 20.5516L22.4555 22.4909L23.5619 20.6175C24.5617 18.9249 24.8397 18.8044 26.4557 19.368C28.9077 20.2228 29.3514 21.188 27.084 20.7343C25.5332 20.4242 25.0073 20.6759 23.8042 22.3026L22.3714 24.2406L20.2577 22.6283L18.144 21.016L15.9757 22.6704Z" fill="#181818"/>
</svg>
