<svg width="38" height="38" viewBox="0 0 38 38" fill="none" xmlns="http://www.w3.org/2000/svg">
<path style="mix-blend-mode:multiply" opacity="0.68" d="M19.2971 37.3292C8.99798 37.3292 0.648888 28.9872 0.648888 18.6968C0.648888 8.40644 8.99798 0.0644531 19.2971 0.0644531C29.5962 0.0644531 37.9453 8.40644 37.9453 18.6968C37.9453 28.9872 29.5962 37.3292 19.2971 37.3292Z" fill="url(#paint0_linear_1166_43577)"/>
<path d="M19.2971 37.3292C8.99798 37.3292 0.648888 28.9872 0.648888 18.6968C0.648888 8.40644 8.99798 0.0644531 19.2971 0.0644531C29.5962 0.0644531 37.9453 8.40644 37.9453 18.6968C37.9453 28.9872 29.5962 37.3292 19.2971 37.3292Z" fill="#DDC3A3"/>
<g opacity="0.89">
<path d="M2.3288 17.1333C2.37015 16.7538 2.47 16.3829 2.6248 16.0339C2.66148 15.8551 2.74068 15.6878 2.85568 15.5462C2.97069 15.4045 3.11812 15.2926 3.28552 15.2199C3.44671 15.1436 3.62808 15.1209 3.80309 15.1552C3.9781 15.1894 4.13755 15.2788 4.25811 15.4102C4.48986 15.6519 4.6717 15.9368 4.79324 16.2488C4.91477 16.5608 4.97361 16.8937 4.9664 17.2285C5.17254 18.1376 5.05625 19.6018 3.86696 19.6864C2.56137 19.7762 2.26008 18.0954 2.3288 17.1333Z" fill="#D8B58C"/>
<path d="M7.07781 11.2343L7.19939 11.2872C7.42498 11.3085 7.64404 11.3746 7.84373 11.4818C8.04341 11.5889 8.2197 11.7348 8.36225 11.9109C8.49491 12.102 8.55162 12.3356 8.52133 12.5663C8.49103 12.7969 8.3759 13.008 8.1984 13.1583C8.01202 13.3389 7.76575 13.4446 7.50647 13.4553C7.24719 13.4661 6.99302 13.381 6.79238 13.2165L6.74481 13.1795C6.4382 12.9441 6.21274 12.6189 6.09994 12.2492C6.05101 12.1113 6.04146 11.9624 6.07239 11.8194C6.10332 11.6763 6.1735 11.5447 6.27504 11.4394C6.37659 11.334 6.50549 11.259 6.64729 11.2227C6.78908 11.1865 6.93817 11.1905 7.07781 11.2343Z" fill="#D8B58C"/>
<path d="M21.5187 21.1608C22.1897 21.5413 22.6877 22.1662 22.9089 22.9051C23.4005 24.66 21.006 24.697 19.97 24.1684C18.7649 23.5605 17.6601 21.4621 19.304 20.6375C19.9753 20.2992 20.7365 20.5741 21.3655 21.0815L21.5187 21.1608Z" fill="#D8B58C"/>
<path d="M16.8748 23.3646C16.6898 23.2866 16.5319 23.1557 16.421 22.9883C16.31 22.8209 16.2509 22.6245 16.2511 22.4237C16.1959 22.2501 16.2053 22.0624 16.2775 21.8952C16.2936 21.8145 16.3202 21.7363 16.3568 21.6626C16.335 21.5766 16.3352 21.4865 16.3574 21.4006C16.3795 21.3147 16.423 21.2357 16.4837 21.171C16.5328 21.1215 16.5913 21.0821 16.6557 21.0553C16.7201 21.0285 16.7892 21.0146 16.859 21.0146C16.9287 21.0146 16.9978 21.0285 17.0622 21.0553C17.1266 21.0821 17.1851 21.1215 17.2342 21.171C17.3201 21.2796 17.3979 21.3945 17.4668 21.5146C17.5734 21.6089 17.6545 21.7286 17.7026 21.8625C17.7506 21.9965 17.7641 22.1405 17.7417 22.281C17.7417 22.3603 17.7417 22.4343 17.7734 22.5189C17.8051 23.0369 17.4562 23.5602 16.8748 23.3646Z" fill="#D8B58C"/>
<path d="M31.7281 19.3583C30.5705 18.3963 30.4384 15.9014 30.9934 14.6011C31.2312 14.0725 31.7122 13.4171 32.3888 13.4911C32.5692 13.5207 32.7414 13.5878 32.8943 13.6879C33.0472 13.7881 33.1775 13.9191 33.2768 14.0725C34.334 14.3104 34.778 16.7789 34.6776 17.5717C34.5031 18.9037 33.0443 20.4895 31.7281 19.3583Z" fill="#D8B58C"/>
<path d="M22.4701 9.03477C22.3029 9.07285 22.1288 9.06966 21.9631 9.02546C21.7973 8.98125 21.6448 8.89737 21.5187 8.78106C21.3356 8.64578 21.193 8.46299 21.1064 8.25248C20.858 7.6499 20.8157 6.56631 21.5557 6.29674C23.041 5.76816 23.9819 8.71234 22.4701 9.03477Z" fill="#D8B58C"/>
<path d="M30.927 22.8572C31.6987 22.2917 32.5127 22.2758 32.9831 23.0052C33.5117 23.2748 33.5117 24.7073 33.5117 25.146C33.4986 25.7058 33.283 26.2418 32.905 26.6549C32.5269 27.0679 32.012 27.3299 31.4556 27.3924C31.3149 27.4057 31.1733 27.4057 31.0327 27.3924C30.8441 27.4525 30.6416 27.4533 30.4526 27.3947C30.2636 27.3361 30.0971 27.2209 29.9755 27.0647C29.902 26.9687 29.8481 26.8591 29.817 26.7423C29.5798 26.4414 29.453 26.0682 29.4575 25.6851C29.4796 25.1347 29.6227 24.596 29.8767 24.1072C30.1307 23.6184 30.4893 23.1916 30.927 22.8572Z" fill="#D8B58C"/>
<path d="M17.911 13.9349C17.6185 14.4251 17.1752 14.8074 16.6473 15.0246C16.1195 15.2418 15.5355 15.2823 14.9827 15.14C14.3181 14.9455 13.7364 14.5366 13.3283 13.9772C12.9854 13.5667 12.7236 13.095 12.5565 12.587C12.426 12.1923 12.3904 11.7724 12.4526 11.3614C12.5148 10.9504 12.6731 10.5598 12.9146 10.2215C13.1562 9.8831 13.4741 9.6065 13.8426 9.41412C14.2112 9.22173 14.6199 9.119 15.0356 9.11426C15.5592 9.11609 16.0739 9.25067 16.5314 9.50541C16.8962 9.69834 17.2155 9.96697 17.468 10.2933C17.7205 10.6197 17.9004 10.9962 17.9956 11.3977C18.0322 11.5485 18.0535 11.7025 18.059 11.8576C18.1883 12.1935 18.242 12.5537 18.2165 12.9127C18.1909 13.2717 18.0866 13.6207 17.911 13.9349Z" fill="#D8B58C"/>
<path d="M10.5146 23.7295C10.6982 23.7295 10.8744 23.8024 11.0042 23.9323C11.1341 24.0622 11.207 24.2383 11.207 24.4219C11.207 24.6056 11.1341 24.7817 11.0042 24.9115C10.8744 25.0414 10.6982 25.1144 10.5146 25.1144C10.331 25.1144 10.1548 25.0414 10.025 24.9115C9.89511 24.7817 9.82216 24.6056 9.82216 24.4219C9.82216 24.2383 9.89511 24.0622 10.025 23.9323C10.1548 23.8024 10.331 23.7295 10.5146 23.7295Z" fill="#D8B58C"/>
<path d="M14.7592 30.6269C15.1628 30.2623 15.6489 30.0011 16.1758 29.8657C16.4368 29.8014 16.7051 29.7712 16.9739 29.7759C17.1979 29.7857 17.4206 29.814 17.6399 29.8604C17.9799 29.9744 18.2942 30.1539 18.5649 30.389C18.8107 30.6292 18.9887 30.93 19.0809 31.2611C19.1731 31.5922 19.1761 31.9417 19.0897 32.2744C19.0034 32.607 18.8306 32.9109 18.589 33.1553C18.3474 33.3997 18.0455 33.576 17.7139 33.6662H17.6082C17.4659 33.7265 17.3192 33.776 17.1695 33.8142C16.6569 33.9199 16.1281 33.9199 15.6155 33.8142C15.2932 33.7285 14.9994 33.5592 14.7636 33.3235C14.5278 33.0877 14.3585 32.7938 14.2729 32.4716C14.181 32.1488 14.1777 31.8072 14.2633 31.4826C14.3488 31.1581 14.5201 30.8625 14.7592 30.6269Z" fill="#D8B58C"/>
<path d="M20.2174 32.0025C20.2322 31.9371 20.2534 31.8734 20.2809 31.8122V31.7805L20.3126 31.7224C20.3417 31.6636 20.3753 31.607 20.413 31.5532L20.4712 31.474C20.4823 31.4557 20.4966 31.4396 20.5135 31.4264C20.6931 31.2121 20.9238 31.0465 21.1843 30.9449C21.4448 30.8433 21.7267 30.8089 22.004 30.8449C22.2308 30.8801 22.4474 30.9633 22.6394 31.0889C22.8314 31.2144 22.9944 31.3796 23.1175 31.5732C23.2406 31.7669 23.321 31.9845 23.3532 32.2117C23.3854 32.4389 23.3687 32.6703 23.3043 32.8905C23.2467 33.0899 23.1476 33.2747 23.0133 33.433C22.8791 33.5912 22.7129 33.7193 22.5257 33.8086C22.3384 33.898 22.1344 33.9467 21.9269 33.9516C21.7195 33.9564 21.5134 33.9173 21.3222 33.8367C21.2311 33.8005 21.1442 33.7544 21.0632 33.6993C20.8123 33.6016 20.5929 33.437 20.4289 33.2235C20.2999 33.0603 20.2107 32.8693 20.1685 32.6656C20.1263 32.4619 20.1322 32.2511 20.1857 32.0501L20.2174 32.0025Z" fill="#D8B58C"/>
<path d="M20.113 28.9473C20.2837 28.9473 20.4505 28.9979 20.5923 29.0928C20.7341 29.1878 20.8445 29.3226 20.9095 29.4804C20.9746 29.6381 20.9913 29.8116 20.9577 29.9789C20.924 30.1462 20.8414 30.2997 20.7204 30.4199C20.5994 30.5402 20.4453 30.6219 20.2779 30.6545C20.1104 30.6872 19.937 30.6693 19.7797 30.6033C19.6223 30.5373 19.4881 30.426 19.3941 30.2837C19.3001 30.1413 19.2504 29.9742 19.2515 29.8036C19.2556 29.5768 19.3478 29.3606 19.5087 29.2008C19.6695 29.0409 19.8863 28.95 20.113 28.9473Z" fill="#D8B58C"/>
<path d="M6.4521 22.9854C7.7894 22.9854 7.7894 25.0627 6.4521 25.0627C6.2102 25.0168 5.99189 24.8879 5.83485 24.6983C5.6778 24.5087 5.59186 24.2702 5.59186 24.024C5.59186 23.7778 5.6778 23.5393 5.83485 23.3497C5.99189 23.1601 6.2102 23.0312 6.4521 22.9854Z" fill="#D8B58C"/>
<path d="M6.85018 25.7764C7.10053 25.7947 7.33468 25.907 7.50559 26.0909C7.67649 26.2747 7.77148 26.5164 7.77148 26.7674C7.77148 27.0185 7.67649 27.2602 7.50559 27.444C7.33468 27.6279 7.10053 27.7402 6.85018 27.7585C6.59984 27.7402 6.36569 27.6279 6.19479 27.444C6.02388 27.2602 5.92889 27.0185 5.92889 26.7674C5.92889 26.5164 6.02388 26.2747 6.19479 26.0909C6.36569 25.907 6.59984 25.7947 6.85018 25.7764Z" fill="#D8B58C"/>
<path d="M10.116 27.9531C10.2561 27.9531 10.3906 28.0088 10.4897 28.1079C10.5888 28.2071 10.6445 28.3415 10.6445 28.4817C10.6445 28.6219 10.5888 28.7563 10.4897 28.8555C10.3906 28.9546 10.2561 29.0103 10.116 29.0103C9.97577 29.0103 9.84132 28.9546 9.74219 28.8555C9.64307 28.7563 9.58738 28.6219 9.58738 28.4817C9.58738 28.3415 9.64307 28.2071 9.74219 28.1079C9.84132 28.0088 9.97577 27.9531 10.116 27.9531Z" fill="#D8B58C"/>
<path d="M8.38172 22.8633C8.53791 22.8776 8.6831 22.9498 8.78881 23.0657C8.89452 23.1816 8.95312 23.3328 8.95312 23.4896C8.95312 23.6465 8.89452 23.7977 8.78881 23.9136C8.6831 24.0294 8.53791 24.1016 8.38172 24.116C8.22552 24.1016 8.08033 24.0294 7.97462 23.9136C7.86891 23.7977 7.81031 23.6465 7.81031 23.4896C7.81031 23.3328 7.86891 23.1816 7.97462 23.0657C8.08033 22.9498 8.22552 22.8776 8.38172 22.8633Z" fill="#D8B58C"/>
<path d="M8.78182 25.3262C8.93236 25.3262 9.07952 25.3708 9.20469 25.4545C9.32986 25.5381 9.42742 25.657 9.48503 25.796C9.54264 25.9351 9.55771 26.0882 9.52834 26.2358C9.49897 26.3835 9.42648 26.5191 9.32003 26.6255C9.21358 26.732 9.07796 26.8045 8.93031 26.8339C8.78266 26.8632 8.62962 26.8481 8.49054 26.7905C8.35146 26.7329 8.23258 26.6354 8.14894 26.5102C8.06531 26.385 8.02066 26.2379 8.02066 26.0873C8.0234 25.8863 8.10447 25.6943 8.24663 25.5521C8.38878 25.41 8.5808 25.3289 8.78182 25.3262Z" fill="#D8B58C"/>
<path d="M13.1786 25.8965C13.3611 25.8965 13.5395 25.9505 13.6914 26.0517C13.8432 26.1529 13.9618 26.2967 14.0321 26.4651C14.1024 26.6335 14.1213 26.819 14.0865 26.9981C14.0517 27.1772 13.9646 27.3421 13.8363 27.4719C13.708 27.6016 13.5441 27.6905 13.3654 27.7274C13.1867 27.7643 13.001 27.7475 12.8318 27.6791C12.6626 27.6107 12.5175 27.4938 12.4146 27.3431C12.3117 27.1923 12.2556 27.0146 12.2536 26.8321C12.2535 26.5858 12.3507 26.3494 12.5238 26.1742C12.697 25.9991 12.9323 25.8993 13.1786 25.8965Z" fill="#D8B58C"/>
<path d="M8.58348 16.583C9.17701 16.5928 9.74432 16.8292 10.1692 17.2437C10.5875 17.6655 10.8223 18.2354 10.8223 18.8295C10.8223 19.4235 10.5875 19.9934 10.1692 20.4152C9.74173 20.8251 9.17562 21.0591 8.58348 21.0706C7.99057 21.0628 7.42316 20.8283 6.99775 20.4152C6.57942 19.9934 6.34469 19.4235 6.34469 18.8295C6.34469 18.2354 6.57942 17.6655 6.99775 17.2437C7.42263 16.8292 7.98995 16.5928 8.58348 16.583Z" fill="#D8B58C"/>
<path d="M12.2463 18.1264C12.0978 18.1264 11.9552 18.0674 11.8502 17.9623C11.7451 17.8573 11.6861 17.7147 11.6861 17.5662C11.6861 17.4176 11.7451 17.275 11.8502 17.17C11.9552 17.0649 12.0978 17.0059 12.2463 17.0059C12.3949 17.0059 12.5375 17.0649 12.6425 17.17C12.7476 17.275 12.8066 17.4176 12.8066 17.5662C12.8066 17.7147 12.7476 17.8573 12.6425 17.9623C12.5375 18.0674 12.3949 18.1264 12.2463 18.1264Z" fill="#D8B58C"/>
<path d="M12.5147 19.0586C14.1956 19.0586 14.1956 21.6698 12.5147 21.6698C10.8339 21.6698 10.8391 19.0586 12.5147 19.0586Z" fill="#D8B58C"/>
<path d="M8.58896 9.67032C8.3855 9.77368 8.15405 9.80843 7.92921 9.76937C7.70437 9.7303 7.4982 9.61953 7.34152 9.4536C7.22316 9.33976 7.11688 9.214 7.02438 9.07832C6.98753 9.02312 6.95569 8.96474 6.92923 8.90389C6.8939 8.83582 6.86386 8.76513 6.83937 8.69245C6.83812 8.67838 6.83812 8.66424 6.83937 8.65017C6.79352 8.55541 6.7697 8.4515 6.7697 8.34623C6.7697 8.24096 6.79352 8.13706 6.83937 8.0423C6.89352 7.91144 6.98512 7.79949 7.10267 7.7205C7.22021 7.64151 7.35847 7.59899 7.5001 7.5983C7.70035 7.5875 7.89982 7.63089 8.07749 7.72391C8.25517 7.81693 8.40447 7.95614 8.50968 8.12688C8.56855 8.16574 8.62504 8.2081 8.67883 8.25374C8.79074 8.32931 8.8828 8.43073 8.94721 8.54942C9.01161 8.66811 9.04647 8.80058 9.04883 8.9356C9.04393 9.08778 8.99879 9.23594 8.91801 9.365C8.83724 9.49407 8.7237 9.59941 8.58896 9.67032Z" fill="#D8B58C"/>
<path d="M10.8385 6.9262C10.7851 6.99923 10.7138 7.05732 10.6315 7.09492C10.5492 7.13253 10.4586 7.14837 10.3685 7.14095C10.2783 7.13352 10.1915 7.10307 10.1165 7.05252C10.0414 7.00196 9.98064 6.93298 9.93989 6.8522C9.77676 6.54499 9.71595 6.19372 9.76634 5.84955C9.81673 5.50539 9.97568 5.18629 10.22 4.93875C10.307 4.85472 10.4141 4.79454 10.5311 4.764C10.6481 4.73347 10.7709 4.73362 10.8878 4.76444C11.0047 4.79526 11.1117 4.85571 11.1984 4.93995C11.2852 5.02419 11.3487 5.12936 11.3829 5.24532C11.4646 5.46164 11.5076 5.69067 11.5098 5.9219C11.5087 6.0775 11.4753 6.23118 11.4116 6.37315C11.3479 6.51512 11.2553 6.64226 11.1398 6.74648C11.0572 6.83224 10.9532 6.89429 10.8385 6.9262Z" fill="#D8B58C"/>
<path d="M22.9129 36.0194C22.773 36.0059 22.6432 35.9407 22.5487 35.8366C22.4542 35.7325 22.4019 35.597 22.4019 35.4565C22.4019 35.3159 22.4542 35.1804 22.5487 35.0764C22.6432 34.9723 22.773 34.9071 22.9129 34.8936C23.0528 34.9071 23.1826 34.9723 23.277 35.0764C23.3715 35.1804 23.4238 35.3159 23.4238 35.4565C23.4238 35.597 23.3715 35.7325 23.277 35.8366C23.1826 35.9407 23.0528 36.0059 22.9129 36.0194Z" fill="#D8B58C"/>
<path d="M25.7097 34.9725C25.5698 34.959 25.44 34.8938 25.3456 34.7897C25.2511 34.6857 25.1988 34.5502 25.1988 34.4096C25.1988 34.2691 25.2511 34.1336 25.3456 34.0295C25.44 33.9254 25.5698 33.8603 25.7097 33.8467C25.8496 33.8603 25.9795 33.9254 26.0739 34.0295C26.1684 34.1336 26.2207 34.2691 26.2207 34.4096C26.2207 34.5502 26.1684 34.6857 26.0739 34.7897C25.9795 34.8938 25.8496 34.959 25.7097 34.9725Z" fill="#D8B58C"/>
<path d="M27.9063 25.0986C27.7535 25.0986 27.6069 25.0379 27.4989 24.9298C27.3908 24.8218 27.3301 24.6752 27.3301 24.5224C27.3301 24.3696 27.3908 24.2231 27.4989 24.115C27.6069 24.007 27.7535 23.9463 27.9063 23.9463C28.0591 23.9463 28.2056 24.007 28.3137 24.115C28.4217 24.2231 28.4824 24.3696 28.4824 24.5224C28.4824 24.6752 28.4217 24.8218 28.3137 24.9298C28.2056 25.0379 28.0591 25.0986 27.9063 25.0986Z" fill="#D8B58C"/>
<path d="M35.6846 19.2585C35.5664 19.246 35.457 19.1903 35.3775 19.1019C35.2979 19.0136 35.2539 18.899 35.2539 18.7801C35.2539 18.6613 35.2979 18.5466 35.3775 18.4583C35.457 18.37 35.5664 18.3142 35.6846 18.3018C35.8028 18.3142 35.9122 18.37 35.9917 18.4583C36.0712 18.5466 36.1152 18.6613 36.1152 18.7801C36.1152 18.899 36.0712 19.0136 35.9917 19.1019C35.9122 19.1903 35.8028 19.246 35.6846 19.2585Z" fill="#D8B58C"/>
<path d="M4.07018 10.6995C3.91023 10.6995 3.75388 10.652 3.62088 10.5632C3.48789 10.4743 3.38423 10.348 3.32302 10.2002C3.26181 10.0525 3.24579 9.88985 3.277 9.73298C3.3082 9.5761 3.38522 9.43201 3.49833 9.3189C3.61143 9.2058 3.75553 9.12878 3.91241 9.09757C4.06928 9.06637 4.23189 9.08238 4.37967 9.14359C4.52744 9.2048 4.65375 9.30846 4.74261 9.44145C4.83148 9.57444 4.87891 9.7308 4.87891 9.89075C4.87752 10.1048 4.79187 10.3097 4.6405 10.4611C4.48914 10.6124 4.28424 10.6981 4.07018 10.6995Z" fill="#D8B58C"/>
<path d="M5.41895 12.2692C5.30076 12.2568 5.19135 12.201 5.11183 12.1127C5.03231 12.0244 4.9883 11.9097 4.9883 11.7909C4.9883 11.672 5.03231 11.5574 5.11183 11.469C5.19135 11.3807 5.30076 11.3249 5.41895 11.3125C5.53715 11.3249 5.64656 11.3807 5.72608 11.469C5.8056 11.5574 5.84961 11.672 5.84961 11.7909C5.84961 11.9097 5.8056 12.0244 5.72608 12.1127C5.64656 12.201 5.53715 12.2568 5.41895 12.2692Z" fill="#D8B58C"/>
<path d="M5.66633 14.5489C5.55203 14.5202 5.45059 14.4542 5.3781 14.3613C5.30562 14.2684 5.26625 14.154 5.26625 14.0362C5.26625 13.9183 5.30562 13.8039 5.3781 13.711C5.45059 13.6181 5.55203 13.5521 5.66633 13.5234C5.78062 13.5521 5.88207 13.6181 5.95455 13.711C6.02704 13.8039 6.06641 13.9183 6.06641 14.0362C6.06641 14.154 6.02704 14.2684 5.95455 14.3613C5.88207 14.4542 5.78062 14.5202 5.66633 14.5489Z" fill="#D8B58C"/>
<path d="M9.71556 17.065C9.57538 17.065 9.44093 17.0093 9.3418 16.9102C9.24267 16.811 9.18699 16.6766 9.18699 16.5364C9.18699 16.3962 9.24267 16.2618 9.3418 16.1626C9.44093 16.0635 9.57538 16.0078 9.71556 16.0078C9.85575 16.0078 9.9902 16.0635 10.0893 16.1626C10.1885 16.2618 10.2441 16.3962 10.2441 16.5364C10.2441 16.6766 10.1885 16.811 10.0893 16.9102C9.9902 17.0093 9.85575 17.065 9.71556 17.065Z" fill="#D8B58C"/>
<path d="M14.5396 21.2186C14.2909 21.2159 14.0532 21.1159 13.8773 20.94C13.7015 20.7642 13.6015 20.5265 13.5987 20.2778C13.6041 20.0299 13.705 19.7937 13.8803 19.6184C14.0556 19.4432 14.2918 19.3423 14.5396 19.3369C14.7891 19.3369 15.0284 19.436 15.2049 19.6125C15.3813 19.7889 15.4805 20.0282 15.4805 20.2778C15.4805 20.5273 15.3813 20.7666 15.2049 20.9431C15.0284 21.1195 14.7891 21.2186 14.5396 21.2186Z" fill="#D8B58C"/>
<path d="M15.9603 23.4808C15.7405 23.4808 15.5257 23.4155 15.3431 23.2933C15.1604 23.1711 15.0181 22.9974 14.9343 22.7943C14.8504 22.5912 14.8287 22.3677 14.872 22.1522C14.9153 21.9368 15.0215 21.739 15.1773 21.584C15.333 21.429 15.5313 21.3237 15.747 21.2814C15.9627 21.2392 16.186 21.2619 16.3887 21.3468C16.5915 21.4316 16.7645 21.5747 16.8858 21.7579C17.0071 21.9411 17.0713 22.1563 17.0703 22.376C17.0662 22.6687 16.9477 22.948 16.7403 23.1545C16.5329 23.3609 16.2529 23.478 15.9603 23.4808Z" fill="#D8B58C"/>
<path d="M18.0593 25.0924C17.7872 25.0924 17.5213 25.0116 17.2952 24.8604C17.0691 24.7091 16.893 24.4942 16.7891 24.2427C16.6852 23.9913 16.6583 23.7147 16.7118 23.448C16.7652 23.1813 16.8967 22.9364 17.0894 22.7444C17.2821 22.5524 17.5275 22.4219 17.7944 22.3695C18.0614 22.3171 18.3378 22.3451 18.5889 22.4499C18.8399 22.5547 19.0542 22.7317 19.2045 22.9584C19.3549 23.1851 19.4346 23.4513 19.4336 23.7233C19.4294 24.086 19.2832 24.4327 19.0262 24.6887C18.7692 24.9447 18.422 25.0896 18.0593 25.0924Z" fill="#D8B58C"/>
<path d="M18.8614 36.1783C18.5892 36.1793 18.3228 36.0995 18.0959 35.9489C17.8691 35.7983 17.6922 35.5837 17.5875 35.3323C17.4828 35.081 17.4552 34.8042 17.508 34.5372C17.5609 34.2701 17.6919 34.0247 17.8844 33.8322C18.0769 33.6397 18.3223 33.5087 18.5893 33.4558C18.8564 33.403 19.1332 33.4306 19.3845 33.5353C19.6359 33.64 19.8504 33.817 20.0011 34.0438C20.1517 34.2706 20.2315 34.537 20.2305 34.8093C20.225 35.1706 20.079 35.5157 19.8235 35.7713C19.5679 36.0268 19.2228 36.1728 18.8614 36.1783Z" fill="#D8B58C"/>
<path d="M18.6117 31.7531C18.415 31.7531 18.2226 31.6947 18.0591 31.5852C17.8956 31.4758 17.7682 31.3203 17.6932 31.1384C17.6181 30.9565 17.5987 30.7564 17.6375 30.5635C17.6763 30.3706 17.7714 30.1936 17.9109 30.0548C18.0505 29.916 18.228 29.8218 18.4211 29.7841C18.6142 29.7463 18.8142 29.7668 18.9957 29.8428C19.1772 29.9188 19.332 30.047 19.4406 30.2111C19.5491 30.3752 19.6065 30.5679 19.6055 30.7646C19.6 31.026 19.4934 31.275 19.3081 31.4594C19.1227 31.6437 18.8731 31.749 18.6117 31.7531Z" fill="#D8B58C"/>
<path d="M22.7133 30.2582C22.5446 30.2646 22.3779 30.2203 22.2346 30.131C22.0913 30.0418 21.978 29.9117 21.9092 29.7575C21.8405 29.6033 21.8194 29.4321 21.8488 29.2659C21.8782 29.0996 21.9567 28.946 22.0741 28.8247C22.1916 28.7035 22.3426 28.6201 22.5078 28.5854C22.6731 28.5507 22.8449 28.5663 23.0012 28.6301C23.1575 28.6939 23.2911 28.803 23.3849 28.9434C23.4787 29.0837 23.5283 29.249 23.5273 29.4178C23.5246 29.6398 23.4352 29.852 23.2781 30.009C23.1211 30.1661 22.9089 30.2555 22.6869 30.2582H22.7133Z" fill="#D8B58C"/>
<path d="M25.4623 28.4176C25.1945 28.4176 24.9378 28.3112 24.7484 28.1219C24.5591 27.9326 24.4527 27.6758 24.4527 27.408C24.4527 27.1403 24.5591 26.8835 24.7484 26.6941C24.9378 26.5048 25.1945 26.3984 25.4623 26.3984C26.7573 26.3984 26.7626 28.4176 25.4623 28.4176Z" fill="#D8B58C"/>
<path d="M10.0138 28.2222C9.73506 28.2222 9.4626 28.1393 9.23105 27.9841C8.9995 27.8289 8.81932 27.6083 8.71338 27.3505C8.60745 27.0927 8.58054 26.8091 8.63609 26.536C8.69164 26.2628 8.82713 26.0123 9.02536 25.8163C9.22358 25.6204 9.47559 25.4877 9.74937 25.4353C10.0231 25.3828 10.3063 25.4129 10.563 25.5218C10.8196 25.6306 11.0381 25.8133 11.1906 26.0466C11.3432 26.2799 11.423 26.5533 11.4198 26.832C11.4143 27.2027 11.2643 27.5566 11.0016 27.8183C10.739 28.0799 10.3845 28.2287 10.0138 28.2328V28.2222Z" fill="#D8B58C"/>
<path d="M13.414 25.0987C13.2112 25.0987 13.0129 25.0386 12.8443 24.9259C12.6757 24.8132 12.5442 24.6531 12.4666 24.4657C12.389 24.2783 12.3687 24.0722 12.4083 23.8732C12.4478 23.6743 12.5455 23.4916 12.6889 23.3482C12.8323 23.2048 13.015 23.1071 13.214 23.0676C13.4129 23.028 13.6191 23.0483 13.8064 23.1259C13.9938 23.2035 14.154 23.335 14.2666 23.5036C14.3793 23.6722 14.4395 23.8705 14.4395 24.0733C14.4315 24.3427 14.3209 24.599 14.1303 24.7896C13.9397 24.9802 13.6835 25.0908 13.414 25.0987Z" fill="#D8B58C"/>
<path d="M28.705 16.0123C28.54 16.0122 28.3787 15.963 28.2418 15.8708C28.105 15.7787 27.9987 15.6478 27.9365 15.4949C27.8744 15.342 27.8592 15.1741 27.893 15.0126C27.9268 14.851 28.0079 14.7033 28.1261 14.5881C28.2443 14.4729 28.3941 14.3956 28.5565 14.366C28.7188 14.3364 28.8863 14.3559 29.0375 14.4219C29.1887 14.488 29.3168 14.5977 29.4054 14.7369C29.494 14.8761 29.5391 15.0386 29.5349 15.2035C29.5321 15.4223 29.4436 15.6312 29.2885 15.7854C29.1333 15.9396 28.9238 16.0268 28.705 16.0281V16.0123Z" fill="#D8B58C"/>
<path d="M36.053 15.3008C35.9388 15.2722 35.8373 15.2062 35.7648 15.1133C35.6923 15.0204 35.653 14.9059 35.653 14.7881C35.653 14.6703 35.6923 14.5558 35.7648 14.4629C35.8373 14.37 35.9388 14.304 36.053 14.2754C36.1673 14.304 36.2688 14.37 36.3413 14.4629C36.4138 14.5558 36.4531 14.6703 36.4531 14.7881C36.4531 14.9059 36.4138 15.0204 36.3413 15.1133C36.2688 15.2062 36.1673 15.2722 36.053 15.3008Z" fill="#D8B58C"/>
<path d="M28.1567 21.5461C27.997 21.5451 27.8411 21.4968 27.7088 21.4073C27.5765 21.3178 27.4737 21.1911 27.4133 21.0433C27.3529 20.8954 27.3376 20.733 27.3694 20.5764C27.4012 20.4199 27.4787 20.2763 27.592 20.1637C27.7053 20.0511 27.8494 19.9746 28.0061 19.9439C28.1629 19.9131 28.3252 19.9294 28.4727 19.9908C28.6201 20.0521 28.7461 20.1558 28.8348 20.2887C28.9234 20.4216 28.9707 20.5777 28.9707 20.7374C28.9679 20.952 28.8811 21.1569 28.7289 21.3081C28.5767 21.4593 28.3712 21.5448 28.1567 21.5461Z" fill="#D8B58C"/>
<path d="M25.7768 24.6768C25.5677 24.6768 25.3634 24.6148 25.1895 24.4987C25.0157 24.3825 24.8802 24.2174 24.8001 24.0242C24.7201 23.831 24.6992 23.6185 24.74 23.4134C24.7808 23.2083 24.8815 23.02 25.0293 22.8721C25.1772 22.7243 25.3655 22.6236 25.5706 22.5828C25.7757 22.542 25.9882 22.563 26.1814 22.643C26.3746 22.723 26.5397 22.8585 26.6558 23.0323C26.772 23.2062 26.834 23.4106 26.834 23.6197C26.826 23.8975 26.7121 24.1618 26.5155 24.3583C26.319 24.5549 26.0547 24.6688 25.7768 24.6768Z" fill="#D8B58C"/>
</g>
<g style="mix-blend-mode:multiply" opacity="0.44">
<path d="M15.6982 15.4309C16.0917 15.5387 16.4267 15.7973 16.6306 16.1506C16.8345 16.5039 16.8907 16.9234 16.7871 17.3179C16.7442 17.4664 16.682 17.6085 16.6021 17.7408C16.4323 18.0222 16.1792 18.2438 15.878 18.3751C15.5693 18.5144 15.2218 18.5424 14.8948 18.4544C14.634 18.37 14.3996 18.2196 14.2143 18.0176C14.029 17.8157 13.8993 17.5691 13.8377 17.3021V17.3655V17.3338C13.7627 17.0723 13.7595 16.7955 13.8283 16.5323C13.8972 16.2691 14.0355 16.0293 14.2288 15.8379C14.4198 15.6521 14.6546 15.5173 14.9114 15.4462C15.1682 15.3751 15.4388 15.3698 15.6982 15.4309Z" fill="#CE9B78"/>
<path d="M24.3723 27.2444C24.6288 27.2397 24.8818 27.3039 25.1049 27.4303C25.3281 27.5568 25.5132 27.7408 25.6409 27.9632C25.7442 28.1405 25.8042 28.3396 25.8161 28.5444C25.8281 28.7492 25.7916 28.9539 25.7096 29.142C25.6566 29.3045 25.5618 29.4503 25.4348 29.5648C25.2748 29.7277 25.074 29.8445 24.8533 29.9031C24.6611 29.9709 24.4556 29.9923 24.2536 29.9657C24.0515 29.939 23.8586 29.8651 23.6905 29.7498C23.4579 29.5881 23.2749 29.3648 23.1619 29.105C23.0381 28.8291 23.0157 28.5184 23.0985 28.2275C23.1805 27.9506 23.3478 27.7065 23.5765 27.53C23.8051 27.3535 24.0836 27.2536 24.3723 27.2444Z" fill="#CE9B78"/>
<path d="M27.1664 28.3488C27.1654 28.0831 27.2432 27.823 27.3901 27.6015C27.537 27.38 27.7463 27.2071 27.9915 27.1047C28.2368 27.0023 28.5069 26.9749 28.7677 27.0261C29.0284 27.0773 29.2682 27.2048 29.4565 27.3923C29.6447 27.5799 29.7731 27.8191 29.8254 28.0797C29.8776 28.3403 29.8513 28.6105 29.7499 28.8561C29.6484 29.1018 29.4763 29.3117 29.2554 29.4595C29.0345 29.6073 28.7747 29.6861 28.509 29.6861C28.1555 29.6807 27.8179 29.5383 27.5675 29.2888C27.317 29.0393 27.1732 28.7023 27.1664 28.3488Z" fill="#CE9B78"/>
<path d="M33.706 23.6612C33.5224 23.6612 33.3462 23.5883 33.2164 23.4584C33.0865 23.3286 33.0136 23.1524 33.0136 22.9688C33.0136 22.7852 33.0865 22.609 33.2164 22.4792C33.3462 22.3493 33.5224 22.2764 33.706 22.2764C33.8896 22.2764 34.0658 22.3493 34.1956 22.4792C34.3255 22.609 34.3984 22.7852 34.3984 22.9688C34.3984 23.1524 34.3255 23.3286 34.1956 23.4584C34.0658 23.5883 33.8896 23.6612 33.706 23.6612Z" fill="#CE9B78"/>
<path d="M30.64 29.2588C32.2997 29.2588 32.2997 31.8382 30.64 31.8382C28.9802 31.8382 28.9802 29.2588 30.64 29.2588Z" fill="#CE9B78"/>
<path d="M27.7065 30.8643C27.8341 30.8643 27.9564 30.9149 28.0466 31.0051C28.1368 31.0953 28.1875 31.2177 28.1875 31.3453C28.1875 31.4728 28.1368 31.5952 28.0466 31.6854C27.9564 31.7756 27.8341 31.8263 27.7065 31.8263C27.5789 31.8263 27.4566 31.7756 27.3664 31.6854C27.2762 31.5952 27.2255 31.4728 27.2255 31.3453C27.2255 31.2177 27.2762 31.0953 27.3664 31.0051C27.4566 30.9149 27.5789 30.8643 27.7065 30.8643Z" fill="#CE9B78"/>
<path d="M15.0681 25.2786C15.2348 25.1574 15.4332 25.0876 15.639 25.0777C15.8169 25.0586 15.9969 25.0766 16.1675 25.1306C16.2006 25.1415 16.2324 25.1557 16.2627 25.1729C16.4368 25.2045 16.6026 25.2715 16.7498 25.3697C16.897 25.4679 17.0225 25.5952 17.1186 25.7438C17.2147 25.8924 17.2793 26.0591 17.3085 26.2336C17.3376 26.4082 17.3307 26.5868 17.2881 26.7586C17.228 26.971 17.1135 27.1641 16.9559 27.3187C16.7983 27.4733 16.6031 27.5842 16.3896 27.6402C16.176 27.6963 15.9515 27.6956 15.7383 27.6383C15.5251 27.5811 15.3305 27.4691 15.1738 27.3136C14.9502 27.1101 14.7843 26.8512 14.6928 26.563C14.6294 26.3043 14.6294 26.0341 14.6928 25.7754C14.7525 25.5693 14.8861 25.3924 15.0681 25.2786Z" fill="#CE9B78"/>
<path d="M6.20142 16.1822C6.07257 15.9193 6.04619 15.6178 6.12742 15.3365C6.21999 15.0168 6.43353 14.7457 6.7227 14.5809C7.01187 14.4161 7.35389 14.3705 7.67615 14.4538C7.93888 14.5349 8.17819 14.6782 8.37387 14.8713C8.52001 15.0243 8.62711 15.2103 8.68609 15.4135C8.74508 15.6167 8.75422 15.8311 8.71272 16.0386C8.67123 16.246 8.58033 16.4404 8.44774 16.6053C8.31514 16.7702 8.14475 16.9006 7.95101 16.9857C7.76447 17.0663 7.56163 17.1021 7.35877 17.0901C7.1559 17.0782 6.95865 17.0189 6.78285 16.9169C6.50274 16.7548 6.29486 16.4921 6.20142 16.1822Z" fill="#CE9B78"/>
<path d="M10.0455 11.165C10.295 11.165 10.5343 11.2642 10.7108 11.4406C10.8872 11.6171 10.9863 11.8564 10.9863 12.1059C10.9863 12.3554 10.8872 12.5948 10.7108 12.7712C10.5343 12.9476 10.295 13.0468 10.0455 13.0468C9.79593 13.0468 9.55661 12.9476 9.38017 12.7712C9.20372 12.5948 9.10459 12.3554 9.10459 12.1059C9.10459 11.8564 9.20372 11.6171 9.38017 11.4406C9.55661 11.2642 9.79593 11.165 10.0455 11.165Z" fill="#CE9B78"/>
<path d="M13.2301 10.3826C12.9719 10.3816 12.7198 10.304 12.5057 10.1597C12.2916 10.0154 12.1251 9.81077 12.0272 9.57181C11.9294 9.33284 11.9046 9.07023 11.956 8.81718C12.0074 8.56413 12.1327 8.332 12.316 8.15015C12.4993 7.9683 12.7324 7.8449 12.9859 7.79555C13.2394 7.7462 13.5018 7.77312 13.7399 7.8729C13.9781 7.97268 14.1813 8.14084 14.3239 8.35612C14.4665 8.5714 14.542 8.82413 14.541 9.08235C14.5368 9.42774 14.3971 9.75766 14.1518 10.0009C13.9066 10.2442 13.5756 10.3813 13.2301 10.3826Z" fill="#CE9B78"/>
<path d="M26.6981 21.545C26.9137 21.3406 27.1773 21.1938 27.4646 21.1181C27.7519 21.0423 28.0536 21.0401 28.342 21.1115C28.6226 21.1884 28.8784 21.337 29.0841 21.5428C29.2899 21.7486 29.4385 22.0043 29.5154 22.285C29.7175 23.0927 29.6041 23.9471 29.1982 24.6742C28.9794 25.0781 28.6655 25.4228 28.2838 25.6785C27.4539 26.4713 26.0744 26.6986 25.2921 25.6785C24.1926 24.2883 25.5616 22.4647 26.6981 21.545Z" fill="#CE9B78"/>
<path d="M24.5379 32.4612L24.5855 32.4242C24.7488 32.2098 24.9623 32.0386 25.2071 31.9258C25.452 31.813 25.7207 31.7619 25.9899 31.777C26.259 31.7921 26.5204 31.873 26.751 32.0126C26.9817 32.1521 27.1746 32.3461 27.3129 32.5775C27.4597 32.8187 27.5456 33.092 27.5631 33.3738C27.5806 33.6556 27.5292 33.9374 27.4134 34.1949C27.2792 34.5029 27.0572 34.7645 26.7752 34.9469C26.4931 35.1293 26.1635 35.2244 25.8276 35.2204C25.7503 35.2283 25.6724 35.2283 25.5951 35.2204C25.394 35.3359 25.1662 35.3966 24.9343 35.3966C24.7025 35.3966 24.4747 35.3359 24.2736 35.2204C24.1092 35.1159 23.9674 34.9796 23.8565 34.8195C23.7456 34.6593 23.6679 34.4786 23.628 34.2879C23.5881 34.0973 23.5868 33.9005 23.6241 33.7094C23.6615 33.5182 23.7367 33.3364 23.8455 33.1748C24.0213 32.8892 24.2577 32.6456 24.5379 32.4612Z" fill="#CE9B78"/>
<path d="M31.9523 9.17717C31.7991 9.03841 31.6967 8.85232 31.6616 8.64859C31.6266 8.54206 31.6209 8.42805 31.6452 8.31858C31.6696 8.2091 31.7229 8.10821 31.7998 8.02651C31.8766 7.94482 31.974 7.88535 32.0818 7.85436C32.1896 7.82338 32.3037 7.82202 32.4122 7.85043C32.6302 7.88511 32.8297 7.99328 32.9778 8.15701C33.1086 8.29458 33.1816 8.4772 33.1816 8.66709C33.1816 8.85697 33.1086 9.0396 32.9778 9.17717C32.9163 9.23156 32.8467 9.27613 32.7716 9.30931C32.7441 9.35134 32.7082 9.3873 32.6663 9.41501C32.6244 9.44273 32.5772 9.46161 32.5278 9.47052C32.4783 9.47942 32.4276 9.47816 32.3786 9.4668C32.3297 9.45544 32.2835 9.43423 32.243 9.40445C32.2002 9.37389 32.1596 9.34033 32.1215 9.30402C32.0602 9.26867 32.0034 9.22608 31.9523 9.17717Z" fill="#CE9B78"/>
<path d="M36.2669 13.1371C36.2469 13.2792 36.1981 13.4158 36.1236 13.5385C36.0491 13.6611 35.9504 13.7674 35.8335 13.8506C35.7498 13.9293 35.6576 13.9984 35.5586 14.0568C35.1799 14.2537 34.7401 14.2977 34.3299 14.1797C33.9197 14.0616 33.5705 13.7906 33.3545 13.4225C33.249 13.2749 33.1653 13.1129 33.106 12.9415C32.8494 12.6108 32.7267 12.1956 32.7624 11.7786C32.8055 11.5763 32.8926 11.386 33.0176 11.2212C33.1426 11.0564 33.3025 10.9213 33.4857 10.8254C33.6689 10.7294 33.8711 10.6751 34.0777 10.6663C34.2844 10.6575 34.4904 10.6944 34.6812 10.7743C35.2611 11.0037 35.7521 11.4132 36.0819 11.9425C36.1943 12.1167 36.2689 12.3126 36.3008 12.5175C36.3326 12.7223 36.3211 12.9316 36.2669 13.1318V13.1371Z" fill="#CE9B78"/>
<path d="M31.3066 12.9472C31.1122 12.9311 30.931 12.8426 30.799 12.6991C30.6669 12.5557 30.5936 12.3678 30.5936 12.1728C30.5936 11.9778 30.6669 11.7899 30.799 11.6465C30.931 11.5031 31.1122 11.4145 31.3066 11.3984C31.5009 11.4145 31.6821 11.5031 31.8141 11.6465C31.9462 11.7899 32.0195 11.9778 32.0195 12.1728C32.0195 12.3678 31.9462 12.5557 31.8141 12.6991C31.6821 12.8426 31.5009 12.9311 31.3066 12.9472Z" fill="#CE9B78"/>
<path d="M29.4375 19.2722C29.3121 19.5013 29.1401 19.7016 28.9325 19.86C28.7249 20.0184 28.4864 20.1315 28.2323 20.192C27.7809 20.3017 27.3047 20.2355 26.9003 20.0069C26.518 19.7833 26.2198 19.4402 26.0517 19.0305C25.8836 18.6207 25.8549 18.167 25.97 17.7394C26.0525 17.4667 26.1951 17.216 26.3872 17.0056C26.5792 16.7953 26.816 16.6306 27.08 16.5236C27.3224 16.4204 27.583 16.3672 27.8465 16.3672C28.1099 16.3672 28.3706 16.4204 28.6129 16.5236C28.8668 16.6311 29.0864 16.8063 29.2476 17.03C29.4089 17.2537 29.5056 17.5173 29.5273 17.7922C29.6231 18.0301 29.6647 18.2864 29.6492 18.5423C29.6336 18.7983 29.5613 19.0476 29.4375 19.2722Z" fill="#CE9B78"/>
<path d="M26.3848 20.8266C26.3858 21.0142 26.3311 21.1979 26.2275 21.3543C26.1239 21.5107 25.9762 21.6327 25.8031 21.705C25.63 21.7773 25.4393 21.7965 25.2553 21.7601C25.0713 21.7238 24.9022 21.6336 24.7696 21.5009C24.6369 21.3683 24.5467 21.1992 24.5104 21.0152C24.474 20.8312 24.4932 20.6405 24.5655 20.4674C24.6378 20.2943 24.7598 20.1466 24.9162 20.043C25.0726 19.9394 25.2563 19.8847 25.4439 19.8858C25.6921 19.8898 25.9291 19.9903 26.1047 20.1658C26.2802 20.3414 26.3807 20.5784 26.3848 20.8266Z" fill="#CE9B78"/>
<path d="M24.1086 23.5016C23.9291 23.5016 23.757 23.4303 23.6302 23.3034C23.5033 23.1766 23.432 23.0045 23.432 22.825C23.432 22.6456 23.5033 22.4735 23.6302 22.3466C23.757 22.2197 23.9291 22.1484 24.1086 22.1484C24.288 22.1484 24.4601 22.2197 24.587 22.3466C24.7139 22.4735 24.7852 22.6456 24.7852 22.825C24.7852 23.0045 24.7139 23.1766 24.587 23.3034C24.4601 23.4303 24.288 23.5016 24.1086 23.5016Z" fill="#CE9B78"/>
<path d="M34.727 21.2231C34.5676 20.8775 34.5136 20.4926 34.5719 20.1165C34.6302 19.7404 34.7981 19.3899 35.0547 19.1088C35.212 18.9445 35.4132 18.8288 35.6343 18.7754C35.8554 18.722 36.0871 18.7332 36.3021 18.8075C36.5643 18.9042 36.7902 19.0795 36.9491 19.3094C37.108 19.5392 37.1922 19.8125 37.1901 20.0919C37.2026 20.3307 37.1232 20.5653 36.9681 20.7474C36.9636 20.8399 36.9512 20.9318 36.9311 21.0222C36.8579 21.2459 36.7208 21.4433 36.5367 21.59C36.3526 21.7367 36.1295 21.8262 35.8951 21.8476C35.6607 21.869 35.4251 21.8212 35.2175 21.7102C35.0099 21.5992 34.8394 21.4299 34.727 21.2231Z" fill="#CE9B78"/>
<path d="M30.2382 21.5462C30.0237 21.5462 29.818 21.461 29.6663 21.3093C29.5146 21.1576 29.4294 20.9519 29.4294 20.7374C29.4294 20.5229 29.5146 20.3172 29.6663 20.1656C29.818 20.0139 30.0237 19.9287 30.2382 19.9287C30.4526 19.9287 30.6583 20.0139 30.81 20.1656C30.9617 20.3172 31.0469 20.5229 31.0469 20.7374C31.0469 20.9519 30.9617 21.1576 30.81 21.3093C30.6583 21.461 30.4526 21.5462 30.2382 21.5462Z" fill="#CE9B78"/>
<path d="M33.0418 26.7543C33.2545 26.6356 33.4964 26.5796 33.7396 26.5927C33.9828 26.6058 34.2174 26.6875 34.4161 26.8283C34.6155 26.9799 34.7617 27.1909 34.8337 27.4309C34.9452 27.6521 34.9661 27.9081 34.8918 28.1445C34.8102 28.4779 34.6015 28.7662 34.3104 28.9479C34.1484 29.0486 33.9692 29.1185 33.7818 29.1541C33.5407 29.211 33.2879 29.1925 33.0576 29.1012C32.8351 29.0138 32.6488 28.8536 32.5291 28.6466C32.3523 28.3234 32.3105 27.9434 32.4128 27.5895C32.5107 27.2422 32.7351 26.9443 33.0418 26.7543Z" fill="#CE9B78"/>
<path d="M3.11896 22.5726C3.00961 22.5726 2.90475 22.5292 2.82743 22.4519C2.75011 22.3746 2.70667 22.2697 2.70667 22.1603C2.70667 22.051 2.75011 21.9461 2.82743 21.8688C2.90475 21.7915 3.00961 21.748 3.11896 21.748C3.22831 21.748 3.33317 21.7915 3.41049 21.8688C3.48781 21.9461 3.53125 22.051 3.53125 22.1603C3.53125 22.2697 3.48781 22.3746 3.41049 22.4519C3.33317 22.5292 3.22831 22.5726 3.11896 22.5726Z" fill="#CE9B78"/>
<path d="M3.58211 14.6747C1.4678 14.6747 1.4678 11.3711 3.58211 11.3711C5.69642 11.3711 5.71756 14.6747 3.58211 14.6747Z" fill="#CE9B78"/>
<path d="M3.30272 15.9855C3.30377 16.1645 3.25165 16.3398 3.15297 16.4891C3.05429 16.6384 2.91349 16.7551 2.74842 16.8243C2.58336 16.8935 2.40146 16.9122 2.22578 16.8779C2.0501 16.8436 1.88855 16.758 1.76161 16.6318C1.63468 16.5056 1.54806 16.3445 1.51276 16.1691C1.47745 15.9936 1.49504 15.8116 1.5633 15.6461C1.63155 15.4806 1.74739 15.3392 1.89614 15.2396C2.0449 15.1401 2.21986 15.0869 2.39885 15.0869C2.63724 15.0883 2.86555 15.1832 3.03461 15.3513C3.20367 15.5194 3.29995 15.7471 3.30272 15.9855Z" fill="#CE9B78"/>
<path d="M5.11511 11.3811C4.90062 11.3811 4.69492 11.2959 4.54325 11.1442C4.39159 10.9926 4.30638 10.7869 4.30638 10.5724C4.30638 10.3579 4.39159 10.1522 4.54325 10.0005C4.69492 9.84887 4.90062 9.76367 5.11511 9.76367C5.32959 9.76367 5.5353 9.84887 5.68696 10.0005C5.83863 10.1522 5.92383 10.3579 5.92383 10.5724C5.92383 10.7869 5.83863 10.9926 5.68696 11.1442C5.5353 11.2959 5.32959 11.3811 5.11511 11.3811Z" fill="#CE9B78"/>
<path d="M13.5258 12.1112C13.5258 12.0795 13.5258 12.0531 13.5628 12.0214C13.5977 11.9523 13.6442 11.8897 13.7003 11.8364C13.8881 11.6707 14.1267 11.5738 14.3768 11.5615C14.5426 11.5613 14.7056 11.6046 14.8494 11.6872C14.9932 11.7697 15.1128 11.8886 15.1961 12.032C15.2749 12.1643 15.3259 12.3113 15.3459 12.464C15.3659 12.6167 15.3545 12.7718 15.3124 12.92C15.2722 13.0488 15.2054 13.1678 15.1165 13.2693C15.0275 13.3708 14.9182 13.4526 14.7958 13.5094C14.6733 13.5661 14.5403 13.5966 14.4053 13.5989C14.2704 13.6012 14.1364 13.5752 14.0121 13.5226C13.8568 13.4566 13.7214 13.3512 13.6194 13.2167C13.5174 13.0823 13.4523 12.9235 13.4307 12.7561C13.3773 12.537 13.4114 12.3056 13.5258 12.1112Z" fill="#CE9B78"/>
<path d="M13.0492 26.4248C13.1634 26.437 13.2689 26.491 13.3457 26.5764C13.4224 26.6618 13.4648 26.7725 13.4648 26.8873C13.4648 27.0021 13.4224 27.1128 13.3457 27.1982C13.2689 27.2836 13.1634 27.3376 13.0492 27.3498C12.9351 27.3376 12.8295 27.2836 12.7528 27.1982C12.676 27.1128 12.6336 27.0021 12.6336 26.8873C12.6336 26.7725 12.676 26.6618 12.7528 26.5764C12.8295 26.491 12.9351 26.437 13.0492 26.4248Z" fill="#CE9B78"/>
<path d="M6.38412 23.8447C6.50188 23.8447 6.61481 23.8915 6.69808 23.9748C6.78134 24.058 6.82812 24.171 6.82812 24.2887C6.82812 24.4065 6.78134 24.5194 6.69808 24.6027C6.61481 24.686 6.50188 24.7327 6.38412 24.7327C6.26636 24.7327 6.15343 24.686 6.07016 24.6027C5.98689 24.5194 5.94011 24.4065 5.94011 24.2887C5.94011 24.171 5.98689 24.058 6.07016 23.9748C6.15343 23.8915 6.26636 23.8447 6.38412 23.8447Z" fill="#CE9B78"/>
<path d="M8.8482 18.8184C9.09773 18.8184 9.33704 18.9175 9.51349 19.0939C9.68993 19.2704 9.78906 19.5097 9.78906 19.7592C9.78906 20.0088 9.68993 20.2481 9.51349 20.4245C9.33704 20.601 9.09773 20.7001 8.8482 20.7001C8.59866 20.7001 8.35935 20.601 8.1829 20.4245C8.00645 20.2481 7.90732 20.0088 7.90732 19.7592C7.90732 19.5097 8.00645 19.2704 8.1829 19.0939C8.35935 18.9175 8.59866 18.8184 8.8482 18.8184Z" fill="#CE9B78"/>
<path d="M9.38185 18.7751C9.26365 18.7626 9.15424 18.7069 9.07472 18.6185C8.9952 18.5302 8.95119 18.4156 8.95119 18.2967C8.95119 18.1779 8.9952 18.0632 9.07472 17.9749C9.15424 17.8866 9.26365 17.8308 9.38185 17.8184C9.50004 17.8308 9.60945 17.8866 9.68897 17.9749C9.76849 18.0632 9.8125 18.1779 9.8125 18.2967C9.8125 18.4156 9.76849 18.5302 9.68897 18.6185C9.60945 18.7069 9.50004 18.7626 9.38185 18.7751Z" fill="#CE9B78"/>
<path d="M12.2472 20.1299C12.3532 20.1416 12.4512 20.1921 12.5223 20.2716C12.5935 20.3511 12.6328 20.454 12.6328 20.5607C12.6328 20.6673 12.5935 20.7703 12.5223 20.8498C12.4512 20.9292 12.3532 20.9797 12.2472 20.9915C12.1411 20.9797 12.0432 20.9292 11.972 20.8498C11.9009 20.7703 11.8615 20.6673 11.8615 20.5607C11.8615 20.454 11.9009 20.3511 11.972 20.2716C12.0432 20.1921 12.1411 20.1416 12.2472 20.1299Z" fill="#CE9B78"/>
<path d="M1.36145 20.367C1.38743 20.2736 1.43044 20.1858 1.4883 20.108C1.56459 20.0103 1.66059 19.9298 1.77007 19.8717C1.87954 19.8135 2.00003 19.7791 2.12369 19.7706C2.24735 19.7621 2.37142 19.7798 2.4878 19.8225C2.60418 19.8651 2.71028 19.9318 2.79918 20.0182C2.91728 20.1417 2.99748 20.2964 3.03027 20.4641C3.06306 20.6318 3.04707 20.8054 2.98418 20.9643C2.95775 21.0277 2.93132 21.0965 2.89961 21.1599C2.83713 21.2736 2.75182 21.3731 2.64903 21.4523C2.54624 21.5314 2.4282 21.5884 2.30231 21.6198C2.18607 21.6474 2.06536 21.6508 1.94776 21.6296C1.83016 21.6084 1.71821 21.5632 1.61894 21.4966C1.51967 21.4301 1.43522 21.3438 1.3709 21.2431C1.30658 21.1424 1.26377 21.0295 1.24516 20.9115C1.22709 20.7223 1.2677 20.5323 1.36145 20.367Z" fill="#CE9B78"/>
<path d="M4.14852 22.5245C3.97609 22.3012 3.87105 22.0333 3.84576 21.7524C3.82048 21.4715 3.87601 21.1892 4.0058 20.9387C4.14528 20.6727 4.37286 20.4635 4.6496 20.3468C4.92634 20.2302 5.23502 20.2133 5.52282 20.2991C5.64649 20.3364 5.76403 20.3916 5.87168 20.463C6.03656 20.5283 6.18599 20.6273 6.3104 20.7537C6.44713 20.9056 6.54855 21.0859 6.60738 21.2816C6.66622 21.4773 6.68101 21.6836 6.65069 21.8857C6.62038 22.0878 6.54571 22.2807 6.43204 22.4505C6.31837 22.6204 6.16853 22.7629 5.99326 22.868C5.69742 23.048 5.34559 23.1124 5.00519 23.049C4.66478 22.9856 4.35974 22.7988 4.14852 22.5245Z" fill="#CE9B78"/>
<path d="M3.44174 24.1041C3.72603 24.0371 4.02502 24.0766 4.28217 24.2151C4.45531 24.3081 4.6011 24.4448 4.70504 24.6115C4.86191 24.8159 4.95396 25.0626 4.96933 25.3198C4.97773 25.4985 4.94762 25.6768 4.88104 25.8428C4.81447 26.0088 4.71298 26.1585 4.58347 26.2819C4.46081 26.4012 4.31278 26.4913 4.15043 26.5454C3.98808 26.5995 3.8156 26.6163 3.64586 26.5945C3.47613 26.5726 3.31352 26.5127 3.17017 26.4192C3.02683 26.3257 2.90645 26.2011 2.81802 26.0546C2.67387 25.8408 2.59828 25.5882 2.6013 25.3304C2.61319 25.0783 2.67802 24.8316 2.79159 24.6063C2.93443 24.3604 3.16777 24.1802 3.44174 24.1041Z" fill="#CE9B78"/>
</g>
<g style="mix-blend-mode:multiply" opacity="0.23">
<mask id="mask0_1166_43577" style="mask-type:luminance" maskUnits="userSpaceOnUse" x="0" y="0" width="38" height="38">
<path d="M19.3049 37.3292C9.00579 37.3292 0.6567 28.9872 0.6567 18.6968C0.6567 8.40644 9.00579 0.0644531 19.3049 0.0644531C29.604 0.0644531 37.9531 8.40644 37.9531 18.6968C37.9531 28.9872 29.604 37.3292 19.3049 37.3292Z" fill="white"/>
</mask>
<g mask="url(#mask0_1166_43577)">
<path d="M23.1069 34.3211C23.1522 34.4172 23.1859 34.5184 23.2074 34.6224C23.265 34.5437 23.3287 34.4695 23.3977 34.4004C23.8739 33.9413 24.507 33.6806 25.1684 33.671C25.3294 33.6659 25.4905 33.6765 25.6494 33.7027C25.6641 33.5546 25.7345 33.4176 25.8464 33.3195C25.9582 33.2213 26.1032 33.1694 26.252 33.1741C26.3742 33.1746 26.4937 33.2103 26.5961 33.2771C26.6985 33.3439 26.7794 33.4388 26.8291 33.5505C26.8788 33.6622 26.8952 33.7859 26.8763 33.9067C26.8573 34.0274 26.8039 34.1402 26.7224 34.2313C26.7994 34.2872 26.8718 34.349 26.9391 34.4163C27.2441 34.7231 27.4645 35.1037 27.5787 35.521C27.7003 35.9549 27.7003 36.4139 27.5787 36.8477V36.8742L27.325 37.4715C27.1743 37.7545 26.9543 37.9945 26.6854 38.1692C26.5384 38.3173 26.3567 38.4263 26.1568 38.4863C25.861 38.6423 25.529 38.7171 25.1948 38.7031C24.7556 38.6846 24.326 38.5691 23.9368 38.3648C23.6524 38.2138 23.4119 37.9916 23.2391 37.7199C23.0173 37.4834 22.8638 37.1911 22.7951 36.8742V36.816C22.7027 36.4714 22.6847 36.111 22.7422 35.7589L22.6365 35.817C22.5076 35.8708 22.3692 35.8985 22.2295 35.8985C22.0898 35.8985 21.9515 35.8708 21.8225 35.817C21.6918 35.7857 21.5689 35.7277 21.4616 35.6468C21.3543 35.5659 21.2648 35.4637 21.1988 35.3466C21.0844 35.1407 21.042 34.9025 21.0784 34.6698C21.1148 34.4371 21.2279 34.2233 21.3996 34.0621C21.5227 33.9522 21.6684 33.8709 21.8265 33.8238C21.9846 33.7768 22.1511 33.7652 22.3142 33.7899C22.4773 33.8147 22.6329 33.8751 22.77 33.9669C22.907 34.0588 23.0221 34.1797 23.1069 34.3211Z" fill="#C87E56"/>
<path d="M32.5194 15.0496C32.767 14.9835 33.0277 14.9835 33.2753 15.0496C33.5408 15.1295 33.7733 15.2931 33.9381 15.516C34.1029 15.739 34.1912 16.0092 34.1897 16.2865C34.2443 16.4578 34.2763 16.6355 34.2849 16.8151C34.2909 17.1062 34.2051 17.3919 34.0394 17.6315C33.8738 17.871 33.6369 18.0523 33.3624 18.1495C33.0878 18.2466 32.7896 18.2548 32.5102 18.1727C32.2307 18.0907 31.9843 17.9227 31.8058 17.6925C31.5849 17.3706 31.4822 16.9821 31.5151 16.5931C31.4969 16.3795 31.5222 16.1645 31.5894 15.961C31.6566 15.7575 31.7644 15.5697 31.9063 15.409C31.9855 15.3509 32.0648 15.2928 32.1388 15.2293C31.9327 15.3985 31.9115 15.4143 32.086 15.2769C32.21 15.1673 32.3587 15.0893 32.5194 15.0496Z" fill="#C87E56"/>
<path d="M25.7182 4.57828C25.5875 4.57828 25.4598 4.53953 25.3511 4.46693C25.2425 4.39433 25.1578 4.29114 25.1078 4.17041C25.0578 4.04968 25.0447 3.91683 25.0702 3.78866C25.0957 3.6605 25.1586 3.54276 25.251 3.45036C25.3434 3.35796 25.4611 3.29503 25.5893 3.26953C25.7175 3.24404 25.8503 3.25712 25.971 3.30713C26.0918 3.35714 26.195 3.44183 26.2676 3.55048C26.3402 3.65914 26.3789 3.78688 26.3789 3.91756C26.3762 4.09194 26.3057 4.25843 26.1824 4.38175C26.059 4.50507 25.8926 4.57555 25.7182 4.57828Z" fill="#C87E56"/>
<path d="M28.5903 7.21056C28.5114 7.24896 28.4279 7.27736 28.3419 7.29512C28.1263 7.33897 27.9036 7.3347 27.6898 7.28262C27.476 7.23054 27.2763 7.13194 27.105 6.99384C26.8908 6.86199 26.711 6.68106 26.5805 6.46599C26.4499 6.25093 26.3725 6.00789 26.3545 5.75697C26.3584 5.43379 26.4871 5.12464 26.7137 4.89413C26.9402 4.66363 27.2471 4.52961 27.5702 4.52009C27.8285 4.51291 28.084 4.57497 28.3102 4.69981C28.4652 4.77892 28.6077 4.88044 28.7331 5.0011C28.8455 5.07269 28.95 5.15597 29.0449 5.24953C29.1974 5.40253 29.307 5.59297 29.3627 5.80172C29.4184 6.01047 29.4182 6.23019 29.3621 6.43883C29.3081 6.62166 29.2092 6.78808 29.0744 6.92288C28.9396 7.05768 28.7732 7.15658 28.5903 7.21056Z" fill="#C87E56"/>
<path d="M25.7872 5.26512C25.8324 5.42781 25.8166 5.60142 25.7428 5.75328C25.669 5.90515 25.5423 6.02481 25.3864 6.08976C25.2305 6.1547 25.0563 6.16045 24.8965 6.10593C24.7367 6.05141 24.6023 5.94037 24.5186 5.7937C24.4301 5.63351 24.4065 5.44543 24.4528 5.26836C24.499 5.09128 24.6115 4.93874 24.767 4.84226C24.8596 4.78926 24.963 4.75819 25.0695 4.75141C25.1759 4.74463 25.2825 4.76234 25.381 4.80317C25.4795 4.84401 25.5673 4.90688 25.6377 4.98696C25.7082 5.06704 25.7593 5.1622 25.7872 5.26512Z" fill="#C87E56"/>
<path d="M13.6865 6.09534C13.4344 6.17366 13.169 6.19999 12.9064 6.17274C12.6438 6.14548 12.3895 6.0652 12.1589 5.93677C11.9173 5.79317 11.7218 5.58354 11.5954 5.33257C11.469 5.08161 11.4169 4.79975 11.4453 4.52017C11.4512 4.2575 11.5089 3.99858 11.615 3.75822C11.7211 3.51787 11.8736 3.3008 12.0637 3.11945C12.4599 2.68469 12.9713 2.37125 13.5385 2.21558C13.7685 2.1521 14.0114 2.1521 14.2415 2.21558C14.54 2.21937 14.8322 2.3016 15.0889 2.45401C15.3455 2.60641 15.5576 2.82364 15.7038 3.08389C15.85 3.34415 15.9252 3.63827 15.9218 3.93676C15.9184 4.23524 15.8366 4.52759 15.6845 4.78446C15.2117 5.46199 14.4962 5.93144 13.6865 6.09534Z" fill="#C87E56"/>
<path d="M8.98032 6.8564C8.81691 6.96406 8.63891 7.04772 8.45174 7.10482C8.25271 7.16203 8.04219 7.16628 7.84101 7.11715C7.63983 7.06801 7.45498 6.96719 7.30473 6.82468C7.17796 6.6998 7.08704 6.54318 7.04148 6.37117C6.99592 6.19916 6.99739 6.01807 7.04572 5.84681C7.07002 5.7631 7.10559 5.68309 7.15144 5.60895C7.23871 5.42347 7.38577 5.27268 7.56902 5.1808C7.63227 5.1052 7.70119 5.03452 7.77516 4.96937C7.87935 4.8778 7.9907 4.79472 8.10816 4.72094H8.15045L8.20331 4.63108L8.32488 4.54651C8.52113 4.4329 8.75356 4.39918 8.974 4.45232C9.19444 4.50546 9.38597 4.6414 9.50889 4.83194C9.62884 4.95331 9.71415 5.10455 9.75598 5.26998C9.7978 5.43541 9.79461 5.60902 9.74675 5.77281C9.61219 6.20592 9.34388 6.58526 8.98032 6.8564Z" fill="#C87E56"/>
<path d="M9.60655 8.1926C9.55948 8.24108 9.50184 8.27802 9.43814 8.30056C9.37443 8.3231 9.30639 8.33062 9.2393 8.32253C9.17221 8.31445 9.1079 8.29098 9.05137 8.25395C8.99485 8.21691 8.94765 8.16733 8.91344 8.10905C8.87924 8.05077 8.85895 7.98538 8.85418 7.91798C8.8494 7.85057 8.86026 7.78298 8.88591 7.72046C8.91155 7.65795 8.95129 7.6022 9.00203 7.55757C9.05277 7.51293 9.11312 7.48063 9.1784 7.46316L9.36341 7.41559C9.44409 7.39655 9.52876 7.404 9.60488 7.43683C9.681 7.46967 9.74451 7.52615 9.78602 7.59791C9.82754 7.66967 9.84484 7.75289 9.83536 7.83524C9.82588 7.9176 9.79013 7.99471 9.73341 8.05516L9.60655 8.1926Z" fill="#C87E56"/>
<path d="M4.4702 21.6993C4.0165 21.4372 3.67997 21.0118 3.52933 20.51C3.39837 20.0955 3.39837 19.6506 3.52933 19.2361C3.61179 18.9114 3.7977 18.6222 4.05898 18.4124C4.32026 18.2027 4.64272 18.0836 4.97763 18.0732C5.27081 18.0727 5.55841 18.1534 5.80849 18.3064C6.05856 18.4594 6.26131 18.6788 6.39422 18.9401C6.52629 19.2125 6.57764 19.5169 6.54222 19.8176C6.61613 20.1661 6.61613 20.5262 6.54222 20.8747C6.4878 21.0754 6.38732 21.2607 6.24876 21.4157C6.11021 21.5708 5.9374 21.6914 5.74407 21.768C5.5404 21.8538 5.3199 21.8922 5.09922 21.8803C4.87855 21.8684 4.66346 21.8065 4.4702 21.6993Z" fill="#C87E56"/>
<path d="M11.3756 14.5361C11.4812 14.8567 11.476 15.2033 11.361 15.5206C11.246 15.8378 11.0278 16.1073 10.7414 16.2857C10.5653 16.3866 10.3681 16.4449 10.1655 16.456C9.96293 16.467 9.76057 16.4305 9.57461 16.3493C9.38866 16.2682 9.22428 16.1446 9.09462 15.9886C8.96496 15.8325 8.87362 15.6483 8.8279 15.4506C8.7953 15.3337 8.78104 15.2124 8.78561 15.0911C8.7634 14.9992 8.74925 14.9054 8.74333 14.811C8.664 14.6736 8.62223 14.5177 8.62223 14.3591C8.62223 14.2004 8.664 14.0445 8.74333 13.9071C8.86247 13.7106 9.0351 13.5521 9.24103 13.45C9.44695 13.348 9.67767 13.3067 9.9062 13.331C10.1129 13.3605 10.3081 13.4444 10.4718 13.5741C10.6856 13.6553 10.8781 13.7842 11.0347 13.9509C11.1913 14.1175 11.3079 14.3177 11.3756 14.5361Z" fill="#C87E56"/>
<path d="M8.9908 10.0107C9.19267 10.0107 9.38627 10.0909 9.52902 10.2337C9.67176 10.3764 9.75195 10.57 9.75195 10.7719C9.75195 10.9738 9.67176 11.1674 9.52902 11.3101C9.38627 11.4529 9.19267 11.533 8.9908 11.533C8.78893 11.533 8.59533 11.4529 8.45258 11.3101C8.30984 11.1674 8.22965 10.9738 8.22965 10.7719C8.22965 10.57 8.30984 10.3764 8.45258 10.2337C8.59533 10.0909 8.78893 10.0107 8.9908 10.0107Z" fill="#C87E56"/>
<path d="M28.4656 23.3578C28.8279 23.1562 29.2351 23.049 29.6496 23.0459C29.9638 23.0532 30.2677 23.1593 30.5182 23.349C30.7687 23.5388 30.953 23.8026 31.0451 24.1031C31.1043 24.3386 31.0921 24.5865 31.0103 24.8151C30.9284 25.0438 30.7805 25.243 30.5852 25.3875C30.5141 25.5399 30.4156 25.6778 30.2945 25.7945C29.5704 26.4605 28.2701 26.5609 27.6939 25.6306C27.5837 25.4331 27.5162 25.2146 27.4957 24.9893C27.4752 24.7641 27.5022 24.537 27.5749 24.3228C27.6477 24.1086 27.7645 23.912 27.9179 23.7458C28.0714 23.5796 28.2579 23.4474 28.4656 23.3578Z" fill="#C87E56"/>
<path d="M31.2701 24.5106C31.3181 24.3758 31.3897 24.2505 31.4815 24.1406L31.5185 24.0878L31.5502 24.0508C31.7065 23.8961 31.9171 23.8088 32.137 23.8076C32.3217 23.81 32.5031 23.8571 32.6655 23.945C32.8419 24.0512 32.9793 24.2114 33.0574 24.4018C33.1355 24.5923 33.1501 24.8028 33.099 25.0022C33.1045 25.0301 33.1045 25.0589 33.099 25.0868C33.0367 25.301 32.8996 25.4857 32.7126 25.6073C32.5255 25.7288 32.3011 25.7791 32.08 25.749C31.859 25.7189 31.6562 25.6104 31.5085 25.4432C31.3608 25.2761 31.278 25.0614 31.2754 24.8383C31.3071 25.0445 31.3071 25.0603 31.2754 24.8806C31.2378 24.7604 31.236 24.6319 31.2701 24.5106Z" fill="#C87E56"/>
<path d="M34.8262 26.0965C34.6981 26.0371 34.5845 25.9505 34.4932 25.8428C34.4019 25.7351 34.3352 25.6088 34.2976 25.4727C34.2237 25.1939 34.2237 24.9006 34.2976 24.6217C34.3689 24.3481 34.5028 24.0947 34.6888 23.8817C34.7777 23.7929 34.8831 23.7224 34.9992 23.6744C35.1153 23.6263 35.2397 23.6016 35.3654 23.6016C35.6182 23.6002 35.8613 23.6989 36.0416 23.8762C36.2218 24.0535 36.3246 24.2949 36.3274 24.5477C36.3293 24.5706 36.3293 24.5936 36.3274 24.6164C36.3932 24.8837 36.3728 25.1649 36.2692 25.4199C36.1544 25.6728 35.9714 25.8888 35.7407 26.0436C35.6066 26.1326 35.4512 26.1843 35.2906 26.1936C35.1299 26.2029 34.9697 26.1694 34.8262 26.0965Z" fill="#C87E56"/>
<path d="M22.3426 28.7238C22.2905 28.7341 22.2393 28.7482 22.1893 28.7661C22.0189 28.8153 21.8393 28.8236 21.6651 28.7902C21.4909 28.7568 21.327 28.6828 21.1869 28.574C21.0467 28.4653 20.9342 28.325 20.8586 28.1646C20.783 28.0042 20.7463 27.8281 20.7516 27.6508C20.7795 27.1278 20.9782 26.6283 21.3172 26.229C21.5813 25.9032 21.8712 25.5992 22.184 25.3198C22.3442 25.1734 22.5394 25.0709 22.7509 25.0223C22.9623 24.9736 23.1827 24.9805 23.3907 25.0422C23.5987 25.1039 23.7872 25.2184 23.9379 25.3744C24.0886 25.5305 24.1964 25.7229 24.2508 25.933C24.365 26.5255 24.2558 27.1393 23.9442 27.6561C23.6482 28.2058 23.0033 28.8084 22.3426 28.7238Z" fill="#C87E56"/>
<path d="M20.361 26.6786C20.275 26.6971 20.1857 26.6939 20.1013 26.6692C20.0169 26.6445 19.9399 26.5991 19.8774 26.5372C19.815 26.4752 19.769 26.3987 19.7436 26.3145C19.7182 26.2302 19.7142 26.141 19.732 26.0548C19.7566 25.956 19.8025 25.8636 19.8664 25.7842C19.9303 25.7048 20.0107 25.6402 20.102 25.595C20.2011 25.5459 20.3131 25.5291 20.4223 25.547C20.5314 25.5649 20.6322 25.6166 20.7104 25.6949C20.7886 25.7731 20.8403 25.8738 20.8583 25.983C20.8762 26.0921 20.8594 26.2042 20.8103 26.3033C20.7674 26.3948 20.7049 26.4759 20.6273 26.5407C20.5496 26.6056 20.4588 26.6526 20.361 26.6786Z" fill="#C87E56"/>
<path d="M19.5822 26.6416C19.7601 26.657 19.9259 26.7385 20.0466 26.8701C20.1674 27.0018 20.2344 27.1739 20.2344 27.3525C20.2344 27.5312 20.1674 27.7033 20.0466 27.8349C19.9259 27.9666 19.7601 28.0481 19.5822 28.0635C19.4042 28.0481 19.2384 27.9666 19.1177 27.8349C18.9969 27.7033 18.9299 27.5312 18.9299 27.3525C18.9299 27.1739 18.9969 27.0018 19.1177 26.8701C19.2384 26.7385 19.4042 26.657 19.5822 26.6416Z" fill="#C87E56"/>
<path d="M5.23827 28.2268C6.158 27.566 7.3103 28.5915 7.73845 29.3526C7.82158 29.5072 7.86686 29.6793 7.87059 29.8548C8.0395 30.047 8.12954 30.296 8.12268 30.5518C8.11582 30.8077 8.01257 31.0514 7.83359 31.2344C6.77644 32.2915 5.38099 30.2512 4.91584 29.4478C4.80486 29.2413 4.77642 29.0004 4.83627 28.7737C4.89613 28.547 5.03981 28.3515 5.23827 28.2268Z" fill="#C87E56"/>
<path d="M19.5838 3.7811C19.4358 3.76712 19.2983 3.69843 19.1982 3.58846C19.0981 3.47849 19.0427 3.33514 19.0427 3.18645C19.0427 3.03775 19.0981 2.8944 19.1982 2.78443C19.2983 2.67446 19.4358 2.60577 19.5838 2.5918C19.7319 2.60577 19.8694 2.67446 19.9695 2.78443C20.0695 2.8944 20.125 3.03775 20.125 3.18645C20.125 3.33514 20.0695 3.47849 19.9695 3.58846C19.8694 3.69843 19.7319 3.76712 19.5838 3.7811Z" fill="#C87E56"/>
<path d="M19.1854 4.71053C19.105 4.70033 19.0311 4.66116 18.9775 4.60034C18.9239 4.53952 18.8943 4.46123 18.8943 4.38017C18.8943 4.2991 18.9239 4.22082 18.9775 4.16C19.0311 4.09918 19.105 4.06 19.1854 4.0498C19.2659 4.06 19.3398 4.09918 19.3934 4.16C19.447 4.22082 19.4766 4.2991 19.4766 4.38017C19.4766 4.46123 19.447 4.53952 19.3934 4.60034C19.3398 4.66116 19.2659 4.70033 19.1854 4.71053Z" fill="#C87E56"/>
<path d="M18.3234 4.10213C18.1917 4.10213 18.0653 4.04978 17.9721 3.9566C17.8789 3.86342 17.8266 3.73704 17.8266 3.60526C17.8266 3.47349 17.8789 3.34711 17.9721 3.25393C18.0653 3.16075 18.1917 3.1084 18.3234 3.1084C18.4552 3.1084 18.5816 3.16075 18.6748 3.25393C18.768 3.34711 18.8203 3.47349 18.8203 3.60526C18.8203 3.73704 18.768 3.86342 18.6748 3.9566C18.5816 4.04978 18.4552 4.10213 18.3234 4.10213Z" fill="#C87E56"/>
<path d="M20.1986 34.9758C20.3038 34.9433 20.4173 34.9511 20.517 34.9976C20.6168 35.0441 20.6957 35.126 20.7385 35.2274C20.7813 35.3288 20.7849 35.4425 20.7486 35.5464C20.7124 35.6503 20.6388 35.737 20.5422 35.7898C20.4877 35.8195 20.4276 35.8375 20.3658 35.8426C20.3039 35.8477 20.2417 35.8397 20.1831 35.8193C20.1245 35.7988 20.0709 35.7663 20.0256 35.7238C19.9804 35.6814 19.9445 35.6299 19.9204 35.5727C19.8962 35.5155 19.8844 35.4539 19.8855 35.3919C19.8866 35.3299 19.9008 35.2687 19.927 35.2125C19.9532 35.1562 19.9909 35.1061 20.0377 35.0653C20.0845 35.0246 20.1393 34.9941 20.1986 34.9758Z" fill="#C87E56"/>
<path d="M20.3627 33.4121C20.4934 33.4121 20.6211 33.4509 20.7298 33.5235C20.8384 33.5961 20.9231 33.6993 20.9731 33.82C21.0231 33.9407 21.0362 34.0736 21.0107 34.2017C20.9852 34.3299 20.9223 34.4476 20.8299 34.54C20.7375 34.6324 20.6198 34.6954 20.4916 34.7209C20.3635 34.7464 20.2306 34.7333 20.1099 34.6833C19.9891 34.6332 19.8859 34.5486 19.8133 34.4399C19.7407 34.3313 19.702 34.2035 19.702 34.0728C19.7047 33.8984 19.7752 33.732 19.8985 33.6086C20.0219 33.4853 20.1883 33.4148 20.3627 33.4121Z" fill="#C87E56"/>
<path d="M18.6911 35.0724C18.6916 35.0167 18.7049 34.9618 18.7299 34.912C18.7549 34.8622 18.791 34.8188 18.8354 34.7851C18.8798 34.7514 18.9313 34.7283 18.9861 34.7177C19.0408 34.707 19.0972 34.709 19.151 34.7236H19.2091C19.2822 34.7443 19.3465 34.7883 19.3923 34.8488C19.4381 34.9094 19.4629 34.9833 19.4629 35.0592C19.4629 35.1352 19.4381 35.209 19.3923 35.2696C19.3465 35.3302 19.2822 35.3742 19.2091 35.3949H19.151C19.0993 35.4081 19.0454 35.4099 18.9929 35.4004C18.9404 35.3908 18.8906 35.37 18.847 35.3393C18.8033 35.3087 18.7667 35.269 18.7398 35.2229C18.7129 35.1769 18.6963 35.1255 18.6911 35.0724Z" fill="#C87E56"/>
<path d="M36.3371 16.825C36.2006 16.9511 36.0323 17.0376 35.8502 17.075C35.6682 17.1125 35.4794 17.0995 35.3042 17.0375C35.129 16.9754 34.9741 16.8667 34.8562 16.7231C34.7382 16.5794 34.6618 16.4063 34.6351 16.2224C34.6027 16.0639 34.5833 15.903 34.577 15.7414C34.5717 15.6728 34.5717 15.6038 34.577 15.5352C34.577 15.4665 34.614 15.2022 34.577 15.3502C34.5779 15.114 34.6621 14.8856 34.8148 14.7054C34.9801 14.5299 35.2082 14.4272 35.4491 14.4199C35.6529 14.4224 35.8525 14.4784 36.0278 14.5823C36.2031 14.6862 36.3481 14.8344 36.4481 15.0119C36.5463 15.1797 36.6071 15.3666 36.6262 15.5601C36.6454 15.7535 36.6225 15.9488 36.5591 16.1325C36.5745 16.2571 36.5626 16.3836 36.5242 16.5031C36.4859 16.6227 36.4221 16.7325 36.3371 16.825Z" fill="#C87E56"/>
<path d="M33.8694 12.9985H33.9011C33.988 13.0153 34.0707 13.0495 34.1442 13.0989C34.2729 13.1596 34.3773 13.262 34.4402 13.3896C34.5049 13.5048 34.5428 13.633 34.551 13.7648C34.5593 13.8966 34.5376 14.0285 34.4878 14.1508C34.4399 14.2651 34.3678 14.3677 34.2766 14.4516C34.1854 14.5356 34.0771 14.5988 33.9592 14.6371C33.8341 14.6717 33.702 14.6724 33.5766 14.6389C33.4511 14.6055 33.3369 14.5391 33.2456 14.4468L33.1082 14.3252C32.9854 14.1993 32.9067 14.0371 32.8838 13.8627C32.8609 13.6883 32.8952 13.5112 32.9813 13.3579C33.0772 13.2169 33.2127 13.1074 33.3708 13.0434C33.5289 12.9794 33.7024 12.9638 33.8694 12.9985Z" fill="#C87E56"/>
<path d="M34.9111 12.1582C35.0293 12.1706 35.1388 12.2264 35.2183 12.3147C35.2978 12.4031 35.3418 12.5177 35.3418 12.6366C35.3418 12.7554 35.2978 12.8701 35.2183 12.9584C35.1388 13.0467 35.0293 13.1025 34.9111 13.1149C34.7929 13.1025 34.6835 13.0467 34.604 12.9584C34.5245 12.8701 34.4805 12.7554 34.4805 12.6366C34.4805 12.5177 34.5245 12.4031 34.604 12.3147C34.6835 12.2264 34.7929 12.1706 34.9111 12.1582Z" fill="#C87E56"/>
<path d="M10.5736 18.1533C10.7175 18.1671 10.8512 18.234 10.9484 18.341C11.0457 18.4481 11.0996 18.5875 11.0996 18.7321C11.0996 18.8767 11.0457 19.0162 10.9484 19.1232C10.8512 19.2302 10.7175 19.2971 10.5736 19.3109C10.4296 19.2971 10.2959 19.2302 10.1987 19.1232C10.1014 19.0162 10.0475 18.8767 10.0475 18.7321C10.0475 18.5875 10.1014 18.4481 10.1987 18.341C10.2959 18.234 10.4296 18.1671 10.5736 18.1533Z" fill="#C87E56"/>
<path d="M6.37272 12.1406C6.5466 12.1558 6.70848 12.2356 6.82641 12.3643C6.94434 12.4929 7.00977 12.6612 7.00977 12.8357C7.00977 13.0102 6.94434 13.1784 6.82641 13.3071C6.70848 13.4358 6.5466 13.5156 6.37272 13.5308C6.19883 13.5156 6.03695 13.4358 5.91902 13.3071C5.80108 13.1784 5.73567 13.0102 5.73567 12.8357C5.73567 12.6612 5.80108 12.4929 5.91902 12.3643C6.03695 12.2356 6.19883 12.1558 6.37272 12.1406Z" fill="#C87E56"/>
<path d="M6.27307 11.6557C3.93147 11.6557 3.92618 8.02441 6.27307 8.02441C8.61995 8.02441 8.61467 11.6557 6.27307 11.6557Z" fill="#C87E56"/>
<path d="M11.378 8.82723C11.5544 8.88888 11.7019 9.01322 11.7925 9.17659C11.8831 9.33996 11.9105 9.53094 11.8694 9.71317C11.8283 9.89541 11.7216 10.0562 11.5696 10.1648C11.4177 10.2735 11.2311 10.3225 11.0454 10.3025C10.8596 10.2825 10.6877 10.1949 10.5624 10.0564C10.4371 9.91784 10.3671 9.73805 10.3657 9.55124C10.3644 9.36444 10.4318 9.18366 10.5551 9.04333C10.6784 8.903 10.849 8.81291 11.0344 8.79023C10.824 8.72442 10.6456 8.58268 10.5339 8.39258C10.4222 8.20248 10.3852 7.97762 10.4301 7.76176C10.475 7.5459 10.5987 7.35447 10.7769 7.22473C10.9552 7.09498 11.1754 7.03619 11.3946 7.05979C11.6138 7.0834 11.8164 7.18772 11.9629 7.35245C12.1095 7.51718 12.1895 7.73054 12.1875 7.95102C12.1854 8.1715 12.1014 8.38332 11.9518 8.54527C11.8021 8.70723 11.5976 8.80774 11.378 8.82723Z" fill="#C87E56"/>
<path d="M7.87221 25.9328C4.95974 25.9328 4.95446 21.4082 7.87221 21.4082C10.79 21.4082 10.7952 25.9328 7.87221 25.9328Z" fill="#C87E56"/>
<path d="M9.1747 27.042C9.38337 27.0326 9.58912 27.0937 9.75883 27.2155C9.92855 27.3372 10.0523 27.5126 10.1103 27.7133C10.2948 27.5537 10.5324 27.4688 10.7763 27.4754C12.1136 27.4754 12.1189 29.558 10.7763 29.558C10.5623 29.5657 10.352 29.501 10.1794 29.3744C10.0067 29.2478 9.88181 29.0667 9.82485 28.8603C9.64287 29.0124 9.41181 29.0931 9.1747 29.0876C7.85854 29.0876 7.85326 27.042 9.1747 27.042Z" fill="#C87E56"/>
<path d="M4.67314 25.6309C6.33287 25.6309 6.33816 28.205 4.67314 28.205C3.00812 28.205 3.01341 25.6309 4.67314 25.6309Z" fill="#C87E56"/>
<path d="M0.80442 19.791C2.7813 19.791 2.78659 22.8621 0.80442 22.8621C-1.17775 22.8621 -1.1566 19.791 0.80442 19.791Z" fill="#C87E56"/>
<path d="M2.87457 22.7988C4.51316 22.7988 4.51316 25.3466 2.87457 25.3466C1.23598 25.3466 1.2307 22.7988 2.87457 22.7988Z" fill="#C87E56"/>
<path d="M15.9696 34.3945C16.3022 34.3982 16.6315 34.4608 16.9422 34.5795C16.8116 34.4682 16.712 34.325 16.6532 34.1639C16.5944 34.0027 16.5783 33.829 16.6065 33.6598C16.6347 33.4905 16.7062 33.3315 16.8141 33.1981C16.9221 33.0647 17.0627 32.9616 17.2223 32.8986C17.0015 32.8435 16.8052 32.7164 16.6645 32.5375C16.5239 32.3585 16.4467 32.1378 16.4453 31.9102C16.4453 31.6382 16.5533 31.3774 16.7456 31.1851C16.938 30.9928 17.1988 30.8848 17.4707 30.8848C17.7427 30.8848 18.0035 30.9928 18.1958 31.1851C18.3881 31.3774 18.4962 31.6382 18.4962 31.9102C18.4898 32.127 18.417 32.3367 18.2874 32.5106C18.1579 32.6846 17.9779 32.8146 17.772 32.8828C17.9903 32.9494 18.1778 33.0915 18.301 33.2836C18.4242 33.4756 18.4751 33.7053 18.4446 33.9314C18.4141 34.1576 18.3042 34.3656 18.1345 34.5182C17.9648 34.6708 17.7464 34.7581 17.5183 34.7645C17.455 34.77 17.3913 34.77 17.328 34.7645C17.575 34.8893 17.8 35.0536 17.994 35.2508C18.2677 35.501 18.4717 35.8179 18.586 36.1705C18.765 36.5083 18.849 36.8883 18.8292 37.27C18.8273 38.0267 18.5273 38.7522 17.994 39.2892C17.4571 39.824 16.7301 40.1243 15.9722 40.1243C15.2144 40.1243 14.4874 39.824 13.9504 39.2892C13.4397 38.737 13.1418 38.0214 13.11 37.27C13.1104 36.8947 13.1849 36.5232 13.3291 36.1767C13.4733 35.8302 13.6845 35.5156 13.9504 35.2508C14.4902 34.7192 15.2122 34.413 15.9696 34.3945Z" fill="#C87E56"/>
<path d="M30.8622 30.0027H30.9309C30.7468 29.8221 30.6005 29.6066 30.5007 29.3689C30.4008 29.1311 30.3494 28.8758 30.3494 28.6179C30.3494 28.36 30.4008 28.1046 30.5007 27.8669C30.6005 27.6291 30.7468 27.4136 30.9309 27.233C31.3015 26.8743 31.7948 26.6702 32.3105 26.6621C32.8266 26.6681 33.3206 26.8725 33.69 27.233C34.0529 27.6009 34.2577 28.0959 34.2609 28.6126C34.2609 28.639 34.2609 28.6707 34.2609 28.7024C35.7568 28.7024 35.7568 31.0123 34.2609 31.0123C34.038 31.0204 33.8183 30.9577 33.6332 30.8334C33.448 30.709 33.307 30.5293 33.2302 30.3199C33.0416 30.4215 32.8383 30.4928 32.6276 30.5313C34.7419 32.0325 34.1499 36.2082 30.8622 36.2082C26.8608 36.2135 26.8555 30.0027 30.8622 30.0027Z" fill="#C87E56"/>
<path d="M35.9227 23.0729C35.8627 23.2003 35.7666 23.3073 35.6463 23.3806C35.526 23.4539 35.3869 23.4903 35.2461 23.4852C35.0358 23.4852 34.8342 23.4016 34.6855 23.2529C34.5368 23.1043 34.4532 22.9026 34.4532 22.6923C34.4532 22.482 34.5368 22.2804 34.6855 22.1317C34.8342 21.983 35.0358 21.8994 35.2461 21.8994H35.2778C35.1953 21.6508 35.1577 21.3895 35.1668 21.1277C35.1668 21.0431 35.1668 20.9586 35.1668 20.8793C35.0853 20.9791 34.9819 21.0587 34.8645 21.1119C34.7471 21.1651 34.619 21.1904 34.4902 21.1859C34.2491 21.1859 34.0179 21.0901 33.8474 20.9196C33.6769 20.7491 33.5811 20.5178 33.5811 20.2767C33.5811 20.0356 33.6769 19.8043 33.8474 19.6338C34.0179 19.4633 34.2491 19.3675 34.4902 19.3675C34.6964 19.36 34.8981 19.4286 35.057 19.5602C35.2159 19.6917 35.3208 19.8772 35.3518 20.0811C35.481 19.7 35.7025 19.3568 35.9967 19.0821C36.5397 18.5405 37.2753 18.2363 38.0423 18.2363C38.8092 18.2363 39.5449 18.5405 40.0879 19.0821C40.6031 19.6423 40.9028 20.3672 40.9336 21.1277C40.9305 21.8925 40.6267 22.6253 40.0879 23.168C39.5374 23.6984 38.8065 24.0005 38.0423 24.0137C37.2771 24.0048 36.5447 23.702 35.9967 23.168L35.9227 23.0729Z" fill="#C87E56"/>
<path d="M31.6415 22.0269C31.6415 21.8178 31.7035 21.6134 31.8197 21.4396C31.9359 21.2657 32.101 21.1302 32.2941 21.0502C32.4873 20.9702 32.6999 20.9492 32.9049 20.99C33.11 21.0308 33.2984 21.1315 33.4462 21.2794C33.5941 21.4272 33.6948 21.6156 33.7355 21.8206C33.7763 22.0257 33.7554 22.2383 33.6754 22.4314C33.5954 22.6246 33.4599 22.7897 33.286 22.9059C33.1122 23.022 32.9078 23.084 32.6987 23.084C32.4209 23.0761 32.1566 22.9621 31.96 22.7656C31.7635 22.569 31.6495 22.3047 31.6415 22.0269Z" fill="#C87E56"/>
<path d="M35.3139 26.9043C35.4891 26.9043 35.6572 26.9739 35.7811 27.0978C35.905 27.2217 35.9746 27.3898 35.9746 27.565C35.9746 27.7403 35.905 27.9083 35.7811 28.0322C35.6572 28.1561 35.4891 28.2257 35.3139 28.2257C35.1387 28.2257 34.9706 28.1561 34.8467 28.0322C34.7228 27.9083 34.6532 27.7403 34.6532 27.565C34.6532 27.3898 34.7228 27.2217 34.8467 27.0978C34.9706 26.9739 35.1387 26.9043 35.3139 26.9043Z" fill="#C87E56"/>
<path d="M37.8632 16.9419C37.7878 16.944 37.7127 16.9311 37.6423 16.904C37.5719 16.877 37.5075 16.8362 37.453 16.7841C37.3984 16.732 37.3547 16.6696 37.3244 16.6005C37.2941 16.5314 37.2778 16.457 37.2765 16.3816C37.2805 16.2334 37.3416 16.0924 37.4469 15.988C37.5523 15.8837 37.6938 15.824 37.8421 15.8213C37.9906 15.8213 38.1332 15.8803 38.2382 15.9854C38.3433 16.0905 38.4023 16.233 38.4023 16.3816C38.4023 16.5302 38.3433 16.6727 38.2382 16.7778C38.1332 16.8828 37.9906 16.9419 37.8421 16.9419H37.8632Z" fill="#C87E56"/>
<path d="M31.2387 15.1286C30.9615 15.2806 30.643 15.3405 30.3295 15.2997C30.0159 15.2588 29.7235 15.1193 29.4944 14.9013H29.468C29.2072 14.6363 29.061 14.2794 29.061 13.9076C29.061 13.5357 29.2072 13.1788 29.468 12.9138H29.4944C29.7004 12.714 29.9606 12.5794 30.2427 12.5267C30.5247 12.4741 30.816 12.5058 31.0802 12.6178C31.3405 12.7245 31.5633 12.906 31.7204 13.1393C31.8776 13.3727 31.9619 13.6474 31.9629 13.9287C31.9493 14.1726 31.8763 14.4095 31.75 14.6187C31.6238 14.8279 31.4482 15.0029 31.2387 15.1286Z" fill="#C87E56"/>
<path d="M34.669 10.9727C34.3264 10.9699 33.9986 10.8326 33.7564 10.5903C33.5141 10.348 33.3768 10.0203 33.374 9.67765C33.373 9.42003 33.4485 9.1679 33.591 8.95326C33.7334 8.73862 33.9365 8.57114 34.1743 8.47207C34.4121 8.37299 34.674 8.34679 34.9267 8.3968C35.1794 8.4468 35.4116 8.57075 35.5938 8.75292C35.7759 8.93509 35.8999 9.16726 35.9499 9.41999C35.9999 9.67271 35.9737 9.93459 35.8746 10.1724C35.7755 10.4102 35.6081 10.6132 35.3934 10.7557C35.1788 10.8982 34.9267 10.9737 34.669 10.9727Z" fill="#C87E56"/>
<path d="M2.84226 13.5423C3.25192 13.7443 3.59624 14.0578 3.83562 14.4468C4.075 14.8358 4.19971 15.2844 4.19541 15.7412C4.32267 15.6616 4.46661 15.6126 4.61597 15.5979C4.76532 15.5832 4.91605 15.6033 5.05635 15.6566C5.19665 15.7099 5.32271 15.7949 5.42467 15.9051C5.52663 16.0152 5.60173 16.1474 5.64407 16.2914C5.68642 16.4354 5.69487 16.5872 5.66877 16.735C5.64267 16.8828 5.58271 17.0225 5.49361 17.1433C5.4045 17.264 5.28865 17.3625 5.15514 17.4311C5.02162 17.4996 4.87405 17.5363 4.72399 17.5383C4.55897 17.5449 4.39537 17.5054 4.25157 17.4242C4.10777 17.3429 3.98948 17.2232 3.90998 17.0785C3.71569 17.4695 3.41311 17.7965 3.03826 18.0205C2.66342 18.2444 2.2321 18.356 1.79567 18.3418C-1.03222 18.3418 -1.37579 14.5043 0.738515 13.5423C-0.810216 12.612 -0.456069 9.65723 1.79567 9.65723C4.04741 9.65723 4.39099 12.612 2.84226 13.5423Z" fill="#C87E56"/>
<path d="M3.52915 9.28793C3.38111 9.27396 3.24361 9.20527 3.14353 9.0953C3.04345 8.98532 2.98798 8.84198 2.98798 8.69328C2.98798 8.54459 3.04345 8.40124 3.14353 8.29127C3.24361 8.1813 3.38111 8.11261 3.52915 8.09863C3.67719 8.11261 3.81469 8.1813 3.91477 8.29127C4.01485 8.40124 4.07031 8.54459 4.07031 8.69328C4.07031 8.84198 4.01485 8.98532 3.91477 9.0953C3.81469 9.20527 3.67719 9.27396 3.52915 9.28793Z" fill="#C87E56"/>
<path d="M9.29688 18.9289C9.28876 19.2777 9.14622 19.6099 8.899 19.8561C8.65178 20.1024 8.319 20.2436 7.97014 20.2503C7.70902 20.2493 7.45405 20.1709 7.23744 20.025C7.02082 19.8792 6.85227 19.6724 6.75307 19.4309C6.65386 19.1893 6.62844 18.9238 6.68003 18.6678C6.73161 18.4118 6.85788 18.1769 7.0429 17.9926C7.22791 17.8083 7.46338 17.683 7.71957 17.6324C7.97576 17.5819 8.24119 17.6083 8.48234 17.7085C8.7235 17.8087 8.92956 17.9781 9.07453 18.1953C9.2195 18.4124 9.29687 18.6677 9.29688 18.9289Z" fill="#C87E56"/>
<path d="M20.4194 33.3756C17.8875 33.3756 17.8822 29.4482 20.4194 29.4482C22.9566 29.4482 22.9513 33.3756 20.4194 33.3756Z" fill="#C87E56"/>
<path d="M14.9209 33.633C13.4091 33.633 13.4038 31.2861 14.9209 31.2861C16.4379 31.2861 16.4326 33.633 14.9209 33.633Z" fill="#C87E56"/>
<path d="M11.6731 33C13.1637 33 13.1637 35.3152 11.6731 35.3152C10.1825 35.3152 10.1825 33 11.6731 33Z" fill="#C87E56"/>
<path d="M25.9646 28.6445C28.116 28.6445 28.116 31.9799 25.9646 31.9799C23.8133 31.9799 23.8133 28.6445 25.9646 28.6445Z" fill="#C87E56"/>
<path d="M13.2294 22.2734C13.7223 22.2864 14.1922 22.4846 14.5455 22.8284C14.8883 23.1911 15.0777 23.6721 15.0741 24.171C15.0791 24.6687 14.8894 25.1485 14.5455 25.5083C14.1889 25.8634 13.7062 26.0627 13.203 26.0627C12.6997 26.0627 12.217 25.8634 11.8604 25.5083C11.5056 25.1526 11.3064 24.6707 11.3064 24.1684C11.3064 23.666 11.5056 23.1842 11.8604 22.8284C12.2285 22.4744 12.7187 22.2757 13.2294 22.2734Z" fill="#C87E56"/>
<path d="M18.4293 27.9681C18.4246 28.6456 18.1553 29.2943 17.6787 29.7759C17.1939 30.2514 16.5447 30.5221 15.8657 30.5317C15.1893 30.5221 14.5423 30.2535 14.058 29.7812C13.5982 29.2887 13.3316 28.6467 13.3074 27.9734C13.3078 27.2936 13.5777 26.6416 14.058 26.1604C14.5392 25.6824 15.19 25.4141 15.8684 25.4141C16.5467 25.4141 17.1975 25.6824 17.6787 26.1604C17.9237 26.3846 18.1059 26.6688 18.2073 26.985C18.3696 27.2863 18.4464 27.6263 18.4293 27.9681Z" fill="#C87E56"/>
<path d="M12.9624 29.374C14.4318 29.374 14.4318 31.6522 12.9624 31.6522C11.4929 31.6522 11.5035 29.374 12.9624 29.374Z" fill="#C87E56"/>
</g>
</g>
<g style="mix-blend-mode:multiply" opacity="0.6">
<path d="M6.01459 5.625C3.73542 9.54982 2.96628 14.1713 3.85139 18.6227C4.7365 23.0742 7.21507 27.0498 10.8223 29.8042C14.4295 32.5586 18.9177 33.9025 23.4451 33.5839C27.9724 33.2653 32.2281 31.3061 35.4141 28.0737C34.0853 30.3619 32.2846 32.3411 30.1318 33.8796C27.9789 35.418 25.5233 36.4806 22.928 36.9967C20.3327 37.5127 17.6574 37.4704 15.0797 36.8724C12.5021 36.2745 10.0813 35.1348 7.97822 33.5289C5.87515 31.9231 4.13802 29.8879 2.88231 27.5588C1.62661 25.2297 0.881096 22.6599 0.695351 20.0204C0.509602 17.3808 0.887871 14.732 1.80501 12.25C2.72215 9.76792 4.15714 7.50956 6.01459 5.625Z" fill="#DDC3A3"/>
</g>
<g style="mix-blend-mode:multiply" opacity="0.25">
<path d="M7.23036 4.5C5.659 8.36515 5.42964 12.6457 6.57899 16.6566C7.72833 20.6676 10.1899 24.177 13.5699 26.6234C16.9498 29.0697 21.0527 30.3115 25.2219 30.1501C29.3912 29.9887 33.3857 28.4333 36.5664 25.733C35.5021 28.3508 33.8567 30.6924 31.7545 32.5808C29.6522 34.4692 27.1482 35.855 24.4316 36.6335C21.7151 37.4119 18.8571 37.5626 16.0738 37.0742C13.2904 36.5857 10.6546 35.4709 8.36539 33.8141C6.0762 32.1572 4.19363 30.0016 2.85999 27.5102C1.52633 25.0188 0.776501 22.2569 0.667164 19.4331C0.557831 16.6094 1.09186 13.7977 2.22887 11.2107C3.36589 8.62362 5.07615 6.32892 7.23036 4.5Z" fill="#DDC3A3"/>
</g>
<g style="mix-blend-mode:screen" opacity="0.27">
<path d="M3.67796 8.52169C5.36298 5.93678 7.6636 3.81081 10.3732 2.33468C13.0829 0.85854 16.1167 0.0784485 19.2023 0.0644531H19.2974C19.5828 0.0644531 19.8683 0.0644531 20.1484 0.0644531H20.3704C20.6347 0.0644531 20.899 0.101451 21.158 0.12788H21.2162L22.0354 0.233594L22.2575 0.270598L22.9605 0.392169L23.082 0.418599C23.341 0.471457 23.6106 0.529601 23.8538 0.593031L24.0969 0.656457C24.2978 0.714601 24.5039 0.76746 24.7048 0.830889L24.8898 0.88375C25.1276 0.957751 25.3655 1.04232 25.5981 1.12689L25.8676 1.22732L26.3962 1.42289L26.6446 1.52861C26.8614 1.61847 27.0728 1.71361 27.2842 1.81404L27.5908 1.96734L27.9872 2.16819L28.2991 2.33205L28.8647 2.65448L29.2082 2.8712C29.3087 2.92934 29.4038 2.99277 29.499 3.0562C29.7527 3.22006 30.0275 3.38921 30.2443 3.58478L30.3447 3.65878L30.7305 3.9495L30.9208 4.0975C31.3384 4.43051 31.7454 4.78465 32.1366 5.15466L32.2423 5.25508C32.6546 5.64623 33.0404 6.05852 33.4157 6.48667L33.4633 6.53953C33.8439 6.98882 34.2086 7.45397 34.5522 7.93497C36.8243 11.1499 38.0192 15.0023 37.965 18.9387C37.9109 22.8752 36.6106 26.6932 34.2509 29.8445C36.1055 27.0063 37.1489 23.715 37.2681 20.3266C37.3874 16.9382 36.578 13.5817 34.9275 10.6201C33.8496 12.38 32.2268 13.7399 30.3056 14.4933C28.3843 15.2467 26.2697 15.3525 24.2829 14.7945C22.2961 14.2365 20.5457 13.0452 19.2976 11.4017C18.0496 9.75817 17.3721 7.75219 17.3681 5.68852C17.3668 4.07572 17.7819 2.48989 18.5733 1.0846C15.6836 1.08317 12.8333 1.75444 10.2479 3.04527C7.66258 4.33611 5.41324 6.21106 3.67796 8.52169Z" fill="#DDC3A3"/>
</g>
<g style="mix-blend-mode:screen" opacity="0.68">
<path d="M4.07929 7.93066C1.27554 12.0038 0.204681 17.0239 1.10228 21.8866C1.99988 26.7493 4.79241 31.0563 8.86556 33.86C12.9387 36.6638 17.9588 37.7346 22.8215 36.837C27.6842 35.9394 31.9912 33.1469 34.7949 29.0738C33.4066 31.0906 31.6347 32.8142 29.5803 34.1462C27.5259 35.4783 25.2293 36.3926 22.8215 36.837C20.4137 37.2815 17.942 37.2473 15.5474 36.7365C13.1529 36.2257 10.8824 35.2483 8.86556 33.86C6.84874 32.4717 5.12511 30.6998 3.79309 28.6454C2.46106 26.591 1.54673 24.2944 1.10228 21.8866C0.657833 19.4788 0.691982 17.0071 1.20278 14.6126C1.71358 12.218 2.69101 9.94748 4.07929 7.93066Z" fill="#DDC3A3"/>
</g>
<g style="mix-blend-mode:overlay" opacity="0.46">
<path d="M37.9258 17.751C35.6815 20.9581 32.277 23.1657 28.4334 23.9062C24.5897 24.6468 20.6087 23.8622 17.3335 21.7186C14.0582 19.5749 11.746 16.2406 10.8865 12.4218C10.0269 8.60299 10.6876 4.59954 12.7285 1.25935C15.4746 0.226127 18.4256 -0.144748 21.342 0.176851C24.2583 0.49845 27.0577 1.50345 29.5126 3.11022C31.9676 4.71698 34.0089 6.88019 35.4707 9.4241C36.9325 11.968 37.7737 14.8209 37.9258 17.751Z" fill="#DDC3A3"/>
</g>
<path style="mix-blend-mode:color-dodge" opacity="0.68" d="M24.1075 17.1867C19.644 17.1867 16.0256 13.573 16.0256 9.11532C16.0256 4.65762 19.644 1.04395 24.1075 1.04395C28.571 1.04395 32.1895 4.65762 32.1895 9.11532C32.1895 13.573 28.571 17.1867 24.1075 17.1867Z" fill="url(#paint1_radial_1166_43577)"/>
<g style="mix-blend-mode:multiply" opacity="0.42">
<path d="M18.0005 11.3985C16.8482 14.7021 13.6503 14.4114 13.9199 17.8207C14.1895 21.23 15.7541 24.8402 12.6037 25.7493C9.45342 26.6585 6.26081 26.6585 2.81977 24.1636C2.14319 23.672 1.47718 22.6307 0.832315 21.267C0.713694 20.4141 0.65365 19.554 0.652601 18.6928C0.655983 14.4545 2.10346 10.3438 4.75642 7.03839C7.40937 3.733 11.1094 1.43026 15.2466 0.509766C17.3345 3.94552 18.9097 8.79258 18.0005 11.3985Z" fill="url(#paint2_linear_1166_43577)"/>
<path d="M18.4777 30.0028C19.8309 24.2783 26.6495 22.8247 30.3125 23.5806C33.3096 24.1885 35.8309 22.0742 37.9082 19.9229C37.6745 23.4187 36.4607 26.7779 34.4059 29.6157C32.351 32.4535 29.5383 34.6551 26.29 35.9681C23.0417 37.2811 19.4893 37.6524 16.0396 37.0396C12.59 36.4267 9.38284 34.8545 6.78557 32.503C10.845 33.2747 17.5421 33.8879 18.4777 30.0028Z" fill="url(#paint3_linear_1166_43577)"/>
</g>
<path style="mix-blend-mode:screen" opacity="0.49" d="M2.31044 10.9375C2.21639 15.2432 3.6143 19.449 6.26715 22.8417C8.92001 26.2344 12.6645 28.6053 16.8659 29.5523C21.0672 30.4994 25.4668 29.9643 29.3187 28.0379C33.1706 26.1114 36.2377 22.9121 38 18.9824C37.9358 21.744 37.2592 24.4568 36.0192 26.9251C34.7791 29.3934 33.0065 31.5556 30.8293 33.2556C28.6521 34.9556 26.1245 36.1509 23.4292 36.7554C20.7338 37.3598 17.9379 37.3583 15.2432 36.7509C12.5486 36.1434 10.0224 34.9453 7.84701 33.2429C5.67165 31.5405 3.90141 29.3764 2.66408 26.9067C1.42675 24.4371 0.753193 21.7235 0.692039 18.9619C0.630882 16.2003 1.18365 13.4595 2.31044 10.9375Z" fill="url(#paint4_linear_1166_43577)"/>
<path style="mix-blend-mode:screen" opacity="0.49" d="M11.7417 1.53809C8.78645 4.67278 7.00772 8.73399 6.70772 13.0316C6.40773 17.3293 7.60497 21.5982 10.096 25.1131C12.5871 28.6279 16.2183 31.1719 20.3726 32.3127C24.5269 33.4535 28.948 33.1208 32.8848 31.371C30.9919 33.3844 28.6754 34.9522 26.1026 35.9608C23.5298 36.9695 20.765 37.394 18.0081 37.2035C15.2512 37.013 12.5711 36.2123 10.1614 34.8593C7.75182 33.5064 5.67291 31.6349 4.075 29.3803C2.47709 27.1256 1.4001 24.5441 0.921883 21.8223C0.443665 19.1005 0.576172 16.3065 1.30982 13.6422C2.04347 10.9779 3.35993 8.50989 5.16404 6.41657C6.96814 4.32326 9.21482 2.65694 11.7417 1.53809Z" fill="url(#paint5_linear_1166_43577)"/>
<defs>
<linearGradient id="paint0_linear_1166_43577" x1="32.4798" y1="5.51409" x2="6.11438" y2="31.8795" gradientUnits="userSpaceOnUse">
<stop stop-color="#FF0000"/>
<stop offset="1" stop-color="#957635"/>
</linearGradient>
<radialGradient id="paint1_radial_1166_43577" cx="0" cy="0" r="1" gradientUnits="userSpaceOnUse" gradientTransform="translate(24.1445 9.11532) rotate(180) scale(8.07138 8.07138)">
<stop stop-color="#ECECEC"/>
<stop offset="0.47" stop-color="#F1F1F1"/>
<stop offset="1" stop-color="white"/>
</radialGradient>
<linearGradient id="paint2_linear_1166_43577" x1="18.2648" y1="13.4176" x2="0.652602" y2="13.4176" gradientUnits="userSpaceOnUse">
<stop stop-color="#FF0000"/>
<stop offset="1" stop-color="#957635"/>
</linearGradient>
<linearGradient id="paint3_linear_1166_43577" x1="37.9082" y1="28.6232" x2="6.78556" y2="28.6232" gradientUnits="userSpaceOnUse">
<stop stop-color="#FF0000"/>
<stop offset="1" stop-color="#957635"/>
</linearGradient>
<linearGradient id="paint4_linear_1166_43577" x1="21.0869" y1="11.2273" x2="14.9621" y2="36.7731" gradientUnits="userSpaceOnUse">
<stop offset="0.24" stop-color="white"/>
<stop offset="0.92" stop-color="white"/>
<stop offset="1" stop-color="white"/>
</linearGradient>
<linearGradient id="paint5_linear_1166_43577" x1="25.7557" y1="13.972" x2="4.19739" y2="28.8168" gradientUnits="userSpaceOnUse">
<stop offset="0.24" stop-color="white"/>
<stop offset="0.92" stop-color="white"/>
<stop offset="1" stop-color="white"/>
</linearGradient>
</defs>
</svg>
