<svg width="46" height="34" viewBox="0 0 46 34" fill="none" xmlns="http://www.w3.org/2000/svg">
<path d="M23.2768 33.9989C32.6653 33.9989 40.2762 26.388 40.2762 16.9994C40.2762 7.61091 32.6653 0 23.2768 0C13.8883 0 6.27734 7.61091 6.27734 16.9994C6.27734 26.388 13.8883 33.9989 23.2768 33.9989Z" fill="#005DC6"/>
<path opacity="0.63" d="M23.2721 1.42032e-08C22.7287 1.42032e-08 22.195 0.0291104 21.6662 0.0776248C21.4043 0.101882 20.7348 2.3481 20.6377 2.64404C20.1157 4.0759 19.8322 5.58369 19.7984 7.10736C19.779 7.84515 19.943 8.57622 20.2758 9.23498C20.6086 9.89375 21.0997 10.4596 21.705 10.8818C22.85 11.6483 24.1308 11.5367 25.4843 11.5416C27.2939 11.5416 29.1132 11.2214 30.8985 11.5076C32.294 11.7278 33.6453 12.1701 34.901 12.8175C36.425 13.5978 37.6842 14.8114 38.5201 16.3057C38.9754 17.2377 39.2346 18.2532 39.2818 19.2893C39.3255 19.8036 39.34 20.3227 39.374 20.8418C39.463 21.2191 39.5149 21.6042 39.5292 21.9916C40.3093 19.4487 40.4821 16.7583 40.0335 14.1366C39.5849 11.5149 38.5276 9.03493 36.9464 6.89608C35.3653 4.75723 33.3045 3.01912 30.9296 1.82144C28.5546 0.623752 25.9319 -0.000108689 23.2721 1.42032e-08Z" fill="#247EE2"/>
<path opacity="0.63" d="M6.65044 20.5412C7.40764 24.1123 9.29561 27.3444 12.0344 29.7581C14.7731 32.1717 18.2168 33.6385 21.8549 33.9408C22.7475 34.0136 21.2339 28.8905 20.9913 28.4296C19.5068 25.6206 16.9209 23.6267 14.9804 21.1524C14.3668 20.4651 14.0132 19.5845 13.981 18.6637C14.0926 14.8504 21.0592 16.7522 20.8166 12.7255C20.73 11.8541 20.3028 11.0521 19.628 10.4938C18.2842 9.32464 16.5231 8.8589 14.8882 8.26702C14.1151 8.0154 13.3792 7.66133 12.7002 7.21426C12.5013 7.07356 10.6917 5.55507 10.9197 5.3125C9.02588 7.31397 7.64757 9.74626 6.90377 12.3994C6.15997 15.0526 6.07303 17.8469 6.65044 20.5412Z" fill="#247EE2"/>
<path opacity="0.47" d="M15.9454 19.0026C15.9794 20.1136 17.3087 20.9189 18.2741 21.2439C18.432 21.302 18.6008 21.3247 18.7684 21.3105C18.9361 21.2962 19.0985 21.2454 19.2444 21.1615C19.7586 20.8122 19.5985 20.2591 19.6276 19.7497C19.6568 19.2403 19.846 18.498 19.5258 18.0371C18.832 17.0377 16.3917 17.2852 16.0036 18.4738C15.9519 18.645 15.9322 18.8242 15.9454 19.0026Z" fill="#154B86"/>
<path opacity="0.63" d="M11.918 4.35045C12.443 4.89299 13.1192 5.2649 13.8585 5.41777C14.5377 5.57302 15.3819 5.55846 15.7991 4.98599C16.2163 4.41352 15.9835 3.70035 16.2503 3.10363C16.4059 2.83766 16.616 2.60766 16.8669 2.42872C17.1177 2.24978 17.4036 2.12597 17.7057 2.06543C18.306 1.94541 18.8882 1.7481 19.4377 1.47841C19.8958 1.19651 20.2394 0.761748 20.408 0.250977C17.2478 0.788657 14.3043 2.20994 11.918 4.35045Z" fill="#247EE2"/>
<path opacity="0.25" d="M32.3362 13.9873C32.01 13.9904 31.685 14.0262 31.3659 14.094C30.3665 14.3172 28.9014 15.1807 29.7747 16.4179C30.1492 16.8521 30.6438 17.166 31.1961 17.3202C31.7474 17.4682 32.256 17.7441 32.6807 18.1256C33.3793 18.8679 33.2726 20.0661 32.8262 20.9976C32.3799 21.9291 31.6667 22.6811 31.201 23.5931C30.7352 24.5052 30.5654 25.6938 31.201 26.504C31.5347 26.851 31.969 27.0844 32.4425 27.1715C32.916 27.2585 33.4048 27.1947 33.8402 26.9892C34.7047 26.5575 35.4246 25.8831 35.9117 25.0486C37.0048 23.4843 37.5877 21.6204 37.5806 19.712C37.5665 18.768 37.3361 17.8399 36.9071 16.9988C36.4782 16.1578 35.8622 15.4263 35.1064 14.8606C34.2938 14.2934 33.3271 13.9887 32.3362 13.9873Z" fill="#154B86"/>
<path opacity="0.47" d="M14.4503 22.6622C13.7008 22.1118 13.0114 21.4842 12.3933 20.7895C12.0846 20.4407 11.8563 20.0282 11.7247 19.5814C11.593 19.1345 11.5613 18.6642 11.6316 18.2037C11.9421 16.7919 13.4267 16.0448 14.6492 15.2686C15.2046 14.955 15.6808 14.5186 16.0416 13.9927C16.2175 13.7263 16.3197 13.4179 16.3376 13.0992C16.3555 12.7804 16.2885 12.4626 16.1435 12.1782C15.7117 11.4602 14.7656 11.3001 13.9652 11.0527C13.1028 10.7754 12.3049 10.3276 11.619 9.73592C10.9331 9.14419 10.3731 8.4206 9.97242 7.60816C9.85266 7.35124 9.74897 7.08715 9.66194 6.81738C8.0173 9.00835 6.9272 11.5647 6.48469 14.2683C6.04218 16.9719 6.26041 19.7424 7.12072 22.3433C7.98103 24.9443 9.4579 27.2985 11.4253 29.2049C13.3926 31.1114 15.7921 32.5135 18.4188 33.2917C18.7217 32.7909 18.949 32.2482 19.0931 31.681C19.2519 30.8228 19.2003 29.9388 18.9427 29.1049C18.2684 26.5385 16.4976 24.365 14.4503 22.6622Z" fill="#368BEA"/>
<path opacity="0.47" d="M23.6028 0.00878906C23.2583 0.697694 22.9915 1.43513 22.8169 1.8572C22.2123 3.3145 21.7997 4.84418 21.5895 6.40784C21.471 7.00224 21.5078 7.61713 21.6962 8.19318C21.8633 8.53647 22.1051 8.83796 22.404 9.07554C22.7029 9.31312 23.0512 9.48076 23.4233 9.56613C24.1688 9.72935 24.937 9.76219 25.6938 9.66317C27.3627 9.52733 29.0267 9.27504 30.7005 9.27504C32.3865 9.21905 34.0582 9.60188 35.5519 10.386C36.7926 11.1553 37.8466 12.1911 38.6374 13.4182C39.262 14.3202 39.8013 15.2785 40.2481 16.2805C40.0684 11.9583 38.2458 7.86765 35.1524 4.84365C32.059 1.81965 27.928 0.0903387 23.6028 0.00878906Z" fill="#368BEA"/>
<path opacity="0.47" d="M32.8838 17.1783C34.0142 18.0806 34.2665 19.7544 33.9172 21.1613C33.6406 22.3014 33.0294 23.3833 33.0391 24.5573C33.0305 24.6866 33.0573 24.8157 33.1167 24.9309C33.2962 25.222 33.7377 25.1637 34.0481 25.0182C35.5958 24.3147 36.3817 22.51 36.4302 20.8072C36.4937 19.4907 36.1145 18.191 35.3532 17.1152C35.0133 16.6418 34.5793 16.2436 34.0784 15.9456C33.5776 15.6475 33.0206 15.4561 32.4423 15.3832C31.9572 15.3541 31.6224 15.5094 31.7437 16.0624C31.865 16.6155 32.4957 16.8726 32.8838 17.1783Z" fill="#368BEA"/>
<g opacity="0.32">
<path d="M30.534 19.3165C30.4709 20.4808 29.3114 20.8058 28.8942 21.7422C28.6904 22.2273 28.8942 22.9405 29.5443 22.8774C31.1695 22.7222 32.5425 20.6652 31.97 19.1175C31.9151 18.952 31.8041 18.8108 31.6561 18.7186C31.5081 18.6263 31.3324 18.5887 31.1596 18.6124C30.9868 18.636 30.8277 18.7193 30.7099 18.8479C30.5921 18.9765 30.523 19.1422 30.5146 19.3165H30.534Z" fill="#368BEA"/>
</g>
<g opacity="0.32">
<path d="M28.7752 24.0076C27.6837 24.9779 27.7273 26.8311 28.4599 28.01C29.0906 29.0191 30.6091 30.1495 31.7103 29.1841C31.8328 29.0522 31.9008 28.8789 31.9008 28.699C31.9008 28.519 31.8328 28.3457 31.7103 28.2138C31.1961 27.6219 30.3665 27.6268 29.9735 26.8651C29.5806 26.1034 29.7455 25.0992 29.5757 24.2259C29.5516 24.1465 29.5075 24.0746 29.4476 24.0171C29.3878 23.9596 29.3142 23.9184 29.2339 23.8975C29.1536 23.8766 29.0692 23.8766 28.9889 23.8976C28.9086 23.9186 28.835 23.9598 28.7752 24.0173V24.0076Z" fill="#368BEA"/>
</g>
<g opacity="0.32">
<path d="M26.2455 25.5103C26.0952 25.6334 25.9924 25.8049 25.9544 25.9954C25.8283 26.6115 25.8671 27.6934 26.5851 27.936C26.6755 27.9632 26.7724 27.9594 26.8603 27.9251C26.9483 27.8908 27.0222 27.828 27.0703 27.7468C27.3807 27.2616 27.1382 26.7328 27.0703 26.2283C27.0217 25.8838 27.0314 25.3016 26.4929 25.4084C26.4035 25.4221 26.3187 25.4571 26.2455 25.5103Z" fill="#368BEA"/>
</g>
<g opacity="0.47">
<path d="M17.8307 3.59606C17.544 3.8658 17.3417 4.21298 17.2485 4.59546C17.0933 5.78891 16.9526 6.2304 15.6864 6.40505C15.6233 6.42129 15.5642 6.45003 15.5126 6.48958C15.4609 6.52912 15.4177 6.57865 15.3856 6.63523C15.3534 6.69181 15.333 6.75429 15.3255 6.81892C15.318 6.88356 15.3236 6.94905 15.3419 7.01148C15.7106 8.05454 17.2437 7.49663 17.8792 6.98237C18.5148 6.46812 18.6651 5.66763 18.6312 4.85744C18.6118 4.45962 18.5827 2.91201 17.8307 3.59606Z" fill="#154B86"/>
</g>
<path opacity="0.47" d="M18.9173 18.9981C18.8508 18.6135 18.6432 18.2675 18.3351 18.0278C18.128 17.9103 17.8871 17.8664 17.6518 17.9034C17.4165 17.9404 17.2008 18.0561 17.0397 18.2316C15.5164 19.7938 19.4315 21.4238 18.9173 18.9981Z" fill="#368BEA"/>
<g opacity="0.47">
<path d="M14.9516 13.6954C14.1365 13.317 13.0644 13.7293 12.3658 14.2242C11.6671 14.719 10.823 15.5486 11.1044 16.451C11.1514 16.5655 11.2349 16.6613 11.3419 16.7236C11.4489 16.7859 11.5734 16.8111 11.6963 16.7954C12.3658 16.6936 12.7878 15.995 13.3263 15.6311C14.2627 14.9956 14.4664 15.1459 15.0583 14.5977C15.1297 14.5412 15.1854 14.4673 15.2202 14.3831C15.255 14.2989 15.2676 14.2072 15.2569 14.1168C15.2462 14.0263 15.2125 13.9401 15.1591 13.8663C15.1056 13.7926 15.0342 13.7337 14.9516 13.6954Z" fill="#154B86"/>
</g>
<g opacity="0.47">
<path d="M9.67031 18.3524C8.86012 20.1717 9.89834 22.1414 11.3635 23.2961C12.4356 24.1402 13.4253 24.6981 14.1773 25.8819C14.9293 27.0656 14.9972 28.4531 15.8219 29.5496C15.8704 29.6267 15.9377 29.6904 16.0174 29.7345C16.0972 29.7785 16.1869 29.8017 16.278 29.8017C16.3691 29.8017 16.4588 29.7785 16.5385 29.7345C16.6183 29.6904 16.6855 29.6267 16.734 29.5496C17.9226 27.7982 16.5933 25.3579 15.3223 24.0141C14.5084 23.2534 13.5923 22.61 12.6006 22.1026C11.1015 21.2051 10.791 19.9971 10.301 18.4349C10.2185 18.1778 9.81586 18.0662 9.67031 18.3524Z" fill="#154B86"/>
</g>
<g opacity="0.47">
<path d="M12.0139 26.5416C12.1982 26.9492 12.4117 27.347 12.5815 27.7545C12.795 28.2397 12.8386 28.7248 13.3092 29.045C13.453 29.1313 13.6215 29.1667 13.7879 29.1456C13.9542 29.1245 14.1085 29.048 14.2262 28.9286C14.7453 28.3464 14.5366 27.5702 14.1097 26.988C13.7331 26.496 13.2301 26.1154 12.6543 25.8867C12.5632 25.8399 12.4596 25.8231 12.3583 25.8387C12.2571 25.8544 12.1634 25.9017 12.0906 25.9738C12.0179 26.046 11.9699 26.1393 11.9535 26.2405C11.9371 26.3416 11.9532 26.4453 11.9993 26.5368L12.0139 26.5416Z" fill="#154B86"/>
</g>
<g opacity="0.47">
<path d="M24.9381 1.73625C24.487 2.02704 24.1033 2.41076 23.8125 2.86178C23.3707 3.40739 23.0603 4.04738 22.9056 4.73219C22.7508 5.41699 22.7557 6.12825 22.9199 6.81086C23.0485 7.22331 23.2736 7.59922 23.5763 7.90746C23.8791 8.21571 24.2509 8.44745 24.6609 8.58351C25.071 8.71957 25.5076 8.75604 25.9346 8.68992C26.3615 8.62379 26.7666 8.45695 27.1163 8.20322C27.1976 8.13453 27.2597 8.04596 27.2966 7.94614C27.3335 7.84631 27.3439 7.73864 27.3268 7.63361C27.3097 7.52857 27.2657 7.42975 27.199 7.34678C27.1324 7.26381 27.0454 7.19952 26.9466 7.16016C26.6421 7.02217 26.3105 6.9542 25.9763 6.96125C25.6445 6.96448 25.3179 6.87906 25.0302 6.71382C24.8833 6.59744 24.7637 6.45024 24.6799 6.28258C24.596 6.11493 24.55 5.93091 24.5451 5.74353C24.4481 4.59374 25.1176 3.42939 25.7094 2.49792C25.7557 2.40597 25.7765 2.30332 25.7698 2.20061C25.763 2.0979 25.7289 1.99886 25.6711 1.91376C25.6132 1.82865 25.5336 1.76055 25.4405 1.71655C25.3475 1.67254 25.2443 1.65422 25.1418 1.66347C25.0702 1.6759 25.0013 1.70053 24.9381 1.73625Z" fill="#005DC6"/>
</g>
<g opacity="0.47">
<path d="M26.8687 3.57157C26.6989 3.60755 26.5386 3.67883 26.3982 3.7808C26.2578 3.88277 26.1404 4.01315 26.0536 4.16345C25.9387 4.38944 25.8975 4.64575 25.9358 4.89636C25.9741 5.14698 26.0899 5.37929 26.2671 5.56065C26.7134 5.94392 27.6012 5.77411 27.6449 5.10462C27.6449 5.18224 27.6158 5.25987 27.5964 5.33749C27.708 4.80868 27.7128 3.41633 26.8687 3.57157Z" fill="#005DC6"/>
</g>
<g style="mix-blend-mode:screen" opacity="0.38">
<path d="M28.9415 19.4843C30.2174 19.4843 30.2174 17.5098 28.9415 17.5098C27.6655 17.5098 27.6704 19.4843 28.9415 19.4843Z" fill="#59A7FF"/>
<path d="M26.9442 20.9957C27.0838 20.9827 27.2135 20.918 27.308 20.8144C27.4024 20.7107 27.4547 20.5756 27.4547 20.4353C27.4547 20.2951 27.4024 20.16 27.308 20.0563C27.2135 19.9527 27.0838 19.888 26.9442 19.875C26.8046 19.888 26.6748 19.9527 26.5804 20.0563C26.4859 20.16 26.4336 20.2951 26.4336 20.4353C26.4336 20.5756 26.4859 20.7107 26.5804 20.8144C26.6748 20.918 26.8046 20.9827 26.9442 20.9957Z" fill="#59A7FF"/>
<path d="M25.9528 23.5049C26.0837 23.4923 26.2052 23.4314 26.2936 23.3341C26.382 23.2368 26.431 23.11 26.431 22.9785C26.431 22.847 26.382 22.7203 26.2936 22.6229C26.2052 22.5256 26.0837 22.4647 25.9528 22.4521C25.8219 22.4647 25.7004 22.5256 25.612 22.6229C25.5236 22.7203 25.4746 22.847 25.4746 22.9785C25.4746 23.11 25.5236 23.2368 25.612 23.3341C25.7004 23.4314 25.8219 23.4923 25.9528 23.5049Z" fill="#59A7FF"/>
<path d="M23.8068 24.7997C23.8621 24.7917 23.9128 24.764 23.9494 24.7217C23.986 24.6793 24.0061 24.6253 24.0061 24.5693C24.0061 24.5133 23.986 24.4593 23.9494 24.417C23.9128 24.3746 23.8621 24.3469 23.8068 24.3389C23.7514 24.3469 23.7008 24.3746 23.6642 24.417C23.6276 24.4593 23.6074 24.5133 23.6074 24.5693C23.6074 24.6253 23.6276 24.6793 23.6642 24.7217C23.7008 24.764 23.7514 24.7917 23.8068 24.7997Z" fill="#59A7FF"/>
<path d="M28.7355 31.7201C28.9285 31.7201 29.1136 31.6434 29.2501 31.5069C29.3866 31.3705 29.4632 31.1854 29.4632 30.9924C29.4632 30.7994 29.3866 30.6143 29.2501 30.4778C29.1136 30.3413 28.9285 30.2646 28.7355 30.2646C28.5425 30.2646 28.3574 30.3413 28.221 30.4778C28.0845 30.6143 28.0078 30.7994 28.0078 30.9924C28.0078 31.1854 28.0845 31.3705 28.221 31.5069C28.3574 31.6434 28.5425 31.7201 28.7355 31.7201Z" fill="#59A7FF"/>
<path d="M30.6824 31.691C30.8111 31.691 30.9345 31.6399 31.0255 31.5489C31.1164 31.4579 31.1676 31.3345 31.1676 31.2058C31.1676 31.0772 31.1164 30.9538 31.0255 30.8628C30.9345 30.7718 30.8111 30.7207 30.6824 30.7207C30.5537 30.7207 30.4304 30.7718 30.3394 30.8628C30.2484 30.9538 30.1973 31.0772 30.1973 31.2058C30.1973 31.3345 30.2484 31.4579 30.3394 31.5489C30.4304 31.6399 30.5537 31.691 30.6824 31.691Z" fill="#59A7FF"/>
<path d="M26.5452 32.6197C26.5883 32.6126 26.6276 32.5905 26.6559 32.5571C26.6842 32.5238 26.6997 32.4815 26.6997 32.4378C26.6997 32.3941 26.6842 32.3518 26.6559 32.3184C26.6276 32.2851 26.5883 32.2629 26.5452 32.2559C26.502 32.2629 26.4628 32.2851 26.4345 32.3184C26.4062 32.3518 26.3906 32.3941 26.3906 32.4378C26.3906 32.4815 26.4062 32.5238 26.4345 32.5571C26.4628 32.5905 26.502 32.6126 26.5452 32.6197Z" fill="#59A7FF"/>
<path d="M30.7809 13.1674C30.8658 13.1573 30.9441 13.1165 31.0009 13.0525C31.0577 12.9886 31.0891 12.906 31.0891 12.8205C31.0891 12.735 31.0577 12.6524 31.0009 12.5885C30.9441 12.5246 30.8658 12.4837 30.7809 12.4736C30.6959 12.4837 30.6177 12.5246 30.5609 12.5885C30.504 12.6524 30.4727 12.735 30.4727 12.8205C30.4727 12.906 30.504 12.9886 30.5609 13.0525C30.6177 13.1165 30.6959 13.1573 30.7809 13.1674Z" fill="#59A7FF"/>
<path d="M32.3755 13.2769C32.4766 13.2659 32.57 13.218 32.6378 13.1423C32.7057 13.0667 32.7432 12.9686 32.7432 12.867C32.7432 12.7653 32.7057 12.6673 32.6378 12.5916C32.57 12.516 32.4766 12.468 32.3755 12.457C32.2745 12.468 32.1811 12.516 32.1132 12.5916C32.0453 12.6673 32.0078 12.7653 32.0078 12.867C32.0078 12.9686 32.0453 13.0667 32.1132 13.1423C32.1811 13.218 32.2745 13.2659 32.3755 13.2769Z" fill="#59A7FF"/>
<path d="M20.8159 6.32616C20.9163 6.32616 21.0125 6.28629 21.0835 6.21533C21.1545 6.14436 21.1943 6.04811 21.1943 5.94775C21.1943 5.84739 21.1545 5.75114 21.0835 5.68017C21.0125 5.6092 20.9163 5.56934 20.8159 5.56934C20.7156 5.56934 20.6193 5.6092 20.5483 5.68017C20.4774 5.75114 20.4375 5.84739 20.4375 5.94775C20.4375 6.04811 20.4774 6.14436 20.5483 6.21533C20.6193 6.28629 20.7156 6.32616 20.8159 6.32616Z" fill="#59A7FF"/>
<path d="M20.5708 7.79939C20.6719 7.78838 20.7653 7.74043 20.8331 7.66478C20.901 7.58912 20.9385 7.49107 20.9385 7.38944C20.9385 7.2878 20.901 7.18975 20.8331 7.11409C20.7653 7.03843 20.6719 6.9905 20.5708 6.97949C20.4698 6.9905 20.3764 7.03843 20.3085 7.11409C20.2407 7.18975 20.2031 7.2878 20.2031 7.38944C20.2031 7.49107 20.2407 7.58912 20.3085 7.66478C20.3764 7.74043 20.4698 7.78838 20.5708 7.79939Z" fill="#59A7FF"/>
<path d="M21.0707 9.57695C21.214 9.57446 21.3508 9.51642 21.4522 9.41505C21.5535 9.31369 21.6116 9.17692 21.6141 9.03359C21.6104 8.89065 21.552 8.75458 21.4508 8.65346C21.3497 8.55235 21.2137 8.49392 21.0707 8.49023C20.9266 8.49023 20.7884 8.54748 20.6865 8.64938C20.5846 8.75128 20.5273 8.88948 20.5273 9.03359C20.5273 9.1777 20.5846 9.31591 20.6865 9.41781C20.7884 9.51971 20.9266 9.57695 21.0707 9.57695Z" fill="#59A7FF"/>
<path d="M22.574 9.47111L22.5497 9.44686C22.4592 9.35942 22.3383 9.31055 22.2125 9.31055C22.0867 9.31055 21.9658 9.35942 21.8754 9.44686L21.8511 9.47111C21.7802 9.54249 21.732 9.63326 21.7127 9.73198C21.6933 9.8307 21.7036 9.93295 21.7422 10.0258C21.7809 10.1187 21.8462 10.1981 21.9299 10.2539C22.0136 10.3097 22.1119 10.3395 22.2125 10.3395C22.3131 10.3395 22.4115 10.3097 22.4952 10.2539C22.5789 10.1981 22.6442 10.1187 22.6828 10.0258C22.7215 9.93295 22.7318 9.8307 22.7124 9.73198C22.693 9.63326 22.6449 9.54249 22.574 9.47111Z" fill="#59A7FF"/>
</g>
<path style="mix-blend-mode:multiply" opacity="0.51" d="M23.2768 33.9989C32.6653 33.9989 40.2762 26.388 40.2762 16.9994C40.2762 7.61091 32.6653 0 23.2768 0C13.8883 0 6.27734 7.61091 6.27734 16.9994C6.27734 26.388 13.8883 33.9989 23.2768 33.9989Z" fill="url(#paint0_linear_1166_43465)"/>
<g style="mix-blend-mode:multiply" opacity="0.07">
<path d="M23.2782 33.9996C25.6339 33.9683 27.9572 33.4471 30.1005 32.4693C32.2438 31.4914 34.1602 30.0783 35.7278 28.3197C37.2954 26.5611 38.4799 24.4956 39.206 22.2544C39.932 20.0133 40.1838 17.6456 39.9453 15.3018C39.7068 12.9581 38.9832 10.6897 37.8205 8.64074C36.6578 6.59181 35.0814 4.80724 33.1917 3.40052C31.302 1.9938 29.1402 0.995694 26.8438 0.469685C24.5475 -0.0563244 22.1668 -0.0987319 19.8531 0.345157C22.9331 0.686675 25.8726 1.81804 28.3868 3.62959C29.5148 4.43994 30.5367 5.38852 31.4287 6.45313C32.8841 8.18995 34.0145 10.2809 34.2134 12.5368C34.4123 14.7927 33.5536 17.2136 31.7003 18.5187C29.3911 20.1439 25.8155 19.9741 24.3359 22.3998C23.4383 23.8552 23.6955 25.7958 22.8804 27.3386C21.9101 29.2161 19.6203 29.968 17.5438 30.3319C16.0957 30.6057 14.621 30.7131 13.1484 30.6521C16.0753 32.8319 19.6289 34.0063 23.2782 33.9996Z" fill="#005DC6"/>
</g>
<g style="mix-blend-mode:multiply" opacity="0.21">
<path d="M23.274 33.9987C27.4782 34.0417 31.5488 32.5234 34.698 29.7377C37.8471 26.9521 39.8508 23.0971 40.3211 18.9191C40.7915 14.741 39.695 10.5371 37.244 7.12095C34.793 3.70484 31.1618 1.31954 27.0532 0.426758C27.1782 0.525916 27.3151 0.609041 27.4608 0.674186C30.8274 2.30245 33.5885 4.9599 35.3444 8.26183C36.3175 10.0804 36.9427 12.0647 37.1879 14.1127C37.3783 15.2035 37.2676 16.3257 36.8677 17.3583C35.8683 19.5317 33.1612 20.177 31.1479 21.4626C30.7424 21.6897 30.4004 22.015 30.1533 22.4086C29.7215 23.18 29.9641 24.1357 29.8768 25.0138C29.7264 26.5857 28.5184 27.8568 27.1988 28.7252C23.0654 31.4517 17.4959 31.2674 12.9889 29.2103C11.8618 28.6884 10.7837 28.0666 9.76758 27.3522C11.3564 29.4239 13.4015 31.1012 15.744 32.254C18.0865 33.4067 20.6632 34.0038 23.274 33.9987Z" fill="#005DC6"/>
</g>
<g style="mix-blend-mode:overlay" opacity="0.28">
<path d="M23.2766 0.0253417C20.166 0.0254074 17.1152 0.879903 14.4572 2.4956C11.7991 4.11129 9.63595 6.42608 8.20377 9.18734C6.77158 11.9486 6.1254 15.0502 6.33575 18.1536C6.5461 21.2571 7.6049 24.2431 9.39659 26.7859C8.79502 24.2874 8.28076 21.7113 8.62522 19.1691C8.96967 16.627 10.3426 14.0897 12.6519 12.9641C15.524 11.5669 19.0219 12.6294 22.1025 11.7707C23.849 11.2855 25.4985 10.1648 27.313 10.422C27.7925 10.5346 28.2786 10.6173 28.7684 10.6694C29.0177 10.6905 29.2676 10.6354 29.485 10.5116C29.7024 10.3877 29.8771 10.2008 29.9861 9.97563C30.219 9.31099 29.5786 8.6512 29.5592 7.94774C29.5349 6.92408 30.7526 6.36132 31.7714 6.25459C33.7634 6.0563 35.7622 6.55899 37.4234 7.67606C35.9323 5.44028 33.9385 3.58466 31.6016 2.25781C29.2646 0.93095 26.6494 0.169713 23.9655 0.0350392C23.752 0.0253364 23.5143 0.0204902 23.2766 0.0253417Z" fill="#70B2FF"/>
</g>
<g style="mix-blend-mode:screen" opacity="0.58">
<path d="M23.2781 5.23644e-05C19.9773 -0.00814335 16.7457 0.94588 13.9786 2.74542C11.2115 4.54496 9.02892 7.11199 7.69781 10.1325C6.3667 13.1529 5.9448 16.4959 6.48372 19.7524C7.02264 23.0089 8.49902 26.0377 10.7322 28.4683C8.39262 25.5367 7.08952 21.9129 7.02632 18.1627C6.96313 14.4125 8.14342 10.7469 10.3829 7.7381C11.2816 9.13742 12.6923 10.1294 14.3131 10.5019C15.9339 10.8744 17.6361 10.5977 19.0555 9.73111C20.4749 8.8645 21.4987 7.47679 21.908 5.86489C22.3172 4.253 22.0794 2.54494 21.2453 1.10618C22.1644 0.956432 23.094 0.880184 24.0252 0.878162C26.3868 0.876575 28.7227 1.36763 30.8838 2.31993C33.0448 3.27223 34.9835 4.66484 36.5759 6.4088C34.9846 4.40861 32.9623 2.79347 30.6598 1.6838C28.3573 0.57413 25.834 -0.00142943 23.2781 5.23644e-05Z" fill="#005DC6"/>
</g>
<path style="mix-blend-mode:screen" opacity="0.32" d="M38.7073 9.86816C38.803 13.8205 37.5267 17.6841 35.0954 20.8017C32.6642 23.9193 29.2281 26.0985 25.3715 26.9687C21.5149 27.8389 17.476 27.3464 13.9415 25.575C10.407 23.8036 7.59526 20.8625 5.98438 17.2521C6.04212 19.7855 6.66187 22.2746 7.79885 24.5393C8.93584 26.8041 10.5617 28.788 12.5589 30.3478C14.5561 31.9076 16.8748 33.0043 19.3476 33.5587C21.8204 34.1131 24.3854 34.1113 26.8574 33.5535C29.3293 32.9957 31.6466 31.8958 33.6416 30.3333C35.6367 28.7707 37.2598 26.7846 38.3937 24.5182C39.5275 22.2519 40.1438 19.762 40.1981 17.2285C40.2523 14.6949 39.7432 12.1809 38.7073 9.86816Z" fill="url(#paint1_linear_1166_43465)"/>
<path style="mix-blend-mode:screen" opacity="0.32" d="M30.0581 1.24805C32.7735 4.1241 34.4087 7.85208 34.6854 11.7978C34.9622 15.7435 33.8634 19.6632 31.576 22.8901C29.2886 26.1171 25.9539 28.4519 22.1392 29.4974C18.3245 30.5429 14.2653 30.2345 10.6523 28.6247C12.3904 30.4656 14.5153 31.8979 16.8738 32.8182C19.2324 33.7386 21.7657 34.1241 24.2913 33.9469C26.8168 33.7698 29.2716 33.0344 31.4786 31.7939C33.6855 30.5533 35.5897 28.8385 37.0538 26.773C38.5179 24.7076 39.5054 22.343 39.9451 19.8497C40.3848 17.3564 40.2658 14.7967 39.5966 12.355C38.9274 9.91327 37.7247 7.6505 36.0753 5.72982C34.4258 3.80915 32.3707 2.27843 30.0581 1.24805Z" fill="url(#paint2_linear_1166_43465)"/>
<path style="mix-blend-mode:overlay" opacity="0.43" d="M18.9667 16.1395C23.0581 16.1395 26.3749 12.8228 26.3749 8.73139C26.3749 4.63998 23.0581 1.32324 18.9667 1.32324C14.8753 1.32324 11.5586 4.63998 11.5586 8.73139C11.5586 12.8228 14.8753 16.1395 18.9667 16.1395Z" fill="url(#paint3_radial_1166_43465)"/>
<path opacity="0.78" d="M9.40279 22.3367C9.32146 22.1784 9.25297 22.0157 9.1802 21.853C3.01174 25.6842 0.310623 28.1328 0.0152556 29.2244C-0.0050852 29.2884 -0.0050852 29.3572 0.0152556 29.4213L0.0366538 29.4598C0.0366538 29.5069 0.1608 29.5454 0.203607 29.5583C0.982691 29.8151 5.00653 29.8793 23.9871 19.9096C35.4122 13.9166 43.2031 8.14627 45.3134 5.78333C45.3644 5.71775 45.3951 5.63879 45.4019 5.55605C45.4088 5.47331 45.3914 5.39038 45.3519 5.31734C45.3124 5.2443 45.2526 5.18431 45.1796 5.14468C45.1067 5.10505 45.0238 5.0875 44.941 5.09415C43.37 5.35099 40.2794 6.29702 35.8146 8.14199C35.8788 8.25757 35.9516 8.36887 36.0158 8.48873C39.7015 6.99049 42.1158 6.32698 42.394 6.8535C42.9505 7.91083 34.6888 13.3559 23.9186 19.0192C13.1484 24.6826 3.98773 28.411 3.43125 27.358C3.09307 26.7886 5.44744 24.8666 9.40279 22.3367Z" fill="url(#paint4_linear_1166_43465)"/>
<defs>
<linearGradient id="paint0_linear_1166_43465" x1="11.2549" y1="4.97758" x2="35.2987" y2="29.0213" gradientUnits="userSpaceOnUse">
<stop stop-color="white"/>
<stop offset="0.09" stop-color="#EBEBF6"/>
<stop offset="0.54" stop-color="#8B8FCE"/>
<stop offset="0.85" stop-color="#4F55B4"/>
<stop offset="1" stop-color="#383EAA"/>
</linearGradient>
<linearGradient id="paint1_linear_1166_43465" x1="21.4919" y1="10.1277" x2="27.118" y2="33.5761" gradientUnits="userSpaceOnUse">
<stop offset="0.24" stop-color="white"/>
<stop offset="0.92" stop-color="white"/>
<stop offset="1" stop-color="white"/>
</linearGradient>
<linearGradient id="paint2_linear_1166_43465" x1="16.5626" y1="12.3993" x2="36.3331" y2="26.0101" gradientUnits="userSpaceOnUse">
<stop offset="0.24" stop-color="white"/>
<stop offset="0.39" stop-color="#FCFFFF"/>
<stop offset="0.5" stop-color="#F2FFFF"/>
<stop offset="0.6" stop-color="#E2FEFF"/>
<stop offset="0.7" stop-color="#CBFDFF"/>
<stop offset="0.78" stop-color="#AEFCFF"/>
<stop offset="0.87" stop-color="#8AFBFF"/>
<stop offset="0.95" stop-color="#5FF9FF"/>
<stop offset="1" stop-color="#40F8FF"/>
</linearGradient>
<radialGradient id="paint3_radial_1166_43465" cx="0" cy="0" r="1" gradientUnits="userSpaceOnUse" gradientTransform="translate(18.9667 8.73139) scale(7.40814)">
<stop stop-color="#ECECEC"/>
<stop offset="0.47" stop-color="#F1F1F1"/>
<stop offset="1" stop-color="white"/>
</radialGradient>
<linearGradient id="paint4_linear_1166_43465" x1="-0.339333" y1="28.7907" x2="45.8307" y2="6.35186" gradientUnits="userSpaceOnUse">
<stop stop-color="#77EDF6"/>
<stop offset="0.16" stop-color="#6BE1F0"/>
<stop offset="0.44" stop-color="#4CC0E1"/>
<stop offset="0.82" stop-color="#1A8CC8"/>
<stop offset="0.99" stop-color="#0071BB"/>
</linearGradient>
</defs>
</svg>
