<svg width="52" height="52" viewBox="0 0 52 52" fill="none" xmlns="http://www.w3.org/2000/svg">
<g clip-path="url(#clip0_4_7156)">
<mask id="path-1-inside-1_4_7156" fill="white">
<path d="M25.9967 0C25.7882 0 25.5794 0.0801609 25.4206 0.239626L21.3614 4.30058C20.852 4.81298 21.2149 5.68556 21.9374 5.68597H23.5624V8.18063C22.6532 7.65838 21.5487 7.30472 20.3108 7.31099H18.6859V5.68597C18.6851 5.35715 18.487 5.06188 18.1828 4.93694C17.8791 4.80965 17.5274 4.87739 17.2942 5.10992L13.2333 9.17722C12.9184 9.49413 12.9184 10.0061 13.2333 10.323L17.2942 14.3887C17.8061 14.9085 18.6909 14.5422 18.6859 13.8126V12.1876H20.3108C21.1991 12.1874 21.9374 12.9154 21.9374 13.8126V17.0103C21.9374 17.8318 22.1526 18.5523 22.5277 19.1669C21.9631 19.5158 21.3335 19.958 20.7472 20.5555C20.5064 20.1668 20.1546 19.8434 19.7062 19.6414C18.4977 19.0972 17.0533 19.639 16.5087 20.8475L14.6488 24.4879L13.5697 25.183H9.77391C8.03083 25.183 6.67099 25.6099 5.64324 26.4256C4.61549 27.2412 3.95671 28.3798 3.39303 29.7327L1.7998 34.8331C1.33176 36.0786 1.82395 37.4324 3.03281 37.9768C3.63497 38.248 4.29662 38.2468 4.87519 38.0292V47.938C4.87519 49.2743 5.97326 50.3723 7.30947 50.3723C8.64837 50.3723 9.60435 49.3275 9.74376 48.0157L10.4817 40.6222H10.6372L11.3783 48.0253C11.5179 49.3043 12.469 50.3723 13.8094 50.3723C15.1456 50.3723 16.2453 49.3013 16.2452 47.938V31.9687C16.6272 31.7828 16.981 31.5496 17.3005 31.2705C17.855 30.786 18.3065 30.1819 18.6859 29.474V30.2754C18.6859 30.9072 18.885 31.5684 19.4063 32.0147C19.6613 32.2331 19.9698 32.3739 20.3108 32.4448C20.3108 33.4844 19.9132 36.3052 19.4111 39.3987C18.9089 42.4922 18.3085 45.9309 17.9115 48.5077C17.6813 50.0012 18.4283 51.4972 19.9395 51.9021C21.4476 52.3062 22.996 51.424 23.418 49.8994L25.7634 41.4379H26.2315L28.5706 49.8994C28.985 51.3964 30.5473 52.3062 32.0554 51.9021C33.5666 51.4972 34.3174 49.9842 34.0819 48.5077C33.6848 45.9309 33.0844 42.4922 32.5822 39.3987C32.0801 36.3052 31.6825 33.4845 31.6825 32.4448C32.0239 32.3785 32.3335 32.2331 32.5886 32.0147C33.1099 31.5684 33.3075 30.9072 33.3075 30.2755V29.4709C33.6871 30.1801 34.1375 30.7853 34.6928 31.2705C35.0127 31.5499 35.3673 31.7827 35.7497 31.9687L35.7432 47.938C35.7432 49.2743 36.8461 50.3723 38.1823 50.3723C39.5227 50.3723 40.4722 49.2976 40.615 48.0253L41.356 40.6222H41.5116L42.2495 48.0157C42.3681 49.2957 43.3448 50.3723 44.6838 50.3723C46.02 50.3723 47.1196 49.2743 47.1196 47.938V38.0308C47.6989 38.2471 48.3594 38.2475 48.9604 37.9768C50.1693 37.4324 50.6772 35.9949 50.1934 34.8331L48.6019 29.7327C48.0381 28.3798 47.3794 27.2412 46.3517 26.4256C45.3239 25.6099 43.9625 25.183 42.2194 25.183H38.4236L37.3445 24.4879L35.4847 20.8475C34.94 19.639 33.4908 19.0972 32.2823 19.6414C31.8351 19.8428 31.4843 20.165 31.2445 20.5523C30.659 19.9561 30.0295 19.5153 29.4656 19.1669C29.8407 18.5523 30.0575 17.8319 30.0575 17.0627C30.0575 17.0611 30.0575 17.0595 30.0575 17.0579V13.8126C30.0575 12.8984 30.8088 12.1876 31.6825 12.1876H33.3075V13.8126C33.3079 14.5352 34.182 14.8981 34.6944 14.3887L38.76 10.323C39.0749 10.0061 39.0749 9.49413 38.76 9.17722L34.6944 5.10992C34.4622 4.87992 34.1142 4.81235 33.8121 4.93694C33.5079 5.06188 33.3082 5.35715 33.3075 5.68597V7.31099H31.6825C30.4798 7.31099 29.3696 7.63501 28.4325 8.16634V5.68597H30.0575C30.78 5.68556 31.143 4.81298 30.6335 4.30058L26.5727 0.239626C26.4139 0.0801597 26.2051 0 25.9967 0ZM25.9967 1.96145L28.0898 4.06095H27.6232C27.172 4.05922 26.8042 4.42544 26.806 4.87664V9.50254C26.4797 9.8719 26.2003 10.2907 25.9967 10.6594C25.7952 10.2836 25.5245 9.88517 25.181 9.49619V4.87664C25.1827 4.42778 24.8205 4.06254 24.3717 4.06095H23.8972L25.9967 1.96145ZM17.0609 7.64742V8.12667C17.0624 8.57319 17.4237 8.93442 17.8702 8.936H20.3108C22.7802 8.93587 24.7863 10.7255 25.1286 13.0922C24.5513 13.2195 24.02 13.4709 23.5624 13.8142C23.5624 12.0255 22.1304 10.5626 20.3108 10.5626H17.8702C17.4214 10.5642 17.0592 10.9294 17.0609 11.3783V11.8512L14.9551 9.75327L17.0609 7.64742ZM34.934 7.64742L37.0382 9.75327L34.934 11.8512V11.3783C34.9357 10.9294 34.5735 10.5642 34.1247 10.5626H31.6825C29.8702 10.5626 28.4325 12.0255 28.4325 13.8142C27.9736 13.4699 27.4391 13.2176 26.8599 13.0906C27.2038 10.7247 29.2473 8.936 31.6825 8.936H34.1247C34.5712 8.93446 34.9324 8.57319 34.934 8.12667V7.64742ZM25.9871 14.6236C27.3759 14.6478 28.4325 15.7223 28.4325 17.0627C28.4325 18.4184 27.3524 19.497 25.9967 19.497C24.641 19.497 23.5624 18.4184 23.5624 17.0309C23.5949 15.6942 24.6276 14.6562 25.9871 14.6236ZM41.3815 15.4377C39.112 15.4943 37.3683 17.298 37.3683 19.497C37.3683 21.731 39.2001 23.5643 41.4339 23.5643C43.6678 23.5643 45.4932 21.731 45.4932 19.497C45.4932 17.2631 43.7326 15.4377 41.3815 15.4377ZM6.50016 19.497C6.50016 21.731 8.32558 23.5643 10.5594 23.5643C12.7933 23.5643 14.6187 21.731 14.6187 19.497C14.6187 17.2631 12.7948 15.4129 10.5324 15.4408C8.23897 15.4599 6.50016 17.298 6.50016 19.497ZM25.9967 21.122C26.8635 21.122 27.6698 20.8481 28.331 20.3809C29.0525 20.8098 29.823 21.3296 30.4415 22.0948C30.7916 22.5278 31.1004 23.0377 31.3223 23.6722C31.6085 24.5093 31.6795 25.3595 31.6825 26.0415V30.2754C31.6825 30.5832 31.6036 30.72 31.5333 30.7801C31.4649 30.8386 31.3003 30.9185 30.8668 30.8388L28.6166 30.1057C29.6733 29.7228 30.2959 28.5902 30.0575 27.4841V26.0114C30.0593 25.5625 29.6971 25.1972 29.2482 25.1957C28.8728 25.1942 28.5558 25.4473 28.4611 25.7924C28.0878 25.6859 27.684 25.6732 27.2868 25.7765L23.5624 26.6112V26.0114C23.5642 25.5602 23.1979 25.1939 22.7467 25.1957C22.2979 25.1972 21.9356 25.5625 21.9374 26.0114L21.9422 27.7046C21.9864 28.225 22.487 28.5143 22.9261 28.4156L27.6788 27.3571C28.0293 27.2632 28.3746 27.4634 28.4627 27.7983C28.5515 28.1296 28.3603 28.5038 27.9962 28.6028C25.7035 29.3472 23.4201 30.092 21.1265 30.8388C20.693 30.9185 20.53 30.8386 20.4616 30.7801C20.3914 30.72 20.3109 30.5832 20.3109 30.2755C20.3109 28.8639 20.3109 27.4531 20.3109 26.0415C20.3109 24.1506 20.8481 22.9673 21.5534 22.0948C22.1719 21.3296 22.9424 20.8098 23.664 20.3809C24.325 20.8477 25.1302 21.122 25.9967 21.122ZM25.9982 30.9578L30.0575 32.2797V32.4464C30.0575 33.845 30.4702 36.5538 30.9747 39.6621C31.4793 42.7705 32.0818 46.2065 32.4743 48.7537C32.5873 49.4867 32.2975 50.1535 31.6349 50.3311C30.9692 50.5095 30.3276 50.1335 30.1416 49.4614L27.6343 40.4064C27.5359 40.0543 27.2145 39.8115 26.8488 39.8129H25.1461C24.7804 39.8115 24.4574 40.0543 24.359 40.4064L21.8533 49.4614C21.6673 50.1335 21.0108 50.5059 20.3585 50.3311C19.6959 50.1535 19.4019 49.4826 19.5142 48.7537C19.9067 46.2065 20.5077 42.7705 21.0122 39.6621C21.5168 36.5538 21.9374 33.845 21.9374 32.4464V32.2798L25.9982 30.9578Z"/>
</mask>
<path d="M25.9967 0C25.7882 0 25.5794 0.0801609 25.4206 0.239626L21.3614 4.30058C20.852 4.81298 21.2149 5.68556 21.9374 5.68597H23.5624V8.18063C22.6532 7.65838 21.5487 7.30472 20.3108 7.31099H18.6859V5.68597C18.6851 5.35715 18.487 5.06188 18.1828 4.93694C17.8791 4.80965 17.5274 4.87739 17.2942 5.10992L13.2333 9.17722C12.9184 9.49413 12.9184 10.0061 13.2333 10.323L17.2942 14.3887C17.8061 14.9085 18.6909 14.5422 18.6859 13.8126V12.1876H20.3108C21.1991 12.1874 21.9374 12.9154 21.9374 13.8126V17.0103C21.9374 17.8318 22.1526 18.5523 22.5277 19.1669C21.9631 19.5158 21.3335 19.958 20.7472 20.5555C20.5064 20.1668 20.1546 19.8434 19.7062 19.6414C18.4977 19.0972 17.0533 19.639 16.5087 20.8475L14.6488 24.4879L13.5697 25.183H9.77391C8.03083 25.183 6.67099 25.6099 5.64324 26.4256C4.61549 27.2412 3.95671 28.3798 3.39303 29.7327L1.7998 34.8331C1.33176 36.0786 1.82395 37.4324 3.03281 37.9768C3.63497 38.248 4.29662 38.2468 4.87519 38.0292V47.938C4.87519 49.2743 5.97326 50.3723 7.30947 50.3723C8.64837 50.3723 9.60435 49.3275 9.74376 48.0157L10.4817 40.6222H10.6372L11.3783 48.0253C11.5179 49.3043 12.469 50.3723 13.8094 50.3723C15.1456 50.3723 16.2453 49.3013 16.2452 47.938V31.9687C16.6272 31.7828 16.981 31.5496 17.3005 31.2705C17.855 30.786 18.3065 30.1819 18.6859 29.474V30.2754C18.6859 30.9072 18.885 31.5684 19.4063 32.0147C19.6613 32.2331 19.9698 32.3739 20.3108 32.4448C20.3108 33.4844 19.9132 36.3052 19.4111 39.3987C18.9089 42.4922 18.3085 45.9309 17.9115 48.5077C17.6813 50.0012 18.4283 51.4972 19.9395 51.9021C21.4476 52.3062 22.996 51.424 23.418 49.8994L25.7634 41.4379H26.2315L28.5706 49.8994C28.985 51.3964 30.5473 52.3062 32.0554 51.9021C33.5666 51.4972 34.3174 49.9842 34.0819 48.5077C33.6848 45.9309 33.0844 42.4922 32.5822 39.3987C32.0801 36.3052 31.6825 33.4845 31.6825 32.4448C32.0239 32.3785 32.3335 32.2331 32.5886 32.0147C33.1099 31.5684 33.3075 30.9072 33.3075 30.2755V29.4709C33.6871 30.1801 34.1375 30.7853 34.6928 31.2705C35.0127 31.5499 35.3673 31.7827 35.7497 31.9687L35.7432 47.938C35.7432 49.2743 36.8461 50.3723 38.1823 50.3723C39.5227 50.3723 40.4722 49.2976 40.615 48.0253L41.356 40.6222H41.5116L42.2495 48.0157C42.3681 49.2957 43.3448 50.3723 44.6838 50.3723C46.02 50.3723 47.1196 49.2743 47.1196 47.938V38.0308C47.6989 38.2471 48.3594 38.2475 48.9604 37.9768C50.1693 37.4324 50.6772 35.9949 50.1934 34.8331L48.6019 29.7327C48.0381 28.3798 47.3794 27.2412 46.3517 26.4256C45.3239 25.6099 43.9625 25.183 42.2194 25.183H38.4236L37.3445 24.4879L35.4847 20.8475C34.94 19.639 33.4908 19.0972 32.2823 19.6414C31.8351 19.8428 31.4843 20.165 31.2445 20.5523C30.659 19.9561 30.0295 19.5153 29.4656 19.1669C29.8407 18.5523 30.0575 17.8319 30.0575 17.0627C30.0575 17.0611 30.0575 17.0595 30.0575 17.0579V13.8126C30.0575 12.8984 30.8088 12.1876 31.6825 12.1876H33.3075V13.8126C33.3079 14.5352 34.182 14.8981 34.6944 14.3887L38.76 10.323C39.0749 10.0061 39.0749 9.49413 38.76 9.17722L34.6944 5.10992C34.4622 4.87992 34.1142 4.81235 33.8121 4.93694C33.5079 5.06188 33.3082 5.35715 33.3075 5.68597V7.31099H31.6825C30.4798 7.31099 29.3696 7.63501 28.4325 8.16634V5.68597H30.0575C30.78 5.68556 31.143 4.81298 30.6335 4.30058L26.5727 0.239626C26.4139 0.0801597 26.2051 0 25.9967 0ZM25.9967 1.96145L28.0898 4.06095H27.6232C27.172 4.05922 26.8042 4.42544 26.806 4.87664V9.50254C26.4797 9.8719 26.2003 10.2907 25.9967 10.6594C25.7952 10.2836 25.5245 9.88517 25.181 9.49619V4.87664C25.1827 4.42778 24.8205 4.06254 24.3717 4.06095H23.8972L25.9967 1.96145ZM17.0609 7.64742V8.12667C17.0624 8.57319 17.4237 8.93442 17.8702 8.936H20.3108C22.7802 8.93587 24.7863 10.7255 25.1286 13.0922C24.5513 13.2195 24.02 13.4709 23.5624 13.8142C23.5624 12.0255 22.1304 10.5626 20.3108 10.5626H17.8702C17.4214 10.5642 17.0592 10.9294 17.0609 11.3783V11.8512L14.9551 9.75327L17.0609 7.64742ZM34.934 7.64742L37.0382 9.75327L34.934 11.8512V11.3783C34.9357 10.9294 34.5735 10.5642 34.1247 10.5626H31.6825C29.8702 10.5626 28.4325 12.0255 28.4325 13.8142C27.9736 13.4699 27.4391 13.2176 26.8599 13.0906C27.2038 10.7247 29.2473 8.936 31.6825 8.936H34.1247C34.5712 8.93446 34.9324 8.57319 34.934 8.12667V7.64742ZM25.9871 14.6236C27.3759 14.6478 28.4325 15.7223 28.4325 17.0627C28.4325 18.4184 27.3524 19.497 25.9967 19.497C24.641 19.497 23.5624 18.4184 23.5624 17.0309C23.5949 15.6942 24.6276 14.6562 25.9871 14.6236ZM41.3815 15.4377C39.112 15.4943 37.3683 17.298 37.3683 19.497C37.3683 21.731 39.2001 23.5643 41.4339 23.5643C43.6678 23.5643 45.4932 21.731 45.4932 19.497C45.4932 17.2631 43.7326 15.4377 41.3815 15.4377ZM6.50016 19.497C6.50016 21.731 8.32558 23.5643 10.5594 23.5643C12.7933 23.5643 14.6187 21.731 14.6187 19.497C14.6187 17.2631 12.7948 15.4129 10.5324 15.4408C8.23897 15.4599 6.50016 17.298 6.50016 19.497ZM25.9967 21.122C26.8635 21.122 27.6698 20.8481 28.331 20.3809C29.0525 20.8098 29.823 21.3296 30.4415 22.0948C30.7916 22.5278 31.1004 23.0377 31.3223 23.6722C31.6085 24.5093 31.6795 25.3595 31.6825 26.0415V30.2754C31.6825 30.5832 31.6036 30.72 31.5333 30.7801C31.4649 30.8386 31.3003 30.9185 30.8668 30.8388L28.6166 30.1057C29.6733 29.7228 30.2959 28.5902 30.0575 27.4841V26.0114C30.0593 25.5625 29.6971 25.1972 29.2482 25.1957C28.8728 25.1942 28.5558 25.4473 28.4611 25.7924C28.0878 25.6859 27.684 25.6732 27.2868 25.7765L23.5624 26.6112V26.0114C23.5642 25.5602 23.1979 25.1939 22.7467 25.1957C22.2979 25.1972 21.9356 25.5625 21.9374 26.0114L21.9422 27.7046C21.9864 28.225 22.487 28.5143 22.9261 28.4156L27.6788 27.3571C28.0293 27.2632 28.3746 27.4634 28.4627 27.7983C28.5515 28.1296 28.3603 28.5038 27.9962 28.6028C25.7035 29.3472 23.4201 30.092 21.1265 30.8388C20.693 30.9185 20.53 30.8386 20.4616 30.7801C20.3914 30.72 20.3109 30.5832 20.3109 30.2755C20.3109 28.8639 20.3109 27.4531 20.3109 26.0415C20.3109 24.1506 20.8481 22.9673 21.5534 22.0948C22.1719 21.3296 22.9424 20.8098 23.664 20.3809C24.325 20.8477 25.1302 21.122 25.9967 21.122ZM25.9982 30.9578L30.0575 32.2797V32.4464C30.0575 33.845 30.4702 36.5538 30.9747 39.6621C31.4793 42.7705 32.0818 46.2065 32.4743 48.7537C32.5873 49.4867 32.2975 50.1535 31.6349 50.3311C30.9692 50.5095 30.3276 50.1335 30.1416 49.4614L27.6343 40.4064C27.5359 40.0543 27.2145 39.8115 26.8488 39.8129H25.1461C24.7804 39.8115 24.4574 40.0543 24.359 40.4064L21.8533 49.4614C21.6673 50.1335 21.0108 50.5059 20.3585 50.3311C19.6959 50.1535 19.4019 49.4826 19.5142 48.7537C19.9067 46.2065 20.5077 42.7705 21.0122 39.6621C21.5168 36.5538 21.9374 33.845 21.9374 32.4464V32.2798L25.9982 30.9578Z" fill="#181818" stroke="#FEBA02" mask="url(#path-1-inside-1_4_7156)"/>
</g>
<defs>
<clipPath id="clip0_4_7156">
<rect width="52" height="52" fill="white"/>
</clipPath>
</defs>
</svg>
