<svg width="46" height="46" viewBox="0 0 46 46" fill="none" xmlns="http://www.w3.org/2000/svg">
<mask id="mask0_1166_43523" style="mask-type:luminance" maskUnits="userSpaceOnUse" x="5" y="5" width="36" height="36">
<path d="M6.36743 29.0763C2.85061 20.0514 7.31574 9.88443 16.3406 6.36761C25.3654 2.85079 35.5324 7.31592 39.0492 16.3407C42.566 25.3656 38.1009 35.5326 29.0761 39.0494C20.0513 42.5662 9.88425 38.1011 6.36743 29.0763Z" fill="white"/>
</mask>
<g mask="url(#mask0_1166_43523)">
<path d="M6.36841 29.0763C2.85159 20.0514 7.31672 9.88443 16.3415 6.36761C25.3664 2.85079 35.5334 7.31592 39.0502 16.3407C42.567 25.3656 38.1019 35.5326 29.0771 39.0494C20.0522 42.5662 9.88523 38.1011 6.36841 29.0763Z" fill="#F1AC5E"/>
<path d="M5.16363 22.6946C5.1565 20.3767 5.61006 18.0805 6.49797 15.9395C7.06221 17.3663 8.07447 18.5714 9.38251 19.3734C10.6629 20.1289 12.1935 20.5017 13.307 21.5172C14.4206 22.5327 14.8376 23.9014 15.8187 24.9266C18.7621 28.0025 24.1878 26.2414 27.7886 28.4783C29.1671 29.3319 30.1531 30.7104 31.5218 31.5836C33.1554 32.6236 35.1716 32.8444 37.1143 32.7021C34.983 35.7699 31.9279 38.077 28.3941 39.2874C24.8602 40.4978 21.0322 40.5482 17.4677 39.4314C13.9032 38.3146 10.7883 36.0888 8.57695 33.0783C6.36557 30.0679 5.17317 26.4299 5.17344 22.6946H5.16363Z" fill="#F19B3A"/>
<path d="M21.8134 26.1534C20.5428 26.5066 17.8888 26.1779 16.4171 24.4903C14.9454 22.8028 15.8481 21.6941 17.2707 22.4153C18.6934 23.1364 23.1772 25.7756 21.8134 26.1534Z" fill="#F19B3A"/>
<path d="M43.81 22.8863C44.3938 23.8429 43.5893 24.8486 42.8632 25.4863C42.3368 25.9117 41.7286 26.2245 41.0762 26.405C40.4239 26.5856 39.7414 26.6303 39.0712 26.5361C35.907 26.178 33.7436 23.3965 31.0455 22.0082C29.5738 21.2576 28.1757 21.1938 26.5715 21.2969C24.7321 21.5073 22.869 21.3148 21.1115 20.7327C19.6398 20.1931 18.2466 19.4327 16.6964 19.0697C15.0677 18.687 13.5224 18.5301 12.0998 17.598C9.46054 15.8418 8.09677 12.9082 7.7828 9.8225C7.64054 8.41948 7.44922 6.0991 9.18583 5.56438C10.9224 5.02966 11.4571 6.97721 11.4326 8.28702C11.3836 11.2304 12.5855 14.4191 15.7153 15.155C17.2221 15.4385 18.6999 15.8589 20.1304 16.4108C21.7787 17.1221 23.2504 17.8825 25.0851 17.8531C26.9983 17.8531 28.8674 17.5931 30.7266 18.2112C32.5157 18.892 34.1749 19.8743 35.6323 21.1153C36.8636 22.0965 38.1881 23.264 39.7825 23.524C40.3908 23.632 41.0168 23.5779 41.5976 23.3671C42.2059 23.1169 42.5346 22.6459 43.2165 22.5674C43.3319 22.567 43.4454 22.5972 43.5454 22.6549C43.6454 22.7126 43.7282 22.7959 43.7855 22.8961L43.81 22.8863Z" fill="#F18913"/>
<path d="M12.0113 16.1505C14.2237 15.9739 16.9954 17.6222 18.6192 18.9958C19.7083 19.9229 20.6158 21.1493 21.906 21.8263C23.2894 22.5573 24.9377 22.4101 26.4094 22.8663C29.2841 23.7542 31.2268 25.7067 32.9438 28.0811C33.7532 29.1995 34.5823 30.2935 35.8038 30.9852C37.1421 31.6574 38.5949 32.0717 40.0864 32.2067C41.5459 32.4389 43.0253 32.5211 44.5015 32.452C45.5562 32.3735 47.4989 31.829 47.9355 33.2565C48.3721 34.6841 46.6159 35.4396 45.5857 35.6505C43.903 35.9939 42.1517 35.7977 40.4544 35.5916C37.5649 35.2384 34.646 34.6546 32.4238 32.6482C30.2751 30.686 29.2498 27.772 26.6498 26.2709C25.1781 25.432 23.5053 25.3731 21.9453 24.7992C20.466 24.1803 19.1668 23.1983 18.1679 21.9441C17.1878 20.7776 16.0287 19.7742 14.7339 18.9712C13.6252 18.309 12.4184 17.7644 11.6777 16.6656C11.6468 16.612 11.6304 16.5512 11.6304 16.4894C11.6303 16.4275 11.6465 16.3667 11.6772 16.3131C11.708 16.2595 11.7524 16.2148 11.8058 16.1837C11.8593 16.1526 11.92 16.136 11.9818 16.1357L12.0113 16.1505Z" fill="#F18913"/>
<path d="M41.2795 12.2707C43.2418 14.2771 43.0504 19.3692 39.3172 18.8885C37.4285 18.6481 35.7165 17.2009 34.024 16.4356C33.0725 15.9424 32.0279 15.6549 30.958 15.5918C29.9768 15.5918 28.9957 15.9402 28.0146 16.0824C24.3353 16.6956 19.9104 15.1013 16.7315 13.3107C15.0915 12.4703 13.7717 11.116 12.9738 9.45485C12.2134 7.67409 12.3311 5.20654 13.8323 3.82805C14.075 3.59196 14.3747 3.42271 14.7022 3.33675C15.0297 3.25078 15.3739 3.25104 15.7013 3.33748C17.1387 3.82805 17.2564 5.22126 16.8345 6.48693C16.344 7.91448 16.5942 8.83673 17.8598 9.759C20.2342 11.4466 23.6681 12.8888 26.5232 13.139C28.0293 13.2715 29.4666 12.7171 30.9776 12.7613C32.3881 12.8477 33.7657 13.2234 35.0248 13.865C35.741 14.2084 36.4278 14.6107 37.1146 15.0081C37.8014 15.4054 38.655 16.0824 39.4595 16.2639C40.4014 16.4847 40.3768 15.6605 40.3818 14.9001C40.3867 14.1398 40.2444 13.4284 40.2395 12.7024C40.2412 12.5827 40.2778 12.466 40.345 12.3669C40.4122 12.2678 40.5069 12.1905 40.6175 12.1446C40.7281 12.0987 40.8498 12.0862 40.9674 12.1086C41.085 12.131 41.1935 12.1873 41.2795 12.2707Z" fill="#F19B3A"/>
<path d="M20.0624 2.8909C21.2152 3.54336 21.2888 5.18676 21.7009 6.32487C22.2974 7.84339 23.1933 9.22642 24.3352 10.3917C25.4898 11.5924 26.9396 12.4687 28.5394 12.9328C30.0553 13.3547 31.8213 13.2664 33.2194 13.9875C33.3386 14.0616 33.4339 14.1684 33.494 14.2952C33.5541 14.422 33.5764 14.5635 33.5583 14.7026C33.5402 14.8418 33.4825 14.9728 33.3919 15.08C33.3014 15.1872 33.1819 15.266 33.0477 15.3072C31.4288 15.7977 29.3881 15.2041 27.7741 14.8706C25.8761 14.5659 24.0542 13.8998 22.4073 12.9083C19.3217 10.9068 17.3839 7.17356 18.4828 3.53845C18.5282 3.38184 18.6085 3.23756 18.7177 3.11644C18.8269 2.99532 18.9621 2.90051 19.1131 2.83913C19.2642 2.77776 19.4272 2.75141 19.5899 2.76208C19.7526 2.77274 19.9108 2.82015 20.0526 2.90072L20.0624 2.8909Z" fill="#F19B3A"/>
<path d="M3.23471 12.8442C6.17812 21.3163 12.7174 28.3167 21.6604 30.279C23.9906 30.7941 26.4042 30.799 28.7148 31.4073C30.8095 31.9764 32.6933 33.0605 34.6555 33.9386C36.7552 34.8707 38.7861 35.2828 41.0329 34.5813C43.2797 33.8798 44.9967 32.359 47.1503 31.5888C47.6801 31.3975 48.102 32.0549 47.8518 32.5013C46.0857 35.6458 42.0238 37.8239 38.4427 37.7405C34.4642 37.6522 31.3001 34.905 27.5129 34.0711C25.4819 33.6247 23.3774 33.5805 21.3366 33.1488C19.4554 32.7466 17.6243 32.1378 15.8766 31.3337C12.3564 29.7694 9.2515 27.4021 6.81095 24.4216C4.145 21.1642 2.4455 17.2248 1.90528 13.0503C1.79736 12.231 3.03358 12.1673 3.27396 12.8639L3.23471 12.8442Z" fill="#F18913"/>
<path d="M33.9697 39.3938C30.5357 37.9221 26.6112 37.8093 22.9319 37.3433C19.4723 36.9413 16.0971 35.9995 12.9293 34.5519C9.7941 33.0849 6.94393 31.0735 4.51114 28.6112C2.16132 26.2221 0.027359 23.4602 -0.600567 20.1146C-0.630219 19.9665 -0.607582 19.8127 -0.536518 19.6794C-0.465454 19.5462 -0.350361 19.4417 -0.210869 19.3838C-0.0713806 19.3259 0.0838737 19.3182 0.228405 19.362C0.37294 19.4058 0.497803 19.4984 0.581703 19.624C2.54397 22.2829 4.17265 25.138 6.53718 27.4731C8.99121 29.8705 11.8689 31.7917 15.024 33.1391C18.1853 34.4425 21.5062 35.3185 24.8991 35.744C28.2987 36.2346 31.4776 36.7693 34.2542 38.9131C34.3193 38.9508 34.3667 39.0128 34.386 39.0855C34.4053 39.1582 34.395 39.2356 34.3572 39.3006C34.3195 39.3657 34.2575 39.4131 34.1848 39.4324C34.1121 39.4517 34.0347 39.4414 33.9697 39.4037V39.3938Z" fill="#F1AC5E"/>
<path d="M10.8047 21.105C11.1432 20.8744 11.7122 21.2276 11.9968 21.4288C12.2813 21.6299 12.8602 22.0665 12.6345 22.5227C12.4088 22.979 11.9575 22.7974 11.6534 22.6208C11.1741 22.3392 10.7151 22.0245 10.2798 21.679C10.2331 21.6309 10.1997 21.5715 10.1828 21.5067C10.1659 21.4418 10.1661 21.3737 10.1834 21.309C10.2007 21.2442 10.2345 21.1851 10.2815 21.1373C10.3285 21.0895 10.387 21.0547 10.4515 21.0363C11.2315 20.8499 12.4726 21.1884 12.4922 22.1695C12.4896 22.2422 12.466 22.3126 12.4243 22.3722C12.3827 22.4318 12.3247 22.4781 12.2574 22.5055C12.19 22.533 12.1162 22.5404 12.0447 22.5269C11.9733 22.5134 11.9072 22.4796 11.8545 22.4295C11.4964 22.1156 11.2217 21.6446 10.6575 21.7771L10.8243 21.1344C11.0745 21.3306 11.3149 21.5122 11.5945 21.6888L12.036 21.9635L12.1685 22.0371C12.0605 22.3363 11.9526 22.4148 11.8496 22.2823C11.7466 22.1499 11.6534 22.0812 11.5602 22.0076C11.467 21.934 11.3296 21.8408 11.2119 21.7623C11.0107 21.6348 10.7998 21.5612 10.7213 21.3257C10.7098 21.2844 10.7122 21.2403 10.7282 21.2005C10.7441 21.1606 10.7727 21.1271 10.8096 21.105H10.8047Z" fill="#F1AC5E"/>
<path d="M12.6583 23.2792C12.768 23.2718 12.8779 23.2902 12.9792 23.3327C13.0806 23.3753 13.1706 23.441 13.2421 23.5244C13.2885 23.5731 13.3199 23.6341 13.3324 23.7001C13.3449 23.7662 13.3381 23.8344 13.3127 23.8967C13.2873 23.9589 13.2444 24.0125 13.1892 24.0509C13.134 24.0893 13.0689 24.1109 13.0017 24.1131C12.8512 24.1145 12.7061 24.0566 12.5978 23.952C12.4895 23.8474 12.4267 23.7044 12.4228 23.5539C12.4233 23.4768 12.449 23.402 12.4959 23.3409C12.5429 23.2798 12.6085 23.2357 12.6828 23.2154C13.0508 23.0977 13.6149 23.4705 13.4628 23.8826C13.4416 23.9514 13.3995 24.012 13.3424 24.0559C13.2853 24.0998 13.216 24.125 13.144 24.1279C13.0731 24.1279 13.0031 24.1125 12.9387 24.0829C12.8744 24.0532 12.8172 24.01 12.7711 23.9562C12.6976 23.8826 12.8153 23.9856 12.727 23.9267C12.6828 23.9267 12.6387 23.8678 12.727 23.9267C12.6835 23.9145 12.6433 23.8927 12.6093 23.8629L13.1342 23.5637C13.1342 23.5307 13.1214 23.499 13.0986 23.4752C13.0757 23.4514 13.0445 23.4374 13.0115 23.4362L12.6779 23.8679C12.6553 23.7949 12.6168 23.7279 12.5651 23.6716C12.5267 23.6486 12.4969 23.6136 12.4801 23.5721C12.4634 23.5306 12.4606 23.4847 12.4722 23.4414C12.4839 23.3982 12.5093 23.3599 12.5447 23.3324C12.58 23.3049 12.6233 23.2897 12.6681 23.289L12.6583 23.2792Z" fill="#F1AC5E"/>
<path d="M11.045 11.0093C11.3394 11.3233 11.3099 11.5686 11.4081 11.9905C11.5624 12.6324 11.8191 13.2453 12.1684 13.8056C12.8781 14.812 13.7308 15.7094 14.6998 16.4694C14.8371 16.5871 14.6654 16.7882 14.5133 16.7097C13.2825 16.091 12.2379 15.1565 11.4865 14.0018C11.0254 13.261 10.2552 11.7697 10.942 11.0044C10.9558 10.9909 10.9743 10.9834 10.9935 10.9834C11.0128 10.9834 11.0313 10.9909 11.045 11.0044V11.0093Z" fill="#F1AC5E"/>
<path d="M16.3083 18.6532C17.8144 19.2517 18.7023 20.3898 19.8061 21.5279C21.3415 23.0977 23.24 23.652 25.2023 24.5498C25.4132 24.6479 25.2612 24.952 25.0551 24.9079C23.3086 24.5544 21.6618 23.819 20.2329 22.7543C18.7612 21.5917 17.78 19.8796 16.1366 18.9622C15.9747 18.869 16.0876 18.5845 16.2691 18.6532H16.3083Z" fill="#F1AC5E"/>
<path d="M33.3948 35.0868C31.9575 34.7041 30.6771 33.9241 29.2005 33.6151C27.6748 33.3218 26.1308 33.1333 24.5793 33.0509C21.8959 32.84 18.6925 32.732 16.5635 30.8973C16.2789 30.6569 16.5635 30.1762 16.9216 30.2841C18.4095 30.7893 19.9306 31.1909 21.474 31.486C23.1322 31.7509 24.805 31.8049 26.4729 31.9766C28.7933 32.2071 32.296 32.5211 33.7775 34.5913C33.9541 34.8464 33.6597 35.1603 33.3948 35.0818V35.0868Z" fill="#F1AC5E"/>
<path d="M11.0213 26.0901C11.8503 26.4924 12.3998 27.2086 13.0866 27.7973C13.7734 28.386 14.7987 28.7784 15.1764 29.4996C15.2072 29.5479 15.2245 29.6035 15.2264 29.6608C15.2283 29.718 15.2147 29.7747 15.1871 29.8249C15.1595 29.8751 15.1189 29.917 15.0695 29.946C15.0201 29.9751 14.9639 29.9903 14.9066 29.9901C14.0971 30.0883 13.2436 29.2984 12.6598 28.8079C11.9469 28.1107 11.2907 27.3577 10.6975 26.5562C10.6498 26.5071 10.6214 26.4426 10.6174 26.3743C10.6134 26.306 10.6342 26.2385 10.6759 26.1843C10.7176 26.1301 10.7775 26.0927 10.8445 26.079C10.9116 26.0653 10.9813 26.0762 11.0409 26.1098L11.0213 26.0901Z" fill="#F1AC5E"/>
<path d="M38.7079 17.397C37.6041 18.0151 36.6426 17.1468 35.7645 16.5189C34.2928 15.5034 32.7622 14.5566 30.9373 14.4928C29.2105 14.4241 27.5034 14.8411 25.7717 14.7528C24.2471 14.7299 22.7489 14.352 21.3958 13.6491C21.1358 13.5019 21.229 13.0162 21.5577 13.0506C23.1226 13.237 24.6679 13.6049 26.2475 13.6392C27.8271 13.6736 29.3724 13.3204 30.9373 13.4038C32.1493 13.486 33.3253 13.8506 34.3713 14.4683C35.637 15.1943 37.1038 17.0291 38.6049 17.034C38.6475 17.034 38.689 17.048 38.723 17.0737C38.757 17.0995 38.7817 17.1356 38.7933 17.1766C38.805 17.2176 38.8029 17.2613 38.7875 17.3011C38.7721 17.3408 38.7442 17.3745 38.7079 17.397Z" fill="#F1AC5E"/>
<path d="M14.2865 6.1429H14.311C14.4561 6.06138 14.6272 6.03934 14.7883 6.08143C14.9493 6.12352 15.0877 6.22645 15.1744 6.36856C15.665 7.15837 15.7091 8.27196 16.1555 9.13046C16.6666 10.0934 17.3292 10.968 18.1178 11.7206C18.169 11.7747 18.2012 11.8438 18.2097 11.9177C18.2181 11.9916 18.2024 12.0663 18.1648 12.1305C18.1271 12.1947 18.0697 12.2449 18.0011 12.2736C17.9324 12.3023 17.8563 12.308 17.7842 12.2897C17.0642 12.1139 16.3921 11.7807 15.8162 11.3142C15.2402 10.8477 14.7748 10.2594 14.4533 9.59159C14.1197 8.9097 13.3593 6.68743 14.3257 6.15762L14.2865 6.1429Z" fill="#F18913"/>
<path d="M39.0365 21.5277V21.5767C39.0358 21.623 39.0246 21.6685 39.0037 21.7098C38.9828 21.751 38.9528 21.787 38.9159 21.8149C38.879 21.8428 38.8362 21.8619 38.7908 21.8708C38.7454 21.8797 38.6986 21.8781 38.6539 21.8662C37.6973 21.6994 36.8584 20.885 36.1569 20.2473C35.6701 19.7978 35.1257 19.415 34.538 19.1092C33.8905 18.7805 33.238 18.6186 32.6788 18.1673C32.252 17.8092 32.6297 17.1861 33.1006 17.1469C34.5184 17.0635 36.044 18.2016 36.9418 19.2269C37.3608 19.8141 37.8163 20.3745 38.3056 20.9046C38.3056 20.9046 39.0659 21.3216 39.0414 21.5277H39.0365Z" fill="#F18913"/>
<path d="M6.77093 12.3095C7.75207 13.1484 8.24264 14.5808 8.94905 15.6552C9.73531 16.7821 10.5854 17.8631 11.4951 18.8929C11.5318 18.942 11.5531 19.001 11.5562 19.0623C11.5594 19.1236 11.5442 19.1844 11.5126 19.237C11.481 19.2896 11.4345 19.3316 11.379 19.3577C11.3234 19.3838 11.2614 19.3928 11.2008 19.3835C9.7683 19.0597 8.74792 18.1472 7.90905 16.9797C7.07018 15.8122 6.02037 14.0805 6.02037 12.5989C6.0237 12.5135 6.05149 12.4308 6.10044 12.3608C6.14938 12.2907 6.21742 12.2361 6.29647 12.2035C6.37552 12.171 6.46226 12.1618 6.54637 12.1771C6.63048 12.1924 6.70842 12.2316 6.77093 12.2899V12.3095Z" fill="#F18913"/>
<path d="M28.572 40.807C27.635 40.2135 26.2467 40.2036 25.1724 40.0221C23.9607 39.8161 22.7195 39.6542 21.5422 39.3893C19.4327 38.9331 17.3233 38.1433 15.7927 36.5636C15.7532 36.5152 15.7296 36.4557 15.7252 36.3933C15.7207 36.3309 15.7356 36.2687 15.7677 36.2151C15.7999 36.1614 15.8478 36.119 15.905 36.0936C15.9621 36.0682 16.0257 36.061 16.0871 36.0731C18.4026 36.7697 20.7426 37.2799 23.1218 37.7459C25.295 38.1678 27.6056 38.3248 29.1607 40.0614C29.5188 40.4538 29.0577 41.1406 28.572 40.8267V40.807Z" fill="#F18913"/>
<path d="M41.1071 29.8527C39.4932 30.618 37.8596 30.1274 36.3732 29.2689C34.8868 28.4105 32.9883 26.9878 32.4143 25.3444C32.2132 24.7754 32.9049 24.4418 33.3268 24.6429C34.6513 25.2316 35.5245 26.6591 36.7068 27.498C37.9314 28.3949 39.3789 28.938 40.8913 29.0678C41.2837 29.0678 41.5143 29.6712 41.1071 29.8625V29.8527Z" fill="#F19B3A"/>
<path d="M31.2223 24.0786C30.82 23.956 30.4129 23.902 30.0204 23.745C29.628 23.588 29.1766 23.5144 28.951 23.1563C28.8946 23.0483 28.8805 22.9232 28.9113 22.8053C28.9421 22.6874 29.0157 22.5852 29.1178 22.5186C29.5299 22.2635 30.1529 22.5186 30.5551 22.705C30.9698 22.9308 31.3105 23.2715 31.5363 23.6862C31.5605 23.7304 31.5714 23.7807 31.5676 23.831C31.5638 23.8813 31.5454 23.9294 31.5147 23.9694C31.4841 24.0094 31.4424 24.0397 31.3948 24.0565C31.3473 24.0732 31.2958 24.0758 31.2468 24.0639L31.2223 24.0786Z" fill="#F19B3A"/>
<path d="M23.8539 4.38165C25.3256 5.79448 25.9732 7.99223 28.0679 8.7428C29.7505 9.34619 31.6245 9.16468 33.3317 9.69939C34.0626 9.92996 35.7305 10.8669 36.4958 10.3028C37.0109 9.92506 36.8932 9.12052 37.477 8.76241C38.8751 7.86958 39.5275 10.0183 39.1302 11.019C38.512 12.5692 36.8343 13.1334 35.2841 12.9322C34.1902 12.79 33.2679 12.2749 32.2377 11.9511C31.3247 11.6864 30.3933 11.4897 29.4513 11.3624C27.749 11.0583 26.2037 10.5236 25.0362 9.21374C23.9913 8.07072 22.5833 6.20656 23.1818 4.58769C23.2035 4.51673 23.2428 4.45243 23.2962 4.40089C23.3495 4.34934 23.4151 4.31226 23.4868 4.29311C23.5585 4.27396 23.6339 4.2734 23.7058 4.29146C23.7778 4.30953 23.8439 4.34563 23.8981 4.39637L23.8539 4.38165Z" fill="#F19B3A"/>
<path d="M35.637 9.09692C36.6721 10.1565 35.9657 10.9169 34.6559 10.8139C33.3461 10.7109 31.948 10.4901 30.6038 10.3233C29.6073 10.2528 28.6208 10.0786 27.6604 9.80333C26.12 9.26371 24.2804 7.84108 24.1087 6.10447C23.9714 4.68673 25.3842 2.87163 26.851 3.86257C26.9662 3.93423 27.0583 4.03753 27.1164 4.16015C27.1744 4.28277 27.1959 4.4195 27.1783 4.55402C27.1608 4.68854 27.1048 4.81515 27.0172 4.91871C26.9295 5.02228 26.8139 5.09843 26.6842 5.13805C26.5337 5.15003 26.3922 5.2146 26.2846 5.32044C26.177 5.42629 26.11 5.56665 26.0955 5.71692C25.654 6.12409 25.6982 6.54107 26.2329 6.96296C26.5579 7.34076 26.9344 7.67103 27.3514 7.9441C28.0403 8.35795 28.8129 8.6127 29.6129 8.68975C30.5204 8.83202 31.428 8.94976 32.3355 9.09202C32.5318 9.12145 35.4016 9.58258 35.3378 9.29805C35.3258 9.25611 35.3282 9.21138 35.3445 9.17093C35.3608 9.13048 35.3901 9.09661 35.4278 9.07467C35.4655 9.05273 35.5094 9.04397 35.5526 9.04977C35.5959 9.05558 35.6359 9.07563 35.6665 9.10674L35.637 9.09692Z" fill="#F18913"/>
<path d="M28.2747 5.59478C28.4542 5.69254 28.6193 5.8147 28.7653 5.95779C29.1645 6.20116 29.6223 6.33171 30.0898 6.33554C30.8306 6.43856 31.5615 6.77213 32.3072 6.67892C32.2238 7.28232 32.1404 7.89063 32.0619 8.49403C31.1789 8.22422 25.9445 6.92421 28.0834 5.15327C28.9517 4.43213 29.9475 5.31515 30.7324 5.71742C31.3273 6.02533 31.9498 6.27663 32.5917 6.46798C33.2294 6.6593 33.6709 6.68874 33.9996 7.31667C34.0707 7.44042 34.0995 7.58393 34.0818 7.72553C34.0641 7.86712 34.0008 7.99911 33.9015 8.10157C33.1019 8.74911 32.263 8.38119 31.3702 8.05742C30.9372 7.90079 30.513 7.72066 30.0996 7.5178C29.8053 7.37063 29.0155 6.6544 28.7064 6.66421L29.3392 6.40421L29.1823 6.52194L29.4472 5.89401L29.2411 5.60949L29.7317 5.82043C30.0358 5.93817 30.34 6.06082 30.6441 6.16875C31.254 6.39274 31.8806 6.56825 32.5181 6.69364C33.617 6.92421 33.2294 8.40573 32.2728 8.51365C31.6267 8.53829 30.9827 8.42455 30.3841 8.18006C29.7611 7.98874 29.0645 7.97893 28.4807 7.68949C27.789 7.33138 26.9747 6.34535 27.7351 5.65855C27.8015 5.60074 27.8834 5.56384 27.9707 5.5525C28.058 5.54115 28.1467 5.55586 28.2257 5.59478H28.2747Z" fill="#F18913"/>
<path d="M20.7779 5.74618C20.9937 6.72731 21.5677 7.70845 21.4205 8.68958C21.3899 8.80357 21.3222 8.90408 21.228 8.97518C21.1338 9.04628 21.0185 9.08387 20.9005 9.08203C19.3307 8.8858 18.9873 7.02656 19.1982 5.73637C19.3258 4.93184 20.616 4.97599 20.7779 5.73637V5.74618Z" fill="#F18913"/>
<path d="M21.9245 9.33234C22.0177 9.39121 22.1208 9.44027 22.214 9.49914C22.3178 9.57922 22.4117 9.67145 22.4936 9.77385C22.6875 9.96606 22.8044 10.2225 22.8223 10.495C22.8198 10.5775 22.7859 10.6559 22.7276 10.7143C22.6692 10.7726 22.5908 10.8065 22.5083 10.809C22.3681 10.8127 22.23 10.7751 22.1109 10.701C21.9477 10.6404 21.8061 10.5329 21.7038 10.392C21.6105 10.2859 21.5388 10.1626 21.4928 10.029C21.466 9.89602 21.4464 9.76173 21.434 9.62669C21.4329 9.56899 21.4474 9.51207 21.4762 9.46201C21.5049 9.41194 21.5466 9.3706 21.597 9.3424C21.6473 9.31421 21.7044 9.30021 21.7621 9.30189C21.8198 9.30358 21.8759 9.32089 21.9245 9.35197V9.33234Z" fill="#F18913"/>
<path d="M23.4955 11.1815C23.7507 11.3815 24.0252 11.5557 24.3148 11.7016C24.4404 11.7823 24.5571 11.876 24.6631 11.9812C24.8053 12.0891 24.9476 12.1431 25.0261 12.3197C25.0477 12.3588 25.0603 12.4023 25.063 12.447C25.0656 12.4917 25.0581 12.5364 25.0412 12.5778C25.0243 12.6192 24.9982 12.6563 24.9651 12.6864C24.9319 12.7164 24.8924 12.7386 24.8495 12.7514C24.654 12.7813 24.4545 12.7701 24.2636 12.7186C24.0727 12.667 23.8947 12.5763 23.7408 12.4521C23.4445 12.2011 23.1823 11.9125 22.9608 11.5936C22.7155 11.26 23.2208 10.9461 23.4955 11.1815Z" fill="#F18913"/>
<path d="M31.7671 17.6762C31.5907 17.7049 31.4102 17.6965 31.2373 17.6516C31.1418 17.6494 31.0466 17.6395 30.9527 17.6222C30.8644 17.5977 30.7663 17.5437 30.678 17.5143C30.5717 17.4764 30.4816 17.4031 30.423 17.3065C30.3645 17.21 30.341 17.0963 30.3566 16.9845C30.3721 16.8727 30.4258 16.7696 30.5085 16.6928C30.5912 16.6159 30.6978 16.5699 30.8105 16.5626C31.0482 16.5293 31.2905 16.5668 31.5071 16.6705C31.7161 16.7354 31.8974 16.8684 32.0222 17.0482C32.0534 17.1051 32.0716 17.1683 32.0754 17.2331C32.0792 17.2979 32.0685 17.3628 32.0441 17.4229C32.0196 17.4831 31.9821 17.537 31.9342 17.5808C31.8862 17.6246 31.8292 17.6572 31.7671 17.6762Z" fill="#F18913"/>
<path d="M29.5042 17.1713C29.3674 17.1731 29.2336 17.1319 29.1215 17.0536C29.0726 17.0239 29.0333 16.981 29.0081 16.9297C28.9828 16.8784 28.9729 16.8209 28.9793 16.7641C29.0185 16.4796 29.3766 16.4698 29.5925 16.5238C29.6649 16.5492 29.7264 16.599 29.7665 16.6645C29.8065 16.7301 29.8228 16.8074 29.8124 16.8835C29.802 16.9597 29.7657 17.0299 29.7095 17.0823C29.6533 17.1347 29.5808 17.1662 29.5042 17.1713Z" fill="#F18913"/>
<path d="M13.2525 11.8291C13.402 11.8404 13.5419 11.9068 13.645 12.0155C13.7186 12.094 13.7873 12.1823 13.8559 12.2657C14.0034 12.4005 14.0989 12.5828 14.1257 12.7808C14.1284 12.8706 14.1082 12.9595 14.067 13.0394C14.0258 13.1192 13.965 13.1872 13.8903 13.237C13.8078 13.283 13.7149 13.3071 13.6205 13.3071C13.526 13.3071 13.4331 13.283 13.3507 13.237C13.2215 13.1403 13.1172 13.0142 13.0465 12.8691C12.9925 12.7808 12.9239 12.6876 12.8748 12.5944C12.8042 12.4408 12.7886 12.2676 12.8307 12.1038C12.8559 12.0167 12.914 11.9429 12.9928 11.898C13.0716 11.8531 13.1648 11.8407 13.2525 11.8634V11.8291Z" fill="#F18913"/>
<path d="M14.8817 13.335C15.029 13.3663 15.1648 13.4376 15.2742 13.5411C15.339 13.6481 15.3885 13.7637 15.4213 13.8845C15.4272 13.9099 15.4273 13.9363 15.4217 13.9618C15.416 13.9872 15.4049 14.0111 15.3889 14.0318C15.373 14.0524 15.3527 14.0693 15.3294 14.0811C15.3062 14.093 15.2806 14.0995 15.2546 14.1003C15.13 14.0955 15.0065 14.0757 14.8866 14.0414C14.7542 13.9826 14.6757 13.8256 14.5923 13.7128C14.5089 13.5999 14.6806 13.2516 14.8817 13.335Z" fill="#F18913"/>
<path d="M14.7689 21.3305C14.8621 21.3305 14.6364 21.2962 14.7296 21.3305C14.8228 21.3649 14.607 21.3305 14.5628 21.3305C14.4017 21.3095 14.2483 21.2488 14.1164 21.1539H14.0723L13.8761 21.0754C13.7668 21.0397 13.6691 20.9754 13.5932 20.8891C13.5173 20.8028 13.4659 20.6978 13.4444 20.5849L13.7093 20.9234L13.5474 20.8056C13.4391 20.7587 13.3514 20.6743 13.3003 20.568C13.2492 20.4617 13.2382 20.3405 13.2691 20.2266C13.3001 20.1128 13.3711 20.014 13.4691 19.9482C13.567 19.8825 13.6854 19.8542 13.8025 19.8686H13.9938L13.7093 19.9471C14.0919 19.6675 14.5285 19.9766 14.8179 20.2464C14.9012 20.3097 14.9707 20.3894 15.0221 20.4805C15.0736 20.5716 15.1059 20.6722 15.1172 20.7762C15.1172 20.8154 15.1172 21.0313 15.1172 20.9381V21.0705C15.117 21.1117 15.1075 21.1523 15.0892 21.1893C15.0709 21.2262 15.0444 21.2585 15.0117 21.2836C14.9791 21.3087 14.9411 21.326 14.9007 21.3341C14.8603 21.3422 14.8185 21.341 14.7787 21.3305H14.7689Z" fill="#F19B3A"/>
<path d="M23.3487 25.8204C23.7948 25.8261 24.2372 25.904 24.6585 26.051C24.8532 26.1146 25.0434 26.1917 25.2275 26.2815C25.4973 26.4091 25.5219 26.4925 25.7181 26.7132C25.7452 26.7429 25.7633 26.7797 25.7703 26.8193C25.7772 26.8589 25.7727 26.8997 25.7572 26.9368C25.7417 26.9739 25.716 27.0058 25.683 27.0288C25.65 27.0518 25.6111 27.0648 25.5709 27.0664C25.3791 27.113 25.1789 27.113 24.9871 27.0664C24.7726 27.0113 24.5613 26.9441 24.3543 26.8653C23.9552 26.7305 23.5732 26.5494 23.2162 26.3257C23.1648 26.2932 23.1251 26.2451 23.103 26.1884C23.081 26.1317 23.0776 26.0694 23.0936 26.0107C23.1095 25.952 23.1438 25.8999 23.1915 25.8621C23.2391 25.8244 23.2977 25.8029 23.3585 25.8008L23.3487 25.8204Z" fill="#F19B3A"/>
</g>
<g style="mix-blend-mode:multiply" opacity="0.61">
<path d="M9.89159 10.7246C8.88463 14.5026 9.169 18.5087 10.6995 22.1066C12.2301 25.7045 14.919 28.6877 18.3391 30.5824C21.7593 32.4771 25.7145 33.1745 29.5764 32.564C33.4383 31.9534 36.9854 30.0699 39.6543 27.2126C38.97 29.7915 37.7064 32.1804 35.9597 34.1975C34.213 36.2145 32.0292 37.8065 29.5745 38.8523C27.1198 39.8982 24.4589 40.3703 21.7942 40.2328C19.1296 40.0953 16.5314 39.3517 14.1974 38.0587C11.8634 36.7658 9.85508 34.9574 8.3253 32.7713C6.79552 30.5852 5.78456 28.0789 5.36938 25.4432C4.95419 22.8075 5.14571 20.1118 5.92935 17.5612C6.71299 15.0107 8.06811 12.6725 9.89159 10.7246Z" fill="#F1AC5E"/>
</g>
<g style="mix-blend-mode:multiply" opacity="0.82">
<path d="M11.0405 9.60254C8.8981 13.2002 8.11359 17.4457 8.82881 21.5714C9.54403 25.6971 11.7118 29.4307 14.9401 32.0973C18.1685 34.7639 22.2444 36.1875 26.4309 36.1106C30.6175 36.0337 34.6384 34.4614 37.7666 31.6781C36.4724 33.8514 34.7233 35.719 32.6395 37.1529C30.5556 38.5867 28.1862 39.5528 25.6939 39.9849C23.2015 40.4169 20.6452 40.3047 18.2003 39.656C15.7554 39.0072 13.4798 37.8373 11.5296 36.2264C9.57931 34.6155 8.00061 32.6018 6.90176 30.3235C5.80291 28.0451 5.20991 25.556 5.16346 23.0269C5.117 20.4978 5.61818 17.9886 6.63262 15.6714C7.64705 13.3543 9.15074 11.284 11.0405 9.60254Z" fill="#F1AC5E"/>
</g>
<g style="mix-blend-mode:screen" opacity="0.25">
<path d="M8.72927 12.0986C6.18081 15.8898 5.21165 20.5254 6.02789 25.02C6.84413 29.5146 9.38138 33.5135 13.1001 36.1665C16.8189 38.8194 21.4258 39.9172 25.9414 39.2263C30.4569 38.5355 34.5249 36.1105 37.2803 32.467C35.9786 34.4268 34.296 36.1047 32.3327 37.401C30.3693 38.6972 28.1652 39.5853 25.8516 40.0124C23.538 40.4395 21.1622 40.3968 18.8654 39.8869C16.5686 39.3771 14.3979 38.4104 12.4823 37.0445C10.5667 35.6786 8.94549 33.9413 7.71502 31.9361C6.48456 29.9308 5.67002 27.6985 5.31987 25.372C4.96972 23.0456 5.09111 20.6724 5.67683 18.3938C6.26254 16.1152 7.30062 13.9777 8.72927 12.1084V12.0986Z" fill="#F1AC5E"/>
</g>
<g style="mix-blend-mode:screen" opacity="0.58">
<path d="M10.108 10.5005C11.7386 8.81134 13.6926 7.4678 15.8536 6.54997C18.0146 5.63215 20.3383 5.15882 22.6861 5.15823C23.2907 5.1571 23.895 5.18821 24.4963 5.25144C24.8103 5.28088 25.1242 5.32503 25.4284 5.37408L25.6933 5.41823C25.914 5.45748 26.1299 5.49673 26.3506 5.54579L26.6646 5.61937L27.2533 5.76164L27.582 5.85484C27.7733 5.91371 27.9597 5.96767 28.1461 6.03144L28.4699 6.13937L29.0193 6.3405L29.3284 6.46314C29.5197 6.54163 29.7061 6.62503 29.8876 6.70843L30.1623 6.83107L30.7706 7.13522L30.9718 7.23825C31.5113 7.52792 32.0352 7.84559 32.5416 8.18995L32.6397 8.25862C32.8555 8.40579 33.0665 8.55786 33.2725 8.71484L33.4589 8.86202C33.6355 8.99938 33.8072 9.14164 33.9789 9.2839L34.185 9.46052C34.3469 9.60278 34.5039 9.74014 34.6755 9.88731L34.8865 10.0835L35.328 10.5299C35.3918 10.5937 35.4605 10.6624 35.5193 10.7311C35.6714 10.8881 35.8137 11.05 35.9559 11.2216C36.0099 11.2903 36.0688 11.3492 36.1227 11.4179C36.2748 11.5994 36.422 11.7809 36.5691 11.9673L36.6869 12.1194C36.8684 12.3598 37.045 12.61 37.2118 12.8503C39.611 16.3796 40.6402 20.6629 40.1065 24.8969C39.5727 29.1309 37.5126 33.0248 34.3125 35.8481C37.1001 32.9743 38.8194 29.2325 39.1845 25.2455C39.5495 21.2585 38.5382 17.2668 36.3189 13.9345C35.1357 15.1249 33.5831 15.878 31.9157 16.07C30.2483 16.2621 28.5651 15.8819 27.1422 14.9916C25.7193 14.1014 24.6412 12.754 24.0846 11.1705C23.5281 9.58705 23.5262 7.86143 24.0793 6.27673C23.2959 6.16646 22.5059 6.11073 21.7148 6.10993C17.4386 6.10227 13.3085 7.66462 10.108 10.5005Z" fill="#F1AC5E"/>
</g>
<g style="mix-blend-mode:screen" opacity="0.25">
<path d="M23.828 5.19727C28.1058 5.47229 32.1348 7.30454 35.1537 10.3478C38.1726 13.3912 39.9723 17.4347 40.2129 21.7146C38.0054 23.8007 35.0697 24.9409 32.0328 24.8919C28.996 24.8428 26.0987 23.6083 23.9597 21.452C21.8207 19.2957 20.6096 16.3886 20.585 13.3515C20.5604 10.3143 21.7242 7.38794 23.828 5.19727Z" fill="#F1AC5E"/>
</g>
<g style="mix-blend-mode:screen" opacity="0.5">
<path d="M22.6113 9.61665C22.6123 9.92637 22.5213 10.2294 22.35 10.4874C22.1786 10.7454 21.9345 10.9467 21.6487 11.0659C21.3628 11.1851 21.048 11.2168 20.7441 11.157C20.4402 11.0972 20.1609 10.9485 19.9416 10.7298C19.7223 10.5112 19.5727 10.2324 19.5119 9.92866C19.4512 9.62497 19.4819 9.31006 19.6002 9.02382C19.7185 8.73759 19.919 8.4929 20.1765 8.32073C20.4339 8.14856 20.7367 8.05664 21.0464 8.05664C21.4606 8.05664 21.8579 8.22084 22.1512 8.51325C22.4446 8.80567 22.61 9.20247 22.6113 9.61665Z" fill="#F1AC5E"/>
</g>
<g style="mix-blend-mode:screen" opacity="0.5">
<path d="M23.4746 13.2214C23.4746 13.4154 23.4171 13.6051 23.3093 13.7665C23.2015 13.9278 23.0482 14.0536 22.8689 14.1278C22.6897 14.2021 22.4924 14.2215 22.3021 14.1837C22.1117 14.1458 21.9369 14.0523 21.7997 13.9151C21.6625 13.7779 21.5691 13.6031 21.5312 13.4128C21.4933 13.2225 21.5128 13.0252 21.587 12.8459C21.6613 12.6666 21.787 12.5134 21.9484 12.4056C22.1097 12.2978 22.2994 12.2402 22.4935 12.2402C22.7517 12.2465 22.9977 12.3518 23.1803 12.5345C23.363 12.7172 23.4684 12.9631 23.4746 13.2214Z" fill="#F1AC5E"/>
</g>
<path style="mix-blend-mode:multiply" opacity="0.51" d="M6.36939 29.0763C2.85257 20.0514 7.31769 9.88443 16.3425 6.36761C25.3673 2.85079 35.5344 7.31592 39.0512 16.3407C42.568 25.3656 38.1029 35.5326 29.078 39.0494C20.0532 42.5662 9.88621 38.1011 6.36939 29.0763Z" fill="url(#paint0_linear_1166_43523)"/>
<path style="mix-blend-mode:screen" opacity="0.32" d="M6.93567 15.8818C6.84465 19.8755 8.13831 23.7776 10.5971 26.9259C13.0559 30.0742 16.5283 32.2747 20.425 33.154C24.3217 34.0333 28.4026 33.5372 31.9751 31.7498C35.5476 29.9625 38.3916 26.994 40.0244 23.3483C39.966 25.9101 39.3394 28.4269 38.1897 30.717C37.04 33.0071 35.396 35.0132 33.3764 36.5904C31.3569 38.1676 29.0122 39.2766 26.5118 39.8372C24.0114 40.3978 21.4177 40.396 18.9181 39.832C16.4185 39.2679 14.0754 38.1557 12.058 36.5757C10.0406 34.9957 8.39941 32.9873 7.25288 30.6957C6.10634 28.404 5.48313 25.8863 5.42827 23.3244C5.37342 20.7625 5.88828 18.2205 6.93567 15.8818Z" fill="url(#paint1_linear_1166_43523)"/>
<path style="mix-blend-mode:screen" opacity="0.32" d="M15.6752 7.16406C12.9294 10.0723 11.276 13.8419 10.9961 17.8317C10.7163 21.8215 11.8274 25.7851 14.1403 29.0481C16.4533 32.3111 19.8253 34.672 23.6826 35.7292C27.54 36.7864 31.6445 36.4745 35.2979 34.8468C33.5404 36.7082 31.3917 38.1565 29.0068 39.0871C26.6219 40.0178 24.0602 40.4076 21.5065 40.2285C18.9527 40.0493 16.4705 39.3058 14.2389 38.0514C12.0072 36.7969 10.0817 35.0629 8.60129 32.9744C7.12083 30.8858 6.12229 28.4948 5.67766 25.9736C5.23303 23.4525 5.35339 20.8641 6.03007 18.3951C6.70675 15.9262 7.92289 13.6381 9.59078 11.6959C11.2587 9.75379 13.3367 8.20597 15.6752 7.16406Z" fill="url(#paint2_linear_1166_43523)"/>
<defs>
<linearGradient id="paint0_linear_1166_43523" x1="35.0958" y1="10.3015" x2="10.2927" y2="35.1046" gradientUnits="userSpaceOnUse">
<stop stop-color="#FFF100"/>
<stop offset="1" stop-color="#EC8D66"/>
</linearGradient>
<linearGradient id="paint1_linear_1166_43523" x1="24.3426" y1="16.152" x2="18.6582" y2="39.8608" gradientUnits="userSpaceOnUse">
<stop offset="0.24" stop-color="white"/>
<stop offset="0.92" stop-color="white"/>
<stop offset="1" stop-color="white"/>
</linearGradient>
<linearGradient id="paint2_linear_1166_43523" x1="28.6745" y1="18.4163" x2="8.68744" y2="32.1811" gradientUnits="userSpaceOnUse">
<stop offset="0.24" stop-color="white"/>
<stop offset="0.39" stop-color="#FFFEFC"/>
<stop offset="0.5" stop-color="#FFFAF2"/>
<stop offset="0.6" stop-color="#FFF4E2"/>
<stop offset="0.7" stop-color="#FFECCB"/>
<stop offset="0.78" stop-color="#FFE1AE"/>
<stop offset="0.87" stop-color="#FFD48A"/>
<stop offset="0.95" stop-color="#FFC55F"/>
<stop offset="1" stop-color="#FFB940"/>
</linearGradient>
</defs>
</svg>
