<svg width="44" height="38" viewBox="0 0 44 38" fill="none" xmlns="http://www.w3.org/2000/svg">
<path d="M13.2353 37.637C12.7237 37.637 12.3086 37.2237 12.3067 36.7121L12.2993 34.5912C12.2882 34.4492 12.2027 34.2625 12.0616 34.1233L4.40831 27.5062C3.88738 26.9974 3.52245 26.4133 3.30981 25.7763L0.987453 18.8083C0.842596 18.3728 0.768311 17.9187 0.768311 17.46V10.0677C0.768311 8.84196 1.7656 7.84375 2.99224 7.84375C5.5356 7.84375 7.60445 9.91354 7.60445 12.456V15.0049C7.60445 15.5175 7.18845 15.9335 6.67588 15.9335C6.16331 15.9335 5.74731 15.5175 5.74731 15.0049V12.456C5.74731 10.9368 4.51138 9.70089 2.99224 9.70089C2.78981 9.70089 2.62545 9.86525 2.62545 10.0677V17.46C2.62545 17.7182 2.66724 17.9745 2.74895 18.2205L5.07131 25.1885C5.1911 25.5479 5.39724 25.8775 5.66652 26.1413L13.3198 32.7592C13.8305 33.2588 14.1119 33.8725 14.1537 34.5272L14.163 36.7047C14.1648 37.2182 13.7507 37.6351 13.2372 37.637C13.2372 37.637 13.2362 37.637 13.2353 37.637Z" fill="black"/>
<path d="M22.0002 33.9238C21.4876 33.9238 21.0716 33.5087 21.0716 32.9952V28.7758C21.0716 26.0282 19.0111 23.7699 16.2784 23.5238C15.6804 23.47 15.0972 23.1867 14.6357 22.7262L10.8128 18.9032C9.80157 17.892 8.05585 17.8567 7.00842 18.816L11.7757 23.5925C12.1388 23.9556 12.1388 24.5425 11.7757 24.9055C11.4126 25.2686 10.8258 25.2686 10.4627 24.9055L5.60442 20.0389C4.92935 19.3629 4.92842 18.2653 5.6035 17.5912C7.40214 15.7925 10.3281 15.7925 12.1258 17.5912L15.9487 21.4141C16.1029 21.5682 16.2774 21.6611 16.4436 21.675C20.1421 22.0075 22.9288 25.0606 22.9288 28.7758V32.9952C22.9288 33.5087 22.5128 33.9238 22.0002 33.9238Z" fill="black"/>
<path d="M30.764 37.637C30.764 37.637 30.7612 37.637 30.7603 37.637C30.2477 37.6351 29.8336 37.2182 29.8355 36.7047L29.8438 34.5838C29.8875 33.8725 30.1688 33.2587 30.6368 32.7982L38.3774 26.1013C38.604 25.8766 38.8092 25.547 38.928 25.1895L41.2522 18.2205C41.333 17.9763 41.3748 17.72 41.3748 17.46V10.0677C41.3748 9.86525 41.2105 9.70089 41.008 9.70089C39.4889 9.70089 38.253 10.9368 38.253 12.456V15.0049C38.253 15.5175 37.8379 15.9335 37.3244 15.9335C36.8109 15.9335 36.3958 15.5175 36.3958 15.0049V12.456C36.3958 9.91261 38.4656 7.84375 41.008 7.84375C42.2337 7.84375 43.232 8.84104 43.232 10.0677V17.46C43.232 17.9206 43.1586 18.3737 43.0137 18.8083L40.6895 25.7763C40.4787 26.4115 40.1147 26.9955 39.6356 27.4663L31.895 34.1641C31.7966 34.2625 31.7121 34.4492 31.6991 34.647L31.6926 36.713C31.6917 37.2237 31.2757 37.637 30.764 37.637Z" fill="black"/>
<path d="M22.0084 29.3906C21.9926 29.3906 21.9768 29.3906 21.961 29.3896C21.4485 29.3646 21.0538 28.9281 21.0798 28.4156C21.2553 24.8898 24.0392 21.9917 27.5538 21.6732C27.721 21.6584 27.8965 21.5664 28.0488 21.4132L31.8726 17.5894C32.7436 16.7184 33.9025 16.2383 35.1338 16.2383C36.366 16.2383 37.5248 16.7184 38.3958 17.5894C39.0709 18.2644 39.0709 19.362 38.3949 20.0371L33.5357 24.9046C33.1726 25.2668 32.5848 25.2668 32.2227 24.9028C31.8605 24.5397 31.8605 23.9519 32.2245 23.5898L36.9918 18.8141C35.9435 17.8568 34.1987 17.8902 33.1865 18.9014L29.3636 22.7244C28.9049 23.1849 28.3208 23.4691 27.72 23.522C25.1228 23.7569 23.0651 25.9001 22.9351 28.5066C22.91 29.0043 22.5005 29.3906 22.0084 29.3906Z" fill="black"/>
<path d="M26.7851 14.7058C24.8964 14.7058 23.4423 14.2434 23.3308 14.2072C23.0198 14.105 22.7848 13.8469 22.7133 13.5274C21.9278 10.0277 22.4264 7.1138 24.1953 4.86573C27.6088 0.527446 34.4858 0.364018 34.7773 0.359375H34.7931C35.2788 0.359375 35.6846 0.734518 35.7189 1.22202C36.1256 6.89466 34.9436 10.8559 32.2043 12.9944C30.479 14.3418 28.4612 14.7058 26.7851 14.7058ZM24.4145 12.5738C25.63 12.8496 28.7778 13.3222 31.0705 11.5236C33.1449 9.8958 34.1023 6.7888 33.9184 2.28059C32.0817 2.47002 27.8604 3.20545 25.6504 6.01995C24.3365 7.69416 23.9205 9.8958 24.4145 12.5738Z" fill="#FEBA02"/>
<path d="M21.9693 21.9082C21.4568 21.9082 21.0408 21.4932 21.0408 20.9797C21.0408 9.9436 29.7341 5.96468 30.1046 5.80032C30.5753 5.5886 31.1223 5.80403 31.3293 6.27296C31.5373 6.74189 31.3256 7.29068 30.8567 7.49775C30.5048 7.65653 22.8979 11.2 22.8979 20.9797C22.8979 21.4932 22.4819 21.9082 21.9693 21.9082Z" fill="black"/>
<path d="M17.2143 14.7058C15.5392 14.7058 13.5214 14.3418 11.7961 12.9944C9.05777 10.855 7.87477 6.89466 8.28148 1.22202C8.31677 0.735446 8.72162 0.359375 9.20727 0.359375H9.22305C9.5137 0.364018 16.3907 0.528375 19.8051 4.86666C21.574 7.1138 22.0717 10.0286 21.2871 13.5284C21.2156 13.8478 20.9806 14.1059 20.6696 14.2081C20.5572 14.2434 19.1031 14.7058 17.2143 14.7058ZM10.082 2.27966C9.89812 6.78788 10.8555 9.8958 12.9308 11.5236C15.2216 13.3213 18.3695 12.8496 19.5868 12.5738C20.0799 9.89395 19.663 7.68952 18.3453 6.0153C16.127 3.1943 11.915 2.46537 10.082 2.27966Z" fill="#FEBA02"/>
<path d="M22.0308 21.9106C21.5182 21.9106 21.1022 21.4955 21.1022 20.982C21.1022 11.1847 13.4665 7.64588 13.1415 7.49917C12.6745 7.28931 12.4646 6.74145 12.6726 6.27345C12.8815 5.80638 13.4275 5.59467 13.8955 5.80267C14.2651 5.9661 22.9584 9.94595 22.9584 20.982C22.9593 21.4955 22.5433 21.9106 22.0308 21.9106Z" fill="black"/>
</svg>
