<svg width="52" height="52" viewBox="0 0 52 52" fill="none" xmlns="http://www.w3.org/2000/svg">
<g clip-path="url(#clip0_4_7187)">
<path d="M34.7297 33.348C33.4977 33.348 32.4954 32.4804 32.4954 31.4141C32.4954 30.3477 33.4977 29.4802 34.7297 29.4802C35.9618 29.4802 36.9641 30.3477 36.9641 31.4141C36.9641 31.9749 37.4189 32.4297 37.9797 32.4297C38.5405 32.4297 38.9953 31.9749 38.9953 31.4141C38.9953 29.553 37.6086 27.9881 35.7454 27.5634V27.0352C35.7454 26.4743 35.2906 26.0195 34.7297 26.0195C34.1689 26.0195 33.7141 26.4743 33.7141 27.0352V27.5634C31.8508 27.9881 30.4641 29.553 30.4641 31.4141C30.4641 33.6004 32.3776 35.3792 34.7297 35.3792C35.9618 35.3792 36.9641 36.2468 36.9641 37.3132C36.9641 38.3796 35.9618 39.2471 34.7297 39.2471C33.4977 39.2471 32.4954 38.3796 32.4954 37.3132C32.4954 36.7523 32.0406 36.2975 31.4797 36.2975C30.9189 36.2975 30.4641 36.7523 30.4641 37.3132C30.4641 39.1743 31.8508 40.7392 33.7141 41.1639V41.6026C33.7141 42.1635 34.1689 42.6183 34.7297 42.6183C35.2906 42.6183 35.7454 42.1635 35.7454 41.6026V41.1639C37.6086 40.7392 38.9953 39.1743 38.9953 37.3132C38.9953 35.1267 37.0818 33.348 34.7297 33.348Z" fill="#FEBA02"/>
<path d="M45.8535 27.3061C44.5268 25.2388 42.6577 23.5846 40.4482 22.5224C39.9425 22.2793 39.3356 22.4922 39.0927 22.9978C38.8497 23.5033 39.0624 24.1101 39.568 24.3531C43.4184 26.204 45.9061 30.1587 45.9061 34.4282C45.9061 36.2551 45.4558 38.0669 44.604 39.6679C44.3405 40.163 44.5283 40.7781 45.0235 41.0415C45.1755 41.1224 45.3388 41.1608 45.4997 41.1608C45.8631 41.1608 46.2146 40.9651 46.3972 40.622C47.4048 38.7284 47.9374 36.5866 47.9374 34.4282C47.9374 31.8932 47.2168 29.4304 45.8535 27.3061Z" fill="black"/>
<path d="M36.3262 21.2267L36.2578 21.2266C35.697 21.2266 35.2422 21.6813 35.2422 22.2422C35.2422 22.8031 35.697 23.2578 36.2578 23.2578L36.3166 23.2579C36.3182 23.2579 36.3198 23.2579 36.3215 23.2579C36.8802 23.2579 37.3344 22.8064 37.337 22.2471C37.3396 21.6861 36.887 21.2293 36.3262 21.2267Z" fill="black"/>
<path d="M29.9007 44.5029C26.0505 42.652 23.5627 38.6972 23.5627 34.4279C23.5627 32.601 24.0131 30.7892 24.8649 29.1882C25.1283 28.693 24.9405 28.078 24.4453 27.8145C23.9503 27.5511 23.335 27.7389 23.0717 28.2341C22.0641 30.1277 21.5315 32.2695 21.5315 34.4279C21.5315 36.9629 22.2521 39.4255 23.6154 41.5499C24.9421 43.6172 26.8112 45.2715 29.0207 46.3337C29.1626 46.402 29.3125 46.4341 29.4601 46.4341C29.8383 46.4341 30.2013 46.222 30.3762 45.8584C30.619 45.3528 30.4063 44.746 29.9007 44.5029Z" fill="black"/>
<path d="M33.2111 45.6018L33.1523 45.6016C32.5888 45.6005 32.1346 46.0514 32.1321 46.6124C32.1295 47.1733 32.5822 47.6302 33.143 47.6328L33.2111 47.633C33.7719 47.633 34.2267 47.1782 34.2267 46.6174C34.2267 46.0566 33.7719 45.6018 33.2111 45.6018Z" fill="black"/>
<path d="M39.3461 17.7905C39.2225 17.4959 39.0711 17.2184 38.8949 16.9609H41.539C44.115 16.9609 46.2108 14.8651 46.2108 12.289C46.2108 9.71301 44.115 7.61717 41.539 7.61717H33.4059C33.9229 6.86541 34.2265 5.95592 34.2265 4.97655C34.2265 2.40053 32.1307 0.304688 29.5546 0.304688H4.67187C2.09584 0.304688 0 2.40053 0 4.97655C0 7.55258 2.09584 9.64842 4.67187 9.64842H12.805C12.2879 10.4002 11.9844 11.3097 11.9844 12.289C11.9844 13.2684 12.2878 14.1779 12.805 14.9297H10.1562C7.5802 14.9297 5.48436 17.0255 5.48436 19.6015C5.48436 21.081 6.17641 22.4012 7.25307 23.2578C6.17641 24.1143 5.48436 25.4346 5.48436 26.914C5.48436 28.3935 6.17641 29.7137 7.25307 30.5703C6.17641 31.4268 5.48436 32.747 5.48436 34.2265C5.48436 35.706 6.17641 37.0262 7.25307 37.8827C6.17641 38.7393 5.48436 40.0595 5.48436 41.539C5.48436 44.115 7.5802 46.2108 10.1562 46.2108H22.1253C25.2785 49.5834 29.7641 51.6953 34.7344 51.6953C44.2547 51.6953 52 43.95 52 34.4297C52 26.5061 46.6345 19.8131 39.3461 17.7905ZM41.539 9.64842C42.9951 9.64842 44.1796 10.833 44.1796 12.289C44.1796 13.745 42.9951 14.9297 41.539 14.9297H35.039H16.6562C15.2001 14.9297 14.0156 13.745 14.0156 12.289C14.0156 10.833 15.2001 9.64842 16.6562 9.64842H41.539ZM4.67187 7.61717C3.21577 7.61717 2.03125 6.43255 2.03125 4.97655C2.03125 3.52056 3.21577 2.33593 4.67187 2.33593H29.5546C31.0107 2.33593 32.1953 3.52056 32.1953 4.97655C32.1953 6.43255 31.0107 7.61717 29.5546 7.61717H4.67187ZM10.1562 16.9609H35.039C35.4481 16.9609 35.8398 17.056 36.1912 17.2262C35.7108 17.1859 35.2252 17.1641 34.7344 17.1641C29.9666 17.1641 25.6441 19.1069 22.5166 22.2421H10.1562C8.70023 22.2421 7.51561 21.0575 7.51561 19.6015C7.51561 18.1455 8.70023 16.9609 10.1562 16.9609ZM10.1562 24.2734H20.7812C19.6282 25.853 18.7368 27.6346 18.1707 29.5546H10.1562C8.70013 29.5546 7.51561 28.3701 7.51561 26.914C7.51561 25.458 8.70013 24.2734 10.1562 24.2734ZM10.1562 31.5859H17.7043C17.5503 32.5114 17.4688 33.4611 17.4688 34.4297C17.4688 35.257 17.5286 36.0706 17.6417 36.8671H10.1562C8.70013 36.8671 7.51561 35.6826 7.51561 34.2265C7.51561 32.7704 8.70013 31.5859 10.1562 31.5859ZM10.1562 44.1796C8.70013 44.1796 7.51561 42.9951 7.51561 41.539C7.51561 40.0829 8.70013 38.8984 10.1562 38.8984H18.0564C18.5688 40.8091 19.4013 42.5897 20.4931 44.1796H10.1562ZM34.7344 49.6641C26.3342 49.6641 19.5001 42.8299 19.5001 34.4297C19.5001 26.0295 26.3342 19.1954 34.7344 19.1954C43.1346 19.1954 49.9688 26.0295 49.9688 34.4297C49.9688 42.8299 43.1346 49.6641 34.7344 49.6641Z" fill="black"/>
</g>
<defs>
<clipPath id="clip0_4_7187">
<rect width="52" height="52" fill="white"/>
</clipPath>
</defs>
</svg>
