<svg width="32" height="24" viewBox="0 0 32 24" fill="none" xmlns="http://www.w3.org/2000/svg">
<path d="M13.4219 23.1922C15.4497 23.7139 17.5867 23.622 19.5623 22.9282C21.5379 22.2343 23.263 20.9697 24.5192 19.2945C25.7754 17.6193 26.5062 15.609 26.6189 13.5182C26.7316 11.4273 26.2211 9.35009 25.1522 7.5496C24.0833 5.74911 22.5041 4.3064 20.6146 3.40422C18.725 2.50204 16.6102 2.181 14.5381 2.48176C12.4659 2.78253 10.5297 3.69157 8.97459 5.09372C7.41952 6.49587 6.31562 8.32804 5.80272 10.3581C5.11755 13.0701 5.53455 15.943 6.96246 18.3482C8.39037 20.7535 10.7129 22.4952 13.4219 23.1922Z" fill="#00BDF1"/>
<path d="M13.4215 23.2103L13.6031 23.2535C13.7328 23.2535 13.9058 23.3313 14.148 23.3659C14.8397 23.503 15.5447 23.561 16.2495 23.5389C18.8008 23.5109 21.2568 22.5654 23.1681 20.8752C23.7805 20.3278 24.3288 19.7127 24.8026 19.0418C25.3045 18.3185 25.7114 17.5337 26.0134 16.7067C26.683 14.924 26.8534 12.9924 26.5064 11.12C26.2347 9.61633 25.6482 8.18714 24.7852 6.9262C23.9222 5.66526 22.8023 4.60109 21.499 3.80352C21.0542 3.5364 20.5919 3.29947 20.1153 3.09436C19.6355 2.88826 19.1412 2.71773 18.6364 2.58411C18.1313 2.44993 17.6167 2.35452 17.097 2.29872C16.5775 2.23971 16.0542 2.21948 15.5317 2.23818C13.9911 2.30162 12.4826 2.69867 11.1104 3.40193C9.73824 4.1052 8.53504 5.09791 7.58391 6.31152C6.97715 7.07341 6.48211 7.9179 6.11371 8.81952C6.02722 9.04437 5.93209 9.26058 5.86291 9.48544L5.75047 9.82272L5.65534 10.16L5.54292 10.8259C5.54292 11.0508 5.45644 11.2756 5.43049 11.5005C5.32265 12.3764 5.32265 13.2623 5.43049 14.1382C5.53071 14.9556 5.72216 15.7591 6.00128 16.5338C6.8898 18.9247 8.60467 20.9188 10.8357 22.1552C11.4465 22.5102 12.0929 22.8 12.7642 23.02C12.9402 23.081 13.1192 23.1329 13.3004 23.1757L13.4215 23.2103ZM13.4215 23.2103L13.2399 23.1584C13.0613 23.1128 12.8852 23.0579 12.7123 22.9941C12.0448 22.7784 11.4037 22.4883 10.8011 22.1292C10.3674 21.8771 9.95652 21.5878 9.57302 21.2644C9.11357 20.9 8.68807 20.4948 8.30172 20.0537C7.36977 19.0005 6.65815 17.7713 6.20883 16.4387C5.67665 14.8711 5.51677 13.2011 5.74183 11.561C5.74183 11.3448 5.81101 11.1286 5.84561 10.9124L5.92344 10.5751L5.92344 10.4108L5.92344 10.2551L6.00993 9.92651L6.12235 9.60651C6.19154 9.39031 6.27802 9.1741 6.3645 8.95789C6.54416 8.5294 6.75218 8.11336 6.98718 7.71254C7.09961 7.50498 7.22933 7.31472 7.35906 7.10716C7.48878 6.8996 7.62716 6.71798 7.77418 6.53637C8.98129 4.9554 10.6173 3.75464 12.4875 3.07706C14.4282 2.37238 16.5329 2.25212 18.5413 2.73113C19.0377 2.85963 19.5259 3.01848 20.0028 3.20679C20.476 3.40012 20.9354 3.6255 21.3779 3.88135C22.2561 4.40713 23.0518 5.05994 23.7389 5.81857C25.0967 7.30794 25.9869 9.16347 26.2988 11.1546C26.2988 11.3881 26.3593 11.6302 26.3853 11.8637C26.4112 12.0972 26.3853 12.3394 26.3853 12.5729C26.3955 13.0436 26.3753 13.5144 26.3247 13.9825C26.3247 14.2074 26.2642 14.4409 26.221 14.6571L26.1518 14.9944L26.0739 15.3317C26.0739 15.5479 25.9529 15.7641 25.901 15.9803C25.8491 16.1965 25.7626 16.4041 25.6761 16.603C25.0838 18.1558 24.1394 19.5501 22.9173 20.6763C21.8853 21.6311 20.6743 22.3718 19.3542 22.8557C18.7928 23.0627 18.2139 23.219 17.6246 23.3227C17.1365 23.4133 16.642 23.4654 16.1457 23.4784C15.4446 23.5002 14.743 23.448 14.0528 23.3227C13.8107 23.3227 13.6377 23.2448 13.508 23.2189C13.3783 23.193 13.4302 23.1757 13.4302 23.1757L13.4215 23.2103Z" fill="#007CD8"/>
<path d="M13.4219 23.1922C15.4497 23.7139 17.5867 23.622 19.5623 22.9282C21.5379 22.2343 23.263 20.9697 24.5192 19.2945C25.7754 17.6193 26.5062 15.609 26.6189 13.5182C26.7316 11.4273 26.2211 9.35009 25.1522 7.5496C24.0833 5.74911 22.5041 4.3064 20.6146 3.40422C18.725 2.50204 16.6102 2.181 14.5381 2.48176C12.4659 2.78253 10.5297 3.69157 8.97459 5.09372C7.41952 6.49587 6.31562 8.32804 5.80272 10.3581C5.11755 13.0701 5.53455 15.943 6.96246 18.3482C8.39037 20.7535 10.7129 22.4952 13.4219 23.1922Z" fill="#7259A5"/>
<path d="M13.4215 23.2103L13.6031 23.2535C13.7328 23.2535 13.9058 23.3313 14.148 23.3659C14.8397 23.503 15.5447 23.561 16.2495 23.5389C18.8008 23.5109 21.2568 22.5654 23.1681 20.8752C23.7805 20.3278 24.3288 19.7127 24.8026 19.0418C25.3045 18.3185 25.7114 17.5337 26.0134 16.7067C26.683 14.924 26.8534 12.9924 26.5064 11.12C26.2347 9.61633 25.6482 8.18714 24.7852 6.9262C23.9222 5.66526 22.8023 4.60109 21.499 3.80352C21.0542 3.5364 20.5919 3.29947 20.1153 3.09436C19.6355 2.88826 19.1412 2.71773 18.6364 2.58411C18.1313 2.44993 17.6167 2.35452 17.097 2.29872C16.5775 2.23971 16.0542 2.21948 15.5317 2.23818C13.9911 2.30162 12.4826 2.69867 11.1104 3.40193C9.73824 4.1052 8.53504 5.09791 7.58391 6.31152C6.97715 7.07341 6.48211 7.9179 6.11371 8.81952C6.02722 9.04437 5.93209 9.26058 5.86291 9.48544L5.75047 9.82272L5.65534 10.16L5.54292 10.8259C5.54292 11.0508 5.45644 11.2756 5.43049 11.5005C5.32265 12.3764 5.32265 13.2623 5.43049 14.1382C5.53071 14.9556 5.72216 15.7591 6.00128 16.5338C6.8898 18.9247 8.60467 20.9188 10.8357 22.1552C11.4465 22.5102 12.0929 22.8 12.7642 23.02C12.9402 23.081 13.1192 23.1329 13.3004 23.1757L13.4215 23.2103ZM13.4215 23.2103L13.2399 23.1584C13.0613 23.1128 12.8852 23.0579 12.7123 22.9941C12.0448 22.7784 11.4037 22.4883 10.8011 22.1292C10.3674 21.8771 9.95652 21.5878 9.57302 21.2644C9.11357 20.9 8.68807 20.4948 8.30172 20.0537C7.36977 19.0005 6.65815 17.7713 6.20883 16.4387C5.67665 14.8711 5.51677 13.2011 5.74183 11.561C5.74183 11.3448 5.81101 11.1286 5.84561 10.9124L5.92344 10.5751L5.92344 10.4108L5.92344 10.2551L6.00993 9.92651L6.12235 9.60651C6.19154 9.39031 6.27802 9.1741 6.3645 8.95789C6.54416 8.5294 6.75218 8.11336 6.98718 7.71254C7.09961 7.50498 7.22933 7.31472 7.35906 7.10716C7.48878 6.8996 7.62716 6.71798 7.77418 6.53637C8.98129 4.9554 10.6173 3.75464 12.4875 3.07706C14.4282 2.37238 16.5329 2.25212 18.5413 2.73113C19.0377 2.85963 19.5259 3.01848 20.0028 3.20679C20.476 3.40012 20.9354 3.6255 21.3779 3.88135C22.2561 4.40713 23.0518 5.05994 23.7389 5.81857C25.0967 7.30794 25.9869 9.16347 26.2988 11.1546C26.2988 11.3881 26.3593 11.6302 26.3853 11.8637C26.4112 12.0972 26.3853 12.3394 26.3853 12.5729C26.3955 13.0436 26.3753 13.5144 26.3247 13.9825C26.3247 14.2074 26.2642 14.4409 26.221 14.6571L26.1518 14.9944L26.0739 15.3317C26.0739 15.5479 25.9529 15.7641 25.901 15.9803C25.8491 16.1965 25.7626 16.4041 25.6761 16.603C25.0838 18.1558 24.1394 19.5501 22.9173 20.6763C21.8853 21.6311 20.6743 22.3718 19.3542 22.8557C18.7928 23.0627 18.2139 23.219 17.6246 23.3227C17.1365 23.4133 16.642 23.4654 16.1457 23.4784C15.4446 23.5002 14.743 23.448 14.0528 23.3227C13.8107 23.3227 13.6377 23.2448 13.508 23.2189C13.3783 23.193 13.4302 23.1757 13.4302 23.1757L13.4215 23.2103Z" fill="#642D90"/>
<path d="M13.6021 3.38965C13.0249 3.68067 12.4299 3.93487 11.8206 4.1507C11.4173 4.30165 10.9955 4.39765 10.5666 4.4361C10.3109 4.46562 10.0526 4.46562 9.79688 4.4361C11.3195 3.32174 13.1096 2.62957 14.9858 2.42969C14.6008 2.84748 14.1283 3.17524 13.6021 3.38965Z" fill="#CA7BB2"/>
<path d="M15.7906 3.45024C15.002 3.96533 14.1784 4.4248 13.3259 4.82532C12.4611 5.24908 11.5443 5.69015 10.6103 6.02743C9.66261 6.43021 8.63862 6.62203 7.60938 6.58957C8.18194 5.82596 8.8571 5.14496 9.61578 4.56587C10.2507 4.66503 10.8996 4.6267 11.5184 4.45345C12.4187 4.1738 13.288 3.80288 14.1129 3.34647C14.5791 3.12224 14.9874 2.79378 15.3063 2.38651C15.8991 2.33471 16.4952 2.33471 17.0879 2.38651C16.7051 2.7976 16.2688 3.15537 15.7906 3.45024Z" fill="#FFF8BF"/>
<path d="M13.7858 5.90573C12.502 6.5364 11.1456 7.00693 9.74708 7.30675C9.13305 7.41918 8.51902 7.48837 7.89634 7.55756C7.57538 7.60074 7.25147 7.61809 6.92773 7.60945C7.09205 7.32405 7.27367 7.04731 7.46393 6.74462C8.44934 6.80216 9.43538 6.64275 10.3525 6.27762C11.4488 5.87797 12.5202 5.41301 13.561 4.88524C14.6304 4.40411 15.6404 3.80045 16.5706 3.0864C16.83 2.88067 17.0677 2.64883 17.2797 2.39453C17.7317 2.44802 18.1795 2.5318 18.6202 2.64533C18.6202 2.64533 18.6202 2.64533 18.6721 2.64533C17.1933 3.94167 15.5505 5.03788 13.7858 5.90573Z" fill="#F8A477"/>
<path d="M19.9079 4.35768C18.4959 5.35575 16.9965 6.22412 15.4281 6.95216C13.6954 7.72145 11.8649 8.24819 9.98831 8.5175C9.08326 8.64568 8.16934 8.70063 7.25545 8.68182C6.97871 8.68182 6.69332 8.68182 6.39063 8.68182L6.39063 8.62127C7.03925 8.62127 7.68786 8.50021 8.31054 8.43967C10.0553 8.31764 11.775 7.95681 13.4217 7.36728C15.0475 6.73532 16.5875 5.90143 18.0053 4.88522C18.6798 4.40957 19.389 3.92525 20.0376 3.38906L20.2192 3.2334C20.496 3.35447 20.7641 3.4842 21.0235 3.62257C20.6516 3.90796 20.2452 4.11553 19.9079 4.35768Z" fill="#FFF8BF"/>
<path d="M5.80105 10.3592L5.89618 10.0132C6.0259 10.0132 6.16428 10.0132 6.294 10.0132C7.15883 10.0132 8.02366 9.94404 8.88848 9.86621C11.0593 9.6929 13.194 9.20945 15.2277 8.43059C17.2427 7.61193 19.1186 6.48581 20.7885 5.09235C21.1431 4.78966 21.5236 4.46102 21.8782 4.10644C21.7139 4.27076 21.5496 4.41778 21.3853 4.5648C20.6328 5.27396 19.8804 5.97447 19.0675 6.6058C17.5183 7.83983 15.7925 8.83397 13.9477 9.55487C12.003 10.3241 9.94077 10.7541 7.85069 10.8262C7.13339 10.8646 6.41456 10.8646 5.69727 10.8262C5.73186 10.6446 5.75781 10.4975 5.80105 10.3592Z" fill="#9E73B1"/>
<path d="M20.41 5.16231C18.8724 6.41745 17.1665 7.45089 15.3421 8.23246C13.4756 8.9697 11.5176 9.44974 9.5218 9.65942C8.65698 9.75455 7.79215 9.82374 6.86678 9.85834C6.57274 9.85834 6.2614 9.85834 6.00195 9.85834C6.10349 9.51718 6.22477 9.18221 6.36518 8.85513C6.5295 8.85513 6.68517 8.85513 6.84949 8.85513C7.76751 8.88535 8.68651 8.85067 9.59964 8.75136C11.5786 8.51093 13.5126 7.98664 15.3421 7.19466C17.0508 6.41761 18.6861 5.4885 20.2284 4.41856L21.2575 3.73535C21.4305 3.83048 21.5948 3.93425 21.7591 4.03803C21.3331 4.44032 20.8825 4.8158 20.41 5.16231Z" fill="#CA7BB2"/>
<path d="M14.7102 10.3594C13.0281 11.1525 11.2059 11.6051 9.34822 11.6913C8.45652 11.6942 7.56594 11.6277 6.68455 11.4924C6.32997 11.4405 5.9581 11.3972 5.60352 11.3107L5.66405 10.9562C6.30357 10.9902 6.94445 10.9902 7.58397 10.9562C9.78873 10.921 11.9699 10.4965 14.0269 9.70217C16.0886 8.88577 18.0045 7.74091 19.7002 6.31204C20.4872 5.66342 21.2483 4.97155 21.9834 4.25374L22.0525 4.18457L22.4417 4.47861C20.3534 7.0098 17.707 9.02272 14.7102 10.3594Z" fill="#FAC8C2"/>
<path d="M5.54297 12.0381L5.59486 11.5452C5.77647 11.5452 5.94944 11.6144 6.13105 11.6403C7.11284 11.8185 8.10825 11.9111 9.10606 11.917C11.0126 11.8513 12.8875 11.4105 14.6237 10.6198C17.7134 9.27176 20.453 7.23332 22.632 4.66113C22.8482 4.8341 23.0644 5.02436 23.2719 5.21462L23.0644 5.44813C22.2728 6.36468 21.4049 7.21238 20.4699 7.98208C18.7404 9.3226 16.8192 10.3954 14.7707 11.1646C12.0724 12.1678 8.31042 13.2402 5.54297 12.0381Z" fill="#CA7BB2"/>
<path d="M23.9378 11.2424C22.1891 12.9278 20.2672 14.4236 18.204 15.705C15.0128 17.6595 11.3373 19.3805 7.55796 19.268C7.37634 19.0172 7.20338 18.7664 7.03906 18.4983C7.60985 18.3859 8.15469 18.2475 8.64764 18.1178C11.1919 17.3977 13.6355 16.3604 15.9208 15.0304C16.8166 14.5204 17.6828 13.9603 18.5153 13.3526C20.527 12.2491 22.4046 10.9171 24.1108 9.38305C24.5432 9.00253 24.9756 8.58741 25.434 8.13769C25.6195 8.50281 25.784 8.87817 25.9269 9.26197C25.2783 9.96249 24.5691 10.6111 23.9378 11.2424Z" fill="#FAC8C2"/>
<path d="M17.6517 18.2304C15.4061 19.2989 13.0077 20.0109 10.5428 20.3406C9.9461 20.4098 9.31477 20.4876 8.6575 20.5482C8.32222 20.2098 8.00745 19.8517 7.71484 19.4758C11.4077 19.4758 15.0226 17.8759 18.1533 15.9646C20.3028 14.6445 22.3036 13.0961 24.1206 11.3464C24.7433 10.741 25.3833 10.1183 25.9887 9.46973C26.1497 9.92676 26.2769 10.395 26.3692 10.8708C24.1805 14.0654 21.1682 16.6085 17.6517 18.2304Z" fill="#F8A477"/>
<path d="M25.6764 17.1667C25.1345 17.7122 24.5566 18.2207 23.9467 18.6888C22.2556 19.9447 20.3988 20.9604 18.4291 21.7071C16.6026 22.4394 14.6688 22.8688 12.7039 22.9784C11.9652 22.7389 11.257 22.4139 10.5938 22.0098C13.2539 21.9302 15.8831 21.4161 18.3772 20.4877C20.7061 19.6716 22.8726 18.4508 24.7769 16.8814C25.2699 16.4662 25.7715 16.0165 26.2558 15.5322C26.1086 16.0923 25.9148 16.639 25.6764 17.1667Z" fill="#477BBD"/>
<path d="M18.5174 21.8881C20.7019 21.0546 22.744 19.8876 24.5712 18.4288C24.8393 18.2126 25.1247 17.9704 25.436 17.7109C24.3531 19.8479 22.5763 21.5535 20.3968 22.5482C18.2174 23.5429 15.7647 23.7675 13.4408 23.1853L13.2246 23.1248C15.0402 22.9756 16.8237 22.5589 18.5174 21.8881Z" fill="#9E73B1"/>
<path d="M24.2993 16.9756C22.4831 18.418 20.4364 19.5437 18.2455 20.3051C15.6772 21.2552 12.9666 21.764 10.2286 21.81C9.71732 21.479 9.23685 21.1027 8.79297 20.6857C9.23403 20.6857 9.6578 20.5905 10.0902 20.5473C12.644 20.2627 15.135 19.5677 17.4672 18.489C21.0385 16.8806 24.1163 14.3491 26.3836 11.1553C26.6139 12.4801 26.5845 13.8371 26.2971 15.1508C25.6739 15.8042 25.0064 16.4139 24.2993 16.9756Z" fill="#CA7BB2"/>
<path d="M15.9201 14.7796C13.6899 16.098 11.305 17.135 8.81989 17.8671C8.2318 18.0227 7.58318 18.1957 6.89997 18.3254C6.48761 17.6185 6.15685 16.867 5.91406 16.0855C6.23919 16.2007 6.57539 16.2818 6.91726 16.3276C8.13817 16.4766 9.37465 16.4388 10.5841 16.2152C12.8391 15.8133 15.0257 15.0941 17.079 14.0791C16.7331 14.2867 16.3525 14.5548 15.9201 14.7796Z" fill="#FAC8C2"/>
<path d="M24.2076 8.05163C23.4293 8.78673 22.6769 9.54779 21.8899 10.2829C20.7986 11.3254 19.6432 12.2988 18.4306 13.1974L17.8685 13.5087C15.7339 14.6494 13.4437 15.4711 11.0709 15.9475C9.81809 16.2138 8.53189 16.2867 7.25701 16.1637C6.79694 16.0935 6.34499 15.9776 5.90787 15.8178C5.75809 15.2823 5.6511 14.7357 5.58789 14.1833C6.86143 14.4993 8.18685 14.5464 9.47962 14.3217C11.8771 13.9143 14.1876 13.1013 16.3118 11.9174C18.537 10.7371 20.6426 9.34401 22.5991 7.75759C23.1871 7.28194 23.7493 6.81494 24.2855 6.30469C24.5443 6.62872 24.7812 6.96963 24.9946 7.32518C24.7179 7.57598 24.4584 7.81813 24.2076 8.05163Z" fill="#9E73B1"/>
<path d="M22.2231 10.2384C23.088 9.41686 23.9528 8.60391 24.8176 7.77368L25.0944 7.48828C25.1895 7.64395 25.2846 7.79961 25.3625 7.95528C24.9041 8.43094 24.4198 8.87201 23.9614 9.27848C22.645 10.4528 21.2302 11.5118 19.7324 12.4437C20.5713 11.7432 21.4102 11.0081 22.2231 10.2384Z" fill="#CA7BB2"/>
<path d="M21.7491 8.15571C19.9489 9.55297 18.0271 10.786 16.0067 11.8399C14.0924 12.9055 12.0192 13.656 9.86638 14.0625C8.43532 14.3557 6.95612 14.3172 5.54223 13.9501C5.49894 13.3916 5.49894 12.8307 5.54223 12.2723C8.38752 13.4139 12.1668 12.3674 14.8218 11.3383C18.1742 10.1302 21.1545 8.07075 23.4701 5.3623C23.7329 5.6136 23.9785 5.88232 24.2052 6.1666C23.4252 6.87604 22.6052 7.54017 21.7491 8.15571Z" fill="#FAC8C2"/>
<path d="M19.1711 3.77887C18.5571 4.21993 17.969 4.68694 17.3377 5.10206C16.037 5.99036 14.6309 6.7137 13.1519 7.25547C11.5964 7.77024 9.98513 8.0983 8.35213 8.23273C7.74675 8.28462 7.14137 8.36246 6.52734 8.39705C6.61383 8.21544 6.70896 8.04247 6.80409 7.86951C7.58868 7.88986 8.37284 7.81436 9.13913 7.64466C10.6359 7.39673 12.0911 6.94269 13.4633 6.29551C15.4122 5.37262 17.2299 4.1948 18.8684 2.79297C19.2525 2.90315 19.6307 3.03304 20.0014 3.18214C19.7506 3.3724 19.4565 3.57131 19.1711 3.77887Z" fill="#B75DB1"/>
<path style="mix-blend-mode:multiply" d="M13.4282 23.1774C15.4578 23.6992 17.5966 23.6069 19.5737 22.9121C21.5508 22.2173 23.2771 20.9513 24.5341 19.2745C25.791 17.5977 26.5219 15.5856 26.6343 13.493C26.7467 11.4004 26.2354 9.32153 25.1653 7.51977C24.0951 5.71801 22.5143 4.27441 20.623 3.37188C18.7317 2.46935 16.6151 2.14849 14.5413 2.44995C12.4675 2.75141 10.5298 3.66162 8.97377 5.06527C7.41772 6.46893 6.31331 8.30285 5.80045 10.3347C5.11535 13.049 5.53329 15.9241 6.96281 18.3309C8.39233 20.7378 10.717 22.4804 13.4282 23.1774Z" fill="url(#paint0_radial_1166_42936)"/>
<path style="mix-blend-mode:screen" d="M6.34669 14.1289C5.73998 12.8292 5.65638 11.346 6.11319 9.98634C6.72041 7.74488 8.07334 5.77727 9.94891 4.40793C11.8245 3.03859 14.1107 2.3493 16.4306 2.45369C17.3466 2.49042 18.2525 2.65935 19.1202 2.95528C20.7597 3.59638 22.2515 4.56446 23.5049 5.80057C24.1493 6.37553 24.6323 7.10891 24.9059 7.92804C24.6352 8.23333 24.3464 8.52213 24.0411 8.79287C23.0206 8.1356 21.7579 8.19614 20.5818 8.14425C19.7599 8.22092 18.9358 8.02326 18.2381 7.58211C17.5289 6.99403 18.0911 5.92165 17.7278 5.22114C17.3646 4.52063 16.1798 4.84925 15.6609 4.99627C15.2064 5.07687 14.7943 5.31371 14.4959 5.66584C14.1974 6.01797 14.0314 6.46329 14.0264 6.92485C13.8275 8.84477 11.1292 8.01452 10.4719 9.44149C10.273 9.88255 10.5584 10.4361 10.6016 10.8858C10.6436 11.2658 10.5584 11.649 10.3595 11.9754C10.1259 12.2866 9.80767 12.5238 9.44278 12.6587C8.85017 12.9597 8.29074 13.322 7.77366 13.7397C7.52369 13.9713 7.25783 14.1851 6.97802 14.3797C6.75975 14.3173 6.54826 14.2333 6.34669 14.1289Z" fill="url(#paint1_radial_1166_42936)"/>
<path d="M0.11083 22.4597C-0.503198 20.6003 1.58104 18.5939 2.7572 17.4351C3.61398 16.5907 4.52391 15.8021 5.48141 15.0741C5.52991 15.3546 5.6142 15.6279 5.73221 15.887L6.00896 16.4924C5.21332 17.2621 4.43497 18.0404 3.70851 18.8793C3.37988 19.4328 3.12043 20.1679 3.98526 20.289C4.96631 20.377 5.95519 20.2951 6.90838 20.0468C9.15457 19.4471 11.3121 18.5544 13.3254 17.3918C15.4545 16.2728 17.4803 14.9676 19.3792 13.4914C21.9973 11.5599 24.327 9.26522 26.2978 6.67657C26.6092 6.24416 27.7075 4.79125 27.0416 4.33289C26.2373 3.77076 24.8968 4.06479 24.032 4.28099C23.5563 4.39342 23.0893 4.5145 22.6223 4.63558C22.3064 4.35954 21.9613 4.11884 21.5932 3.91777C22.3344 3.43844 23.0993 2.99681 23.885 2.59458C25.1775 1.87142 26.5285 1.25812 27.9237 0.761148C28.9056 0.437691 29.9694 0.465199 30.9333 0.838979C31.3469 1.12516 31.6516 1.54268 31.7981 2.0238C32.4987 4.17723 30.6479 6.49497 29.4372 8.0776C26.393 12.1596 22.1207 15.3249 17.8225 17.9626C14.5229 20.0467 10.9793 21.7169 7.27161 22.9353C5.61979 23.4888 0.949714 24.9504 0.11083 22.4597Z" fill="url(#paint2_radial_1166_42936)"/>
<g style="mix-blend-mode:multiply">
<path d="M27.7754 2.76562C25.8555 2.33321 23.9096 3.24993 22.1626 4.28773L22.007 4.18395C22.3788 3.98504 22.768 3.81207 23.1226 3.62181C24.0318 3.1222 24.984 2.7054 25.9679 2.37645C26.9105 2.08241 28.2683 1.58946 29.2456 1.97864C29.5815 2.13473 29.852 2.4037 30.0101 2.73871C30.1681 3.07373 30.2036 3.45357 30.1104 3.81207C29.8846 4.79867 29.4705 5.73245 28.891 6.56223C28.2951 7.4951 27.6272 8.37993 26.8932 9.2086C25.4145 10.8548 23.7971 12.3709 22.0589 13.7403C17.0256 17.779 11.4388 21.6275 4.92661 22.5097C3.98394 22.6394 2.2024 22.968 1.46729 22.1637C0.524631 21.1692 2.19375 19.6125 2.86832 18.9639L3.48235 18.3498C3.17185 18.7435 2.90506 19.1698 2.6867 19.6211C2.54045 19.8321 2.45699 20.0801 2.44598 20.3366C2.43497 20.593 2.49687 20.8473 2.62451 21.07C2.75215 21.2927 2.94029 21.4746 3.16712 21.5947C3.39395 21.7148 3.65019 21.7682 3.90611 21.7486C5.55149 21.7213 7.17696 21.3839 8.69726 20.7541C10.0889 20.279 11.4543 19.7305 12.7879 19.1109C15.5285 17.77 18.1078 16.122 20.4762 14.1987C23.2162 12.1871 25.6038 9.73524 27.5419 6.94274C28.1127 6.00873 29.7558 3.20668 27.7754 2.76562Z" fill="#DD8ABA"/>
</g>
<g style="mix-blend-mode:screen" opacity="0.6">
<path d="M27.0231 4.33182C26.2188 3.76969 24.8783 4.06372 24.0135 4.27992C23.5378 4.39235 23.0708 4.51343 22.6038 4.63451L22.3357 4.40966C23.6524 3.52088 25.1792 2.99306 26.7637 2.87891C27.6285 2.87891 28.4933 3.06052 28.4933 4.09832C28.3986 4.85737 28.1388 5.58647 27.7323 6.23444C26.4875 8.27606 24.9389 10.1162 23.14 11.6915C21.1744 13.5156 19.0468 15.1569 16.7835 16.5951C13.4765 18.8311 9.78983 20.4458 5.904 21.3603C4.92674 21.5592 2.38415 22.0003 2.73873 20.2274C3.04142 18.6966 4.58081 17.4426 5.58401 16.3356L5.83481 16.0589L6.03372 16.4913C5.23808 17.261 4.45974 18.0393 3.73328 18.8782C3.40465 19.4317 3.1452 20.1668 4.01003 20.2879C4.99108 20.3759 5.97995 20.294 6.93314 20.0458C9.17038 19.4438 11.319 18.5512 13.3242 17.3907C15.4533 16.2718 17.4791 14.9665 19.378 13.4904C21.9962 11.5588 24.3258 9.26415 26.2967 6.6755C26.5907 6.24309 27.689 4.77289 27.0231 4.33182Z" fill="white"/>
</g>
<g style="mix-blend-mode:screen" opacity="0.6">
<path d="M0.897477 20.0371C0.897477 20.0371 -1.03974 22.7181 2.16012 23.5743C2.16012 23.5743 3.88978 24.0759 9.589 21.9224C9.589 21.9224 4.15788 23.9807 2.16877 23.3062C0.179668 22.6316 0.499656 21.0922 0.897477 20.0371Z" fill="white"/>
</g>
<path d="M22.6655 3.25016C22.8471 3.14638 23.0374 3.05124 23.2276 2.94746L23.7811 2.65343C23.9714 2.54965 24.1616 2.45452 24.3519 2.35939L24.914 2.07399C25.2946 1.88373 25.6751 1.69346 26.0556 1.51185L26.635 1.2524L27.2231 1.0189C27.422 0.941066 27.6209 0.880519 27.8199 0.819981C28.0188 0.759443 28.0274 0.759451 28.1225 0.733506C28.2177 0.707561 28.3301 0.681615 28.4339 0.664318C28.6395 0.622784 28.8474 0.593897 29.0566 0.57783C29.1603 0.57783 29.2641 0.57783 29.3679 0.57783L29.6792 0.57783C29.8888 0.599061 30.0968 0.633734 30.3019 0.681618C30.5048 0.731956 30.7041 0.795514 30.8986 0.871882C31.1148 1.02871 31.302 1.22182 31.4521 1.44266C31.6031 1.66805 31.7089 1.92066 31.7635 2.18641C31.8932 2.71476 31.8932 3.26665 31.7635 3.79499C31.6418 4.3255 31.4499 4.8374 31.1927 5.3171C30.9377 5.80388 30.6488 6.27204 30.3279 6.71812C30.0165 7.16783 29.6879 7.58294 29.3593 8.0413L28.3215 9.32124C28.1515 9.536 27.9696 9.74101 27.7766 9.93528L27.2231 10.5407C26.8599 10.9558 26.4534 11.319 26.0556 11.6995L25.4675 12.2703L24.8448 12.8065C24.4211 13.1611 23.98 13.5243 23.5822 13.853C23.1844 14.1816 22.7174 14.5362 22.2763 14.8562L20.9445 15.8161L19.578 16.7328C19.1197 17.0442 18.6527 17.3295 18.1943 17.5976C17.269 18.1857 16.3176 18.7392 15.3663 19.2754C14.8907 19.5435 14.3977 19.803 13.9221 20.0624C13.4464 20.3219 12.9448 20.5554 12.4519 20.7889C11.4573 21.2559 10.4541 21.7056 9.43361 22.0948L8.66391 22.3888L7.88556 22.6569C7.37531 22.8299 6.84777 23.0028 6.32888 23.1499C5.28584 23.476 4.20968 23.6849 3.12036 23.7725C2.57735 23.8136 2.03127 23.7669 1.50313 23.6342C1.24215 23.5635 0.996059 23.4463 0.776676 23.2882C0.563099 23.1311 0.388519 22.9269 0.266427 22.6915C0.230633 22.6345 0.201607 22.5736 0.179942 22.5099L0.179942 22.4147L0.179942 22.3196C0.142342 22.1896 0.116296 22.0564 0.102107 21.9218L0.102107 21.5153C0.113238 21.3809 0.136395 21.2478 0.171295 21.1175C0.307541 20.5899 0.539085 20.0917 0.85451 19.6473C1.49728 18.758 2.23054 17.9378 3.04253 17.1998C3.82696 16.4313 4.65573 15.7094 5.52458 15.0378C4.64764 15.7003 3.8102 16.4135 3.01658 17.1739C2.1962 17.9075 1.45159 18.7216 0.793969 19.6041C0.468721 20.0556 0.228415 20.5626 0.0848105 21.1002C0.0484637 21.236 0.0252962 21.375 0.0156259 21.5153L0.0156259 21.7229L0.0156259 21.9304C0.0231568 22.0688 0.0493383 22.2055 0.0934606 22.3369L0.0934606 22.4407L0.0934607 22.5445L0.179942 22.7347C0.310392 22.9844 0.496876 23.2005 0.724785 23.3661C0.950692 23.5331 1.2059 23.6563 1.47718 23.7293C2.01307 23.8685 2.56827 23.9182 3.12036 23.8763C4.2173 23.7926 5.30186 23.5896 6.35482 23.2709C6.89101 23.1153 7.40991 22.9509 7.92881 22.7693L8.70715 22.5099L9.47685 22.2159C10.506 21.8267 11.5178 21.351 12.5124 20.9186C13.0053 20.6851 13.4983 20.4343 13.9912 20.1921C14.4842 19.95 14.9599 19.6819 15.4442 19.4138C16.4041 18.8776 17.3468 18.3241 18.2808 17.736C18.7392 17.442 19.2148 17.1652 19.6732 16.8712L21.0396 15.9458L22.3714 14.9859C22.8211 14.6572 23.2363 14.3027 23.6773 13.9654C24.1184 13.6281 24.5422 13.2649 24.94 12.9103L25.5627 12.3654L26.1594 11.7947C26.5486 11.4141 26.955 11.0423 27.3183 10.6271L27.8804 10.0131C28.0734 9.81884 28.2553 9.61385 28.4252 9.39909L29.4544 8.11049C29.783 7.66943 30.1117 7.24566 30.4316 6.77C30.7514 6.32015 31.0403 5.84918 31.2965 5.36033C31.5553 4.8692 31.7472 4.34567 31.8673 3.80365C31.8994 3.66986 31.9225 3.53407 31.9364 3.39718C31.9494 3.25622 31.9494 3.11437 31.9364 2.97341C31.9493 2.83534 31.9493 2.69637 31.9364 2.55829C31.9247 2.42047 31.8986 2.28424 31.8586 2.15182C31.7942 1.87824 31.6831 1.61784 31.53 1.38213C31.3702 1.15045 31.1712 0.948489 30.9419 0.785394C30.7404 0.714592 30.5355 0.653972 30.3279 0.603774C30.1208 0.551024 29.9096 0.516306 29.6965 0.499999L29.3765 0.499999C29.2728 0.499999 29.169 0.499999 29.0566 0.499999C28.8439 0.514744 28.6328 0.546557 28.4252 0.59513C28.3215 0.59513 28.2177 0.638373 28.1139 0.664318C28.0101 0.690263 27.9063 0.716213 27.8112 0.750806C27.7161 0.7854 27.4047 0.880531 27.2058 0.967013C27.0069 1.0535 26.8167 1.12268 26.6177 1.20916C26.4188 1.29565 26.2286 1.38213 26.0383 1.47726C25.6578 1.65887 25.2859 1.84914 24.9054 2.04805L24.3432 2.34209C24.153 2.43722 23.9627 2.53235 23.7811 2.63613L23.219 2.93882L22.6655 3.25016Z" fill="#A760A6"/>
<path style="mix-blend-mode:screen" d="M19.2835 15.6357C19.9544 14.9545 20.7 14.3511 21.5061 13.8368C22.319 13.2603 23.1147 12.6203 23.893 11.9169C25.4993 10.5156 26.892 8.8869 28.0269 7.08253C28.5544 6.2177 30.6214 3.13026 28.9782 2.62001C28.1134 2.33462 26.7988 2.75838 25.9167 2.98324C25.0346 3.20809 23.9881 3.52808 23.0282 3.84806C22.8812 3.89131 22.8552 3.6924 22.9676 3.63186C24.8789 2.59406 27.361 0.855764 29.6528 1.21899C31.9446 1.58222 31.2959 4.14211 30.6214 5.63827C29.4652 7.85383 27.898 9.82908 26.0032 11.4586C25.0361 12.3745 24.023 13.2404 22.9676 14.053C22.0104 14.9032 20.9356 15.611 19.7764 16.1546C19.4305 16.2757 18.9808 16.0162 19.2835 15.6357Z" fill="url(#paint3_radial_1166_42936)"/>
<g style="mix-blend-mode:multiply">
<path d="M11.1083 22.2953L10.7365 22.0705L10.3559 21.837C9.94947 22.0013 9.55165 22.1656 9.13654 22.3126C8.93763 22.3904 8.73007 22.4596 8.52251 22.5288C8.31495 22.598 8.11604 22.6845 7.90848 22.745C7.49336 22.8834 7.04365 23.0131 6.66313 23.1428C6.2826 23.2726 5.7983 23.3763 5.40912 23.4715C4.56016 23.6857 3.68996 23.8047 2.81464 23.8261C2.38299 23.8308 1.95261 23.7785 1.5347 23.6704C1.12186 23.559 0.751556 23.3271 0.470957 23.0045C0.20858 22.6651 0.0656825 22.2486 0.0644863 21.8196C0.0624805 21.3928 0.153991 20.9707 0.332584 20.583C0.713522 19.803 1.21884 19.0903 1.82874 18.4728C2.13143 18.1614 2.43411 17.8587 2.7541 17.5561L3.22111 17.1063C3.37678 16.9507 3.5411 16.8036 3.69677 16.6566C3.85243 16.5096 4.01675 16.3626 4.18107 16.2242L4.68267 15.8005C4.84699 15.6534 5.01995 15.5324 5.18427 15.394C5.34859 15.2556 5.52155 15.1259 5.70317 15.0048C5.7085 14.994 5.71128 14.9822 5.71128 14.9702C5.71128 14.9582 5.7085 14.9464 5.70317 14.9356L5.65128 14.6502L5.65128 14.3648C5.65128 14.1746 5.59939 13.9843 5.59074 13.794C5.58209 13.6038 5.59074 13.4049 5.59074 13.2146C5.59074 13.0243 5.59074 12.8341 5.59074 12.6352L5.59074 12.3498L5.59074 12.0644C5.59074 11.9693 5.59074 11.8655 5.59074 11.7703L5.59074 11.485L5.68587 10.9142L5.81559 10.352L5.91072 10.0234L5.85884 10.0234L5.93667 10.0234L6.11829 9.44396L6.33449 8.87318C6.48929 8.50013 6.66542 8.13629 6.86203 7.78349C6.96581 7.61052 7.06094 7.42891 7.17337 7.25594C7.2858 7.08298 7.38958 6.91866 7.51065 6.75434L7.69227 6.51219L7.88253 6.27004C8.00361 6.11437 8.14198 5.95871 8.27171 5.80304C8.54448 5.49966 8.83316 5.21098 9.13654 4.93821L9.60354 4.54904C9.75921 4.42796 9.92353 4.30688 10.0878 4.19446C10.756 3.72452 11.4792 3.33823 12.2413 3.04423C12.6206 2.89944 13.0074 2.77531 13.4001 2.67236L13.9969 2.54263L14.5936 2.4475C14.8012 2.4475 15.0001 2.39561 15.199 2.37831C15.3979 2.36102 15.6055 2.37831 15.8044 2.37831C16.2085 2.36665 16.6129 2.3811 17.0151 2.42156C17.8216 2.49777 18.6166 2.66606 19.3848 2.92316C19.7679 3.05131 20.1432 3.20146 20.509 3.37287C20.8723 3.54584 21.2268 3.74475 21.5728 3.95231C21.5807 3.95686 21.5896 3.95926 21.5987 3.95926C21.6078 3.95926 21.6168 3.95686 21.6247 3.95231C22.0311 3.70151 22.4289 3.4507 22.8441 3.2172C23.2592 2.98369 23.7089 2.75884 24.1067 2.54263L25.378 1.89401C25.8018 1.68645 26.2428 1.47889 26.6666 1.29728C27.0993 1.10651 27.5443 0.944722 27.9984 0.812974C28.4523 0.685607 28.9197 0.613021 29.3908 0.596767C29.8521 0.561257 30.3151 0.63842 30.7399 0.821618C31.1313 1.05899 31.4348 1.41717 31.6048 1.84212C31.7756 2.27638 31.8494 2.74276 31.821 3.20855C31.7864 3.67708 31.6814 4.13772 31.5096 4.57498C31.1442 5.45116 30.6675 6.27664 30.0913 7.03109L29.2265 8.17266C28.9411 8.55318 28.6384 8.92507 28.3617 9.28829C27.7476 10.0148 27.0904 10.7066 26.4158 11.3725C26.4071 11.3948 26.4071 11.4195 26.4158 11.4417C26.4736 11.8689 26.5054 12.2992 26.5109 12.7303C26.5167 13.1635 26.4965 13.5967 26.4504 14.0275C26.4504 14.2438 26.3985 14.46 26.3553 14.6762C26.312 14.8924 26.2774 15.0999 26.2255 15.3075L26.2255 15.4718L26.2255 15.6188L26.1391 15.9388L25.9315 16.5528C25.8623 16.7604 25.7758 16.9507 25.6894 17.1582L25.4126 17.7463C25.2157 18.1326 24.9932 18.5053 24.7467 18.8619C24.5038 19.2195 24.2411 19.5631 23.9597 19.8911L23.51 20.3667L23.2765 20.6002L23.0343 20.8164C22.7095 21.1034 22.3688 21.372 22.0138 21.6208C21.6552 21.8642 21.2827 22.0865 20.8982 22.2867C20.7079 22.3904 20.509 22.4856 20.3101 22.572C20.1112 22.6585 19.9123 22.745 19.7047 22.8142C19.3023 22.9709 18.889 23.0981 18.468 23.1947C18.0434 23.2955 17.6131 23.3706 17.1794 23.4196C16.7488 23.4671 16.3153 23.4844 15.8822 23.4715C15.4483 23.4656 15.0151 23.4338 14.585 23.3764C14.1541 23.3086 13.7269 23.2191 13.305 23.1083L12.7948 22.9612L12.3883 22.8142C12.2499 22.7623 12.1202 22.7104 11.9818 22.6499C11.8435 22.5894 11.7137 22.5375 11.584 22.4769L11.1083 22.2953ZM11.1083 22.2953L11.4889 22.4856C11.6186 22.5548 11.757 22.6067 11.8867 22.6672C12.0164 22.7277 12.1548 22.7796 12.2932 22.8315L12.6996 22.9785L13.2185 23.1342C14.0633 23.3738 14.9351 23.5046 15.813 23.5234C16.249 23.5363 16.6853 23.519 17.1189 23.4715C17.5522 23.4283 17.9825 23.359 18.4075 23.2639C18.826 23.1794 19.239 23.0696 19.6442 22.9353C19.8518 22.8661 20.0507 22.7796 20.2496 22.6931C20.4485 22.6067 20.6474 22.5115 20.8463 22.4164C21.2364 22.2163 21.6147 21.994 21.9792 21.7505C22.3418 21.5045 22.6884 21.2359 23.017 20.9462L23.2678 20.73L23.5013 20.4965C23.6628 20.3465 23.8158 20.1877 23.9597 20.0208C24.2521 19.6953 24.5236 19.3515 24.7726 18.9917C25.0249 18.6294 25.2531 18.2509 25.4558 17.8587C25.5596 17.6685 25.6548 17.4609 25.7412 17.262C25.8277 17.0631 25.9229 16.8642 25.992 16.6566L26.2082 16.0253L26.2947 15.714L26.338 15.5496L26.338 15.394C26.338 15.1778 26.4331 14.9616 26.4677 14.7454C26.5023 14.5292 26.5282 14.3129 26.5628 14.0881C26.6639 13.2262 26.6639 12.3555 26.5628 11.4936L26.5628 11.5628C27.2374 10.8969 27.8947 10.1964 28.5173 9.4699C28.82 9.09803 29.1227 8.72616 29.3822 8.34563L30.247 7.19541C30.825 6.42817 31.3044 5.59139 31.674 4.7047C31.8536 4.25141 31.9616 3.7729 31.994 3.28638C32.0282 2.79701 31.9514 2.30622 31.7691 1.85077C31.5758 1.39344 31.2428 1.00899 30.8178 0.752443C30.3672 0.552301 29.8735 0.469016 29.3822 0.510292C28.9017 0.531029 28.4256 0.609416 27.9638 0.743787C27.5047 0.880888 27.0541 1.04551 26.6147 1.23675C26.1737 1.42701 25.7499 1.64321 25.3175 1.85077L24.0548 2.50804C23.6311 2.7329 23.19 2.95775 22.7922 3.19125C22.3944 3.42476 21.9273 3.6842 21.5728 3.94365L21.6247 3.94365C20.228 3.08883 18.6542 2.5652 17.0238 2.41291C16.6176 2.39132 16.2105 2.39132 15.8044 2.41291C15.6055 2.41291 15.3979 2.41291 15.199 2.41291C15.0001 2.41291 14.7925 2.45616 14.585 2.4821L13.9882 2.58588C13.7864 2.62047 13.5875 2.6637 13.3915 2.71559C12.9956 2.81733 12.6058 2.94149 12.224 3.08748C11.4612 3.37514 10.7354 3.75255 10.0619 4.21176C9.88894 4.32418 9.72462 4.44525 9.56895 4.56633C9.41328 4.6874 9.24896 4.82578 9.09329 4.96415C8.78589 5.23265 8.49696 5.52158 8.22846 5.82898C8.09009 5.976 7.96037 6.13167 7.83064 6.29598L7.64038 6.52949L7.45877 6.7803C7.33474 6.94132 7.21927 7.10874 7.11283 7.28189C6.99176 7.45485 6.89663 7.63647 6.79285 7.80943C6.59169 8.16713 6.41262 8.53682 6.25666 8.91641L6.0318 9.4872L5.84154 10.0753L5.91937 10.032C5.90699 10.0319 5.89494 10.0361 5.88543 10.0441C5.87591 10.052 5.86955 10.0631 5.86749 10.0753L5.86749 10.2396L5.86749 10.3174L5.86749 10.4039C5.86749 10.5942 5.77235 10.7758 5.73776 10.9747C5.70317 11.1736 5.65993 11.3552 5.64263 11.5455L5.64263 11.8395C5.64263 11.9347 5.64263 12.0298 5.64263 12.1249L5.64263 12.419L5.64263 13.2838C5.64263 13.4827 5.64263 13.673 5.64263 13.8719L5.69452 14.4513L5.69452 14.7367L5.74641 15.0307L5.74641 14.9616C5.5648 15.074 5.39183 15.221 5.21887 15.3507C5.0459 15.4805 4.87293 15.6102 4.70861 15.7572L4.20701 16.181L3.71406 16.6134C3.38542 16.8988 3.08274 17.2101 2.76275 17.4782C2.44276 17.7463 2.14872 18.0922 1.84603 18.4122C1.23336 19.0438 0.727983 19.7712 0.349881 20.5657C0.163402 20.9725 0.068908 21.4154 0.0731332 21.8629C0.082457 22.312 0.237227 22.746 0.514198 23.0996C0.805756 23.4398 1.19546 23.6815 1.62983 23.7915C2.05693 23.8967 2.4959 23.9462 2.93572 23.9385C3.81204 23.9089 4.68229 23.7813 5.5302 23.558C6.39503 23.3504 7.20797 23.091 8.02956 22.8056C8.23712 22.745 8.44467 22.6672 8.65223 22.598C8.85979 22.5288 9.0587 22.451 9.25761 22.3732C9.67273 22.2175 10.0705 22.0532 10.477 21.8888L10.7365 22.0705L11.1083 22.2953Z" fill="#341C66"/>
</g>
<g style="mix-blend-mode:multiply">
<path d="M6.01514 16.4932C6.11027 16.7959 6.23134 17.0985 6.35242 17.358C6.47349 17.6174 6.61187 17.9461 6.76754 18.2228L6.88861 18.4304C6.92189 18.5035 6.96245 18.573 7.00969 18.6379C7.09201 18.778 7.18149 18.9136 7.27778 19.0444L7.41616 19.2433L7.57182 19.4336L7.73614 19.6152L7.90911 19.7882L7.90911 19.6584C7.19172 19.9095 6.45382 20.0976 5.7038 20.2206C5.33221 20.2809 4.95587 20.307 4.57952 20.2984C4.39576 20.2907 4.21324 20.2646 4.03468 20.2206C3.85909 20.1838 3.69554 20.1035 3.55902 19.9871C3.50696 19.9242 3.47301 19.8482 3.46082 19.7675C3.44863 19.6867 3.45867 19.6042 3.48984 19.5287C3.54797 19.353 3.62632 19.1847 3.72334 19.0271C3.93036 18.7231 4.15867 18.4341 4.40655 18.1623C4.65735 17.8683 4.9168 17.5915 5.1849 17.2975L6.01514 16.4932ZM6.01514 16.4932C5.44435 17.0034 4.87356 17.5223 4.35467 18.0845C4.0914 18.3674 3.85135 18.6711 3.63686 18.9925C3.52643 19.1587 3.43914 19.339 3.37741 19.5287C3.35857 19.6316 3.35857 19.7371 3.37741 19.8401C3.3696 19.8946 3.3696 19.9499 3.37741 20.0044L3.42065 20.0822C3.43348 20.1058 3.45116 20.1265 3.47254 20.1427C3.62855 20.2785 3.81573 20.3736 4.01738 20.4195C4.20665 20.4701 4.40103 20.4991 4.59682 20.506C4.98474 20.5192 5.373 20.4931 5.75568 20.4281C6.13621 20.3676 6.50809 20.2811 6.87996 20.186C7.25184 20.0909 7.62372 19.9784 7.98694 19.8401C7.99644 19.8373 8.00523 19.8324 8.0127 19.8259C8.02018 19.8194 8.02616 19.8114 8.03026 19.8024C8.03436 19.7933 8.03648 19.7835 8.03646 19.7736C8.03645 19.7637 8.03431 19.7539 8.03019 19.7449L7.85722 19.5806C7.7981 19.5272 7.74317 19.4694 7.69291 19.4077L7.53724 19.2347L7.39021 19.0444C7.29508 18.9147 7.19995 18.785 7.12212 18.6552C7.04428 18.5255 7.03563 18.5169 6.99239 18.4477L6.87131 18.2488C6.54492 17.6845 6.25882 17.0978 6.01514 16.4932Z" fill="#341C66"/>
</g>
<g style="mix-blend-mode:multiply">
<path d="M22.6113 4.6336L23.0005 5.00548L23.3724 5.38601L23.554 5.57626L23.727 5.77518L24.0815 6.18165L24.4102 6.60541C24.5226 6.74378 24.6091 6.8908 24.7129 7.03782L24.8599 7.26269C24.911 7.33443 24.9572 7.40955 24.9982 7.48754L25.2577 7.9459C25.2727 7.95712 25.2909 7.9632 25.3096 7.9632C25.3283 7.9632 25.3465 7.95712 25.3615 7.9459C25.8694 7.40832 26.3322 6.82981 26.7452 6.21624C26.9479 5.89721 27.1105 5.55448 27.2295 5.19575C27.2775 5.00558 27.2775 4.80648 27.2295 4.61631C27.2383 4.5677 27.2383 4.5179 27.2295 4.46928L27.2295 4.39145L27.2295 4.33956C27.1996 4.29539 27.1648 4.25476 27.1257 4.21849C27.086 4.18474 27.0424 4.15572 26.996 4.132C26.8294 4.0333 26.6436 3.97139 26.4512 3.95039C26.2642 3.9332 26.076 3.9332 25.889 3.95039C25.5205 3.96468 25.1535 4.00514 24.7907 4.07147C24.4257 4.13353 24.0647 4.21727 23.7097 4.32226C23.3371 4.40174 22.9702 4.50574 22.6113 4.6336ZM22.6113 4.6336C23.3135 4.42023 24.0303 4.25837 24.7561 4.1493C25.1139 4.09439 25.4752 4.06548 25.8371 4.06281C26.0156 4.04963 26.1948 4.04963 26.3733 4.06281C26.5468 4.08469 26.7143 4.14052 26.8663 4.22713L26.9701 4.29632C26.9981 4.32625 27.0241 4.35803 27.0479 4.39145L27.0479 4.44334L27.0479 4.49523C27.0554 4.53233 27.0554 4.57055 27.0479 4.60766C27.0736 4.7794 27.0557 4.95484 26.996 5.1179C26.8847 5.46034 26.7276 5.78617 26.529 6.08652C26.1317 6.6998 25.6833 7.27841 25.1885 7.81618L25.3096 7.81618L25.0328 7.34916C24.9918 7.27118 24.9456 7.19606 24.8945 7.12431L24.7388 6.89946C24.6264 6.76109 24.5312 6.60542 24.4102 6.46705L24.0729 6.06058C24.0167 5.99041 23.9561 5.92396 23.8913 5.86166L23.701 5.66275L23.5194 5.47249L23.3291 5.28222C23.1994 5.1525 23.0697 5.04007 22.9313 4.919C22.7929 4.79792 22.7497 4.77197 22.6113 4.6336Z" fill="#341C66"/>
</g>
<g style="mix-blend-mode:multiply">
<path d="M25.3253 7.91309L25.1696 8.09469L24.7026 8.58765C24.5066 8.80674 24.2644 9.05754 23.9761 9.34005C23.6821 9.61679 23.3621 9.94542 22.9989 10.2827L22.4281 10.8189L21.8141 11.3724L21.1482 11.9432C20.9233 12.145 20.6898 12.3439 20.4477 12.5399L19.7125 13.1366C19.4617 13.3356 19.2109 13.5431 18.9428 13.7334C18.4239 14.1225 17.8964 14.529 17.3429 14.8923L16.53 15.463C16.2532 15.6446 15.9765 15.8176 15.6651 15.9906C15.3538 16.1635 15.1203 16.3452 14.8436 16.5095L13.9787 16.9765L13.1831 17.4349C12.915 17.5646 12.6555 17.7029 12.4047 17.8327C12.1539 17.9624 11.9031 18.0835 11.661 18.2132C11.4188 18.3429 11.1853 18.4294 10.9518 18.5332L9.71513 19.078L8.73788 19.4499C8.19303 19.6575 7.87305 19.7699 7.87305 19.7699L8.73788 19.4845L9.73242 19.1385C10.1043 18.9915 10.5281 18.8099 10.9864 18.6197C11.2113 18.5245 11.4621 18.4294 11.7042 18.3083C11.9464 18.1872 12.1885 18.0748 12.448 17.9451C12.7074 17.8154 12.9669 17.6856 13.2436 17.5559C13.5204 17.4262 13.7712 17.2619 14.0393 17.1148L14.9041 16.6479C15.1808 16.4835 15.4576 16.3019 15.7689 16.129L16.6338 15.6014C16.9019 15.4111 17.1786 15.2209 17.4986 15.0393C18.0434 14.6674 18.571 14.2523 19.0985 13.8631C19.358 13.6642 19.6088 13.4566 19.8596 13.2577L20.5947 12.6523C21.0703 12.2459 21.5287 11.8567 21.9438 11.4675L22.5578 10.8967L23.12 10.3519C23.4745 10.0146 23.7859 9.67733 24.0713 9.38329C24.3567 9.08925 24.5902 8.8298 24.7804 8.61359C24.9707 8.39739 25.1264 8.21578 25.2215 8.10335L25.3253 7.91309Z" fill="#341C66"/>
</g>
<g style="mix-blend-mode:overlay">
<path d="M10.8711 3.8578C10.8711 3.8578 18.5335 -0.129058 23.757 6.54742C23.757 6.54742 18.3865 0.848198 10.8711 3.8578Z" fill="white"/>
</g>
<g style="mix-blend-mode:multiply" opacity="0.7">
<path d="M12.5215 22.6064C12.5215 22.6064 20.2444 23.8518 24.3004 18.8271C24.3004 18.8271 21.1092 24.6647 12.5215 22.6064Z" fill="#0225C5"/>
</g>
<defs>
<radialGradient id="paint0_radial_1166_42936" cx="0" cy="0" r="1" gradientUnits="userSpaceOnUse" gradientTransform="translate(13.9222 -0.682313) rotate(103.897) scale(21.4489 21.2406)">
<stop stop-color="white"/>
<stop offset="0.4" stop-color="#FEFDFE"/>
<stop offset="0.55" stop-color="#F9F6FA"/>
<stop offset="0.65" stop-color="#F2EBF4"/>
<stop offset="0.73" stop-color="#E7DAEA"/>
<stop offset="0.8" stop-color="#D8C4DE"/>
<stop offset="0.87" stop-color="#C6A8CF"/>
<stop offset="0.92" stop-color="#B188BD"/>
<stop offset="0.98" stop-color="#9A64A9"/>
<stop offset="1" stop-color="#8C4F9E"/>
</radialGradient>
<radialGradient id="paint1_radial_1166_42936" cx="0" cy="0" r="1" gradientUnits="userSpaceOnUse" gradientTransform="translate(20.8644 26.6443) rotate(113.499) scale(23.3989 23.185)">
<stop stop-color="#2B2B2B"/>
<stop offset="0.39" stop-color="#2D2D2D"/>
<stop offset="0.53" stop-color="#343434"/>
<stop offset="0.63" stop-color="#3F3F3F"/>
<stop offset="0.71" stop-color="#505050"/>
<stop offset="0.77" stop-color="#666666"/>
<stop offset="0.84" stop-color="#828282"/>
<stop offset="0.89" stop-color="#A2A2A2"/>
<stop offset="0.94" stop-color="#C8C8C8"/>
<stop offset="0.99" stop-color="#F1F1F1"/>
<stop offset="1" stop-color="white"/>
</radialGradient>
<radialGradient id="paint2_radial_1166_42936" cx="0" cy="0" r="1" gradientUnits="userSpaceOnUse" gradientTransform="translate(16.7188 6.90074) rotate(112.443) scale(33.3232 33.3232)">
<stop offset="0.06" stop-color="#7FCFE6"/>
<stop offset="0.24" stop-color="#7EC6E1"/>
<stop offset="0.55" stop-color="#7BACD4"/>
<stop offset="0.93" stop-color="#7783BE"/>
<stop offset="1" stop-color="#767BBA"/>
</radialGradient>
<radialGradient id="paint3_radial_1166_42936" cx="0" cy="0" r="1" gradientUnits="userSpaceOnUse" gradientTransform="translate(3.67124 9.32322) rotate(103.897) scale(30.445 30.1493)">
<stop stop-color="#2B2B2B"/>
<stop offset="0.39" stop-color="#2D2D2D"/>
<stop offset="0.53" stop-color="#343434"/>
<stop offset="0.63" stop-color="#3F3F3F"/>
<stop offset="0.71" stop-color="#505050"/>
<stop offset="0.77" stop-color="#666666"/>
<stop offset="0.84" stop-color="#828282"/>
<stop offset="0.89" stop-color="#A2A2A2"/>
<stop offset="0.94" stop-color="#C8C8C8"/>
<stop offset="0.99" stop-color="#F1F1F1"/>
<stop offset="1" stop-color="white"/>
</radialGradient>
</defs>
</svg>
