<svg width="52" height="52" viewBox="0 0 52 52" fill="none" xmlns="http://www.w3.org/2000/svg">
<path d="M27.4679 26.0206H26.256V24.8086C26.256 24.5842 26.0741 24.4023 25.8497 24.4023C25.6254 24.4023 25.4435 24.5842 25.4435 24.8086V26.0206H24.2314C24.0071 26.0206 23.8252 26.2024 23.8252 26.4269C23.8252 26.6512 24.0071 26.8331 24.2314 26.8331H25.4435V28.045C25.4435 28.2693 25.6254 28.4512 25.8497 28.4512C26.0741 28.4512 26.256 28.2693 26.256 28.045V26.8331H27.4679C27.6923 26.8331 27.8742 26.6512 27.8742 26.4269C27.8742 26.2024 27.6923 26.0206 27.4679 26.0206Z" fill="#FEBA02"/>
<path d="M12.1707 14.5117C10.5105 14.5117 9.16455 15.8575 9.16455 17.5178C9.16455 19.178 10.5105 20.5238 12.1707 20.5238C13.8309 20.5238 15.1767 19.178 15.1767 17.5178C15.1767 15.8575 13.8309 14.5117 12.1707 14.5117ZM12.4427 18.8821V19.4188H11.928V18.8826C11.4434 18.8078 11.1631 18.513 11.1304 18.1007H11.742C11.7886 18.3183 11.9525 18.4517 12.1993 18.4517C12.5049 18.4517 12.5962 18.3047 12.5962 18.142C12.5962 17.9381 12.4881 17.8394 12.103 17.7267C11.3951 17.5184 11.1876 17.2553 11.1876 16.859C11.1876 16.4286 11.4988 16.1632 11.8998 16.0878V15.6168H12.4112V16.0847C12.9244 16.165 13.1173 16.4813 13.1469 16.8201H12.5349C12.507 16.704 12.4567 16.5148 12.1402 16.5148C11.8834 16.5148 11.8054 16.6673 11.8054 16.7976C11.8054 16.9778 11.9014 17.0588 12.3494 17.1888C12.9708 17.3665 13.2109 17.6206 13.2109 18.0684C13.211 18.549 12.9019 18.8125 12.4427 18.8821Z" fill="black"/>
<path d="M49.0262 27.6992H40.6413V16.2539H42.6675C42.8916 16.2539 43.0738 16.4361 43.0738 16.6601V24.8075C43.0738 25.0318 43.2557 25.2137 43.48 25.2137C43.7044 25.2137 43.8863 25.0318 43.8863 24.8075V16.6601C43.8863 15.9881 43.3396 15.4414 42.6675 15.4414H40.6413V2.7479C40.6413 1.69459 39.7866 0.839844 38.7333 0.839844H14.1171C13.6534 0.839844 13.2265 1.00509 12.8961 1.28144C12.6457 1.48995 12.4497 1.76244 12.3325 2.07332C12.2522 2.28295 12.2091 2.50994 12.2091 2.748V12.9855H2.97367C2.71306 12.9855 2.50171 13.1969 2.50171 13.4575V21.8184V22.6309V23.5489C2.50171 24.5127 3.28303 25.2942 4.24696 25.2942H12.2091V36.5323H9.35738C9.13333 36.5323 8.95113 36.3501 8.95113 36.126V28.0441C8.95113 27.8197 8.76923 27.6378 8.54488 27.6378C8.32053 27.6378 8.13863 27.8197 8.13863 28.0441V36.126C8.13863 36.798 8.68534 37.3448 9.35738 37.3448H12.2091V49.2546C12.2091 50.3079 13.0638 51.1626 14.1171 51.1626H38.7333C39.7866 51.1626 40.6413 50.3079 40.6413 49.2546V40.0079H47.7529C48.7167 40.0079 49.4981 39.2266 49.4981 38.2627V37.3448V36.5323V28.1714C49.4981 27.9105 49.2869 27.6992 49.0262 27.6992ZM28.8604 2.46383H30.4854C30.7098 2.46383 30.8917 2.64573 30.8917 2.87008C30.8917 3.09443 30.7098 3.27633 30.4854 3.27633H28.8604C28.6361 3.27633 28.4542 3.09443 28.4542 2.87008C28.4542 2.64573 28.6361 2.46383 28.8604 2.46383ZM22.3605 2.46383H26.4229C26.6473 2.46383 26.8292 2.64573 26.8292 2.87008C26.8292 3.09443 26.6473 3.27633 26.4229 3.27633H22.3605C22.1362 3.27633 21.9543 3.09443 21.9543 2.87008C21.9543 2.64573 22.1362 2.46383 22.3605 2.46383ZM3.31421 13.7979H21.0271V21.8183H3.31421V13.7979ZM4.24686 24.4815C3.73255 24.4815 3.31411 24.063 3.31411 23.5487V22.6307H21.027V23.5487C21.027 24.063 20.6086 24.4815 20.0943 24.4815H4.24686ZM26.4253 49.1891C25.8803 49.1891 25.4385 48.7473 25.4385 48.2023C25.4385 47.6574 25.8803 47.2156 26.4253 47.2156C26.9701 47.2156 27.4119 47.6574 27.4119 48.2023C27.4118 48.7473 26.9701 49.1891 26.4253 49.1891ZM39.0169 44.8687C39.0169 45.2323 38.7223 45.5259 38.3598 45.5259H14.4865C14.124 45.5259 13.8294 45.2323 13.8294 44.8687V37.3446H21.5394C21.7637 37.3446 21.9456 37.1627 21.9456 36.9383C21.9456 36.714 21.7637 36.5321 21.5394 36.5321H13.8294V25.294H20.0945C21.0582 25.294 21.8397 24.5126 21.8397 23.5487V13.4574C21.8397 13.1966 21.6284 12.9854 21.3677 12.9854H13.8295V6.37053C13.8295 6.00795 14.124 5.71342 14.4866 5.71342H38.36C38.7225 5.71342 39.0171 6.00795 39.0171 6.37053V15.4414H30.4856C30.2613 15.4414 30.0794 15.6233 30.0794 15.8476C30.0794 16.072 30.2613 16.2539 30.4856 16.2539H39.0171V27.6991H30.6325C30.3718 27.6991 30.1605 27.9104 30.1605 28.1711V36.532H30.1604V37.3445H30.1605V38.2624C30.1605 39.2262 30.9418 40.0076 31.9058 40.0076H39.0172V44.8687H39.0169ZM48.6856 38.2626C48.6856 38.7768 48.2672 39.1953 47.7529 39.1953H31.9055C31.3913 39.1953 30.9727 38.7769 30.9727 38.2626V37.3447H48.6855V38.2626H48.6856ZM30.9728 36.5321V28.5116H48.6856V36.5321H30.9728Z" fill="black"/>
<path d="M39.8293 29.2266C38.169 29.2266 36.8232 30.5725 36.8232 32.2327C36.8232 33.893 38.169 35.2388 39.8293 35.2388C41.4895 35.2388 42.8354 33.893 42.8354 32.2327C42.8354 30.5725 41.4895 29.2266 39.8293 29.2266ZM40.1014 33.5969V34.1337H39.5867V33.5974C39.1021 33.5228 38.8218 33.2277 38.789 32.8157H39.4007C39.4473 33.0331 39.6112 33.1666 39.858 33.1666C40.1636 33.1666 40.2549 33.0196 40.2549 32.8569C40.2549 32.653 40.1468 32.5543 39.7616 32.4415C39.0538 32.2332 38.8462 31.9702 38.8462 31.5739C38.8462 31.1435 39.1575 30.8781 39.5585 30.8025V30.3316H40.0699V30.7995C40.5831 30.8797 40.776 31.196 40.8055 31.5349H40.1936C40.1657 31.4187 40.1154 31.2296 39.7989 31.2295C39.5421 31.2295 39.4641 31.3819 39.4641 31.5122C39.4641 31.6924 39.56 31.7735 40.008 31.9035C40.6295 32.0812 40.8695 32.3354 40.8695 32.7831C40.8696 33.264 40.5605 33.5274 40.1014 33.5969Z" fill="#FEBA02"/>
<path d="M28.0097 15.4414H24.8071C24.5828 15.4414 24.4009 15.6233 24.4009 15.8477C24.4009 16.072 24.5828 16.2539 24.8071 16.2539H28.0097C28.2341 16.2539 28.4159 16.072 28.4159 15.8477C28.4159 15.6233 28.2341 15.4414 28.0097 15.4414Z" fill="#FEBA02"/>
<path d="M27.2178 36.5312H24.0151C23.7908 36.5312 23.6089 36.7131 23.6089 36.9375C23.6089 37.1619 23.7908 37.3438 24.0151 37.3438H27.2178C27.4422 37.3438 27.6241 37.1619 27.6241 36.9375C27.6241 36.7131 27.4422 36.5312 27.2178 36.5312Z" fill="#FEBA02"/>
</svg>
